<?xml version="1.0" encoding="utf-8" standalone="no"?>
<!DOCTYPE svg PUBLIC "-//W3C//DTD SVG 1.1//EN"
  "http://www.w3.org/Graphics/SVG/1.1/DTD/svg11.dtd">
<svg xmlns:xlink="http://www.w3.org/1999/xlink" width="763.5pt" height="477.1875pt" viewBox="0 0 763.5 477.1875" xmlns="http://www.w3.org/2000/svg" version="1.1">
 <metadata>
  <rdf:RDF xmlns:dc="http://purl.org/dc/elements/1.1/" xmlns:cc="http://creativecommons.org/ns#" xmlns:rdf="http://www.w3.org/1999/02/22-rdf-syntax-ns#">
   <cc:Work>
    <dc:type rdf:resource="http://purl.org/dc/dcmitype/StillImage"/>
    <dc:date>2026-04-06T12:18:40.574350</dc:date>
    <dc:format>image/svg+xml</dc:format>
    <dc:creator>
     <cc:Agent>
      <dc:title>Matplotlib v3.10.8, https://matplotlib.org/</dc:title>
     </cc:Agent>
    </dc:creator>
   </cc:Work>
  </rdf:RDF>
 </metadata>
 <defs>
  <style type="text/css">*{stroke-linejoin: round; stroke-linecap: butt}</style>
 </defs>
 <g id="figure_1">
  <g id="patch_1">
   <path d="M 0 477.1875 
L 763.5 477.1875 
L 763.5 0 
L 0 0 
z
" style="fill: #121622"/>
  </g>
  <g id="axes_1">
   <g id="patch_2">
    <path d="M 47.58125 435.8875 
L 752.7 435.8875 
L 752.7 25.8 
L 47.58125 25.8 
z
" style="fill: #121622"/>
   </g>
   <g id="matplotlib.axis_1">
    <g id="xtick_1">
     <g id="line2d_1">
      <path d="M 119.695668 435.8875 
L 119.695668 25.8 
" clip-path="url(#p88f7882ceb)" style="fill: none; stroke: #30333e; stroke-width: 0.6; stroke-linecap: square"/>
     </g>
     <g id="line2d_2">
      <defs>
       <path id="m9978cbe068" d="M 0 0 
L 0 3.5 
" style="stroke: #e0e0e0; stroke-width: 0.8"/>
      </defs>
      <g>
       <use xlink:href="#m9978cbe068" x="119.695668" y="435.8875" style="fill: #e0e0e0; stroke: #e0e0e0; stroke-width: 0.8"/>
      </g>
     </g>
     <g id="text_1">
      <!-- 64 B -->
      <g style="fill: #e0e0e0" transform="translate(108.313636 450.485937) scale(0.1 -0.1)">
       <defs>
        <path id="DejaVuSans-36" d="M 2113 2584 
Q 1688 2584 1439 2293 
Q 1191 2003 1191 1497 
Q 1191 994 1439 701 
Q 1688 409 2113 409 
Q 2538 409 2786 701 
Q 3034 994 3034 1497 
Q 3034 2003 2786 2293 
Q 2538 2584 2113 2584 
z
M 3366 4563 
L 3366 3988 
Q 3128 4100 2886 4159 
Q 2644 4219 2406 4219 
Q 1781 4219 1451 3797 
Q 1122 3375 1075 2522 
Q 1259 2794 1537 2939 
Q 1816 3084 2150 3084 
Q 2853 3084 3261 2657 
Q 3669 2231 3669 1497 
Q 3669 778 3244 343 
Q 2819 -91 2113 -91 
Q 1303 -91 875 529 
Q 447 1150 447 2328 
Q 447 3434 972 4092 
Q 1497 4750 2381 4750 
Q 2619 4750 2861 4703 
Q 3103 4656 3366 4563 
z
" transform="scale(0.015625)"/>
        <path id="DejaVuSans-34" d="M 2419 4116 
L 825 1625 
L 2419 1625 
L 2419 4116 
z
M 2253 4666 
L 3047 4666 
L 3047 1625 
L 3713 1625 
L 3713 1100 
L 3047 1100 
L 3047 0 
L 2419 0 
L 2419 1100 
L 313 1100 
L 313 1709 
L 2253 4666 
z
" transform="scale(0.015625)"/>
        <path id="DejaVuSans-20" transform="scale(0.015625)"/>
        <path id="DejaVuSans-42" d="M 1259 2228 
L 1259 519 
L 2272 519 
Q 2781 519 3026 730 
Q 3272 941 3272 1375 
Q 3272 1813 3026 2020 
Q 2781 2228 2272 2228 
L 1259 2228 
z
M 1259 4147 
L 1259 2741 
L 2194 2741 
Q 2656 2741 2882 2914 
Q 3109 3088 3109 3444 
Q 3109 3797 2882 3972 
Q 2656 4147 2194 4147 
L 1259 4147 
z
M 628 4666 
L 2241 4666 
Q 2963 4666 3353 4366 
Q 3744 4066 3744 3513 
Q 3744 3084 3544 2831 
Q 3344 2578 2956 2516 
Q 3422 2416 3680 2098 
Q 3938 1781 3938 1306 
Q 3938 681 3513 340 
Q 3088 0 2303 0 
L 628 0 
L 628 4666 
z
" transform="scale(0.015625)"/>
       </defs>
       <use xlink:href="#DejaVuSans-36"/>
       <use xlink:href="#DejaVuSans-34" transform="translate(63.623047 0)"/>
       <use xlink:href="#DejaVuSans-20" transform="translate(127.246094 0)"/>
       <use xlink:href="#DejaVuSans-42" transform="translate(159.033203 0)"/>
      </g>
     </g>
    </g>
    <g id="xtick_2">
     <g id="line2d_3">
      <path d="M 199.822798 435.8875 
L 199.822798 25.8 
" clip-path="url(#p88f7882ceb)" style="fill: none; stroke: #30333e; stroke-width: 0.6; stroke-linecap: square"/>
     </g>
     <g id="line2d_4">
      <g>
       <use xlink:href="#m9978cbe068" x="199.822798" y="435.8875" style="fill: #e0e0e0; stroke: #e0e0e0; stroke-width: 0.8"/>
      </g>
     </g>
     <g id="text_2">
      <!-- 256 B -->
      <g style="fill: #e0e0e0" transform="translate(185.259517 450.485937) scale(0.1 -0.1)">
       <defs>
        <path id="DejaVuSans-32" d="M 1228 531 
L 3431 531 
L 3431 0 
L 469 0 
L 469 531 
Q 828 903 1448 1529 
Q 2069 2156 2228 2338 
Q 2531 2678 2651 2914 
Q 2772 3150 2772 3378 
Q 2772 3750 2511 3984 
Q 2250 4219 1831 4219 
Q 1534 4219 1204 4116 
Q 875 4013 500 3803 
L 500 4441 
Q 881 4594 1212 4672 
Q 1544 4750 1819 4750 
Q 2544 4750 2975 4387 
Q 3406 4025 3406 3419 
Q 3406 3131 3298 2873 
Q 3191 2616 2906 2266 
Q 2828 2175 2409 1742 
Q 1991 1309 1228 531 
z
" transform="scale(0.015625)"/>
        <path id="DejaVuSans-35" d="M 691 4666 
L 3169 4666 
L 3169 4134 
L 1269 4134 
L 1269 2991 
Q 1406 3038 1543 3061 
Q 1681 3084 1819 3084 
Q 2600 3084 3056 2656 
Q 3513 2228 3513 1497 
Q 3513 744 3044 326 
Q 2575 -91 1722 -91 
Q 1428 -91 1123 -41 
Q 819 9 494 109 
L 494 744 
Q 775 591 1075 516 
Q 1375 441 1709 441 
Q 2250 441 2565 725 
Q 2881 1009 2881 1497 
Q 2881 1984 2565 2268 
Q 2250 2553 1709 2553 
Q 1456 2553 1204 2497 
Q 953 2441 691 2322 
L 691 4666 
z
" transform="scale(0.015625)"/>
       </defs>
       <use xlink:href="#DejaVuSans-32"/>
       <use xlink:href="#DejaVuSans-35" transform="translate(63.623047 0)"/>
       <use xlink:href="#DejaVuSans-36" transform="translate(127.246094 0)"/>
       <use xlink:href="#DejaVuSans-20" transform="translate(190.869141 0)"/>
       <use xlink:href="#DejaVuSans-42" transform="translate(222.65625 0)"/>
      </g>
     </g>
    </g>
    <g id="xtick_3">
     <g id="line2d_5">
      <path d="M 279.949929 435.8875 
L 279.949929 25.8 
" clip-path="url(#p88f7882ceb)" style="fill: none; stroke: #30333e; stroke-width: 0.6; stroke-linecap: square"/>
     </g>
     <g id="line2d_6">
      <g>
       <use xlink:href="#m9978cbe068" x="279.949929" y="435.8875" style="fill: #e0e0e0; stroke: #e0e0e0; stroke-width: 0.8"/>
      </g>
     </g>
     <g id="text_3">
      <!-- 1 KB -->
      <g style="fill: #e0e0e0" transform="translate(268.470241 450.485937) scale(0.1 -0.1)">
       <defs>
        <path id="DejaVuSans-31" d="M 794 531 
L 1825 531 
L 1825 4091 
L 703 3866 
L 703 4441 
L 1819 4666 
L 2450 4666 
L 2450 531 
L 3481 531 
L 3481 0 
L 794 0 
L 794 531 
z
" transform="scale(0.015625)"/>
        <path id="DejaVuSans-4b" d="M 628 4666 
L 1259 4666 
L 1259 2694 
L 3353 4666 
L 4166 4666 
L 1850 2491 
L 4331 0 
L 3500 0 
L 1259 2247 
L 1259 0 
L 628 0 
L 628 4666 
z
" transform="scale(0.015625)"/>
       </defs>
       <use xlink:href="#DejaVuSans-31"/>
       <use xlink:href="#DejaVuSans-20" transform="translate(63.623047 0)"/>
       <use xlink:href="#DejaVuSans-4b" transform="translate(95.410156 0)"/>
       <use xlink:href="#DejaVuSans-42" transform="translate(160.986328 0)"/>
      </g>
     </g>
    </g>
    <g id="xtick_4">
     <g id="line2d_7">
      <path d="M 360.07706 435.8875 
L 360.07706 25.8 
" clip-path="url(#p88f7882ceb)" style="fill: none; stroke: #30333e; stroke-width: 0.6; stroke-linecap: square"/>
     </g>
     <g id="line2d_8">
      <g>
       <use xlink:href="#m9978cbe068" x="360.07706" y="435.8875" style="fill: #e0e0e0; stroke: #e0e0e0; stroke-width: 0.8"/>
      </g>
     </g>
     <g id="text_4">
      <!-- 4 KB -->
      <g style="fill: #e0e0e0" transform="translate(348.597372 450.485937) scale(0.1 -0.1)">
       <use xlink:href="#DejaVuSans-34"/>
       <use xlink:href="#DejaVuSans-20" transform="translate(63.623047 0)"/>
       <use xlink:href="#DejaVuSans-4b" transform="translate(95.410156 0)"/>
       <use xlink:href="#DejaVuSans-42" transform="translate(160.986328 0)"/>
      </g>
     </g>
    </g>
    <g id="xtick_5">
     <g id="line2d_9">
      <path d="M 440.20419 435.8875 
L 440.20419 25.8 
" clip-path="url(#p88f7882ceb)" style="fill: none; stroke: #30333e; stroke-width: 0.6; stroke-linecap: square"/>
     </g>
     <g id="line2d_10">
      <g>
       <use xlink:href="#m9978cbe068" x="440.20419" y="435.8875" style="fill: #e0e0e0; stroke: #e0e0e0; stroke-width: 0.8"/>
      </g>
     </g>
     <g id="text_5">
      <!-- 16 KB -->
      <g style="fill: #e0e0e0" transform="translate(425.543253 450.485937) scale(0.1 -0.1)">
       <use xlink:href="#DejaVuSans-31"/>
       <use xlink:href="#DejaVuSans-36" transform="translate(63.623047 0)"/>
       <use xlink:href="#DejaVuSans-20" transform="translate(127.246094 0)"/>
       <use xlink:href="#DejaVuSans-4b" transform="translate(159.033203 0)"/>
       <use xlink:href="#DejaVuSans-42" transform="translate(224.609375 0)"/>
      </g>
     </g>
    </g>
    <g id="xtick_6">
     <g id="line2d_11">
      <path d="M 520.331321 435.8875 
L 520.331321 25.8 
" clip-path="url(#p88f7882ceb)" style="fill: none; stroke: #30333e; stroke-width: 0.6; stroke-linecap: square"/>
     </g>
     <g id="line2d_12">
      <g>
       <use xlink:href="#m9978cbe068" x="520.331321" y="435.8875" style="fill: #e0e0e0; stroke: #e0e0e0; stroke-width: 0.8"/>
      </g>
     </g>
     <g id="text_6">
      <!-- 64 KB -->
      <g style="fill: #e0e0e0" transform="translate(505.670384 450.485937) scale(0.1 -0.1)">
       <use xlink:href="#DejaVuSans-36"/>
       <use xlink:href="#DejaVuSans-34" transform="translate(63.623047 0)"/>
       <use xlink:href="#DejaVuSans-20" transform="translate(127.246094 0)"/>
       <use xlink:href="#DejaVuSans-4b" transform="translate(159.033203 0)"/>
       <use xlink:href="#DejaVuSans-42" transform="translate(224.609375 0)"/>
      </g>
     </g>
    </g>
    <g id="xtick_7">
     <g id="line2d_13">
      <path d="M 600.458452 435.8875 
L 600.458452 25.8 
" clip-path="url(#p88f7882ceb)" style="fill: none; stroke: #30333e; stroke-width: 0.6; stroke-linecap: square"/>
     </g>
     <g id="line2d_14">
      <g>
       <use xlink:href="#m9978cbe068" x="600.458452" y="435.8875" style="fill: #e0e0e0; stroke: #e0e0e0; stroke-width: 0.8"/>
      </g>
     </g>
     <g id="text_7">
      <!-- 256 KB -->
      <g style="fill: #e0e0e0" transform="translate(582.616264 450.485937) scale(0.1 -0.1)">
       <use xlink:href="#DejaVuSans-32"/>
       <use xlink:href="#DejaVuSans-35" transform="translate(63.623047 0)"/>
       <use xlink:href="#DejaVuSans-36" transform="translate(127.246094 0)"/>
       <use xlink:href="#DejaVuSans-20" transform="translate(190.869141 0)"/>
       <use xlink:href="#DejaVuSans-4b" transform="translate(222.65625 0)"/>
       <use xlink:href="#DejaVuSans-42" transform="translate(288.232422 0)"/>
      </g>
     </g>
    </g>
    <g id="xtick_8">
     <g id="line2d_15">
      <path d="M 680.585582 435.8875 
L 680.585582 25.8 
" clip-path="url(#p88f7882ceb)" style="fill: none; stroke: #30333e; stroke-width: 0.6; stroke-linecap: square"/>
     </g>
     <g id="line2d_16">
      <g>
       <use xlink:href="#m9978cbe068" x="680.585582" y="435.8875" style="fill: #e0e0e0; stroke: #e0e0e0; stroke-width: 0.8"/>
      </g>
     </g>
     <g id="text_8">
      <!-- 1 MB -->
      <g style="fill: #e0e0e0" transform="translate(668.070739 450.485937) scale(0.1 -0.1)">
       <defs>
        <path id="DejaVuSans-4d" d="M 628 4666 
L 1569 4666 
L 2759 1491 
L 3956 4666 
L 4897 4666 
L 4897 0 
L 4281 0 
L 4281 4097 
L 3078 897 
L 2444 897 
L 1241 4097 
L 1241 0 
L 628 0 
L 628 4666 
z
" transform="scale(0.015625)"/>
       </defs>
       <use xlink:href="#DejaVuSans-31"/>
       <use xlink:href="#DejaVuSans-20" transform="translate(63.623047 0)"/>
       <use xlink:href="#DejaVuSans-4d" transform="translate(95.410156 0)"/>
       <use xlink:href="#DejaVuSans-42" transform="translate(181.689453 0)"/>
      </g>
     </g>
    </g>
    <g id="text_9">
     <!-- Block size -->
     <g style="fill: #e0e0e0" transform="translate(375.333594 464.164062) scale(0.1 -0.1)">
      <defs>
       <path id="DejaVuSans-6c" d="M 603 4863 
L 1178 4863 
L 1178 0 
L 603 0 
L 603 4863 
z
" transform="scale(0.015625)"/>
       <path id="DejaVuSans-6f" d="M 1959 3097 
Q 1497 3097 1228 2736 
Q 959 2375 959 1747 
Q 959 1119 1226 758 
Q 1494 397 1959 397 
Q 2419 397 2687 759 
Q 2956 1122 2956 1747 
Q 2956 2369 2687 2733 
Q 2419 3097 1959 3097 
z
M 1959 3584 
Q 2709 3584 3137 3096 
Q 3566 2609 3566 1747 
Q 3566 888 3137 398 
Q 2709 -91 1959 -91 
Q 1206 -91 779 398 
Q 353 888 353 1747 
Q 353 2609 779 3096 
Q 1206 3584 1959 3584 
z
" transform="scale(0.015625)"/>
       <path id="DejaVuSans-63" d="M 3122 3366 
L 3122 2828 
Q 2878 2963 2633 3030 
Q 2388 3097 2138 3097 
Q 1578 3097 1268 2742 
Q 959 2388 959 1747 
Q 959 1106 1268 751 
Q 1578 397 2138 397 
Q 2388 397 2633 464 
Q 2878 531 3122 666 
L 3122 134 
Q 2881 22 2623 -34 
Q 2366 -91 2075 -91 
Q 1284 -91 818 406 
Q 353 903 353 1747 
Q 353 2603 823 3093 
Q 1294 3584 2113 3584 
Q 2378 3584 2631 3529 
Q 2884 3475 3122 3366 
z
" transform="scale(0.015625)"/>
       <path id="DejaVuSans-6b" d="M 581 4863 
L 1159 4863 
L 1159 1991 
L 2875 3500 
L 3609 3500 
L 1753 1863 
L 3688 0 
L 2938 0 
L 1159 1709 
L 1159 0 
L 581 0 
L 581 4863 
z
" transform="scale(0.015625)"/>
       <path id="DejaVuSans-73" d="M 2834 3397 
L 2834 2853 
Q 2591 2978 2328 3040 
Q 2066 3103 1784 3103 
Q 1356 3103 1142 2972 
Q 928 2841 928 2578 
Q 928 2378 1081 2264 
Q 1234 2150 1697 2047 
L 1894 2003 
Q 2506 1872 2764 1633 
Q 3022 1394 3022 966 
Q 3022 478 2636 193 
Q 2250 -91 1575 -91 
Q 1294 -91 989 -36 
Q 684 19 347 128 
L 347 722 
Q 666 556 975 473 
Q 1284 391 1588 391 
Q 1994 391 2212 530 
Q 2431 669 2431 922 
Q 2431 1156 2273 1281 
Q 2116 1406 1581 1522 
L 1381 1569 
Q 847 1681 609 1914 
Q 372 2147 372 2553 
Q 372 3047 722 3315 
Q 1072 3584 1716 3584 
Q 2034 3584 2315 3537 
Q 2597 3491 2834 3397 
z
" transform="scale(0.015625)"/>
       <path id="DejaVuSans-69" d="M 603 3500 
L 1178 3500 
L 1178 0 
L 603 0 
L 603 3500 
z
M 603 4863 
L 1178 4863 
L 1178 4134 
L 603 4134 
L 603 4863 
z
" transform="scale(0.015625)"/>
       <path id="DejaVuSans-7a" d="M 353 3500 
L 3084 3500 
L 3084 2975 
L 922 459 
L 3084 459 
L 3084 0 
L 275 0 
L 275 525 
L 2438 3041 
L 353 3041 
L 353 3500 
z
" transform="scale(0.015625)"/>
       <path id="DejaVuSans-65" d="M 3597 1894 
L 3597 1613 
L 953 1613 
Q 991 1019 1311 708 
Q 1631 397 2203 397 
Q 2534 397 2845 478 
Q 3156 559 3463 722 
L 3463 178 
Q 3153 47 2828 -22 
Q 2503 -91 2169 -91 
Q 1331 -91 842 396 
Q 353 884 353 1716 
Q 353 2575 817 3079 
Q 1281 3584 2069 3584 
Q 2775 3584 3186 3129 
Q 3597 2675 3597 1894 
z
M 3022 2063 
Q 3016 2534 2758 2815 
Q 2500 3097 2075 3097 
Q 1594 3097 1305 2825 
Q 1016 2553 972 2059 
L 3022 2063 
z
" transform="scale(0.015625)"/>
      </defs>
      <use xlink:href="#DejaVuSans-42"/>
      <use xlink:href="#DejaVuSans-6c" transform="translate(68.603516 0)"/>
      <use xlink:href="#DejaVuSans-6f" transform="translate(96.386719 0)"/>
      <use xlink:href="#DejaVuSans-63" transform="translate(157.568359 0)"/>
      <use xlink:href="#DejaVuSans-6b" transform="translate(212.548828 0)"/>
      <use xlink:href="#DejaVuSans-20" transform="translate(270.458984 0)"/>
      <use xlink:href="#DejaVuSans-73" transform="translate(302.246094 0)"/>
      <use xlink:href="#DejaVuSans-69" transform="translate(354.345703 0)"/>
      <use xlink:href="#DejaVuSans-7a" transform="translate(382.128906 0)"/>
      <use xlink:href="#DejaVuSans-65" transform="translate(434.619141 0)"/>
     </g>
    </g>
   </g>
   <g id="matplotlib.axis_2">
    <g id="ytick_1">
     <g id="line2d_17">
      <path d="M 47.58125 435.8875 
L 752.7 435.8875 
" clip-path="url(#p88f7882ceb)" style="fill: none; stroke: #30333e; stroke-width: 0.6; stroke-linecap: square"/>
     </g>
     <g id="line2d_18">
      <defs>
       <path id="mee3397e956" d="M 0 0 
L -3.5 0 
" style="stroke: #e0e0e0; stroke-width: 0.8"/>
      </defs>
      <g>
       <use xlink:href="#mee3397e956" x="47.58125" y="435.8875" style="fill: #e0e0e0; stroke: #e0e0e0; stroke-width: 0.8"/>
      </g>
     </g>
     <g id="text_10">
      <!-- 0.0 -->
      <g style="fill: #e0e0e0" transform="translate(24.678125 439.686719) scale(0.1 -0.1)">
       <defs>
        <path id="DejaVuSans-30" d="M 2034 4250 
Q 1547 4250 1301 3770 
Q 1056 3291 1056 2328 
Q 1056 1369 1301 889 
Q 1547 409 2034 409 
Q 2525 409 2770 889 
Q 3016 1369 3016 2328 
Q 3016 3291 2770 3770 
Q 2525 4250 2034 4250 
z
M 2034 4750 
Q 2819 4750 3233 4129 
Q 3647 3509 3647 2328 
Q 3647 1150 3233 529 
Q 2819 -91 2034 -91 
Q 1250 -91 836 529 
Q 422 1150 422 2328 
Q 422 3509 836 4129 
Q 1250 4750 2034 4750 
z
" transform="scale(0.015625)"/>
        <path id="DejaVuSans-2e" d="M 684 794 
L 1344 794 
L 1344 0 
L 684 0 
L 684 794 
z
" transform="scale(0.015625)"/>
       </defs>
       <use xlink:href="#DejaVuSans-30"/>
       <use xlink:href="#DejaVuSans-2e" transform="translate(63.623047 0)"/>
       <use xlink:href="#DejaVuSans-30" transform="translate(95.410156 0)"/>
      </g>
     </g>
    </g>
    <g id="ytick_2">
     <g id="line2d_19">
      <path d="M 47.58125 357.775595 
L 752.7 357.775595 
" clip-path="url(#p88f7882ceb)" style="fill: none; stroke: #30333e; stroke-width: 0.6; stroke-linecap: square"/>
     </g>
     <g id="line2d_20">
      <g>
       <use xlink:href="#mee3397e956" x="47.58125" y="357.775595" style="fill: #e0e0e0; stroke: #e0e0e0; stroke-width: 0.8"/>
      </g>
     </g>
     <g id="text_11">
      <!-- 0.2 -->
      <g style="fill: #e0e0e0" transform="translate(24.678125 361.574814) scale(0.1 -0.1)">
       <use xlink:href="#DejaVuSans-30"/>
       <use xlink:href="#DejaVuSans-2e" transform="translate(63.623047 0)"/>
       <use xlink:href="#DejaVuSans-32" transform="translate(95.410156 0)"/>
      </g>
     </g>
    </g>
    <g id="ytick_3">
     <g id="line2d_21">
      <path d="M 47.58125 279.66369 
L 752.7 279.66369 
" clip-path="url(#p88f7882ceb)" style="fill: none; stroke: #30333e; stroke-width: 0.6; stroke-linecap: square"/>
     </g>
     <g id="line2d_22">
      <g>
       <use xlink:href="#mee3397e956" x="47.58125" y="279.66369" style="fill: #e0e0e0; stroke: #e0e0e0; stroke-width: 0.8"/>
      </g>
     </g>
     <g id="text_12">
      <!-- 0.4 -->
      <g style="fill: #e0e0e0" transform="translate(24.678125 283.462909) scale(0.1 -0.1)">
       <use xlink:href="#DejaVuSans-30"/>
       <use xlink:href="#DejaVuSans-2e" transform="translate(63.623047 0)"/>
       <use xlink:href="#DejaVuSans-34" transform="translate(95.410156 0)"/>
      </g>
     </g>
    </g>
    <g id="ytick_4">
     <g id="line2d_23">
      <path d="M 47.58125 201.551786 
L 752.7 201.551786 
" clip-path="url(#p88f7882ceb)" style="fill: none; stroke: #30333e; stroke-width: 0.6; stroke-linecap: square"/>
     </g>
     <g id="line2d_24">
      <g>
       <use xlink:href="#mee3397e956" x="47.58125" y="201.551786" style="fill: #e0e0e0; stroke: #e0e0e0; stroke-width: 0.8"/>
      </g>
     </g>
     <g id="text_13">
      <!-- 0.6 -->
      <g style="fill: #e0e0e0" transform="translate(24.678125 205.351004) scale(0.1 -0.1)">
       <use xlink:href="#DejaVuSans-30"/>
       <use xlink:href="#DejaVuSans-2e" transform="translate(63.623047 0)"/>
       <use xlink:href="#DejaVuSans-36" transform="translate(95.410156 0)"/>
      </g>
     </g>
    </g>
    <g id="ytick_5">
     <g id="line2d_25">
      <path d="M 47.58125 123.439881 
L 752.7 123.439881 
" clip-path="url(#p88f7882ceb)" style="fill: none; stroke: #30333e; stroke-width: 0.6; stroke-linecap: square"/>
     </g>
     <g id="line2d_26">
      <g>
       <use xlink:href="#mee3397e956" x="47.58125" y="123.439881" style="fill: #e0e0e0; stroke: #e0e0e0; stroke-width: 0.8"/>
      </g>
     </g>
     <g id="text_14">
      <!-- 0.8 -->
      <g style="fill: #e0e0e0" transform="translate(24.678125 127.2391) scale(0.1 -0.1)">
       <defs>
        <path id="DejaVuSans-38" d="M 2034 2216 
Q 1584 2216 1326 1975 
Q 1069 1734 1069 1313 
Q 1069 891 1326 650 
Q 1584 409 2034 409 
Q 2484 409 2743 651 
Q 3003 894 3003 1313 
Q 3003 1734 2745 1975 
Q 2488 2216 2034 2216 
z
M 1403 2484 
Q 997 2584 770 2862 
Q 544 3141 544 3541 
Q 544 4100 942 4425 
Q 1341 4750 2034 4750 
Q 2731 4750 3128 4425 
Q 3525 4100 3525 3541 
Q 3525 3141 3298 2862 
Q 3072 2584 2669 2484 
Q 3125 2378 3379 2068 
Q 3634 1759 3634 1313 
Q 3634 634 3220 271 
Q 2806 -91 2034 -91 
Q 1263 -91 848 271 
Q 434 634 434 1313 
Q 434 1759 690 2068 
Q 947 2378 1403 2484 
z
M 1172 3481 
Q 1172 3119 1398 2916 
Q 1625 2713 2034 2713 
Q 2441 2713 2670 2916 
Q 2900 3119 2900 3481 
Q 2900 3844 2670 4047 
Q 2441 4250 2034 4250 
Q 1625 4250 1398 4047 
Q 1172 3844 1172 3481 
z
" transform="scale(0.015625)"/>
       </defs>
       <use xlink:href="#DejaVuSans-30"/>
       <use xlink:href="#DejaVuSans-2e" transform="translate(63.623047 0)"/>
       <use xlink:href="#DejaVuSans-38" transform="translate(95.410156 0)"/>
      </g>
     </g>
    </g>
    <g id="ytick_6">
     <g id="line2d_27">
      <path d="M 47.58125 45.327976 
L 752.7 45.327976 
" clip-path="url(#p88f7882ceb)" style="fill: none; stroke: #30333e; stroke-width: 0.6; stroke-linecap: square"/>
     </g>
     <g id="line2d_28">
      <g>
       <use xlink:href="#mee3397e956" x="47.58125" y="45.327976" style="fill: #e0e0e0; stroke: #e0e0e0; stroke-width: 0.8"/>
      </g>
     </g>
     <g id="text_15">
      <!-- 1.0 -->
      <g style="fill: #e0e0e0" transform="translate(24.678125 49.127195) scale(0.1 -0.1)">
       <use xlink:href="#DejaVuSans-31"/>
       <use xlink:href="#DejaVuSans-2e" transform="translate(63.623047 0)"/>
       <use xlink:href="#DejaVuSans-30" transform="translate(95.410156 0)"/>
      </g>
     </g>
    </g>
    <g id="text_16">
     <!-- Normalized throughput -->
     <g style="fill: #e0e0e0" transform="translate(18.598437 288.734375) rotate(-90) scale(0.1 -0.1)">
      <defs>
       <path id="DejaVuSans-4e" d="M 628 4666 
L 1478 4666 
L 3547 763 
L 3547 4666 
L 4159 4666 
L 4159 0 
L 3309 0 
L 1241 3903 
L 1241 0 
L 628 0 
L 628 4666 
z
" transform="scale(0.015625)"/>
       <path id="DejaVuSans-72" d="M 2631 2963 
Q 2534 3019 2420 3045 
Q 2306 3072 2169 3072 
Q 1681 3072 1420 2755 
Q 1159 2438 1159 1844 
L 1159 0 
L 581 0 
L 581 3500 
L 1159 3500 
L 1159 2956 
Q 1341 3275 1631 3429 
Q 1922 3584 2338 3584 
Q 2397 3584 2469 3576 
Q 2541 3569 2628 3553 
L 2631 2963 
z
" transform="scale(0.015625)"/>
       <path id="DejaVuSans-6d" d="M 3328 2828 
Q 3544 3216 3844 3400 
Q 4144 3584 4550 3584 
Q 5097 3584 5394 3201 
Q 5691 2819 5691 2113 
L 5691 0 
L 5113 0 
L 5113 2094 
Q 5113 2597 4934 2840 
Q 4756 3084 4391 3084 
Q 3944 3084 3684 2787 
Q 3425 2491 3425 1978 
L 3425 0 
L 2847 0 
L 2847 2094 
Q 2847 2600 2669 2842 
Q 2491 3084 2119 3084 
Q 1678 3084 1418 2786 
Q 1159 2488 1159 1978 
L 1159 0 
L 581 0 
L 581 3500 
L 1159 3500 
L 1159 2956 
Q 1356 3278 1631 3431 
Q 1906 3584 2284 3584 
Q 2666 3584 2933 3390 
Q 3200 3197 3328 2828 
z
" transform="scale(0.015625)"/>
       <path id="DejaVuSans-61" d="M 2194 1759 
Q 1497 1759 1228 1600 
Q 959 1441 959 1056 
Q 959 750 1161 570 
Q 1363 391 1709 391 
Q 2188 391 2477 730 
Q 2766 1069 2766 1631 
L 2766 1759 
L 2194 1759 
z
M 3341 1997 
L 3341 0 
L 2766 0 
L 2766 531 
Q 2569 213 2275 61 
Q 1981 -91 1556 -91 
Q 1019 -91 701 211 
Q 384 513 384 1019 
Q 384 1609 779 1909 
Q 1175 2209 1959 2209 
L 2766 2209 
L 2766 2266 
Q 2766 2663 2505 2880 
Q 2244 3097 1772 3097 
Q 1472 3097 1187 3025 
Q 903 2953 641 2809 
L 641 3341 
Q 956 3463 1253 3523 
Q 1550 3584 1831 3584 
Q 2591 3584 2966 3190 
Q 3341 2797 3341 1997 
z
" transform="scale(0.015625)"/>
       <path id="DejaVuSans-64" d="M 2906 2969 
L 2906 4863 
L 3481 4863 
L 3481 0 
L 2906 0 
L 2906 525 
Q 2725 213 2448 61 
Q 2172 -91 1784 -91 
Q 1150 -91 751 415 
Q 353 922 353 1747 
Q 353 2572 751 3078 
Q 1150 3584 1784 3584 
Q 2172 3584 2448 3432 
Q 2725 3281 2906 2969 
z
M 947 1747 
Q 947 1113 1208 752 
Q 1469 391 1925 391 
Q 2381 391 2643 752 
Q 2906 1113 2906 1747 
Q 2906 2381 2643 2742 
Q 2381 3103 1925 3103 
Q 1469 3103 1208 2742 
Q 947 2381 947 1747 
z
" transform="scale(0.015625)"/>
       <path id="DejaVuSans-74" d="M 1172 4494 
L 1172 3500 
L 2356 3500 
L 2356 3053 
L 1172 3053 
L 1172 1153 
Q 1172 725 1289 603 
Q 1406 481 1766 481 
L 2356 481 
L 2356 0 
L 1766 0 
Q 1100 0 847 248 
Q 594 497 594 1153 
L 594 3053 
L 172 3053 
L 172 3500 
L 594 3500 
L 594 4494 
L 1172 4494 
z
" transform="scale(0.015625)"/>
       <path id="DejaVuSans-68" d="M 3513 2113 
L 3513 0 
L 2938 0 
L 2938 2094 
Q 2938 2591 2744 2837 
Q 2550 3084 2163 3084 
Q 1697 3084 1428 2787 
Q 1159 2491 1159 1978 
L 1159 0 
L 581 0 
L 581 4863 
L 1159 4863 
L 1159 2956 
Q 1366 3272 1645 3428 
Q 1925 3584 2291 3584 
Q 2894 3584 3203 3211 
Q 3513 2838 3513 2113 
z
" transform="scale(0.015625)"/>
       <path id="DejaVuSans-75" d="M 544 1381 
L 544 3500 
L 1119 3500 
L 1119 1403 
Q 1119 906 1312 657 
Q 1506 409 1894 409 
Q 2359 409 2629 706 
Q 2900 1003 2900 1516 
L 2900 3500 
L 3475 3500 
L 3475 0 
L 2900 0 
L 2900 538 
Q 2691 219 2414 64 
Q 2138 -91 1772 -91 
Q 1169 -91 856 284 
Q 544 659 544 1381 
z
M 1991 3584 
L 1991 3584 
z
" transform="scale(0.015625)"/>
       <path id="DejaVuSans-67" d="M 2906 1791 
Q 2906 2416 2648 2759 
Q 2391 3103 1925 3103 
Q 1463 3103 1205 2759 
Q 947 2416 947 1791 
Q 947 1169 1205 825 
Q 1463 481 1925 481 
Q 2391 481 2648 825 
Q 2906 1169 2906 1791 
z
M 3481 434 
Q 3481 -459 3084 -895 
Q 2688 -1331 1869 -1331 
Q 1566 -1331 1297 -1286 
Q 1028 -1241 775 -1147 
L 775 -588 
Q 1028 -725 1275 -790 
Q 1522 -856 1778 -856 
Q 2344 -856 2625 -561 
Q 2906 -266 2906 331 
L 2906 616 
Q 2728 306 2450 153 
Q 2172 0 1784 0 
Q 1141 0 747 490 
Q 353 981 353 1791 
Q 353 2603 747 3093 
Q 1141 3584 1784 3584 
Q 2172 3584 2450 3431 
Q 2728 3278 2906 2969 
L 2906 3500 
L 3481 3500 
L 3481 434 
z
" transform="scale(0.015625)"/>
       <path id="DejaVuSans-70" d="M 1159 525 
L 1159 -1331 
L 581 -1331 
L 581 3500 
L 1159 3500 
L 1159 2969 
Q 1341 3281 1617 3432 
Q 1894 3584 2278 3584 
Q 2916 3584 3314 3078 
Q 3713 2572 3713 1747 
Q 3713 922 3314 415 
Q 2916 -91 2278 -91 
Q 1894 -91 1617 61 
Q 1341 213 1159 525 
z
M 3116 1747 
Q 3116 2381 2855 2742 
Q 2594 3103 2138 3103 
Q 1681 3103 1420 2742 
Q 1159 2381 1159 1747 
Q 1159 1113 1420 752 
Q 1681 391 2138 391 
Q 2594 391 2855 752 
Q 3116 1113 3116 1747 
z
" transform="scale(0.015625)"/>
      </defs>
      <use xlink:href="#DejaVuSans-4e"/>
      <use xlink:href="#DejaVuSans-6f" transform="translate(74.804688 0)"/>
      <use xlink:href="#DejaVuSans-72" transform="translate(135.986328 0)"/>
      <use xlink:href="#DejaVuSans-6d" transform="translate(175.349609 0)"/>
      <use xlink:href="#DejaVuSans-61" transform="translate(272.761719 0)"/>
      <use xlink:href="#DejaVuSans-6c" transform="translate(334.041016 0)"/>
      <use xlink:href="#DejaVuSans-69" transform="translate(361.824219 0)"/>
      <use xlink:href="#DejaVuSans-7a" transform="translate(389.607422 0)"/>
      <use xlink:href="#DejaVuSans-65" transform="translate(442.097656 0)"/>
      <use xlink:href="#DejaVuSans-64" transform="translate(503.621094 0)"/>
      <use xlink:href="#DejaVuSans-20" transform="translate(567.097656 0)"/>
      <use xlink:href="#DejaVuSans-74" transform="translate(598.884766 0)"/>
      <use xlink:href="#DejaVuSans-68" transform="translate(638.09375 0)"/>
      <use xlink:href="#DejaVuSans-72" transform="translate(701.472656 0)"/>
      <use xlink:href="#DejaVuSans-6f" transform="translate(740.335938 0)"/>
      <use xlink:href="#DejaVuSans-75" transform="translate(801.517578 0)"/>
      <use xlink:href="#DejaVuSans-67" transform="translate(864.896484 0)"/>
      <use xlink:href="#DejaVuSans-68" transform="translate(928.373047 0)"/>
      <use xlink:href="#DejaVuSans-70" transform="translate(991.751953 0)"/>
      <use xlink:href="#DejaVuSans-75" transform="translate(1055.228516 0)"/>
      <use xlink:href="#DejaVuSans-74" transform="translate(1118.607422 0)"/>
     </g>
    </g>
   </g>
   <g id="line2d_29">
    <path d="M 79.632102 207.039841 
L 119.695668 46.124806 
L 159.759233 47.500195 
L 199.822798 45.645076 
L 239.886364 47.475153 
L 279.949929 47.149315 
L 320.013494 46.633543 
L 360.07706 67.468409 
L 400.140625 64.63636 
L 440.20419 61.467441 
L 480.267756 58.344941 
L 520.331321 54.182469 
L 560.394886 51.099038 
L 600.458452 45.327976 
L 640.522017 46.677135 
L 680.585582 47.05062 
" clip-path="url(#p88f7882ceb)" style="fill: none; stroke-dasharray: 1.2,1.98; stroke-dashoffset: 0; stroke: #ffcc80; stroke-opacity: 0.85; stroke-width: 1.2"/>
   </g>
   <g id="line2d_30">
    <path d="M 79.632102 132.766967 
L 119.695668 45.327976 
L 159.759233 46.257486 
L 199.822798 46.603247 
L 239.886364 47.923139 
L 279.949929 47.807354 
L 320.013494 63.173435 
L 360.07706 58.858525 
L 400.140625 53.810097 
L 440.20419 49.797458 
L 480.267756 46.531646 
L 520.331321 46.159061 
L 560.394886 63.715185 
L 600.458452 58.110567 
L 640.522017 54.460919 
L 680.585582 50.774285 
L 720.649148 45.698806 
" clip-path="url(#p88f7882ceb)" style="fill: none; stroke-dasharray: 1.2,1.98; stroke-dashoffset: 0; stroke: #fcbc6b; stroke-opacity: 0.85; stroke-width: 1.2"/>
   </g>
   <g id="line2d_31">
    <path d="M 79.632102 171.986415 
L 119.695668 47.605867 
L 159.759233 53.975013 
L 199.822798 61.861368 
L 239.886364 54.381516 
L 279.949929 49.483163 
L 320.013494 46.649392 
L 360.07706 45.701505 
L 400.140625 46.104215 
L 440.20419 45.711074 
L 480.267756 45.327976 
L 520.331321 45.605381 
L 560.394886 45.665724 
L 600.458452 45.923119 
L 640.522017 45.948882 
L 680.585582 59.588387 
L 720.649148 52.531951 
" clip-path="url(#p88f7882ceb)" style="fill: none; stroke-dasharray: 1.2,1.98; stroke-dashoffset: 0; stroke: #faac55; stroke-opacity: 0.85; stroke-width: 1.2"/>
   </g>
   <g id="line2d_32">
    <path d="M 79.632102 141.871184 
L 119.695668 122.261299 
L 159.759233 93.84592 
L 199.822798 57.95717 
L 239.886364 63.15418 
L 279.949929 54.31336 
L 320.013494 45.327976 
L 360.07706 45.774425 
L 400.140625 46.678719 
L 440.20419 46.532083 
L 480.267756 46.911871 
L 520.331321 46.269513 
L 560.394886 46.536215 
L 600.458452 58.557716 
L 640.522017 48.337691 
L 680.585582 45.701817 
L 720.649148 59.144751 
" clip-path="url(#p88f7882ceb)" style="fill: none; stroke-dasharray: 1.2,1.98; stroke-dashoffset: 0; stroke: #f79c40; stroke-opacity: 0.85; stroke-width: 1.2"/>
   </g>
   <g id="line2d_33">
    <path d="M 79.632102 161.878056 
L 119.695668 157.809941 
L 159.759233 123.577734 
L 199.822798 101.423556 
L 239.886364 74.504557 
L 279.949929 60.671717 
L 320.013494 49.456586 
L 360.07706 54.664977 
L 400.140625 55.276462 
L 440.20419 45.374703 
L 480.267756 46.32757 
L 520.331321 52.803692 
L 560.394886 45.624763 
L 600.458452 53.935351 
L 640.522017 45.327976 
L 680.585582 50.566638 
L 720.649148 45.570836 
" clip-path="url(#p88f7882ceb)" style="fill: none; stroke-dasharray: 1.2,1.98; stroke-dashoffset: 0; stroke: #f48c2b; stroke-opacity: 0.85; stroke-width: 1.2"/>
   </g>
   <g id="line2d_34">
    <path d="M 79.632102 175.921608 
L 119.695668 161.003919 
L 159.759233 117.584145 
L 199.822798 93.896821 
L 239.886364 74.886002 
L 279.949929 64.68207 
L 320.013494 55.477419 
L 360.07706 50.348215 
L 400.140625 47.891967 
L 440.20419 50.117555 
L 480.267756 45.327976 
L 520.331321 47.174366 
L 560.394886 46.005365 
L 600.458452 45.448296 
L 640.522017 48.35017 
L 680.585582 45.95004 
L 720.649148 45.835203 
" clip-path="url(#p88f7882ceb)" style="fill: none; stroke-dasharray: 1.2,1.98; stroke-dashoffset: 0; stroke: #f27c15; stroke-opacity: 0.85; stroke-width: 1.2"/>
   </g>
   <g id="line2d_35">
    <path d="M 79.632102 169.497736 
L 119.695668 154.234699 
L 159.759233 128.38737 
L 199.822798 99.868986 
L 239.886364 76.621234 
L 279.949929 62.205645 
L 320.013494 55.326506 
L 360.07706 51.02672 
L 400.140625 48.345232 
L 440.20419 47.223094 
L 480.267756 46.613196 
L 520.331321 46.122865 
L 560.394886 45.574298 
L 600.458452 45.812545 
L 640.522017 45.670149 
L 680.585582 45.327976 
L 720.649148 45.716763 
" clip-path="url(#p88f7882ceb)" style="fill: none; stroke-dasharray: 1.2,1.98; stroke-dashoffset: 0; stroke: #ef6c00; stroke-opacity: 0.85; stroke-width: 1.2"/>
   </g>
   <g id="line2d_36">
    <path d="M 79.632102 244.156278 
L 119.695668 233.932182 
L 159.759233 181.619217 
L 199.822798 128.057406 
L 239.886364 89.481445 
L 279.949929 69.767497 
L 320.013494 77.345064 
L 360.07706 52.869002 
L 400.140625 68.016121 
L 440.20419 60.944684 
L 480.267756 46.256383 
L 520.331321 45.327976 
L 560.394886 45.5571 
L 600.458452 46.361144 
L 640.522017 48.240599 
L 680.585582 59.606444 
" clip-path="url(#p88f7882ceb)" style="fill: none; stroke: #ffcc80; stroke-opacity: 0.85; stroke-width: 1.2; stroke-linecap: square"/>
   </g>
   <g id="line2d_37">
    <path d="M 79.632102 238.662168 
L 119.695668 226.906688 
L 159.759233 178.461051 
L 199.822798 126.292086 
L 239.886364 99.83563 
L 279.949929 68.603253 
L 320.013494 73.804022 
L 360.07706 54.177239 
L 400.140625 49.30422 
L 440.20419 64.632968 
L 480.267756 56.32226 
L 520.331321 46.246214 
L 560.394886 63.284754 
L 600.458452 56.017877 
L 640.522017 45.327976 
L 680.585582 46.107364 
L 720.649148 63.224743 
" clip-path="url(#p88f7882ceb)" style="fill: none; stroke: #fcbc6b; stroke-opacity: 0.85; stroke-width: 1.2; stroke-linecap: square"/>
   </g>
   <g id="line2d_38">
    <path d="M 79.632102 233.019822 
L 119.695668 223.635446 
L 159.759233 174.004825 
L 199.822798 131.499548 
L 239.886364 102.293905 
L 279.949929 74.933644 
L 320.013494 77.030691 
L 360.07706 56.415895 
L 400.140625 75.635862 
L 440.20419 56.232384 
L 480.267756 68.761299 
L 520.331321 45.389032 
L 560.394886 45.327976 
L 600.458452 45.72343 
L 640.522017 45.370674 
L 680.585582 45.396289 
L 720.649148 45.345057 
" clip-path="url(#p88f7882ceb)" style="fill: none; stroke: #faac55; stroke-opacity: 0.85; stroke-width: 1.2; stroke-linecap: square"/>
   </g>
   <g id="line2d_39">
    <path d="M 79.632102 212.665378 
L 119.695668 206.503215 
L 159.759233 166.039145 
L 199.822798 119.282795 
L 239.886364 99.495742 
L 279.949929 67.171067 
L 320.013494 57.023854 
L 360.07706 64.604025 
L 400.140625 48.522896 
L 440.20419 47.107772 
L 480.267756 47.311767 
L 520.331321 46.128994 
L 560.394886 45.807287 
L 600.458452 45.743729 
L 640.522017 45.482926 
L 680.585582 45.327976 
L 720.649148 45.57202 
" clip-path="url(#p88f7882ceb)" style="fill: none; stroke: #f79c40; stroke-opacity: 0.85; stroke-width: 1.2; stroke-linecap: square"/>
   </g>
   <g id="line2d_40">
    <path d="M 79.632102 195.907241 
L 119.695668 194.62153 
L 159.759233 165.661436 
L 199.822798 114.495037 
L 239.886364 97.721549 
L 279.949929 67.022063 
L 320.013494 57.210962 
L 360.07706 51.632881 
L 400.140625 48.927241 
L 440.20419 58.464191 
L 480.267756 46.860537 
L 520.331321 46.129489 
L 560.394886 57.744401 
L 600.458452 58.863001 
L 640.522017 45.454917 
L 680.585582 45.327976 
L 720.649148 47.027399 
" clip-path="url(#p88f7882ceb)" style="fill: none; stroke: #f48c2b; stroke-opacity: 0.85; stroke-width: 1.2; stroke-linecap: square"/>
   </g>
   <g id="line2d_41">
    <path d="M 79.632102 175.498648 
L 119.695668 182.507677 
L 159.759233 148.569191 
L 199.822798 111.975291 
L 239.886364 97.313504 
L 279.949929 76.665058 
L 320.013494 67.586089 
L 360.07706 64.005865 
L 400.140625 54.413142 
L 440.20419 57.068958 
L 480.267756 52.232394 
L 520.331321 51.660063 
L 560.394886 45.327976 
L 600.458452 47.776471 
L 640.522017 51.278583 
L 680.585582 52.471634 
L 720.649148 66.33138 
" clip-path="url(#p88f7882ceb)" style="fill: none; stroke: #f27c15; stroke-opacity: 0.85; stroke-width: 1.2; stroke-linecap: square"/>
   </g>
   <g id="line2d_42">
    <path d="M 79.632102 175.569831 
L 119.695668 175.753 
L 159.759233 143.157004 
L 199.822798 105.201949 
L 239.886364 84.411018 
L 279.949929 67.897636 
L 320.013494 59.752788 
L 360.07706 51.007531 
L 400.140625 52.253414 
L 440.20419 48.904486 
L 480.267756 46.399335 
L 520.331321 50.851226 
L 560.394886 47.98004 
L 600.458452 47.228559 
L 640.522017 45.455087 
L 680.585582 45.553606 
L 720.649148 45.327976 
" clip-path="url(#p88f7882ceb)" style="fill: none; stroke: #ef6c00; stroke-opacity: 0.85; stroke-width: 1.2; stroke-linecap: square"/>
   </g>
   <g id="line2d_43">
    <path d="M 79.632102 268.140542 
L 119.695668 237.157919 
L 159.759233 236.077573 
L 199.822798 172.313549 
L 239.886364 125.374278 
L 279.949929 60.102436 
L 320.013494 80.335824 
L 360.07706 84.954965 
L 400.140625 75.595816 
L 440.20419 68.978008 
L 480.267756 66.915367 
L 520.331321 59.023576 
L 560.394886 56.89667 
L 600.458452 56.586391 
L 640.522017 45.327976 
L 680.585582 50.784128 
" clip-path="url(#p88f7882ceb)" style="fill: none; stroke-dasharray: 1.2,1.98; stroke-dashoffset: 0; stroke: #90caf9; stroke-opacity: 0.85; stroke-width: 1.2"/>
   </g>
   <g id="line2d_44">
    <path d="M 79.632102 268.356501 
L 119.695668 234.050963 
L 159.759233 236.550186 
L 199.822798 175.094226 
L 239.886364 137.999441 
L 279.949929 95.830686 
L 320.013494 66.355934 
L 360.07706 79.472421 
L 400.140625 76.454768 
L 440.20419 69.386042 
L 480.267756 65.097307 
L 520.331321 61.357501 
L 560.394886 60.886153 
L 600.458452 56.329463 
L 640.522017 48.436939 
L 680.585582 47.411623 
L 720.649148 45.327976 
" clip-path="url(#p88f7882ceb)" style="fill: none; stroke-dasharray: 1.2,1.98; stroke-dashoffset: 0; stroke: #7dbff6; stroke-opacity: 0.85; stroke-width: 1.2"/>
   </g>
   <g id="line2d_45">
    <path d="M 79.632102 347.648326 
L 119.695668 236.110467 
L 159.759233 242.289837 
L 199.822798 173.211906 
L 239.886364 127.319847 
L 279.949929 117.134764 
L 320.013494 97.099696 
L 360.07706 73.252365 
L 400.140625 65.452202 
L 440.20419 61.1916 
L 480.267756 58.00926 
L 520.331321 46.884099 
L 560.394886 46.427905 
L 600.458452 45.327976 
L 640.522017 46.938499 
L 680.585582 47.339226 
L 720.649148 69.526539 
" clip-path="url(#p88f7882ceb)" style="fill: none; stroke-dasharray: 1.2,1.98; stroke-dashoffset: 0; stroke: #6ab4f2; stroke-opacity: 0.85; stroke-width: 1.2"/>
   </g>
   <g id="line2d_46">
    <path d="M 79.632102 374.347138 
L 119.695668 318.824659 
L 159.759233 320.971955 
L 199.822798 227.561036 
L 239.886364 152.632469 
L 279.949929 98.613438 
L 320.013494 79.740935 
L 360.07706 66.113976 
L 400.140625 59.346728 
L 440.20419 50.786179 
L 480.267756 48.961466 
L 520.331321 46.87899 
L 560.394886 47.798304 
L 600.458452 46.292009 
L 640.522017 46.213838 
L 680.585582 45.327976 
L 720.649148 45.727112 
" clip-path="url(#p88f7882ceb)" style="fill: none; stroke-dasharray: 1.2,1.98; stroke-dashoffset: 0; stroke: #57a9ef; stroke-opacity: 0.85; stroke-width: 1.2"/>
   </g>
   <g id="line2d_47">
    <path d="M 79.632102 384.448878 
L 119.695668 374.643032 
L 159.759233 379.0262 
L 199.822798 356.008702 
L 239.886364 307.506367 
L 279.949929 207.536197 
L 320.013494 109.48713 
L 360.07706 72.088571 
L 400.140625 60.409689 
L 440.20419 53.857879 
L 480.267756 49.560476 
L 520.331321 49.06261 
L 560.394886 45.327976 
L 600.458452 64.399899 
L 640.522017 58.974804 
L 680.585582 53.492862 
L 720.649148 50.245429 
" clip-path="url(#p88f7882ceb)" style="fill: none; stroke-dasharray: 1.2,1.98; stroke-dashoffset: 0; stroke: #449eec; stroke-opacity: 0.85; stroke-width: 1.2"/>
   </g>
   <g id="line2d_48">
    <path d="M 79.632102 389.032468 
L 119.695668 375.316804 
L 159.759233 377.148836 
L 199.822798 358.587626 
L 239.886364 317.161459 
L 279.949929 268.927334 
L 320.013494 205.721433 
L 360.07706 156.684996 
L 400.140625 107.191066 
L 440.20419 101.833274 
L 480.267756 82.543805 
L 520.331321 59.856726 
L 560.394886 47.34331 
L 600.458452 45.952685 
L 640.522017 45.327976 
L 680.585582 68.849791 
L 720.649148 59.248472 
" clip-path="url(#p88f7882ceb)" style="fill: none; stroke-dasharray: 1.2,1.98; stroke-dashoffset: 0; stroke: #3193e8; stroke-opacity: 0.85; stroke-width: 1.2"/>
   </g>
   <g id="line2d_49">
    <path d="M 79.632102 390.046679 
L 119.695668 375.841782 
L 159.759233 380.087184 
L 199.822798 344.107777 
L 239.886364 312.870688 
L 279.949929 272.014877 
L 320.013494 213.218931 
L 360.07706 165.674383 
L 400.140625 127.630924 
L 440.20419 97.592127 
L 480.267756 72.727651 
L 520.331321 70.603855 
L 560.394886 52.679806 
L 600.458452 49.185125 
L 640.522017 59.895357 
L 680.585582 49.106723 
L 720.649148 45.327976 
" clip-path="url(#p88f7882ceb)" style="fill: none; stroke-dasharray: 1.2,1.98; stroke-dashoffset: 0; stroke: #1e88e5; stroke-opacity: 0.85; stroke-width: 1.2"/>
   </g>
   <g id="line2d_50">
    <path d="M 79.632102 409.152287 
L 119.695668 401.166804 
L 159.759233 399.953978 
L 199.822798 373.406886 
L 239.886364 336.004793 
L 279.949929 289.98429 
L 320.013494 231.394594 
L 360.07706 186.490111 
L 400.140625 144.56412 
L 440.20419 119.201697 
L 480.267756 77.68302 
L 520.331321 61.268966 
L 560.394886 54.201762 
L 600.458452 49.064253 
L 640.522017 47.628394 
L 680.585582 45.327976 
" clip-path="url(#p88f7882ceb)" style="fill: none; stroke: #90caf9; stroke-opacity: 0.85; stroke-width: 1.2; stroke-linecap: square"/>
   </g>
   <g id="line2d_51">
    <path d="M 79.632102 408.392924 
L 119.695668 401.234361 
L 159.759233 400.052336 
L 199.822798 373.406732 
L 239.886364 338.120396 
L 279.949929 293.095876 
L 320.013494 230.176349 
L 360.07706 185.871201 
L 400.140625 145.034948 
L 440.20419 117.113727 
L 480.267756 83.022164 
L 520.331321 66.171458 
L 560.394886 55.513033 
L 600.458452 54.970597 
L 640.522017 53.663221 
L 680.585582 47.357272 
L 720.649148 45.327976 
" clip-path="url(#p88f7882ceb)" style="fill: none; stroke: #7dbff6; stroke-opacity: 0.85; stroke-width: 1.2; stroke-linecap: square"/>
   </g>
   <g id="line2d_52">
    <path d="M 79.632102 404.875226 
L 119.695668 398.810079 
L 159.759233 399.144448 
L 199.822798 372.094787 
L 239.886364 335.604685 
L 279.949929 289.349325 
L 320.013494 225.803745 
L 360.07706 176.147826 
L 400.140625 136.687031 
L 440.20419 102.571339 
L 480.267756 77.438112 
L 520.331321 61.330745 
L 560.394886 51.493969 
L 600.458452 48.206185 
L 640.522017 62.558717 
L 680.585582 45.327976 
L 720.649148 46.649287 
" clip-path="url(#p88f7882ceb)" style="fill: none; stroke: #6ab4f2; stroke-opacity: 0.85; stroke-width: 1.2; stroke-linecap: square"/>
   </g>
   <g id="line2d_53">
    <path d="M 79.632102 397.831706 
L 119.695668 396.244648 
L 159.759233 397.46084 
L 199.822798 371.906358 
L 239.886364 335.355911 
L 279.949929 290.263479 
L 320.013494 225.522561 
L 360.07706 177.552287 
L 400.140625 137.005732 
L 440.20419 110.626869 
L 480.267756 79.263941 
L 520.331321 66.204086 
L 560.394886 54.768684 
L 600.458452 49.18875 
L 640.522017 47.269649 
L 680.585582 52.561433 
L 720.649148 45.327976 
" clip-path="url(#p88f7882ceb)" style="fill: none; stroke: #57a9ef; stroke-opacity: 0.85; stroke-width: 1.2; stroke-linecap: square"/>
   </g>
   <g id="line2d_54">
    <path d="M 79.632102 392.777531 
L 119.695668 382.786079 
L 159.759233 394.244898 
L 199.822798 371.72274 
L 239.886364 335.044764 
L 279.949929 288.34246 
L 320.013494 227.753002 
L 360.07706 176.990575 
L 400.140625 136.454979 
L 440.20419 103.752073 
L 480.267756 77.059577 
L 520.331321 63.660886 
L 560.394886 67.718058 
L 600.458452 49.699962 
L 640.522017 46.79683 
L 680.585582 72.245096 
L 720.649148 45.327976 
" clip-path="url(#p88f7882ceb)" style="fill: none; stroke: #449eec; stroke-opacity: 0.85; stroke-width: 1.2; stroke-linecap: square"/>
   </g>
   <g id="line2d_55">
    <path d="M 79.632102 391.404653 
L 119.695668 379.368679 
L 159.759233 383.047518 
L 199.822798 365.915441 
L 239.886364 331.455963 
L 279.949929 286.60215 
L 320.013494 225.372853 
L 360.07706 182.274074 
L 400.140625 140.770685 
L 440.20419 110.051111 
L 480.267756 80.389857 
L 520.331321 79.366583 
L 560.394886 58.007795 
L 600.458452 45.327976 
L 640.522017 55.023874 
L 680.585582 56.694399 
L 720.649148 58.535978 
" clip-path="url(#p88f7882ceb)" style="fill: none; stroke: #3193e8; stroke-opacity: 0.85; stroke-width: 1.2; stroke-linecap: square"/>
   </g>
   <g id="line2d_56">
    <path d="M 79.632102 390.961876 
L 119.695668 378.946811 
L 159.759233 381.478144 
L 199.822798 364.819816 
L 239.886364 329.315849 
L 279.949929 284.636005 
L 320.013494 223.957413 
L 360.07706 175.186002 
L 400.140625 140.546996 
L 440.20419 102.267457 
L 480.267756 74.651255 
L 520.331321 61.209268 
L 560.394886 61.395056 
L 600.458452 48.438036 
L 640.522017 50.289612 
L 680.585582 48.857714 
L 720.649148 45.327976 
" clip-path="url(#p88f7882ceb)" style="fill: none; stroke: #1e88e5; stroke-opacity: 0.85; stroke-width: 1.2; stroke-linecap: square"/>
   </g>
   <g id="line2d_57">
    <path d="M 79.632102 373.315988 
L 119.695668 311.953054 
L 159.759233 183.847847 
L 199.822798 117.033907 
L 239.886364 61.006274 
L 279.949929 51.697711 
L 320.013494 45.529526 
L 360.07706 98.715341 
L 400.140625 86.946287 
L 440.20419 87.303626 
L 480.267756 69.085611 
L 520.331321 60.178722 
L 560.394886 62.875443 
L 600.458452 58.114732 
L 640.522017 45.327976 
L 680.585582 74.920212 
" clip-path="url(#p88f7882ceb)" style="fill: none; stroke-dasharray: 1.2,1.98; stroke-dashoffset: 0; stroke: #a5d6a7; stroke-opacity: 0.85; stroke-width: 1.2"/>
   </g>
   <g id="line2d_58">
    <path d="M 79.632102 375.247292 
L 119.695668 316.721945 
L 159.759233 187.112662 
L 199.822798 129.471014 
L 239.886364 106.796343 
L 279.949929 61.079389 
L 320.013494 56.351041 
L 360.07706 46.549525 
L 400.140625 47.996465 
L 440.20419 47.118456 
L 480.267756 45.327976 
L 520.331321 47.896639 
L 560.394886 47.007032 
L 600.458452 47.229816 
L 640.522017 71.350588 
L 680.585582 69.381236 
L 720.649148 65.984051 
" clip-path="url(#p88f7882ceb)" style="fill: none; stroke-dasharray: 1.2,1.98; stroke-dashoffset: 0; stroke: #95cd97; stroke-opacity: 0.85; stroke-width: 1.2"/>
   </g>
   <g id="line2d_59">
    <path d="M 79.632102 379.157773 
L 119.695668 312.053598 
L 159.759233 176.90434 
L 199.822798 107.864926 
L 239.886364 94.271518 
L 279.949929 57.474551 
L 320.013494 54.27989 
L 360.07706 48.391473 
L 400.140625 47.336699 
L 440.20419 71.555553 
L 480.267756 70.130673 
L 520.331321 66.04576 
L 560.394886 63.092151 
L 600.458452 60.823755 
L 640.522017 59.527776 
L 680.585582 52.884133 
L 720.649148 45.327976 
" clip-path="url(#p88f7882ceb)" style="fill: none; stroke-dasharray: 1.2,1.98; stroke-dashoffset: 0; stroke: #84c487; stroke-opacity: 0.85; stroke-width: 1.2"/>
   </g>
   <g id="line2d_60">
    <path d="M 79.632102 398.095245 
L 119.695668 349.509484 
L 159.759233 191.044837 
L 199.822798 183.594918 
L 239.886364 127.421486 
L 279.949929 75.93439 
L 320.013494 68.034925 
L 360.07706 60.172648 
L 400.140625 58.634945 
L 440.20419 57.30047 
L 480.267756 45.52668 
L 520.331321 54.701711 
L 560.394886 45.38397 
L 600.458452 47.086864 
L 640.522017 45.915107 
L 680.585582 45.327976 
L 720.649148 45.327976 
" clip-path="url(#p88f7882ceb)" style="fill: none; stroke-dasharray: 1.2,1.98; stroke-dashoffset: 0; stroke: #74bb77; stroke-opacity: 0.85; stroke-width: 1.2"/>
   </g>
   <g id="line2d_61">
    <path d="M 79.632102 399.633794 
L 119.695668 378.038046 
L 159.759233 346.254276 
L 199.822798 309.567703 
L 239.886364 238.876418 
L 279.949929 161.28039 
L 320.013494 114.514284 
L 360.07706 85.418035 
L 400.140625 51.715433 
L 440.20419 78.552752 
L 480.267756 55.47055 
L 520.331321 50.234085 
L 560.394886 59.774621 
L 600.458452 51.640363 
L 640.522017 48.341663 
L 680.585582 47.991817 
L 720.649148 45.327976 
" clip-path="url(#p88f7882ceb)" style="fill: none; stroke-dasharray: 1.2,1.98; stroke-dashoffset: 0; stroke: #64b267; stroke-opacity: 0.85; stroke-width: 1.2"/>
   </g>
   <g id="line2d_62">
    <path d="M 79.632102 399.510113 
L 119.695668 380.348033 
L 159.759233 360.787264 
L 199.822798 349.683055 
L 239.886364 337.782875 
L 279.949929 337.341096 
L 320.013494 301.467596 
L 360.07706 255.934593 
L 400.140625 223.65383 
L 440.20419 210.611729 
L 480.267756 126.188482 
L 520.331321 94.53653 
L 560.394886 58.512363 
L 600.458452 49.867262 
L 640.522017 50.07425 
L 680.585582 45.327976 
L 720.649148 64.125515 
" clip-path="url(#p88f7882ceb)" style="fill: none; stroke-dasharray: 1.2,1.98; stroke-dashoffset: 0; stroke: #53a957; stroke-opacity: 0.85; stroke-width: 1.2"/>
   </g>
   <g id="line2d_63">
    <path d="M 79.632102 399.803515 
L 119.695668 382.487423 
L 159.759233 361.243865 
L 199.822798 354.742219 
L 239.886364 353.752223 
L 279.949929 349.347288 
L 320.013494 345.489157 
L 360.07706 309.863185 
L 400.140625 287.87038 
L 440.20419 263.784639 
L 480.267756 194.982358 
L 520.331321 144.82312 
L 560.394886 110.45653 
L 600.458452 84.191371 
L 640.522017 70.160071 
L 680.585582 58.303212 
L 720.649148 45.327976 
" clip-path="url(#p88f7882ceb)" style="fill: none; stroke-dasharray: 1.2,1.98; stroke-dashoffset: 0; stroke: #43a047; stroke-opacity: 0.85; stroke-width: 1.2"/>
   </g>
   <g id="line2d_64">
    <path d="M 79.632102 422.646436 
L 119.695668 410.120654 
L 159.759233 388.169376 
L 199.822798 381.233844 
L 239.886364 378.677234 
L 279.949929 368.926194 
L 320.013494 369.272964 
L 360.07706 349.389246 
L 400.140625 328.521882 
L 440.20419 300.095065 
L 480.267756 234.085236 
L 520.331321 181.737549 
L 560.394886 124.96253 
L 600.458452 80.326846 
L 640.522017 54.480256 
L 680.585582 45.327976 
" clip-path="url(#p88f7882ceb)" style="fill: none; stroke: #a5d6a7; stroke-opacity: 0.85; stroke-width: 1.2; stroke-linecap: square"/>
   </g>
   <g id="line2d_65">
    <path d="M 79.632102 421.893593 
L 119.695668 409.782014 
L 159.759233 388.566463 
L 199.822798 381.086071 
L 239.886364 378.806663 
L 279.949929 368.899351 
L 320.013494 364.211642 
L 360.07706 343.952803 
L 400.140625 327.150349 
L 440.20419 299.027234 
L 480.267756 237.398417 
L 520.331321 184.440022 
L 560.394886 124.120787 
L 600.458452 86.8316 
L 640.522017 62.154825 
L 680.585582 45.327976 
L 720.649148 45.813131 
" clip-path="url(#p88f7882ceb)" style="fill: none; stroke: #95cd97; stroke-opacity: 0.85; stroke-width: 1.2; stroke-linecap: square"/>
   </g>
   <g id="line2d_66">
    <path d="M 79.632102 419.209851 
L 119.695668 408.167408 
L 159.759233 387.987457 
L 199.822798 380.943054 
L 239.886364 378.31279 
L 279.949929 367.902277 
L 320.013494 363.584728 
L 360.07706 340.749062 
L 400.140625 323.036216 
L 440.20419 298.879812 
L 480.267756 238.540095 
L 520.331321 182.010518 
L 560.394886 123.979544 
L 600.458452 88.732134 
L 640.522017 61.028486 
L 680.585582 50.468687 
L 720.649148 45.327976 
" clip-path="url(#p88f7882ceb)" style="fill: none; stroke: #84c487; stroke-opacity: 0.85; stroke-width: 1.2; stroke-linecap: square"/>
   </g>
   <g id="line2d_67">
    <path d="M 79.632102 412.634565 
L 119.695668 404.392692 
L 159.759233 387.364704 
L 199.822798 380.270479 
L 239.886364 378.051719 
L 279.949929 368.373627 
L 320.013494 364.192065 
L 360.07706 340.61677 
L 400.140625 321.336071 
L 440.20419 295.162514 
L 480.267756 238.467083 
L 520.331321 183.255907 
L 560.394886 133.248229 
L 600.458452 90.264812 
L 640.522017 69.759804 
L 680.585582 47.691795 
L 720.649148 45.327976 
" clip-path="url(#p88f7882ceb)" style="fill: none; stroke: #74bb77; stroke-opacity: 0.85; stroke-width: 1.2; stroke-linecap: square"/>
   </g>
   <g id="line2d_68">
    <path d="M 79.632102 407.01016 
L 119.695668 398.163897 
L 159.759233 384.12338 
L 199.822798 378.344362 
L 239.886364 376.658321 
L 279.949929 367.321359 
L 320.013494 362.66525 
L 360.07706 338.785644 
L 400.140625 319.869733 
L 440.20419 292.000741 
L 480.267756 231.081819 
L 520.331321 182.377586 
L 560.394886 124.84351 
L 600.458452 86.60174 
L 640.522017 62.913884 
L 680.585582 47.051556 
L 720.649148 45.327976 
" clip-path="url(#p88f7882ceb)" style="fill: none; stroke: #64b267; stroke-opacity: 0.85; stroke-width: 1.2; stroke-linecap: square"/>
   </g>
   <g id="line2d_69">
    <path d="M 79.632102 404.011024 
L 119.695668 391.520178 
L 159.759233 378.333613 
L 199.822798 374.98342 
L 239.886364 375.32131 
L 279.949929 366.801844 
L 320.013494 362.328354 
L 360.07706 339.157176 
L 400.140625 319.318383 
L 440.20419 291.673476 
L 480.267756 231.632801 
L 520.331321 178.721469 
L 560.394886 124.619943 
L 600.458452 87.293923 
L 640.522017 64.419918 
L 680.585582 49.308145 
L 720.649148 45.327976 
" clip-path="url(#p88f7882ceb)" style="fill: none; stroke: #53a957; stroke-opacity: 0.85; stroke-width: 1.2; stroke-linecap: square"/>
   </g>
   <g id="line2d_70">
    <path d="M 79.632102 401.476751 
L 119.695668 387.078493 
L 159.759233 370.770788 
L 199.822798 369.251099 
L 239.886364 373.319981 
L 279.949929 367.011915 
L 320.013494 363.576755 
L 360.07706 340.389272 
L 400.140625 321.402498 
L 440.20419 295.486737 
L 480.267756 233.702106 
L 520.331321 184.009471 
L 560.394886 129.031017 
L 600.458452 92.621514 
L 640.522017 66.940665 
L 680.585582 53.932024 
L 720.649148 45.327976 
" clip-path="url(#p88f7882ceb)" style="fill: none; stroke: #43a047; stroke-opacity: 0.85; stroke-width: 1.2; stroke-linecap: square"/>
   </g>
   <g id="patch_3">
    <path d="M 47.58125 435.8875 
L 47.58125 25.8 
" style="fill: none; stroke: #444444; stroke-width: 0.8; stroke-linejoin: miter; stroke-linecap: square"/>
   </g>
   <g id="patch_4">
    <path d="M 752.7 435.8875 
L 752.7 25.8 
" style="fill: none; stroke: #444444; stroke-width: 0.8; stroke-linejoin: miter; stroke-linecap: square"/>
   </g>
   <g id="patch_5">
    <path d="M 47.58125 435.8875 
L 752.7 435.8875 
" style="fill: none; stroke: #444444; stroke-width: 0.8; stroke-linejoin: miter; stroke-linecap: square"/>
   </g>
   <g id="patch_6">
    <path d="M 47.58125 25.8 
L 752.7 25.8 
" style="fill: none; stroke: #444444; stroke-width: 0.8; stroke-linejoin: miter; stroke-linecap: square"/>
   </g>
   <g id="text_17">
    <!-- Normalized throughput — all kernels &amp; working sets -->
    <g style="fill: #e0e0e0" transform="translate(243.850938 19.8) scale(0.12 -0.12)">
     <defs>
      <path id="DejaVuSans-2014" d="M 313 1978 
L 6088 1978 
L 6088 1528 
L 313 1528 
L 313 1978 
z
" transform="scale(0.015625)"/>
      <path id="DejaVuSans-6e" d="M 3513 2113 
L 3513 0 
L 2938 0 
L 2938 2094 
Q 2938 2591 2744 2837 
Q 2550 3084 2163 3084 
Q 1697 3084 1428 2787 
Q 1159 2491 1159 1978 
L 1159 0 
L 581 0 
L 581 3500 
L 1159 3500 
L 1159 2956 
Q 1366 3272 1645 3428 
Q 1925 3584 2291 3584 
Q 2894 3584 3203 3211 
Q 3513 2838 3513 2113 
z
" transform="scale(0.015625)"/>
      <path id="DejaVuSans-26" d="M 1556 2509 
Q 1272 2256 1139 2004 
Q 1006 1753 1006 1478 
Q 1006 1022 1337 719 
Q 1669 416 2169 416 
Q 2466 416 2725 514 
Q 2984 613 3213 813 
L 1556 2509 
z
M 1997 2859 
L 3584 1234 
Q 3769 1513 3872 1830 
Q 3975 2147 3994 2503 
L 4575 2503 
Q 4538 2091 4375 1687 
Q 4213 1284 3922 891 
L 4794 0 
L 4006 0 
L 3559 459 
Q 3234 181 2878 45 
Q 2522 -91 2113 -91 
Q 1359 -91 881 339 
Q 403 769 403 1441 
Q 403 1841 612 2192 
Q 822 2544 1241 2853 
Q 1091 3050 1012 3245 
Q 934 3441 934 3628 
Q 934 4134 1281 4442 
Q 1628 4750 2203 4750 
Q 2463 4750 2720 4694 
Q 2978 4638 3244 4525 
L 3244 3956 
Q 2972 4103 2725 4179 
Q 2478 4256 2266 4256 
Q 1938 4256 1733 4082 
Q 1528 3909 1528 3634 
Q 1528 3475 1620 3314 
Q 1713 3153 1997 2859 
z
" transform="scale(0.015625)"/>
      <path id="DejaVuSans-77" d="M 269 3500 
L 844 3500 
L 1563 769 
L 2278 3500 
L 2956 3500 
L 3675 769 
L 4391 3500 
L 4966 3500 
L 4050 0 
L 3372 0 
L 2619 2869 
L 1863 0 
L 1184 0 
L 269 3500 
z
" transform="scale(0.015625)"/>
     </defs>
     <use xlink:href="#DejaVuSans-4e"/>
     <use xlink:href="#DejaVuSans-6f" transform="translate(74.804688 0)"/>
     <use xlink:href="#DejaVuSans-72" transform="translate(135.986328 0)"/>
     <use xlink:href="#DejaVuSans-6d" transform="translate(175.349609 0)"/>
     <use xlink:href="#DejaVuSans-61" transform="translate(272.761719 0)"/>
     <use xlink:href="#DejaVuSans-6c" transform="translate(334.041016 0)"/>
     <use xlink:href="#DejaVuSans-69" transform="translate(361.824219 0)"/>
     <use xlink:href="#DejaVuSans-7a" transform="translate(389.607422 0)"/>
     <use xlink:href="#DejaVuSans-65" transform="translate(442.097656 0)"/>
     <use xlink:href="#DejaVuSans-64" transform="translate(503.621094 0)"/>
     <use xlink:href="#DejaVuSans-20" transform="translate(567.097656 0)"/>
     <use xlink:href="#DejaVuSans-74" transform="translate(598.884766 0)"/>
     <use xlink:href="#DejaVuSans-68" transform="translate(638.09375 0)"/>
     <use xlink:href="#DejaVuSans-72" transform="translate(701.472656 0)"/>
     <use xlink:href="#DejaVuSans-6f" transform="translate(740.335938 0)"/>
     <use xlink:href="#DejaVuSans-75" transform="translate(801.517578 0)"/>
     <use xlink:href="#DejaVuSans-67" transform="translate(864.896484 0)"/>
     <use xlink:href="#DejaVuSans-68" transform="translate(928.373047 0)"/>
     <use xlink:href="#DejaVuSans-70" transform="translate(991.751953 0)"/>
     <use xlink:href="#DejaVuSans-75" transform="translate(1055.228516 0)"/>
     <use xlink:href="#DejaVuSans-74" transform="translate(1118.607422 0)"/>
     <use xlink:href="#DejaVuSans-20" transform="translate(1157.816406 0)"/>
     <use xlink:href="#DejaVuSans-2014" transform="translate(1189.603516 0)"/>
     <use xlink:href="#DejaVuSans-20" transform="translate(1289.603516 0)"/>
     <use xlink:href="#DejaVuSans-61" transform="translate(1321.390625 0)"/>
     <use xlink:href="#DejaVuSans-6c" transform="translate(1382.669922 0)"/>
     <use xlink:href="#DejaVuSans-6c" transform="translate(1410.453125 0)"/>
     <use xlink:href="#DejaVuSans-20" transform="translate(1438.236328 0)"/>
     <use xlink:href="#DejaVuSans-6b" transform="translate(1470.023438 0)"/>
     <use xlink:href="#DejaVuSans-65" transform="translate(1524.308594 0)"/>
     <use xlink:href="#DejaVuSans-72" transform="translate(1585.832031 0)"/>
     <use xlink:href="#DejaVuSans-6e" transform="translate(1625.195312 0)"/>
     <use xlink:href="#DejaVuSans-65" transform="translate(1688.574219 0)"/>
     <use xlink:href="#DejaVuSans-6c" transform="translate(1750.097656 0)"/>
     <use xlink:href="#DejaVuSans-73" transform="translate(1777.880859 0)"/>
     <use xlink:href="#DejaVuSans-20" transform="translate(1829.980469 0)"/>
     <use xlink:href="#DejaVuSans-26" transform="translate(1861.767578 0)"/>
     <use xlink:href="#DejaVuSans-20" transform="translate(1939.746094 0)"/>
     <use xlink:href="#DejaVuSans-77" transform="translate(1971.533203 0)"/>
     <use xlink:href="#DejaVuSans-6f" transform="translate(2053.320312 0)"/>
     <use xlink:href="#DejaVuSans-72" transform="translate(2114.501953 0)"/>
     <use xlink:href="#DejaVuSans-6b" transform="translate(2155.615234 0)"/>
     <use xlink:href="#DejaVuSans-69" transform="translate(2213.525391 0)"/>
     <use xlink:href="#DejaVuSans-6e" transform="translate(2241.308594 0)"/>
     <use xlink:href="#DejaVuSans-67" transform="translate(2304.6875 0)"/>
     <use xlink:href="#DejaVuSans-20" transform="translate(2368.164062 0)"/>
     <use xlink:href="#DejaVuSans-73" transform="translate(2399.951172 0)"/>
     <use xlink:href="#DejaVuSans-65" transform="translate(2452.050781 0)"/>
     <use xlink:href="#DejaVuSans-74" transform="translate(2513.574219 0)"/>
     <use xlink:href="#DejaVuSans-73" transform="translate(2552.783203 0)"/>
    </g>
   </g>
   <g id="legend_1">
    <g id="patch_7">
     <path d="M 674.05 431.8875 
L 747.1 431.8875 
Q 748.7 431.8875 748.7 430.2875 
L 748.7 371.7075 
Q 748.7 370.1075 747.1 370.1075 
L 674.05 370.1075 
Q 672.45 370.1075 672.45 371.7075 
L 672.45 430.2875 
Q 672.45 431.8875 674.05 431.8875 
z
" style="fill: #1e2436; opacity: 0.8; stroke: #444444; stroke-linejoin: miter"/>
    </g>
    <g id="patch_8">
     <path d="M 675.65 379.38625 
L 691.65 379.38625 
L 691.65 373.78625 
L 675.65 373.78625 
z
" style="fill: #ef6c00"/>
    </g>
    <g id="text_18">
     <!-- heavy_sin -->
     <g style="fill: #e0e0e0" transform="translate(698.05 379.38625) scale(0.08 -0.08)">
      <defs>
       <path id="DejaVuSans-76" d="M 191 3500 
L 800 3500 
L 1894 563 
L 2988 3500 
L 3597 3500 
L 2284 0 
L 1503 0 
L 191 3500 
z
" transform="scale(0.015625)"/>
       <path id="DejaVuSans-79" d="M 2059 -325 
Q 1816 -950 1584 -1140 
Q 1353 -1331 966 -1331 
L 506 -1331 
L 506 -850 
L 844 -850 
Q 1081 -850 1212 -737 
Q 1344 -625 1503 -206 
L 1606 56 
L 191 3500 
L 800 3500 
L 1894 763 
L 2988 3500 
L 3597 3500 
L 2059 -325 
z
" transform="scale(0.015625)"/>
       <path id="DejaVuSans-5f" d="M 3263 -1063 
L 3263 -1509 
L -63 -1509 
L -63 -1063 
L 3263 -1063 
z
" transform="scale(0.015625)"/>
      </defs>
      <use xlink:href="#DejaVuSans-68"/>
      <use xlink:href="#DejaVuSans-65" transform="translate(63.378906 0)"/>
      <use xlink:href="#DejaVuSans-61" transform="translate(124.902344 0)"/>
      <use xlink:href="#DejaVuSans-76" transform="translate(186.181641 0)"/>
      <use xlink:href="#DejaVuSans-79" transform="translate(245.361328 0)"/>
      <use xlink:href="#DejaVuSans-5f" transform="translate(304.541016 0)"/>
      <use xlink:href="#DejaVuSans-73" transform="translate(354.541016 0)"/>
      <use xlink:href="#DejaVuSans-69" transform="translate(406.640625 0)"/>
      <use xlink:href="#DejaVuSans-6e" transform="translate(434.423828 0)"/>
     </g>
    </g>
    <g id="patch_9">
     <path d="M 675.65 391.35125 
L 691.65 391.35125 
L 691.65 385.75125 
L 675.65 385.75125 
z
" style="fill: #1e88e5"/>
    </g>
    <g id="text_19">
     <!-- scalar_stats -->
     <g style="fill: #e0e0e0" transform="translate(698.05 391.35125) scale(0.08 -0.08)">
      <use xlink:href="#DejaVuSans-73"/>
      <use xlink:href="#DejaVuSans-63" transform="translate(52.099609 0)"/>
      <use xlink:href="#DejaVuSans-61" transform="translate(107.080078 0)"/>
      <use xlink:href="#DejaVuSans-6c" transform="translate(168.359375 0)"/>
      <use xlink:href="#DejaVuSans-61" transform="translate(196.142578 0)"/>
      <use xlink:href="#DejaVuSans-72" transform="translate(257.421875 0)"/>
      <use xlink:href="#DejaVuSans-5f" transform="translate(298.535156 0)"/>
      <use xlink:href="#DejaVuSans-73" transform="translate(348.535156 0)"/>
      <use xlink:href="#DejaVuSans-74" transform="translate(400.634766 0)"/>
      <use xlink:href="#DejaVuSans-61" transform="translate(439.84375 0)"/>
      <use xlink:href="#DejaVuSans-74" transform="translate(501.123047 0)"/>
      <use xlink:href="#DejaVuSans-73" transform="translate(540.332031 0)"/>
     </g>
    </g>
    <g id="patch_10">
     <path d="M 675.65 403.31625 
L 691.65 403.31625 
L 691.65 397.71625 
L 675.65 397.71625 
z
" style="fill: #43a047"/>
    </g>
    <g id="text_20">
     <!-- simd_sum -->
     <g style="fill: #e0e0e0" transform="translate(698.05 403.31625) scale(0.08 -0.08)">
      <use xlink:href="#DejaVuSans-73"/>
      <use xlink:href="#DejaVuSans-69" transform="translate(52.099609 0)"/>
      <use xlink:href="#DejaVuSans-6d" transform="translate(79.882812 0)"/>
      <use xlink:href="#DejaVuSans-64" transform="translate(177.294922 0)"/>
      <use xlink:href="#DejaVuSans-5f" transform="translate(240.771484 0)"/>
      <use xlink:href="#DejaVuSans-73" transform="translate(290.771484 0)"/>
      <use xlink:href="#DejaVuSans-75" transform="translate(342.871094 0)"/>
      <use xlink:href="#DejaVuSans-6d" transform="translate(406.25 0)"/>
     </g>
    </g>
    <g id="line2d_71">
     <path d="M 675.65 412.48125 
L 683.65 412.48125 
L 691.65 412.48125 
" style="fill: none; stroke: #e0e0e0; stroke-width: 1.5; stroke-linecap: square"/>
    </g>
    <g id="text_21">
     <!-- randomized -->
     <g style="fill: #e0e0e0" transform="translate(698.05 415.28125) scale(0.08 -0.08)">
      <use xlink:href="#DejaVuSans-72"/>
      <use xlink:href="#DejaVuSans-61" transform="translate(41.113281 0)"/>
      <use xlink:href="#DejaVuSans-6e" transform="translate(102.392578 0)"/>
      <use xlink:href="#DejaVuSans-64" transform="translate(165.771484 0)"/>
      <use xlink:href="#DejaVuSans-6f" transform="translate(229.248047 0)"/>
      <use xlink:href="#DejaVuSans-6d" transform="translate(290.429688 0)"/>
      <use xlink:href="#DejaVuSans-69" transform="translate(387.841797 0)"/>
      <use xlink:href="#DejaVuSans-7a" transform="translate(415.625 0)"/>
      <use xlink:href="#DejaVuSans-65" transform="translate(468.115234 0)"/>
      <use xlink:href="#DejaVuSans-64" transform="translate(529.638672 0)"/>
     </g>
    </g>
    <g id="line2d_72">
     <path d="M 675.65 424.22375 
L 683.65 424.22375 
L 691.65 424.22375 
" style="fill: none; stroke-dasharray: 1.5,2.475; stroke-dashoffset: 0; stroke: #e0e0e0; stroke-width: 1.5"/>
    </g>
    <g id="text_22">
     <!-- repeated -->
     <g style="fill: #e0e0e0" transform="translate(698.05 427.02375) scale(0.08 -0.08)">
      <use xlink:href="#DejaVuSans-72"/>
      <use xlink:href="#DejaVuSans-65" transform="translate(38.863281 0)"/>
      <use xlink:href="#DejaVuSans-70" transform="translate(100.386719 0)"/>
      <use xlink:href="#DejaVuSans-65" transform="translate(163.863281 0)"/>
      <use xlink:href="#DejaVuSans-61" transform="translate(225.386719 0)"/>
      <use xlink:href="#DejaVuSans-74" transform="translate(286.666016 0)"/>
      <use xlink:href="#DejaVuSans-65" transform="translate(325.875 0)"/>
      <use xlink:href="#DejaVuSans-64" transform="translate(387.398438 0)"/>
     </g>
    </g>
   </g>
  </g>
 </g>
 <defs>
  <clipPath id="p88f7882ceb">
   <rect x="47.58125" y="25.8" width="705.11875" height="410.0875"/>
  </clipPath>
 </defs>
</svg>
