<?xml version="1.0" encoding="utf-8" standalone="no"?>
<!DOCTYPE svg PUBLIC "-//W3C//DTD SVG 1.1//EN"
  "http://www.w3.org/Graphics/SVG/1.1/DTD/svg11.dtd">
<svg xmlns:xlink="http://www.w3.org/1999/xlink" width="763.5pt" height="477.1875pt" viewBox="0 0 763.5 477.1875" xmlns="http://www.w3.org/2000/svg" version="1.1">
 <metadata>
  <rdf:RDF xmlns:dc="http://purl.org/dc/elements/1.1/" xmlns:cc="http://creativecommons.org/ns#" xmlns:rdf="http://www.w3.org/1999/02/22-rdf-syntax-ns#">
   <cc:Work>
    <dc:type rdf:resource="http://purl.org/dc/dcmitype/StillImage"/>
    <dc:date>2026-04-06T12:18:40.154378</dc:date>
    <dc:format>image/svg+xml</dc:format>
    <dc:creator>
     <cc:Agent>
      <dc:title>Matplotlib v3.10.8, https://matplotlib.org/</dc:title>
     </cc:Agent>
    </dc:creator>
   </cc:Work>
  </rdf:RDF>
 </metadata>
 <defs>
  <style type="text/css">*{stroke-linejoin: round; stroke-linecap: butt}</style>
 </defs>
 <g id="figure_1">
  <g id="patch_1">
   <path d="M 0 477.1875 
L 763.5 477.1875 
L 763.5 0 
L 0 0 
z
" style="fill: #121622"/>
  </g>
  <g id="axes_1">
   <g id="patch_2">
    <path d="M 57.14375 435.8875 
L 752.7 435.8875 
L 752.7 25.8 
L 57.14375 25.8 
z
" style="fill: #121622"/>
   </g>
   <g id="matplotlib.axis_1">
    <g id="xtick_1">
     <g id="line2d_1">
      <path d="M 128.280185 435.8875 
L 128.280185 25.8 
" clip-path="url(#p8112b56f9d)" style="fill: none; stroke: #30333e; stroke-width: 0.6; stroke-linecap: square"/>
     </g>
     <g id="line2d_2">
      <defs>
       <path id="m2d581a5f7b" d="M 0 0 
L 0 3.5 
" style="stroke: #e0e0e0; stroke-width: 0.8"/>
      </defs>
      <g>
       <use xlink:href="#m2d581a5f7b" x="128.280185" y="435.8875" style="fill: #e0e0e0; stroke: #e0e0e0; stroke-width: 0.8"/>
      </g>
     </g>
     <g id="text_1">
      <!-- 64 B -->
      <g style="fill: #e0e0e0" transform="translate(116.898153 450.485937) scale(0.1 -0.1)">
       <defs>
        <path id="DejaVuSans-36" d="M 2113 2584 
Q 1688 2584 1439 2293 
Q 1191 2003 1191 1497 
Q 1191 994 1439 701 
Q 1688 409 2113 409 
Q 2538 409 2786 701 
Q 3034 994 3034 1497 
Q 3034 2003 2786 2293 
Q 2538 2584 2113 2584 
z
M 3366 4563 
L 3366 3988 
Q 3128 4100 2886 4159 
Q 2644 4219 2406 4219 
Q 1781 4219 1451 3797 
Q 1122 3375 1075 2522 
Q 1259 2794 1537 2939 
Q 1816 3084 2150 3084 
Q 2853 3084 3261 2657 
Q 3669 2231 3669 1497 
Q 3669 778 3244 343 
Q 2819 -91 2113 -91 
Q 1303 -91 875 529 
Q 447 1150 447 2328 
Q 447 3434 972 4092 
Q 1497 4750 2381 4750 
Q 2619 4750 2861 4703 
Q 3103 4656 3366 4563 
z
" transform="scale(0.015625)"/>
        <path id="DejaVuSans-34" d="M 2419 4116 
L 825 1625 
L 2419 1625 
L 2419 4116 
z
M 2253 4666 
L 3047 4666 
L 3047 1625 
L 3713 1625 
L 3713 1100 
L 3047 1100 
L 3047 0 
L 2419 0 
L 2419 1100 
L 313 1100 
L 313 1709 
L 2253 4666 
z
" transform="scale(0.015625)"/>
        <path id="DejaVuSans-20" transform="scale(0.015625)"/>
        <path id="DejaVuSans-42" d="M 1259 2228 
L 1259 519 
L 2272 519 
Q 2781 519 3026 730 
Q 3272 941 3272 1375 
Q 3272 1813 3026 2020 
Q 2781 2228 2272 2228 
L 1259 2228 
z
M 1259 4147 
L 1259 2741 
L 2194 2741 
Q 2656 2741 2882 2914 
Q 3109 3088 3109 3444 
Q 3109 3797 2882 3972 
Q 2656 4147 2194 4147 
L 1259 4147 
z
M 628 4666 
L 2241 4666 
Q 2963 4666 3353 4366 
Q 3744 4066 3744 3513 
Q 3744 3084 3544 2831 
Q 3344 2578 2956 2516 
Q 3422 2416 3680 2098 
Q 3938 1781 3938 1306 
Q 3938 681 3513 340 
Q 3088 0 2303 0 
L 628 0 
L 628 4666 
z
" transform="scale(0.015625)"/>
       </defs>
       <use xlink:href="#DejaVuSans-36"/>
       <use xlink:href="#DejaVuSans-34" transform="translate(63.623047 0)"/>
       <use xlink:href="#DejaVuSans-20" transform="translate(127.246094 0)"/>
       <use xlink:href="#DejaVuSans-42" transform="translate(159.033203 0)"/>
      </g>
     </g>
    </g>
    <g id="xtick_2">
     <g id="line2d_3">
      <path d="M 207.320668 435.8875 
L 207.320668 25.8 
" clip-path="url(#p8112b56f9d)" style="fill: none; stroke: #30333e; stroke-width: 0.6; stroke-linecap: square"/>
     </g>
     <g id="line2d_4">
      <g>
       <use xlink:href="#m2d581a5f7b" x="207.320668" y="435.8875" style="fill: #e0e0e0; stroke: #e0e0e0; stroke-width: 0.8"/>
      </g>
     </g>
     <g id="text_2">
      <!-- 256 B -->
      <g style="fill: #e0e0e0" transform="translate(192.757386 450.485937) scale(0.1 -0.1)">
       <defs>
        <path id="DejaVuSans-32" d="M 1228 531 
L 3431 531 
L 3431 0 
L 469 0 
L 469 531 
Q 828 903 1448 1529 
Q 2069 2156 2228 2338 
Q 2531 2678 2651 2914 
Q 2772 3150 2772 3378 
Q 2772 3750 2511 3984 
Q 2250 4219 1831 4219 
Q 1534 4219 1204 4116 
Q 875 4013 500 3803 
L 500 4441 
Q 881 4594 1212 4672 
Q 1544 4750 1819 4750 
Q 2544 4750 2975 4387 
Q 3406 4025 3406 3419 
Q 3406 3131 3298 2873 
Q 3191 2616 2906 2266 
Q 2828 2175 2409 1742 
Q 1991 1309 1228 531 
z
" transform="scale(0.015625)"/>
        <path id="DejaVuSans-35" d="M 691 4666 
L 3169 4666 
L 3169 4134 
L 1269 4134 
L 1269 2991 
Q 1406 3038 1543 3061 
Q 1681 3084 1819 3084 
Q 2600 3084 3056 2656 
Q 3513 2228 3513 1497 
Q 3513 744 3044 326 
Q 2575 -91 1722 -91 
Q 1428 -91 1123 -41 
Q 819 9 494 109 
L 494 744 
Q 775 591 1075 516 
Q 1375 441 1709 441 
Q 2250 441 2565 725 
Q 2881 1009 2881 1497 
Q 2881 1984 2565 2268 
Q 2250 2553 1709 2553 
Q 1456 2553 1204 2497 
Q 953 2441 691 2322 
L 691 4666 
z
" transform="scale(0.015625)"/>
       </defs>
       <use xlink:href="#DejaVuSans-32"/>
       <use xlink:href="#DejaVuSans-35" transform="translate(63.623047 0)"/>
       <use xlink:href="#DejaVuSans-36" transform="translate(127.246094 0)"/>
       <use xlink:href="#DejaVuSans-20" transform="translate(190.869141 0)"/>
       <use xlink:href="#DejaVuSans-42" transform="translate(222.65625 0)"/>
      </g>
     </g>
    </g>
    <g id="xtick_3">
     <g id="line2d_5">
      <path d="M 286.361151 435.8875 
L 286.361151 25.8 
" clip-path="url(#p8112b56f9d)" style="fill: none; stroke: #30333e; stroke-width: 0.6; stroke-linecap: square"/>
     </g>
     <g id="line2d_6">
      <g>
       <use xlink:href="#m2d581a5f7b" x="286.361151" y="435.8875" style="fill: #e0e0e0; stroke: #e0e0e0; stroke-width: 0.8"/>
      </g>
     </g>
     <g id="text_3">
      <!-- 1 KB -->
      <g style="fill: #e0e0e0" transform="translate(274.881463 450.485937) scale(0.1 -0.1)">
       <defs>
        <path id="DejaVuSans-31" d="M 794 531 
L 1825 531 
L 1825 4091 
L 703 3866 
L 703 4441 
L 1819 4666 
L 2450 4666 
L 2450 531 
L 3481 531 
L 3481 0 
L 794 0 
L 794 531 
z
" transform="scale(0.015625)"/>
        <path id="DejaVuSans-4b" d="M 628 4666 
L 1259 4666 
L 1259 2694 
L 3353 4666 
L 4166 4666 
L 1850 2491 
L 4331 0 
L 3500 0 
L 1259 2247 
L 1259 0 
L 628 0 
L 628 4666 
z
" transform="scale(0.015625)"/>
       </defs>
       <use xlink:href="#DejaVuSans-31"/>
       <use xlink:href="#DejaVuSans-20" transform="translate(63.623047 0)"/>
       <use xlink:href="#DejaVuSans-4b" transform="translate(95.410156 0)"/>
       <use xlink:href="#DejaVuSans-42" transform="translate(160.986328 0)"/>
      </g>
     </g>
    </g>
    <g id="xtick_4">
     <g id="line2d_7">
      <path d="M 365.401634 435.8875 
L 365.401634 25.8 
" clip-path="url(#p8112b56f9d)" style="fill: none; stroke: #30333e; stroke-width: 0.6; stroke-linecap: square"/>
     </g>
     <g id="line2d_8">
      <g>
       <use xlink:href="#m2d581a5f7b" x="365.401634" y="435.8875" style="fill: #e0e0e0; stroke: #e0e0e0; stroke-width: 0.8"/>
      </g>
     </g>
     <g id="text_4">
      <!-- 4 KB -->
      <g style="fill: #e0e0e0" transform="translate(353.921946 450.485937) scale(0.1 -0.1)">
       <use xlink:href="#DejaVuSans-34"/>
       <use xlink:href="#DejaVuSans-20" transform="translate(63.623047 0)"/>
       <use xlink:href="#DejaVuSans-4b" transform="translate(95.410156 0)"/>
       <use xlink:href="#DejaVuSans-42" transform="translate(160.986328 0)"/>
      </g>
     </g>
    </g>
    <g id="xtick_5">
     <g id="line2d_9">
      <path d="M 444.442116 435.8875 
L 444.442116 25.8 
" clip-path="url(#p8112b56f9d)" style="fill: none; stroke: #30333e; stroke-width: 0.6; stroke-linecap: square"/>
     </g>
     <g id="line2d_10">
      <g>
       <use xlink:href="#m2d581a5f7b" x="444.442116" y="435.8875" style="fill: #e0e0e0; stroke: #e0e0e0; stroke-width: 0.8"/>
      </g>
     </g>
     <g id="text_5">
      <!-- 16 KB -->
      <g style="fill: #e0e0e0" transform="translate(429.781179 450.485937) scale(0.1 -0.1)">
       <use xlink:href="#DejaVuSans-31"/>
       <use xlink:href="#DejaVuSans-36" transform="translate(63.623047 0)"/>
       <use xlink:href="#DejaVuSans-20" transform="translate(127.246094 0)"/>
       <use xlink:href="#DejaVuSans-4b" transform="translate(159.033203 0)"/>
       <use xlink:href="#DejaVuSans-42" transform="translate(224.609375 0)"/>
      </g>
     </g>
    </g>
    <g id="xtick_6">
     <g id="line2d_11">
      <path d="M 523.482599 435.8875 
L 523.482599 25.8 
" clip-path="url(#p8112b56f9d)" style="fill: none; stroke: #30333e; stroke-width: 0.6; stroke-linecap: square"/>
     </g>
     <g id="line2d_12">
      <g>
       <use xlink:href="#m2d581a5f7b" x="523.482599" y="435.8875" style="fill: #e0e0e0; stroke: #e0e0e0; stroke-width: 0.8"/>
      </g>
     </g>
     <g id="text_6">
      <!-- 64 KB -->
      <g style="fill: #e0e0e0" transform="translate(508.821662 450.485937) scale(0.1 -0.1)">
       <use xlink:href="#DejaVuSans-36"/>
       <use xlink:href="#DejaVuSans-34" transform="translate(63.623047 0)"/>
       <use xlink:href="#DejaVuSans-20" transform="translate(127.246094 0)"/>
       <use xlink:href="#DejaVuSans-4b" transform="translate(159.033203 0)"/>
       <use xlink:href="#DejaVuSans-42" transform="translate(224.609375 0)"/>
      </g>
     </g>
    </g>
    <g id="xtick_7">
     <g id="line2d_13">
      <path d="M 602.523082 435.8875 
L 602.523082 25.8 
" clip-path="url(#p8112b56f9d)" style="fill: none; stroke: #30333e; stroke-width: 0.6; stroke-linecap: square"/>
     </g>
     <g id="line2d_14">
      <g>
       <use xlink:href="#m2d581a5f7b" x="602.523082" y="435.8875" style="fill: #e0e0e0; stroke: #e0e0e0; stroke-width: 0.8"/>
      </g>
     </g>
     <g id="text_7">
      <!-- 256 KB -->
      <g style="fill: #e0e0e0" transform="translate(584.680895 450.485937) scale(0.1 -0.1)">
       <use xlink:href="#DejaVuSans-32"/>
       <use xlink:href="#DejaVuSans-35" transform="translate(63.623047 0)"/>
       <use xlink:href="#DejaVuSans-36" transform="translate(127.246094 0)"/>
       <use xlink:href="#DejaVuSans-20" transform="translate(190.869141 0)"/>
       <use xlink:href="#DejaVuSans-4b" transform="translate(222.65625 0)"/>
       <use xlink:href="#DejaVuSans-42" transform="translate(288.232422 0)"/>
      </g>
     </g>
    </g>
    <g id="xtick_8">
     <g id="line2d_15">
      <path d="M 681.563565 435.8875 
L 681.563565 25.8 
" clip-path="url(#p8112b56f9d)" style="fill: none; stroke: #30333e; stroke-width: 0.6; stroke-linecap: square"/>
     </g>
     <g id="line2d_16">
      <g>
       <use xlink:href="#m2d581a5f7b" x="681.563565" y="435.8875" style="fill: #e0e0e0; stroke: #e0e0e0; stroke-width: 0.8"/>
      </g>
     </g>
     <g id="text_8">
      <!-- 1 MB -->
      <g style="fill: #e0e0e0" transform="translate(669.048722 450.485937) scale(0.1 -0.1)">
       <defs>
        <path id="DejaVuSans-4d" d="M 628 4666 
L 1569 4666 
L 2759 1491 
L 3956 4666 
L 4897 4666 
L 4897 0 
L 4281 0 
L 4281 4097 
L 3078 897 
L 2444 897 
L 1241 4097 
L 1241 0 
L 628 0 
L 628 4666 
z
" transform="scale(0.015625)"/>
       </defs>
       <use xlink:href="#DejaVuSans-31"/>
       <use xlink:href="#DejaVuSans-20" transform="translate(63.623047 0)"/>
       <use xlink:href="#DejaVuSans-4d" transform="translate(95.410156 0)"/>
       <use xlink:href="#DejaVuSans-42" transform="translate(181.689453 0)"/>
      </g>
     </g>
    </g>
    <g id="text_9">
     <!-- Block size -->
     <g style="fill: #e0e0e0" transform="translate(380.114844 464.164062) scale(0.1 -0.1)">
      <defs>
       <path id="DejaVuSans-6c" d="M 603 4863 
L 1178 4863 
L 1178 0 
L 603 0 
L 603 4863 
z
" transform="scale(0.015625)"/>
       <path id="DejaVuSans-6f" d="M 1959 3097 
Q 1497 3097 1228 2736 
Q 959 2375 959 1747 
Q 959 1119 1226 758 
Q 1494 397 1959 397 
Q 2419 397 2687 759 
Q 2956 1122 2956 1747 
Q 2956 2369 2687 2733 
Q 2419 3097 1959 3097 
z
M 1959 3584 
Q 2709 3584 3137 3096 
Q 3566 2609 3566 1747 
Q 3566 888 3137 398 
Q 2709 -91 1959 -91 
Q 1206 -91 779 398 
Q 353 888 353 1747 
Q 353 2609 779 3096 
Q 1206 3584 1959 3584 
z
" transform="scale(0.015625)"/>
       <path id="DejaVuSans-63" d="M 3122 3366 
L 3122 2828 
Q 2878 2963 2633 3030 
Q 2388 3097 2138 3097 
Q 1578 3097 1268 2742 
Q 959 2388 959 1747 
Q 959 1106 1268 751 
Q 1578 397 2138 397 
Q 2388 397 2633 464 
Q 2878 531 3122 666 
L 3122 134 
Q 2881 22 2623 -34 
Q 2366 -91 2075 -91 
Q 1284 -91 818 406 
Q 353 903 353 1747 
Q 353 2603 823 3093 
Q 1294 3584 2113 3584 
Q 2378 3584 2631 3529 
Q 2884 3475 3122 3366 
z
" transform="scale(0.015625)"/>
       <path id="DejaVuSans-6b" d="M 581 4863 
L 1159 4863 
L 1159 1991 
L 2875 3500 
L 3609 3500 
L 1753 1863 
L 3688 0 
L 2938 0 
L 1159 1709 
L 1159 0 
L 581 0 
L 581 4863 
z
" transform="scale(0.015625)"/>
       <path id="DejaVuSans-73" d="M 2834 3397 
L 2834 2853 
Q 2591 2978 2328 3040 
Q 2066 3103 1784 3103 
Q 1356 3103 1142 2972 
Q 928 2841 928 2578 
Q 928 2378 1081 2264 
Q 1234 2150 1697 2047 
L 1894 2003 
Q 2506 1872 2764 1633 
Q 3022 1394 3022 966 
Q 3022 478 2636 193 
Q 2250 -91 1575 -91 
Q 1294 -91 989 -36 
Q 684 19 347 128 
L 347 722 
Q 666 556 975 473 
Q 1284 391 1588 391 
Q 1994 391 2212 530 
Q 2431 669 2431 922 
Q 2431 1156 2273 1281 
Q 2116 1406 1581 1522 
L 1381 1569 
Q 847 1681 609 1914 
Q 372 2147 372 2553 
Q 372 3047 722 3315 
Q 1072 3584 1716 3584 
Q 2034 3584 2315 3537 
Q 2597 3491 2834 3397 
z
" transform="scale(0.015625)"/>
       <path id="DejaVuSans-69" d="M 603 3500 
L 1178 3500 
L 1178 0 
L 603 0 
L 603 3500 
z
M 603 4863 
L 1178 4863 
L 1178 4134 
L 603 4134 
L 603 4863 
z
" transform="scale(0.015625)"/>
       <path id="DejaVuSans-7a" d="M 353 3500 
L 3084 3500 
L 3084 2975 
L 922 459 
L 3084 459 
L 3084 0 
L 275 0 
L 275 525 
L 2438 3041 
L 353 3041 
L 353 3500 
z
" transform="scale(0.015625)"/>
       <path id="DejaVuSans-65" d="M 3597 1894 
L 3597 1613 
L 953 1613 
Q 991 1019 1311 708 
Q 1631 397 2203 397 
Q 2534 397 2845 478 
Q 3156 559 3463 722 
L 3463 178 
Q 3153 47 2828 -22 
Q 2503 -91 2169 -91 
Q 1331 -91 842 396 
Q 353 884 353 1716 
Q 353 2575 817 3079 
Q 1281 3584 2069 3584 
Q 2775 3584 3186 3129 
Q 3597 2675 3597 1894 
z
M 3022 2063 
Q 3016 2534 2758 2815 
Q 2500 3097 2075 3097 
Q 1594 3097 1305 2825 
Q 1016 2553 972 2059 
L 3022 2063 
z
" transform="scale(0.015625)"/>
      </defs>
      <use xlink:href="#DejaVuSans-42"/>
      <use xlink:href="#DejaVuSans-6c" transform="translate(68.603516 0)"/>
      <use xlink:href="#DejaVuSans-6f" transform="translate(96.386719 0)"/>
      <use xlink:href="#DejaVuSans-63" transform="translate(157.568359 0)"/>
      <use xlink:href="#DejaVuSans-6b" transform="translate(212.548828 0)"/>
      <use xlink:href="#DejaVuSans-20" transform="translate(270.458984 0)"/>
      <use xlink:href="#DejaVuSans-73" transform="translate(302.246094 0)"/>
      <use xlink:href="#DejaVuSans-69" transform="translate(354.345703 0)"/>
      <use xlink:href="#DejaVuSans-7a" transform="translate(382.128906 0)"/>
      <use xlink:href="#DejaVuSans-65" transform="translate(434.619141 0)"/>
     </g>
    </g>
   </g>
   <g id="matplotlib.axis_2">
    <g id="ytick_1">
     <g id="line2d_17">
      <path d="M 57.14375 435.8875 
L 752.7 435.8875 
" clip-path="url(#p8112b56f9d)" style="fill: none; stroke: #30333e; stroke-width: 0.6; stroke-linecap: square"/>
     </g>
     <g id="line2d_18">
      <defs>
       <path id="m485ba17d8c" d="M 0 0 
L -3.5 0 
" style="stroke: #e0e0e0; stroke-width: 0.8"/>
      </defs>
      <g>
       <use xlink:href="#m485ba17d8c" x="57.14375" y="435.8875" style="fill: #e0e0e0; stroke: #e0e0e0; stroke-width: 0.8"/>
      </g>
     </g>
     <g id="text_10">
      <!-- 0 -->
      <g style="fill: #e0e0e0" transform="translate(43.78125 439.686719) scale(0.1 -0.1)">
       <defs>
        <path id="DejaVuSans-30" d="M 2034 4250 
Q 1547 4250 1301 3770 
Q 1056 3291 1056 2328 
Q 1056 1369 1301 889 
Q 1547 409 2034 409 
Q 2525 409 2770 889 
Q 3016 1369 3016 2328 
Q 3016 3291 2770 3770 
Q 2525 4250 2034 4250 
z
M 2034 4750 
Q 2819 4750 3233 4129 
Q 3647 3509 3647 2328 
Q 3647 1150 3233 529 
Q 2819 -91 2034 -91 
Q 1250 -91 836 529 
Q 422 1150 422 2328 
Q 422 3509 836 4129 
Q 1250 4750 2034 4750 
z
" transform="scale(0.015625)"/>
       </defs>
       <use xlink:href="#DejaVuSans-30"/>
      </g>
     </g>
    </g>
    <g id="ytick_2">
     <g id="line2d_19">
      <path d="M 57.14375 383.625717 
L 752.7 383.625717 
" clip-path="url(#p8112b56f9d)" style="fill: none; stroke: #30333e; stroke-width: 0.6; stroke-linecap: square"/>
     </g>
     <g id="line2d_20">
      <g>
       <use xlink:href="#m485ba17d8c" x="57.14375" y="383.625717" style="fill: #e0e0e0; stroke: #e0e0e0; stroke-width: 0.8"/>
      </g>
     </g>
     <g id="text_11">
      <!-- 1000 -->
      <g style="fill: #e0e0e0" transform="translate(24.69375 387.424936) scale(0.1 -0.1)">
       <use xlink:href="#DejaVuSans-31"/>
       <use xlink:href="#DejaVuSans-30" transform="translate(63.623047 0)"/>
       <use xlink:href="#DejaVuSans-30" transform="translate(127.246094 0)"/>
       <use xlink:href="#DejaVuSans-30" transform="translate(190.869141 0)"/>
      </g>
     </g>
    </g>
    <g id="ytick_3">
     <g id="line2d_21">
      <path d="M 57.14375 331.363934 
L 752.7 331.363934 
" clip-path="url(#p8112b56f9d)" style="fill: none; stroke: #30333e; stroke-width: 0.6; stroke-linecap: square"/>
     </g>
     <g id="line2d_22">
      <g>
       <use xlink:href="#m485ba17d8c" x="57.14375" y="331.363934" style="fill: #e0e0e0; stroke: #e0e0e0; stroke-width: 0.8"/>
      </g>
     </g>
     <g id="text_12">
      <!-- 2000 -->
      <g style="fill: #e0e0e0" transform="translate(24.69375 335.163153) scale(0.1 -0.1)">
       <use xlink:href="#DejaVuSans-32"/>
       <use xlink:href="#DejaVuSans-30" transform="translate(63.623047 0)"/>
       <use xlink:href="#DejaVuSans-30" transform="translate(127.246094 0)"/>
       <use xlink:href="#DejaVuSans-30" transform="translate(190.869141 0)"/>
      </g>
     </g>
    </g>
    <g id="ytick_4">
     <g id="line2d_23">
      <path d="M 57.14375 279.102151 
L 752.7 279.102151 
" clip-path="url(#p8112b56f9d)" style="fill: none; stroke: #30333e; stroke-width: 0.6; stroke-linecap: square"/>
     </g>
     <g id="line2d_24">
      <g>
       <use xlink:href="#m485ba17d8c" x="57.14375" y="279.102151" style="fill: #e0e0e0; stroke: #e0e0e0; stroke-width: 0.8"/>
      </g>
     </g>
     <g id="text_13">
      <!-- 3000 -->
      <g style="fill: #e0e0e0" transform="translate(24.69375 282.90137) scale(0.1 -0.1)">
       <defs>
        <path id="DejaVuSans-33" d="M 2597 2516 
Q 3050 2419 3304 2112 
Q 3559 1806 3559 1356 
Q 3559 666 3084 287 
Q 2609 -91 1734 -91 
Q 1441 -91 1130 -33 
Q 819 25 488 141 
L 488 750 
Q 750 597 1062 519 
Q 1375 441 1716 441 
Q 2309 441 2620 675 
Q 2931 909 2931 1356 
Q 2931 1769 2642 2001 
Q 2353 2234 1838 2234 
L 1294 2234 
L 1294 2753 
L 1863 2753 
Q 2328 2753 2575 2939 
Q 2822 3125 2822 3475 
Q 2822 3834 2567 4026 
Q 2313 4219 1838 4219 
Q 1578 4219 1281 4162 
Q 984 4106 628 3988 
L 628 4550 
Q 988 4650 1302 4700 
Q 1616 4750 1894 4750 
Q 2613 4750 3031 4423 
Q 3450 4097 3450 3541 
Q 3450 3153 3228 2886 
Q 3006 2619 2597 2516 
z
" transform="scale(0.015625)"/>
       </defs>
       <use xlink:href="#DejaVuSans-33"/>
       <use xlink:href="#DejaVuSans-30" transform="translate(63.623047 0)"/>
       <use xlink:href="#DejaVuSans-30" transform="translate(127.246094 0)"/>
       <use xlink:href="#DejaVuSans-30" transform="translate(190.869141 0)"/>
      </g>
     </g>
    </g>
    <g id="ytick_5">
     <g id="line2d_25">
      <path d="M 57.14375 226.840368 
L 752.7 226.840368 
" clip-path="url(#p8112b56f9d)" style="fill: none; stroke: #30333e; stroke-width: 0.6; stroke-linecap: square"/>
     </g>
     <g id="line2d_26">
      <g>
       <use xlink:href="#m485ba17d8c" x="57.14375" y="226.840368" style="fill: #e0e0e0; stroke: #e0e0e0; stroke-width: 0.8"/>
      </g>
     </g>
     <g id="text_14">
      <!-- 4000 -->
      <g style="fill: #e0e0e0" transform="translate(24.69375 230.639587) scale(0.1 -0.1)">
       <use xlink:href="#DejaVuSans-34"/>
       <use xlink:href="#DejaVuSans-30" transform="translate(63.623047 0)"/>
       <use xlink:href="#DejaVuSans-30" transform="translate(127.246094 0)"/>
       <use xlink:href="#DejaVuSans-30" transform="translate(190.869141 0)"/>
      </g>
     </g>
    </g>
    <g id="ytick_6">
     <g id="line2d_27">
      <path d="M 57.14375 174.578585 
L 752.7 174.578585 
" clip-path="url(#p8112b56f9d)" style="fill: none; stroke: #30333e; stroke-width: 0.6; stroke-linecap: square"/>
     </g>
     <g id="line2d_28">
      <g>
       <use xlink:href="#m485ba17d8c" x="57.14375" y="174.578585" style="fill: #e0e0e0; stroke: #e0e0e0; stroke-width: 0.8"/>
      </g>
     </g>
     <g id="text_15">
      <!-- 5000 -->
      <g style="fill: #e0e0e0" transform="translate(24.69375 178.377804) scale(0.1 -0.1)">
       <use xlink:href="#DejaVuSans-35"/>
       <use xlink:href="#DejaVuSans-30" transform="translate(63.623047 0)"/>
       <use xlink:href="#DejaVuSans-30" transform="translate(127.246094 0)"/>
       <use xlink:href="#DejaVuSans-30" transform="translate(190.869141 0)"/>
      </g>
     </g>
    </g>
    <g id="ytick_7">
     <g id="line2d_29">
      <path d="M 57.14375 122.316803 
L 752.7 122.316803 
" clip-path="url(#p8112b56f9d)" style="fill: none; stroke: #30333e; stroke-width: 0.6; stroke-linecap: square"/>
     </g>
     <g id="line2d_30">
      <g>
       <use xlink:href="#m485ba17d8c" x="57.14375" y="122.316803" style="fill: #e0e0e0; stroke: #e0e0e0; stroke-width: 0.8"/>
      </g>
     </g>
     <g id="text_16">
      <!-- 6000 -->
      <g style="fill: #e0e0e0" transform="translate(24.69375 126.116021) scale(0.1 -0.1)">
       <use xlink:href="#DejaVuSans-36"/>
       <use xlink:href="#DejaVuSans-30" transform="translate(63.623047 0)"/>
       <use xlink:href="#DejaVuSans-30" transform="translate(127.246094 0)"/>
       <use xlink:href="#DejaVuSans-30" transform="translate(190.869141 0)"/>
      </g>
     </g>
    </g>
    <g id="ytick_8">
     <g id="line2d_31">
      <path d="M 57.14375 70.05502 
L 752.7 70.05502 
" clip-path="url(#p8112b56f9d)" style="fill: none; stroke: #30333e; stroke-width: 0.6; stroke-linecap: square"/>
     </g>
     <g id="line2d_32">
      <g>
       <use xlink:href="#m485ba17d8c" x="57.14375" y="70.05502" style="fill: #e0e0e0; stroke: #e0e0e0; stroke-width: 0.8"/>
      </g>
     </g>
     <g id="text_17">
      <!-- 7000 -->
      <g style="fill: #e0e0e0" transform="translate(24.69375 73.854238) scale(0.1 -0.1)">
       <defs>
        <path id="DejaVuSans-37" d="M 525 4666 
L 3525 4666 
L 3525 4397 
L 1831 0 
L 1172 0 
L 2766 4134 
L 525 4134 
L 525 4666 
z
" transform="scale(0.015625)"/>
       </defs>
       <use xlink:href="#DejaVuSans-37"/>
       <use xlink:href="#DejaVuSans-30" transform="translate(63.623047 0)"/>
       <use xlink:href="#DejaVuSans-30" transform="translate(127.246094 0)"/>
       <use xlink:href="#DejaVuSans-30" transform="translate(190.869141 0)"/>
      </g>
     </g>
    </g>
    <g id="text_18">
     <!-- Throughput (MB/s) -->
     <g style="fill: #e0e0e0" transform="translate(18.614062 277.407812) rotate(-90) scale(0.1 -0.1)">
      <defs>
       <path id="DejaVuSans-54" d="M -19 4666 
L 3928 4666 
L 3928 4134 
L 2272 4134 
L 2272 0 
L 1638 0 
L 1638 4134 
L -19 4134 
L -19 4666 
z
" transform="scale(0.015625)"/>
       <path id="DejaVuSans-68" d="M 3513 2113 
L 3513 0 
L 2938 0 
L 2938 2094 
Q 2938 2591 2744 2837 
Q 2550 3084 2163 3084 
Q 1697 3084 1428 2787 
Q 1159 2491 1159 1978 
L 1159 0 
L 581 0 
L 581 4863 
L 1159 4863 
L 1159 2956 
Q 1366 3272 1645 3428 
Q 1925 3584 2291 3584 
Q 2894 3584 3203 3211 
Q 3513 2838 3513 2113 
z
" transform="scale(0.015625)"/>
       <path id="DejaVuSans-72" d="M 2631 2963 
Q 2534 3019 2420 3045 
Q 2306 3072 2169 3072 
Q 1681 3072 1420 2755 
Q 1159 2438 1159 1844 
L 1159 0 
L 581 0 
L 581 3500 
L 1159 3500 
L 1159 2956 
Q 1341 3275 1631 3429 
Q 1922 3584 2338 3584 
Q 2397 3584 2469 3576 
Q 2541 3569 2628 3553 
L 2631 2963 
z
" transform="scale(0.015625)"/>
       <path id="DejaVuSans-75" d="M 544 1381 
L 544 3500 
L 1119 3500 
L 1119 1403 
Q 1119 906 1312 657 
Q 1506 409 1894 409 
Q 2359 409 2629 706 
Q 2900 1003 2900 1516 
L 2900 3500 
L 3475 3500 
L 3475 0 
L 2900 0 
L 2900 538 
Q 2691 219 2414 64 
Q 2138 -91 1772 -91 
Q 1169 -91 856 284 
Q 544 659 544 1381 
z
M 1991 3584 
L 1991 3584 
z
" transform="scale(0.015625)"/>
       <path id="DejaVuSans-67" d="M 2906 1791 
Q 2906 2416 2648 2759 
Q 2391 3103 1925 3103 
Q 1463 3103 1205 2759 
Q 947 2416 947 1791 
Q 947 1169 1205 825 
Q 1463 481 1925 481 
Q 2391 481 2648 825 
Q 2906 1169 2906 1791 
z
M 3481 434 
Q 3481 -459 3084 -895 
Q 2688 -1331 1869 -1331 
Q 1566 -1331 1297 -1286 
Q 1028 -1241 775 -1147 
L 775 -588 
Q 1028 -725 1275 -790 
Q 1522 -856 1778 -856 
Q 2344 -856 2625 -561 
Q 2906 -266 2906 331 
L 2906 616 
Q 2728 306 2450 153 
Q 2172 0 1784 0 
Q 1141 0 747 490 
Q 353 981 353 1791 
Q 353 2603 747 3093 
Q 1141 3584 1784 3584 
Q 2172 3584 2450 3431 
Q 2728 3278 2906 2969 
L 2906 3500 
L 3481 3500 
L 3481 434 
z
" transform="scale(0.015625)"/>
       <path id="DejaVuSans-70" d="M 1159 525 
L 1159 -1331 
L 581 -1331 
L 581 3500 
L 1159 3500 
L 1159 2969 
Q 1341 3281 1617 3432 
Q 1894 3584 2278 3584 
Q 2916 3584 3314 3078 
Q 3713 2572 3713 1747 
Q 3713 922 3314 415 
Q 2916 -91 2278 -91 
Q 1894 -91 1617 61 
Q 1341 213 1159 525 
z
M 3116 1747 
Q 3116 2381 2855 2742 
Q 2594 3103 2138 3103 
Q 1681 3103 1420 2742 
Q 1159 2381 1159 1747 
Q 1159 1113 1420 752 
Q 1681 391 2138 391 
Q 2594 391 2855 752 
Q 3116 1113 3116 1747 
z
" transform="scale(0.015625)"/>
       <path id="DejaVuSans-74" d="M 1172 4494 
L 1172 3500 
L 2356 3500 
L 2356 3053 
L 1172 3053 
L 1172 1153 
Q 1172 725 1289 603 
Q 1406 481 1766 481 
L 2356 481 
L 2356 0 
L 1766 0 
Q 1100 0 847 248 
Q 594 497 594 1153 
L 594 3053 
L 172 3053 
L 172 3500 
L 594 3500 
L 594 4494 
L 1172 4494 
z
" transform="scale(0.015625)"/>
       <path id="DejaVuSans-28" d="M 1984 4856 
Q 1566 4138 1362 3434 
Q 1159 2731 1159 2009 
Q 1159 1288 1364 580 
Q 1569 -128 1984 -844 
L 1484 -844 
Q 1016 -109 783 600 
Q 550 1309 550 2009 
Q 550 2706 781 3412 
Q 1013 4119 1484 4856 
L 1984 4856 
z
" transform="scale(0.015625)"/>
       <path id="DejaVuSans-2f" d="M 1625 4666 
L 2156 4666 
L 531 -594 
L 0 -594 
L 1625 4666 
z
" transform="scale(0.015625)"/>
       <path id="DejaVuSans-29" d="M 513 4856 
L 1013 4856 
Q 1481 4119 1714 3412 
Q 1947 2706 1947 2009 
Q 1947 1309 1714 600 
Q 1481 -109 1013 -844 
L 513 -844 
Q 928 -128 1133 580 
Q 1338 1288 1338 2009 
Q 1338 2731 1133 3434 
Q 928 4138 513 4856 
z
" transform="scale(0.015625)"/>
      </defs>
      <use xlink:href="#DejaVuSans-54"/>
      <use xlink:href="#DejaVuSans-68" transform="translate(61.083984 0)"/>
      <use xlink:href="#DejaVuSans-72" transform="translate(124.462891 0)"/>
      <use xlink:href="#DejaVuSans-6f" transform="translate(163.326172 0)"/>
      <use xlink:href="#DejaVuSans-75" transform="translate(224.507812 0)"/>
      <use xlink:href="#DejaVuSans-67" transform="translate(287.886719 0)"/>
      <use xlink:href="#DejaVuSans-68" transform="translate(351.363281 0)"/>
      <use xlink:href="#DejaVuSans-70" transform="translate(414.742188 0)"/>
      <use xlink:href="#DejaVuSans-75" transform="translate(478.21875 0)"/>
      <use xlink:href="#DejaVuSans-74" transform="translate(541.597656 0)"/>
      <use xlink:href="#DejaVuSans-20" transform="translate(580.806641 0)"/>
      <use xlink:href="#DejaVuSans-28" transform="translate(612.59375 0)"/>
      <use xlink:href="#DejaVuSans-4d" transform="translate(651.607422 0)"/>
      <use xlink:href="#DejaVuSans-42" transform="translate(737.886719 0)"/>
      <use xlink:href="#DejaVuSans-2f" transform="translate(806.490234 0)"/>
      <use xlink:href="#DejaVuSans-73" transform="translate(840.181641 0)"/>
      <use xlink:href="#DejaVuSans-29" transform="translate(892.28125 0)"/>
     </g>
    </g>
   </g>
   <g id="line2d_33">
    <path d="M 88.759943 409.459176 
L 128.280185 401.565356 
L 167.800426 400.366452 
L 207.320668 374.124089 
L 246.840909 337.151328 
L 286.361151 291.659086 
L 325.881392 233.74193 
L 365.401634 189.352896 
L 404.921875 147.908167 
L 444.442116 122.836874 
L 483.962358 81.794782 
L 523.482599 65.569142 
L 563.002841 58.583061 
L 602.523082 53.504525 
L 642.043324 52.085148 
L 681.563565 49.811136 
" clip-path="url(#p8112b56f9d)" style="fill: none; stroke: #90caf9; stroke-width: 1.5; stroke-linecap: square"/>
    <defs>
     <path id="m0c77c4c4c4" d="M 0 1.5 
C 0.397805 1.5 0.77937 1.341951 1.06066 1.06066 
C 1.341951 0.77937 1.5 0.397805 1.5 0 
C 1.5 -0.397805 1.341951 -0.77937 1.06066 -1.06066 
C 0.77937 -1.341951 0.397805 -1.5 0 -1.5 
C -0.397805 -1.5 -0.77937 -1.341951 -1.06066 -1.06066 
C -1.341951 -0.77937 -1.5 -0.397805 -1.5 0 
C -1.5 0.397805 -1.341951 0.77937 -1.06066 1.06066 
C -0.77937 1.341951 -0.397805 1.5 0 1.5 
z
" style="stroke: #90caf9"/>
    </defs>
    <g clip-path="url(#p8112b56f9d)">
     <use xlink:href="#m0c77c4c4c4" x="88.759943" y="409.459176" style="fill: #90caf9; stroke: #90caf9"/>
     <use xlink:href="#m0c77c4c4c4" x="128.280185" y="401.565356" style="fill: #90caf9; stroke: #90caf9"/>
     <use xlink:href="#m0c77c4c4c4" x="167.800426" y="400.366452" style="fill: #90caf9; stroke: #90caf9"/>
     <use xlink:href="#m0c77c4c4c4" x="207.320668" y="374.124089" style="fill: #90caf9; stroke: #90caf9"/>
     <use xlink:href="#m0c77c4c4c4" x="246.840909" y="337.151328" style="fill: #90caf9; stroke: #90caf9"/>
     <use xlink:href="#m0c77c4c4c4" x="286.361151" y="291.659086" style="fill: #90caf9; stroke: #90caf9"/>
     <use xlink:href="#m0c77c4c4c4" x="325.881392" y="233.74193" style="fill: #90caf9; stroke: #90caf9"/>
     <use xlink:href="#m0c77c4c4c4" x="365.401634" y="189.352896" style="fill: #90caf9; stroke: #90caf9"/>
     <use xlink:href="#m0c77c4c4c4" x="404.921875" y="147.908167" style="fill: #90caf9; stroke: #90caf9"/>
     <use xlink:href="#m0c77c4c4c4" x="444.442116" y="122.836874" style="fill: #90caf9; stroke: #90caf9"/>
     <use xlink:href="#m0c77c4c4c4" x="483.962358" y="81.794782" style="fill: #90caf9; stroke: #90caf9"/>
     <use xlink:href="#m0c77c4c4c4" x="523.482599" y="65.569142" style="fill: #90caf9; stroke: #90caf9"/>
     <use xlink:href="#m0c77c4c4c4" x="563.002841" y="58.583061" style="fill: #90caf9; stroke: #90caf9"/>
     <use xlink:href="#m0c77c4c4c4" x="602.523082" y="53.504525" style="fill: #90caf9; stroke: #90caf9"/>
     <use xlink:href="#m0c77c4c4c4" x="642.043324" y="52.085148" style="fill: #90caf9; stroke: #90caf9"/>
     <use xlink:href="#m0c77c4c4c4" x="681.563565" y="49.811136" style="fill: #90caf9; stroke: #90caf9"/>
    </g>
   </g>
   <g id="line2d_34">
    <path d="M 88.759943 408.304329 
L 128.280185 401.122699 
L 167.800426 399.936865 
L 207.320668 373.205402 
L 246.840909 337.805364 
L 286.361151 292.635761 
L 325.881392 229.513491 
L 365.401634 185.065579 
L 404.921875 144.09774 
L 444.442116 116.08655 
L 483.962358 81.885134 
L 523.482599 64.980129 
L 563.002841 54.28736 
L 602.523082 53.743177 
L 642.043324 52.431588 
L 681.563565 46.105319 
L 721.083807 44.069485 
" clip-path="url(#p8112b56f9d)" style="fill: none; stroke: #7dbff6; stroke-width: 1.5; stroke-linecap: square"/>
    <defs>
     <path id="m0bb8522bdc" d="M 0 1.5 
C 0.397805 1.5 0.77937 1.341951 1.06066 1.06066 
C 1.341951 0.77937 1.5 0.397805 1.5 0 
C 1.5 -0.397805 1.341951 -0.77937 1.06066 -1.06066 
C 0.77937 -1.341951 0.397805 -1.5 0 -1.5 
C -0.397805 -1.5 -0.77937 -1.341951 -1.06066 -1.06066 
C -1.341951 -0.77937 -1.5 -0.397805 -1.5 0 
C -1.5 0.397805 -1.341951 0.77937 -1.06066 1.06066 
C -0.77937 1.341951 -0.397805 1.5 0 1.5 
z
" style="stroke: #7dbff6"/>
    </defs>
    <g clip-path="url(#p8112b56f9d)">
     <use xlink:href="#m0bb8522bdc" x="88.759943" y="408.304329" style="fill: #7dbff6; stroke: #7dbff6"/>
     <use xlink:href="#m0bb8522bdc" x="128.280185" y="401.122699" style="fill: #7dbff6; stroke: #7dbff6"/>
     <use xlink:href="#m0bb8522bdc" x="167.800426" y="399.936865" style="fill: #7dbff6; stroke: #7dbff6"/>
     <use xlink:href="#m0bb8522bdc" x="207.320668" y="373.205402" style="fill: #7dbff6; stroke: #7dbff6"/>
     <use xlink:href="#m0bb8522bdc" x="246.840909" y="337.805364" style="fill: #7dbff6; stroke: #7dbff6"/>
     <use xlink:href="#m0bb8522bdc" x="286.361151" y="292.635761" style="fill: #7dbff6; stroke: #7dbff6"/>
     <use xlink:href="#m0bb8522bdc" x="325.881392" y="229.513491" style="fill: #7dbff6; stroke: #7dbff6"/>
     <use xlink:href="#m0bb8522bdc" x="365.401634" y="185.065579" style="fill: #7dbff6; stroke: #7dbff6"/>
     <use xlink:href="#m0bb8522bdc" x="404.921875" y="144.09774" style="fill: #7dbff6; stroke: #7dbff6"/>
     <use xlink:href="#m0bb8522bdc" x="444.442116" y="116.08655" style="fill: #7dbff6; stroke: #7dbff6"/>
     <use xlink:href="#m0bb8522bdc" x="483.962358" y="81.885134" style="fill: #7dbff6; stroke: #7dbff6"/>
     <use xlink:href="#m0bb8522bdc" x="523.482599" y="64.980129" style="fill: #7dbff6; stroke: #7dbff6"/>
     <use xlink:href="#m0bb8522bdc" x="563.002841" y="54.28736" style="fill: #7dbff6; stroke: #7dbff6"/>
     <use xlink:href="#m0bb8522bdc" x="602.523082" y="53.743177" style="fill: #7dbff6; stroke: #7dbff6"/>
     <use xlink:href="#m0bb8522bdc" x="642.043324" y="52.431588" style="fill: #7dbff6; stroke: #7dbff6"/>
     <use xlink:href="#m0bb8522bdc" x="681.563565" y="46.105319" style="fill: #7dbff6; stroke: #7dbff6"/>
     <use xlink:href="#m0bb8522bdc" x="721.083807" y="44.069485" style="fill: #7dbff6; stroke: #7dbff6"/>
    </g>
   </g>
   <g id="line2d_35">
    <path d="M 88.759943 405.273321 
L 128.280185 399.286031 
L 167.800426 399.616108 
L 207.320668 372.913676 
L 246.840909 336.891987 
L 286.361151 291.230395 
L 325.881392 228.500531 
L 365.401634 179.48203 
L 404.921875 140.527782 
L 444.442116 106.850024 
L 483.962358 82.039426 
L 523.482599 66.138824 
L 563.002841 56.42832 
L 602.523082 53.182741 
L 642.043324 67.351033 
L 681.563565 50.341478 
L 721.083807 51.645827 
" clip-path="url(#p8112b56f9d)" style="fill: none; stroke: #6ab4f2; stroke-width: 1.5; stroke-linecap: square"/>
    <defs>
     <path id="m97247e7391" d="M 0 1.5 
C 0.397805 1.5 0.77937 1.341951 1.06066 1.06066 
C 1.341951 0.77937 1.5 0.397805 1.5 0 
C 1.5 -0.397805 1.341951 -0.77937 1.06066 -1.06066 
C 0.77937 -1.341951 0.397805 -1.5 0 -1.5 
C -0.397805 -1.5 -0.77937 -1.341951 -1.06066 -1.06066 
C -1.341951 -0.77937 -1.5 -0.397805 -1.5 0 
C -1.5 0.397805 -1.341951 0.77937 -1.06066 1.06066 
C -0.77937 1.341951 -0.397805 1.5 0 1.5 
z
" style="stroke: #6ab4f2"/>
    </defs>
    <g clip-path="url(#p8112b56f9d)">
     <use xlink:href="#m97247e7391" x="88.759943" y="405.273321" style="fill: #6ab4f2; stroke: #6ab4f2"/>
     <use xlink:href="#m97247e7391" x="128.280185" y="399.286031" style="fill: #6ab4f2; stroke: #6ab4f2"/>
     <use xlink:href="#m97247e7391" x="167.800426" y="399.616108" style="fill: #6ab4f2; stroke: #6ab4f2"/>
     <use xlink:href="#m97247e7391" x="207.320668" y="372.913676" style="fill: #6ab4f2; stroke: #6ab4f2"/>
     <use xlink:href="#m97247e7391" x="246.840909" y="336.891987" style="fill: #6ab4f2; stroke: #6ab4f2"/>
     <use xlink:href="#m97247e7391" x="286.361151" y="291.230395" style="fill: #6ab4f2; stroke: #6ab4f2"/>
     <use xlink:href="#m97247e7391" x="325.881392" y="228.500531" style="fill: #6ab4f2; stroke: #6ab4f2"/>
     <use xlink:href="#m97247e7391" x="365.401634" y="179.48203" style="fill: #6ab4f2; stroke: #6ab4f2"/>
     <use xlink:href="#m97247e7391" x="404.921875" y="140.527782" style="fill: #6ab4f2; stroke: #6ab4f2"/>
     <use xlink:href="#m97247e7391" x="444.442116" y="106.850024" style="fill: #6ab4f2; stroke: #6ab4f2"/>
     <use xlink:href="#m97247e7391" x="483.962358" y="82.039426" style="fill: #6ab4f2; stroke: #6ab4f2"/>
     <use xlink:href="#m97247e7391" x="523.482599" y="66.138824" style="fill: #6ab4f2; stroke: #6ab4f2"/>
     <use xlink:href="#m97247e7391" x="563.002841" y="56.42832" style="fill: #6ab4f2; stroke: #6ab4f2"/>
     <use xlink:href="#m97247e7391" x="602.523082" y="53.182741" style="fill: #6ab4f2; stroke: #6ab4f2"/>
     <use xlink:href="#m97247e7391" x="642.043324" y="67.351033" style="fill: #6ab4f2; stroke: #6ab4f2"/>
     <use xlink:href="#m97247e7391" x="681.563565" y="50.341478" style="fill: #6ab4f2; stroke: #6ab4f2"/>
     <use xlink:href="#m97247e7391" x="721.083807" y="51.645827" style="fill: #6ab4f2; stroke: #6ab4f2"/>
    </g>
   </g>
   <g id="line2d_36">
    <path d="M 88.759943 398.377352 
L 128.280185 396.81305 
L 167.800426 398.011804 
L 207.320668 372.823723 
L 246.840909 336.797339 
L 286.361151 292.351444 
L 325.881392 228.538784 
L 365.401634 181.256311 
L 404.921875 141.291115 
L 444.442116 115.290473 
L 483.962358 84.377229 
L 523.482599 71.504627 
L 563.002841 60.233186 
L 602.523082 54.733257 
L 642.043324 52.841673 
L 681.563565 58.057582 
L 721.083807 50.927839 
" clip-path="url(#p8112b56f9d)" style="fill: none; stroke: #57a9ef; stroke-width: 1.5; stroke-linecap: square"/>
    <defs>
     <path id="maf9a50ba2b" d="M 0 1.5 
C 0.397805 1.5 0.77937 1.341951 1.06066 1.06066 
C 1.341951 0.77937 1.5 0.397805 1.5 0 
C 1.5 -0.397805 1.341951 -0.77937 1.06066 -1.06066 
C 0.77937 -1.341951 0.397805 -1.5 0 -1.5 
C -0.397805 -1.5 -0.77937 -1.341951 -1.06066 -1.06066 
C -1.341951 -0.77937 -1.5 -0.397805 -1.5 0 
C -1.5 0.397805 -1.341951 0.77937 -1.06066 1.06066 
C -0.77937 1.341951 -0.397805 1.5 0 1.5 
z
" style="stroke: #57a9ef"/>
    </defs>
    <g clip-path="url(#p8112b56f9d)">
     <use xlink:href="#maf9a50ba2b" x="88.759943" y="398.377352" style="fill: #57a9ef; stroke: #57a9ef"/>
     <use xlink:href="#maf9a50ba2b" x="128.280185" y="396.81305" style="fill: #57a9ef; stroke: #57a9ef"/>
     <use xlink:href="#maf9a50ba2b" x="167.800426" y="398.011804" style="fill: #57a9ef; stroke: #57a9ef"/>
     <use xlink:href="#maf9a50ba2b" x="207.320668" y="372.823723" style="fill: #57a9ef; stroke: #57a9ef"/>
     <use xlink:href="#maf9a50ba2b" x="246.840909" y="336.797339" style="fill: #57a9ef; stroke: #57a9ef"/>
     <use xlink:href="#maf9a50ba2b" x="286.361151" y="292.351444" style="fill: #57a9ef; stroke: #57a9ef"/>
     <use xlink:href="#maf9a50ba2b" x="325.881392" y="228.538784" style="fill: #57a9ef; stroke: #57a9ef"/>
     <use xlink:href="#maf9a50ba2b" x="365.401634" y="181.256311" style="fill: #57a9ef; stroke: #57a9ef"/>
     <use xlink:href="#maf9a50ba2b" x="404.921875" y="141.291115" style="fill: #57a9ef; stroke: #57a9ef"/>
     <use xlink:href="#maf9a50ba2b" x="444.442116" y="115.290473" style="fill: #57a9ef; stroke: #57a9ef"/>
     <use xlink:href="#maf9a50ba2b" x="483.962358" y="84.377229" style="fill: #57a9ef; stroke: #57a9ef"/>
     <use xlink:href="#maf9a50ba2b" x="523.482599" y="71.504627" style="fill: #57a9ef; stroke: #57a9ef"/>
     <use xlink:href="#maf9a50ba2b" x="563.002841" y="60.233186" style="fill: #57a9ef; stroke: #57a9ef"/>
     <use xlink:href="#maf9a50ba2b" x="602.523082" y="54.733257" style="fill: #57a9ef; stroke: #57a9ef"/>
     <use xlink:href="#maf9a50ba2b" x="642.043324" y="52.841673" style="fill: #57a9ef; stroke: #57a9ef"/>
     <use xlink:href="#maf9a50ba2b" x="681.563565" y="58.057582" style="fill: #57a9ef; stroke: #57a9ef"/>
     <use xlink:href="#maf9a50ba2b" x="721.083807" y="50.927839" style="fill: #57a9ef; stroke: #57a9ef"/>
    </g>
   </g>
   <g id="line2d_37">
    <path d="M 88.759943 393.354188 
L 128.280185 383.496385 
L 167.800426 394.801927 
L 207.320668 372.581034 
L 246.840909 336.393677 
L 286.361151 290.316082 
L 325.881392 230.537093 
L 365.401634 180.453685 
L 404.921875 140.46031 
L 444.442116 108.194851 
L 483.962358 81.859406 
L 523.482599 68.639941 
L 563.002841 72.642842 
L 602.523082 54.865763 
L 642.043324 52.001465 
L 681.563565 77.109324 
L 721.083807 50.552259 
" clip-path="url(#p8112b56f9d)" style="fill: none; stroke: #449eec; stroke-width: 1.5; stroke-linecap: square"/>
    <defs>
     <path id="mf0bf48afd5" d="M 0 1.5 
C 0.397805 1.5 0.77937 1.341951 1.06066 1.06066 
C 1.341951 0.77937 1.5 0.397805 1.5 0 
C 1.5 -0.397805 1.341951 -0.77937 1.06066 -1.06066 
C 0.77937 -1.341951 0.397805 -1.5 0 -1.5 
C -0.397805 -1.5 -0.77937 -1.341951 -1.06066 -1.06066 
C -1.341951 -0.77937 -1.5 -0.397805 -1.5 0 
C -1.5 0.397805 -1.341951 0.77937 -1.06066 1.06066 
C -0.77937 1.341951 -0.397805 1.5 0 1.5 
z
" style="stroke: #449eec"/>
    </defs>
    <g clip-path="url(#p8112b56f9d)">
     <use xlink:href="#mf0bf48afd5" x="88.759943" y="393.354188" style="fill: #449eec; stroke: #449eec"/>
     <use xlink:href="#mf0bf48afd5" x="128.280185" y="383.496385" style="fill: #449eec; stroke: #449eec"/>
     <use xlink:href="#mf0bf48afd5" x="167.800426" y="394.801927" style="fill: #449eec; stroke: #449eec"/>
     <use xlink:href="#mf0bf48afd5" x="207.320668" y="372.581034" style="fill: #449eec; stroke: #449eec"/>
     <use xlink:href="#mf0bf48afd5" x="246.840909" y="336.393677" style="fill: #449eec; stroke: #449eec"/>
     <use xlink:href="#mf0bf48afd5" x="286.361151" y="290.316082" style="fill: #449eec; stroke: #449eec"/>
     <use xlink:href="#mf0bf48afd5" x="325.881392" y="230.537093" style="fill: #449eec; stroke: #449eec"/>
     <use xlink:href="#mf0bf48afd5" x="365.401634" y="180.453685" style="fill: #449eec; stroke: #449eec"/>
     <use xlink:href="#mf0bf48afd5" x="404.921875" y="140.46031" style="fill: #449eec; stroke: #449eec"/>
     <use xlink:href="#mf0bf48afd5" x="444.442116" y="108.194851" style="fill: #449eec; stroke: #449eec"/>
     <use xlink:href="#mf0bf48afd5" x="483.962358" y="81.859406" style="fill: #449eec; stroke: #449eec"/>
     <use xlink:href="#mf0bf48afd5" x="523.482599" y="68.639941" style="fill: #449eec; stroke: #449eec"/>
     <use xlink:href="#mf0bf48afd5" x="563.002841" y="72.642842" style="fill: #449eec; stroke: #449eec"/>
     <use xlink:href="#mf0bf48afd5" x="602.523082" y="54.865763" style="fill: #449eec; stroke: #449eec"/>
     <use xlink:href="#mf0bf48afd5" x="642.043324" y="52.001465" style="fill: #449eec; stroke: #449eec"/>
     <use xlink:href="#mf0bf48afd5" x="681.563565" y="77.109324" style="fill: #449eec; stroke: #449eec"/>
     <use xlink:href="#mf0bf48afd5" x="721.083807" y="50.552259" style="fill: #449eec; stroke: #449eec"/>
    </g>
   </g>
   <g id="line2d_38">
    <path d="M 88.759943 392.632594 
L 128.280185 380.928871 
L 167.800426 384.506156 
L 207.320668 367.847007 
L 246.840909 334.338777 
L 286.361151 290.723145 
L 325.881392 231.184071 
L 365.401634 189.275027 
L 404.921875 148.917331 
L 444.442116 119.045766 
L 483.962358 90.203305 
L 523.482599 89.208278 
L 563.002841 68.439095 
L 602.523082 56.109301 
L 642.043324 65.537546 
L 681.563565 67.161956 
L 721.083807 68.952698 
" clip-path="url(#p8112b56f9d)" style="fill: none; stroke: #3193e8; stroke-width: 1.5; stroke-linecap: square"/>
    <defs>
     <path id="m53a43b0a63" d="M 0 1.5 
C 0.397805 1.5 0.77937 1.341951 1.06066 1.06066 
C 1.341951 0.77937 1.5 0.397805 1.5 0 
C 1.5 -0.397805 1.341951 -0.77937 1.06066 -1.06066 
C 0.77937 -1.341951 0.397805 -1.5 0 -1.5 
C -0.397805 -1.5 -0.77937 -1.341951 -1.06066 -1.06066 
C -1.341951 -0.77937 -1.5 -0.397805 -1.5 0 
C -1.5 0.397805 -1.341951 0.77937 -1.06066 1.06066 
C -0.77937 1.341951 -0.397805 1.5 0 1.5 
z
" style="stroke: #3193e8"/>
    </defs>
    <g clip-path="url(#p8112b56f9d)">
     <use xlink:href="#m53a43b0a63" x="88.759943" y="392.632594" style="fill: #3193e8; stroke: #3193e8"/>
     <use xlink:href="#m53a43b0a63" x="128.280185" y="380.928871" style="fill: #3193e8; stroke: #3193e8"/>
     <use xlink:href="#m53a43b0a63" x="167.800426" y="384.506156" style="fill: #3193e8; stroke: #3193e8"/>
     <use xlink:href="#m53a43b0a63" x="207.320668" y="367.847007" style="fill: #3193e8; stroke: #3193e8"/>
     <use xlink:href="#m53a43b0a63" x="246.840909" y="334.338777" style="fill: #3193e8; stroke: #3193e8"/>
     <use xlink:href="#m53a43b0a63" x="286.361151" y="290.723145" style="fill: #3193e8; stroke: #3193e8"/>
     <use xlink:href="#m53a43b0a63" x="325.881392" y="231.184071" style="fill: #3193e8; stroke: #3193e8"/>
     <use xlink:href="#m53a43b0a63" x="365.401634" y="189.275027" style="fill: #3193e8; stroke: #3193e8"/>
     <use xlink:href="#m53a43b0a63" x="404.921875" y="148.917331" style="fill: #3193e8; stroke: #3193e8"/>
     <use xlink:href="#m53a43b0a63" x="444.442116" y="119.045766" style="fill: #3193e8; stroke: #3193e8"/>
     <use xlink:href="#m53a43b0a63" x="483.962358" y="90.203305" style="fill: #3193e8; stroke: #3193e8"/>
     <use xlink:href="#m53a43b0a63" x="523.482599" y="89.208278" style="fill: #3193e8; stroke: #3193e8"/>
     <use xlink:href="#m53a43b0a63" x="563.002841" y="68.439095" style="fill: #3193e8; stroke: #3193e8"/>
     <use xlink:href="#m53a43b0a63" x="602.523082" y="56.109301" style="fill: #3193e8; stroke: #3193e8"/>
     <use xlink:href="#m53a43b0a63" x="642.043324" y="65.537546" style="fill: #3193e8; stroke: #3193e8"/>
     <use xlink:href="#m53a43b0a63" x="681.563565" y="67.161956" style="fill: #3193e8; stroke: #3193e8"/>
     <use xlink:href="#m53a43b0a63" x="721.083807" y="68.952698" style="fill: #3193e8; stroke: #3193e8"/>
    </g>
   </g>
   <g id="line2d_39">
    <path d="M 88.759943 391.965664 
L 128.280185 380.219056 
L 167.800426 382.69383 
L 207.320668 366.407705 
L 246.840909 331.697014 
L 286.361151 288.015467 
L 325.881392 228.692637 
L 365.401634 181.010942 
L 404.921875 147.145887 
L 444.442116 109.721639 
L 483.962358 82.722476 
L 523.482599 69.580827 
L 563.002841 69.762464 
L 602.523082 57.094947 
L 642.043324 58.905152 
L 681.563565 57.505248 
L 721.083807 54.054376 
" clip-path="url(#p8112b56f9d)" style="fill: none; stroke: #1e88e5; stroke-width: 1.5; stroke-linecap: square"/>
    <defs>
     <path id="ma668537afa" d="M 0 1.5 
C 0.397805 1.5 0.77937 1.341951 1.06066 1.06066 
C 1.341951 0.77937 1.5 0.397805 1.5 0 
C 1.5 -0.397805 1.341951 -0.77937 1.06066 -1.06066 
C 0.77937 -1.341951 0.397805 -1.5 0 -1.5 
C -0.397805 -1.5 -0.77937 -1.341951 -1.06066 -1.06066 
C -1.341951 -0.77937 -1.5 -0.397805 -1.5 0 
C -1.5 0.397805 -1.341951 0.77937 -1.06066 1.06066 
C -0.77937 1.341951 -0.397805 1.5 0 1.5 
z
" style="stroke: #1e88e5"/>
    </defs>
    <g clip-path="url(#p8112b56f9d)">
     <use xlink:href="#ma668537afa" x="88.759943" y="391.965664" style="fill: #1e88e5; stroke: #1e88e5"/>
     <use xlink:href="#ma668537afa" x="128.280185" y="380.219056" style="fill: #1e88e5; stroke: #1e88e5"/>
     <use xlink:href="#ma668537afa" x="167.800426" y="382.69383" style="fill: #1e88e5; stroke: #1e88e5"/>
     <use xlink:href="#ma668537afa" x="207.320668" y="366.407705" style="fill: #1e88e5; stroke: #1e88e5"/>
     <use xlink:href="#ma668537afa" x="246.840909" y="331.697014" style="fill: #1e88e5; stroke: #1e88e5"/>
     <use xlink:href="#ma668537afa" x="286.361151" y="288.015467" style="fill: #1e88e5; stroke: #1e88e5"/>
     <use xlink:href="#ma668537afa" x="325.881392" y="228.692637" style="fill: #1e88e5; stroke: #1e88e5"/>
     <use xlink:href="#ma668537afa" x="365.401634" y="181.010942" style="fill: #1e88e5; stroke: #1e88e5"/>
     <use xlink:href="#ma668537afa" x="404.921875" y="147.145887" style="fill: #1e88e5; stroke: #1e88e5"/>
     <use xlink:href="#ma668537afa" x="444.442116" y="109.721639" style="fill: #1e88e5; stroke: #1e88e5"/>
     <use xlink:href="#ma668537afa" x="483.962358" y="82.722476" style="fill: #1e88e5; stroke: #1e88e5"/>
     <use xlink:href="#ma668537afa" x="523.482599" y="69.580827" style="fill: #1e88e5; stroke: #1e88e5"/>
     <use xlink:href="#ma668537afa" x="563.002841" y="69.762464" style="fill: #1e88e5; stroke: #1e88e5"/>
     <use xlink:href="#ma668537afa" x="602.523082" y="57.094947" style="fill: #1e88e5; stroke: #1e88e5"/>
     <use xlink:href="#ma668537afa" x="642.043324" y="58.905152" style="fill: #1e88e5; stroke: #1e88e5"/>
     <use xlink:href="#ma668537afa" x="681.563565" y="57.505248" style="fill: #1e88e5; stroke: #1e88e5"/>
     <use xlink:href="#ma668537afa" x="721.083807" y="54.054376" style="fill: #1e88e5; stroke: #1e88e5"/>
    </g>
   </g>
   <g id="patch_3">
    <path d="M 57.14375 435.8875 
L 57.14375 25.8 
" style="fill: none; stroke: #444444; stroke-width: 0.8; stroke-linejoin: miter; stroke-linecap: square"/>
   </g>
   <g id="patch_4">
    <path d="M 752.7 435.8875 
L 752.7 25.8 
" style="fill: none; stroke: #444444; stroke-width: 0.8; stroke-linejoin: miter; stroke-linecap: square"/>
   </g>
   <g id="patch_5">
    <path d="M 57.14375 435.8875 
L 752.7 435.8875 
" style="fill: none; stroke: #444444; stroke-width: 0.8; stroke-linejoin: miter; stroke-linecap: square"/>
   </g>
   <g id="patch_6">
    <path d="M 57.14375 25.8 
L 752.7 25.8 
" style="fill: none; stroke: #444444; stroke-width: 0.8; stroke-linejoin: miter; stroke-linecap: square"/>
   </g>
   <g id="text_19">
    <!-- scalar_stats — randomized -->
    <g style="fill: #e0e0e0" transform="translate(323.97625 19.8) scale(0.12 -0.12)">
     <defs>
      <path id="DejaVuSans-61" d="M 2194 1759 
Q 1497 1759 1228 1600 
Q 959 1441 959 1056 
Q 959 750 1161 570 
Q 1363 391 1709 391 
Q 2188 391 2477 730 
Q 2766 1069 2766 1631 
L 2766 1759 
L 2194 1759 
z
M 3341 1997 
L 3341 0 
L 2766 0 
L 2766 531 
Q 2569 213 2275 61 
Q 1981 -91 1556 -91 
Q 1019 -91 701 211 
Q 384 513 384 1019 
Q 384 1609 779 1909 
Q 1175 2209 1959 2209 
L 2766 2209 
L 2766 2266 
Q 2766 2663 2505 2880 
Q 2244 3097 1772 3097 
Q 1472 3097 1187 3025 
Q 903 2953 641 2809 
L 641 3341 
Q 956 3463 1253 3523 
Q 1550 3584 1831 3584 
Q 2591 3584 2966 3190 
Q 3341 2797 3341 1997 
z
" transform="scale(0.015625)"/>
      <path id="DejaVuSans-5f" d="M 3263 -1063 
L 3263 -1509 
L -63 -1509 
L -63 -1063 
L 3263 -1063 
z
" transform="scale(0.015625)"/>
      <path id="DejaVuSans-2014" d="M 313 1978 
L 6088 1978 
L 6088 1528 
L 313 1528 
L 313 1978 
z
" transform="scale(0.015625)"/>
      <path id="DejaVuSans-6e" d="M 3513 2113 
L 3513 0 
L 2938 0 
L 2938 2094 
Q 2938 2591 2744 2837 
Q 2550 3084 2163 3084 
Q 1697 3084 1428 2787 
Q 1159 2491 1159 1978 
L 1159 0 
L 581 0 
L 581 3500 
L 1159 3500 
L 1159 2956 
Q 1366 3272 1645 3428 
Q 1925 3584 2291 3584 
Q 2894 3584 3203 3211 
Q 3513 2838 3513 2113 
z
" transform="scale(0.015625)"/>
      <path id="DejaVuSans-64" d="M 2906 2969 
L 2906 4863 
L 3481 4863 
L 3481 0 
L 2906 0 
L 2906 525 
Q 2725 213 2448 61 
Q 2172 -91 1784 -91 
Q 1150 -91 751 415 
Q 353 922 353 1747 
Q 353 2572 751 3078 
Q 1150 3584 1784 3584 
Q 2172 3584 2448 3432 
Q 2725 3281 2906 2969 
z
M 947 1747 
Q 947 1113 1208 752 
Q 1469 391 1925 391 
Q 2381 391 2643 752 
Q 2906 1113 2906 1747 
Q 2906 2381 2643 2742 
Q 2381 3103 1925 3103 
Q 1469 3103 1208 2742 
Q 947 2381 947 1747 
z
" transform="scale(0.015625)"/>
      <path id="DejaVuSans-6d" d="M 3328 2828 
Q 3544 3216 3844 3400 
Q 4144 3584 4550 3584 
Q 5097 3584 5394 3201 
Q 5691 2819 5691 2113 
L 5691 0 
L 5113 0 
L 5113 2094 
Q 5113 2597 4934 2840 
Q 4756 3084 4391 3084 
Q 3944 3084 3684 2787 
Q 3425 2491 3425 1978 
L 3425 0 
L 2847 0 
L 2847 2094 
Q 2847 2600 2669 2842 
Q 2491 3084 2119 3084 
Q 1678 3084 1418 2786 
Q 1159 2488 1159 1978 
L 1159 0 
L 581 0 
L 581 3500 
L 1159 3500 
L 1159 2956 
Q 1356 3278 1631 3431 
Q 1906 3584 2284 3584 
Q 2666 3584 2933 3390 
Q 3200 3197 3328 2828 
z
" transform="scale(0.015625)"/>
     </defs>
     <use xlink:href="#DejaVuSans-73"/>
     <use xlink:href="#DejaVuSans-63" transform="translate(52.099609 0)"/>
     <use xlink:href="#DejaVuSans-61" transform="translate(107.080078 0)"/>
     <use xlink:href="#DejaVuSans-6c" transform="translate(168.359375 0)"/>
     <use xlink:href="#DejaVuSans-61" transform="translate(196.142578 0)"/>
     <use xlink:href="#DejaVuSans-72" transform="translate(257.421875 0)"/>
     <use xlink:href="#DejaVuSans-5f" transform="translate(298.535156 0)"/>
     <use xlink:href="#DejaVuSans-73" transform="translate(348.535156 0)"/>
     <use xlink:href="#DejaVuSans-74" transform="translate(400.634766 0)"/>
     <use xlink:href="#DejaVuSans-61" transform="translate(439.84375 0)"/>
     <use xlink:href="#DejaVuSans-74" transform="translate(501.123047 0)"/>
     <use xlink:href="#DejaVuSans-73" transform="translate(540.332031 0)"/>
     <use xlink:href="#DejaVuSans-20" transform="translate(592.431641 0)"/>
     <use xlink:href="#DejaVuSans-2014" transform="translate(624.21875 0)"/>
     <use xlink:href="#DejaVuSans-20" transform="translate(724.21875 0)"/>
     <use xlink:href="#DejaVuSans-72" transform="translate(756.005859 0)"/>
     <use xlink:href="#DejaVuSans-61" transform="translate(797.119141 0)"/>
     <use xlink:href="#DejaVuSans-6e" transform="translate(858.398438 0)"/>
     <use xlink:href="#DejaVuSans-64" transform="translate(921.777344 0)"/>
     <use xlink:href="#DejaVuSans-6f" transform="translate(985.253906 0)"/>
     <use xlink:href="#DejaVuSans-6d" transform="translate(1046.435547 0)"/>
     <use xlink:href="#DejaVuSans-69" transform="translate(1143.847656 0)"/>
     <use xlink:href="#DejaVuSans-7a" transform="translate(1171.630859 0)"/>
     <use xlink:href="#DejaVuSans-65" transform="translate(1224.121094 0)"/>
     <use xlink:href="#DejaVuSans-64" transform="translate(1285.644531 0)"/>
    </g>
   </g>
   <g id="legend_1">
    <g id="patch_7">
     <path d="M 62.74375 126.14 
L 113.4575 126.14 
Q 115.0575 126.14 115.0575 124.54 
L 115.0575 31.4 
Q 115.0575 29.8 113.4575 29.8 
L 62.74375 29.8 
Q 61.14375 29.8 61.14375 31.4 
L 61.14375 124.54 
Q 61.14375 126.14 62.74375 126.14 
z
" style="fill: #1e2436; opacity: 0.8; stroke: #444444; stroke-linejoin: miter"/>
    </g>
    <g id="text_20">
     <!-- Working set -->
     <g style="fill: #e0e0e0" transform="translate(64.4025 39.07875) scale(0.08 -0.08)">
      <defs>
       <path id="DejaVuSans-57" d="M 213 4666 
L 850 4666 
L 1831 722 
L 2809 4666 
L 3519 4666 
L 4500 722 
L 5478 4666 
L 6119 4666 
L 4947 0 
L 4153 0 
L 3169 4050 
L 2175 0 
L 1381 0 
L 213 4666 
z
" transform="scale(0.015625)"/>
      </defs>
      <use xlink:href="#DejaVuSans-57"/>
      <use xlink:href="#DejaVuSans-6f" transform="translate(93.001953 0)"/>
      <use xlink:href="#DejaVuSans-72" transform="translate(154.183594 0)"/>
      <use xlink:href="#DejaVuSans-6b" transform="translate(195.296875 0)"/>
      <use xlink:href="#DejaVuSans-69" transform="translate(253.207031 0)"/>
      <use xlink:href="#DejaVuSans-6e" transform="translate(280.990234 0)"/>
      <use xlink:href="#DejaVuSans-67" transform="translate(344.369141 0)"/>
      <use xlink:href="#DejaVuSans-20" transform="translate(407.845703 0)"/>
      <use xlink:href="#DejaVuSans-73" transform="translate(439.632812 0)"/>
      <use xlink:href="#DejaVuSans-65" transform="translate(491.732422 0)"/>
      <use xlink:href="#DejaVuSans-74" transform="translate(553.255859 0)"/>
     </g>
    </g>
    <g id="line2d_40">
     <path d="M 64.34375 48.02125 
L 72.34375 48.02125 
L 80.34375 48.02125 
" style="fill: none; stroke: #90caf9; stroke-width: 1.5; stroke-linecap: square"/>
     <g>
      <use xlink:href="#m0c77c4c4c4" x="72.34375" y="48.02125" style="fill: #90caf9; stroke: #90caf9"/>
     </g>
    </g>
    <g id="text_21">
     <!-- 1 MB -->
     <g style="fill: #e0e0e0" transform="translate(86.74375 50.82125) scale(0.08 -0.08)">
      <use xlink:href="#DejaVuSans-31"/>
      <use xlink:href="#DejaVuSans-20" transform="translate(63.623047 0)"/>
      <use xlink:href="#DejaVuSans-4d" transform="translate(95.410156 0)"/>
      <use xlink:href="#DejaVuSans-42" transform="translate(181.689453 0)"/>
     </g>
    </g>
    <g id="line2d_41">
     <path d="M 64.34375 59.76375 
L 72.34375 59.76375 
L 80.34375 59.76375 
" style="fill: none; stroke: #7dbff6; stroke-width: 1.5; stroke-linecap: square"/>
     <g>
      <use xlink:href="#m0bb8522bdc" x="72.34375" y="59.76375" style="fill: #7dbff6; stroke: #7dbff6"/>
     </g>
    </g>
    <g id="text_22">
     <!-- 2 MB -->
     <g style="fill: #e0e0e0" transform="translate(86.74375 62.56375) scale(0.08 -0.08)">
      <use xlink:href="#DejaVuSans-32"/>
      <use xlink:href="#DejaVuSans-20" transform="translate(63.623047 0)"/>
      <use xlink:href="#DejaVuSans-4d" transform="translate(95.410156 0)"/>
      <use xlink:href="#DejaVuSans-42" transform="translate(181.689453 0)"/>
     </g>
    </g>
    <g id="line2d_42">
     <path d="M 64.34375 71.50625 
L 72.34375 71.50625 
L 80.34375 71.50625 
" style="fill: none; stroke: #6ab4f2; stroke-width: 1.5; stroke-linecap: square"/>
     <g>
      <use xlink:href="#m97247e7391" x="72.34375" y="71.50625" style="fill: #6ab4f2; stroke: #6ab4f2"/>
     </g>
    </g>
    <g id="text_23">
     <!-- 4 MB -->
     <g style="fill: #e0e0e0" transform="translate(86.74375 74.30625) scale(0.08 -0.08)">
      <use xlink:href="#DejaVuSans-34"/>
      <use xlink:href="#DejaVuSans-20" transform="translate(63.623047 0)"/>
      <use xlink:href="#DejaVuSans-4d" transform="translate(95.410156 0)"/>
      <use xlink:href="#DejaVuSans-42" transform="translate(181.689453 0)"/>
     </g>
    </g>
    <g id="line2d_43">
     <path d="M 64.34375 83.24875 
L 72.34375 83.24875 
L 80.34375 83.24875 
" style="fill: none; stroke: #57a9ef; stroke-width: 1.5; stroke-linecap: square"/>
     <g>
      <use xlink:href="#maf9a50ba2b" x="72.34375" y="83.24875" style="fill: #57a9ef; stroke: #57a9ef"/>
     </g>
    </g>
    <g id="text_24">
     <!-- 8 MB -->
     <g style="fill: #e0e0e0" transform="translate(86.74375 86.04875) scale(0.08 -0.08)">
      <defs>
       <path id="DejaVuSans-38" d="M 2034 2216 
Q 1584 2216 1326 1975 
Q 1069 1734 1069 1313 
Q 1069 891 1326 650 
Q 1584 409 2034 409 
Q 2484 409 2743 651 
Q 3003 894 3003 1313 
Q 3003 1734 2745 1975 
Q 2488 2216 2034 2216 
z
M 1403 2484 
Q 997 2584 770 2862 
Q 544 3141 544 3541 
Q 544 4100 942 4425 
Q 1341 4750 2034 4750 
Q 2731 4750 3128 4425 
Q 3525 4100 3525 3541 
Q 3525 3141 3298 2862 
Q 3072 2584 2669 2484 
Q 3125 2378 3379 2068 
Q 3634 1759 3634 1313 
Q 3634 634 3220 271 
Q 2806 -91 2034 -91 
Q 1263 -91 848 271 
Q 434 634 434 1313 
Q 434 1759 690 2068 
Q 947 2378 1403 2484 
z
M 1172 3481 
Q 1172 3119 1398 2916 
Q 1625 2713 2034 2713 
Q 2441 2713 2670 2916 
Q 2900 3119 2900 3481 
Q 2900 3844 2670 4047 
Q 2441 4250 2034 4250 
Q 1625 4250 1398 4047 
Q 1172 3844 1172 3481 
z
" transform="scale(0.015625)"/>
      </defs>
      <use xlink:href="#DejaVuSans-38"/>
      <use xlink:href="#DejaVuSans-20" transform="translate(63.623047 0)"/>
      <use xlink:href="#DejaVuSans-4d" transform="translate(95.410156 0)"/>
      <use xlink:href="#DejaVuSans-42" transform="translate(181.689453 0)"/>
     </g>
    </g>
    <g id="line2d_44">
     <path d="M 64.34375 94.99125 
L 72.34375 94.99125 
L 80.34375 94.99125 
" style="fill: none; stroke: #449eec; stroke-width: 1.5; stroke-linecap: square"/>
     <g>
      <use xlink:href="#mf0bf48afd5" x="72.34375" y="94.99125" style="fill: #449eec; stroke: #449eec"/>
     </g>
    </g>
    <g id="text_25">
     <!-- 16 MB -->
     <g style="fill: #e0e0e0" transform="translate(86.74375 97.79125) scale(0.08 -0.08)">
      <use xlink:href="#DejaVuSans-31"/>
      <use xlink:href="#DejaVuSans-36" transform="translate(63.623047 0)"/>
      <use xlink:href="#DejaVuSans-20" transform="translate(127.246094 0)"/>
      <use xlink:href="#DejaVuSans-4d" transform="translate(159.033203 0)"/>
      <use xlink:href="#DejaVuSans-42" transform="translate(245.3125 0)"/>
     </g>
    </g>
    <g id="line2d_45">
     <path d="M 64.34375 106.73375 
L 72.34375 106.73375 
L 80.34375 106.73375 
" style="fill: none; stroke: #3193e8; stroke-width: 1.5; stroke-linecap: square"/>
     <g>
      <use xlink:href="#m53a43b0a63" x="72.34375" y="106.73375" style="fill: #3193e8; stroke: #3193e8"/>
     </g>
    </g>
    <g id="text_26">
     <!-- 32 MB -->
     <g style="fill: #e0e0e0" transform="translate(86.74375 109.53375) scale(0.08 -0.08)">
      <use xlink:href="#DejaVuSans-33"/>
      <use xlink:href="#DejaVuSans-32" transform="translate(63.623047 0)"/>
      <use xlink:href="#DejaVuSans-20" transform="translate(127.246094 0)"/>
      <use xlink:href="#DejaVuSans-4d" transform="translate(159.033203 0)"/>
      <use xlink:href="#DejaVuSans-42" transform="translate(245.3125 0)"/>
     </g>
    </g>
    <g id="line2d_46">
     <path d="M 64.34375 118.47625 
L 72.34375 118.47625 
L 80.34375 118.47625 
" style="fill: none; stroke: #1e88e5; stroke-width: 1.5; stroke-linecap: square"/>
     <g>
      <use xlink:href="#ma668537afa" x="72.34375" y="118.47625" style="fill: #1e88e5; stroke: #1e88e5"/>
     </g>
    </g>
    <g id="text_27">
     <!-- 64 MB -->
     <g style="fill: #e0e0e0" transform="translate(86.74375 121.27625) scale(0.08 -0.08)">
      <use xlink:href="#DejaVuSans-36"/>
      <use xlink:href="#DejaVuSans-34" transform="translate(63.623047 0)"/>
      <use xlink:href="#DejaVuSans-20" transform="translate(127.246094 0)"/>
      <use xlink:href="#DejaVuSans-4d" transform="translate(159.033203 0)"/>
      <use xlink:href="#DejaVuSans-42" transform="translate(245.3125 0)"/>
     </g>
    </g>
   </g>
  </g>
 </g>
 <defs>
  <clipPath id="p8112b56f9d">
   <rect x="57.14375" y="25.8" width="695.55625" height="410.0875"/>
  </clipPath>
 </defs>
</svg>
