<?xml version="1.0" encoding="utf-8" standalone="no"?>
<!DOCTYPE svg PUBLIC "-//W3C//DTD SVG 1.1//EN"
  "http://www.w3.org/Graphics/SVG/1.1/DTD/svg11.dtd">
<svg xmlns:xlink="http://www.w3.org/1999/xlink" width="576pt" height="360pt" viewBox="0 0 576 360" xmlns="http://www.w3.org/2000/svg" version="1.1">
 <metadata>
  <rdf:RDF xmlns:dc="http://purl.org/dc/elements/1.1/" xmlns:cc="http://creativecommons.org/ns#" xmlns:rdf="http://www.w3.org/1999/02/22-rdf-syntax-ns#">
   <cc:Work>
    <dc:type rdf:resource="http://purl.org/dc/dcmitype/StillImage"/>
    <dc:date>2026-03-31T17:58:25.340276</dc:date>
    <dc:format>image/svg+xml</dc:format>
    <dc:creator>
     <cc:Agent>
      <dc:title>Matplotlib v3.10.8, https://matplotlib.org/</dc:title>
     </cc:Agent>
    </dc:creator>
   </cc:Work>
  </rdf:RDF>
 </metadata>
 <defs>
  <style type="text/css">*{stroke-linejoin: round; stroke-linecap: butt}</style>
 </defs>
 <g id="figure_1">
  <g id="patch_1">
   <path d="M 0 360 
L 576 360 
L 576 0 
L 0 0 
z
" style="fill: #121622"/>
  </g>
  <g id="axes_1">
   <g id="patch_2">
    <path d="M 47.72 318.04 
L 565.2 318.04 
L 565.2 26.88 
L 47.72 26.88 
z
" style="fill: #121622"/>
   </g>
   <g id="matplotlib.axis_1">
    <g id="xtick_1">
     <g id="line2d_1">
      <path d="M 100.644091 318.04 
L 100.644091 26.88 
" clip-path="url(#p9561df5166)" style="fill: none; stroke: #30333e; stroke-width: 0.6; stroke-linecap: square"/>
     </g>
     <g id="line2d_2">
      <defs>
       <path id="md9c69c4571" d="M 0 0 
L 0 3.5 
" style="stroke: #e0e0e0; stroke-width: 0.8"/>
      </defs>
      <g>
       <use xlink:href="#md9c69c4571" x="100.644091" y="318.04" style="fill: #e0e0e0; stroke: #e0e0e0; stroke-width: 0.8"/>
      </g>
     </g>
     <g id="text_1">
      <!-- 64 B -->
      <g style="fill: #e0e0e0" transform="translate(89.26206 332.638438) scale(0.1 -0.1)">
       <defs>
        <path id="DejaVuSans-36" d="M 2113 2584 
Q 1688 2584 1439 2293 
Q 1191 2003 1191 1497 
Q 1191 994 1439 701 
Q 1688 409 2113 409 
Q 2538 409 2786 701 
Q 3034 994 3034 1497 
Q 3034 2003 2786 2293 
Q 2538 2584 2113 2584 
z
M 3366 4563 
L 3366 3988 
Q 3128 4100 2886 4159 
Q 2644 4219 2406 4219 
Q 1781 4219 1451 3797 
Q 1122 3375 1075 2522 
Q 1259 2794 1537 2939 
Q 1816 3084 2150 3084 
Q 2853 3084 3261 2657 
Q 3669 2231 3669 1497 
Q 3669 778 3244 343 
Q 2819 -91 2113 -91 
Q 1303 -91 875 529 
Q 447 1150 447 2328 
Q 447 3434 972 4092 
Q 1497 4750 2381 4750 
Q 2619 4750 2861 4703 
Q 3103 4656 3366 4563 
z
" transform="scale(0.015625)"/>
        <path id="DejaVuSans-34" d="M 2419 4116 
L 825 1625 
L 2419 1625 
L 2419 4116 
z
M 2253 4666 
L 3047 4666 
L 3047 1625 
L 3713 1625 
L 3713 1100 
L 3047 1100 
L 3047 0 
L 2419 0 
L 2419 1100 
L 313 1100 
L 313 1709 
L 2253 4666 
z
" transform="scale(0.015625)"/>
        <path id="DejaVuSans-20" transform="scale(0.015625)"/>
        <path id="DejaVuSans-42" d="M 1259 2228 
L 1259 519 
L 2272 519 
Q 2781 519 3026 730 
Q 3272 941 3272 1375 
Q 3272 1813 3026 2020 
Q 2781 2228 2272 2228 
L 1259 2228 
z
M 1259 4147 
L 1259 2741 
L 2194 2741 
Q 2656 2741 2882 2914 
Q 3109 3088 3109 3444 
Q 3109 3797 2882 3972 
Q 2656 4147 2194 4147 
L 1259 4147 
z
M 628 4666 
L 2241 4666 
Q 2963 4666 3353 4366 
Q 3744 4066 3744 3513 
Q 3744 3084 3544 2831 
Q 3344 2578 2956 2516 
Q 3422 2416 3680 2098 
Q 3938 1781 3938 1306 
Q 3938 681 3513 340 
Q 3088 0 2303 0 
L 628 0 
L 628 4666 
z
" transform="scale(0.015625)"/>
       </defs>
       <use xlink:href="#DejaVuSans-36"/>
       <use xlink:href="#DejaVuSans-34" transform="translate(63.623047 0)"/>
       <use xlink:href="#DejaVuSans-20" transform="translate(127.246094 0)"/>
       <use xlink:href="#DejaVuSans-42" transform="translate(159.033203 0)"/>
      </g>
     </g>
    </g>
    <g id="xtick_2">
     <g id="line2d_3">
      <path d="M 159.448636 318.04 
L 159.448636 26.88 
" clip-path="url(#p9561df5166)" style="fill: none; stroke: #30333e; stroke-width: 0.6; stroke-linecap: square"/>
     </g>
     <g id="line2d_4">
      <g>
       <use xlink:href="#md9c69c4571" x="159.448636" y="318.04" style="fill: #e0e0e0; stroke: #e0e0e0; stroke-width: 0.8"/>
      </g>
     </g>
     <g id="text_2">
      <!-- 256 B -->
      <g style="fill: #e0e0e0" transform="translate(144.885355 332.638438) scale(0.1 -0.1)">
       <defs>
        <path id="DejaVuSans-32" d="M 1228 531 
L 3431 531 
L 3431 0 
L 469 0 
L 469 531 
Q 828 903 1448 1529 
Q 2069 2156 2228 2338 
Q 2531 2678 2651 2914 
Q 2772 3150 2772 3378 
Q 2772 3750 2511 3984 
Q 2250 4219 1831 4219 
Q 1534 4219 1204 4116 
Q 875 4013 500 3803 
L 500 4441 
Q 881 4594 1212 4672 
Q 1544 4750 1819 4750 
Q 2544 4750 2975 4387 
Q 3406 4025 3406 3419 
Q 3406 3131 3298 2873 
Q 3191 2616 2906 2266 
Q 2828 2175 2409 1742 
Q 1991 1309 1228 531 
z
" transform="scale(0.015625)"/>
        <path id="DejaVuSans-35" d="M 691 4666 
L 3169 4666 
L 3169 4134 
L 1269 4134 
L 1269 2991 
Q 1406 3038 1543 3061 
Q 1681 3084 1819 3084 
Q 2600 3084 3056 2656 
Q 3513 2228 3513 1497 
Q 3513 744 3044 326 
Q 2575 -91 1722 -91 
Q 1428 -91 1123 -41 
Q 819 9 494 109 
L 494 744 
Q 775 591 1075 516 
Q 1375 441 1709 441 
Q 2250 441 2565 725 
Q 2881 1009 2881 1497 
Q 2881 1984 2565 2268 
Q 2250 2553 1709 2553 
Q 1456 2553 1204 2497 
Q 953 2441 691 2322 
L 691 4666 
z
" transform="scale(0.015625)"/>
       </defs>
       <use xlink:href="#DejaVuSans-32"/>
       <use xlink:href="#DejaVuSans-35" transform="translate(63.623047 0)"/>
       <use xlink:href="#DejaVuSans-36" transform="translate(127.246094 0)"/>
       <use xlink:href="#DejaVuSans-20" transform="translate(190.869141 0)"/>
       <use xlink:href="#DejaVuSans-42" transform="translate(222.65625 0)"/>
      </g>
     </g>
    </g>
    <g id="xtick_3">
     <g id="line2d_5">
      <path d="M 218.253182 318.04 
L 218.253182 26.88 
" clip-path="url(#p9561df5166)" style="fill: none; stroke: #30333e; stroke-width: 0.6; stroke-linecap: square"/>
     </g>
     <g id="line2d_6">
      <g>
       <use xlink:href="#md9c69c4571" x="218.253182" y="318.04" style="fill: #e0e0e0; stroke: #e0e0e0; stroke-width: 0.8"/>
      </g>
     </g>
     <g id="text_3">
      <!-- 1 KB -->
      <g style="fill: #e0e0e0" transform="translate(206.773494 332.638438) scale(0.1 -0.1)">
       <defs>
        <path id="DejaVuSans-31" d="M 794 531 
L 1825 531 
L 1825 4091 
L 703 3866 
L 703 4441 
L 1819 4666 
L 2450 4666 
L 2450 531 
L 3481 531 
L 3481 0 
L 794 0 
L 794 531 
z
" transform="scale(0.015625)"/>
        <path id="DejaVuSans-4b" d="M 628 4666 
L 1259 4666 
L 1259 2694 
L 3353 4666 
L 4166 4666 
L 1850 2491 
L 4331 0 
L 3500 0 
L 1259 2247 
L 1259 0 
L 628 0 
L 628 4666 
z
" transform="scale(0.015625)"/>
       </defs>
       <use xlink:href="#DejaVuSans-31"/>
       <use xlink:href="#DejaVuSans-20" transform="translate(63.623047 0)"/>
       <use xlink:href="#DejaVuSans-4b" transform="translate(95.410156 0)"/>
       <use xlink:href="#DejaVuSans-42" transform="translate(160.986328 0)"/>
      </g>
     </g>
    </g>
    <g id="xtick_4">
     <g id="line2d_7">
      <path d="M 277.057727 318.04 
L 277.057727 26.88 
" clip-path="url(#p9561df5166)" style="fill: none; stroke: #30333e; stroke-width: 0.6; stroke-linecap: square"/>
     </g>
     <g id="line2d_8">
      <g>
       <use xlink:href="#md9c69c4571" x="277.057727" y="318.04" style="fill: #e0e0e0; stroke: #e0e0e0; stroke-width: 0.8"/>
      </g>
     </g>
     <g id="text_4">
      <!-- 4 KB -->
      <g style="fill: #e0e0e0" transform="translate(265.57804 332.638438) scale(0.1 -0.1)">
       <use xlink:href="#DejaVuSans-34"/>
       <use xlink:href="#DejaVuSans-20" transform="translate(63.623047 0)"/>
       <use xlink:href="#DejaVuSans-4b" transform="translate(95.410156 0)"/>
       <use xlink:href="#DejaVuSans-42" transform="translate(160.986328 0)"/>
      </g>
     </g>
    </g>
    <g id="xtick_5">
     <g id="line2d_9">
      <path d="M 335.862273 318.04 
L 335.862273 26.88 
" clip-path="url(#p9561df5166)" style="fill: none; stroke: #30333e; stroke-width: 0.6; stroke-linecap: square"/>
     </g>
     <g id="line2d_10">
      <g>
       <use xlink:href="#md9c69c4571" x="335.862273" y="318.04" style="fill: #e0e0e0; stroke: #e0e0e0; stroke-width: 0.8"/>
      </g>
     </g>
     <g id="text_5">
      <!-- 16 KB -->
      <g style="fill: #e0e0e0" transform="translate(321.201335 332.638438) scale(0.1 -0.1)">
       <use xlink:href="#DejaVuSans-31"/>
       <use xlink:href="#DejaVuSans-36" transform="translate(63.623047 0)"/>
       <use xlink:href="#DejaVuSans-20" transform="translate(127.246094 0)"/>
       <use xlink:href="#DejaVuSans-4b" transform="translate(159.033203 0)"/>
       <use xlink:href="#DejaVuSans-42" transform="translate(224.609375 0)"/>
      </g>
     </g>
    </g>
    <g id="xtick_6">
     <g id="line2d_11">
      <path d="M 394.666818 318.04 
L 394.666818 26.88 
" clip-path="url(#p9561df5166)" style="fill: none; stroke: #30333e; stroke-width: 0.6; stroke-linecap: square"/>
     </g>
     <g id="line2d_12">
      <g>
       <use xlink:href="#md9c69c4571" x="394.666818" y="318.04" style="fill: #e0e0e0; stroke: #e0e0e0; stroke-width: 0.8"/>
      </g>
     </g>
     <g id="text_6">
      <!-- 64 KB -->
      <g style="fill: #e0e0e0" transform="translate(380.005881 332.638438) scale(0.1 -0.1)">
       <use xlink:href="#DejaVuSans-36"/>
       <use xlink:href="#DejaVuSans-34" transform="translate(63.623047 0)"/>
       <use xlink:href="#DejaVuSans-20" transform="translate(127.246094 0)"/>
       <use xlink:href="#DejaVuSans-4b" transform="translate(159.033203 0)"/>
       <use xlink:href="#DejaVuSans-42" transform="translate(224.609375 0)"/>
      </g>
     </g>
    </g>
    <g id="xtick_7">
     <g id="line2d_13">
      <path d="M 453.471364 318.04 
L 453.471364 26.88 
" clip-path="url(#p9561df5166)" style="fill: none; stroke: #30333e; stroke-width: 0.6; stroke-linecap: square"/>
     </g>
     <g id="line2d_14">
      <g>
       <use xlink:href="#md9c69c4571" x="453.471364" y="318.04" style="fill: #e0e0e0; stroke: #e0e0e0; stroke-width: 0.8"/>
      </g>
     </g>
     <g id="text_7">
      <!-- 256 KB -->
      <g style="fill: #e0e0e0" transform="translate(435.629176 332.638438) scale(0.1 -0.1)">
       <use xlink:href="#DejaVuSans-32"/>
       <use xlink:href="#DejaVuSans-35" transform="translate(63.623047 0)"/>
       <use xlink:href="#DejaVuSans-36" transform="translate(127.246094 0)"/>
       <use xlink:href="#DejaVuSans-20" transform="translate(190.869141 0)"/>
       <use xlink:href="#DejaVuSans-4b" transform="translate(222.65625 0)"/>
       <use xlink:href="#DejaVuSans-42" transform="translate(288.232422 0)"/>
      </g>
     </g>
    </g>
    <g id="xtick_8">
     <g id="line2d_15">
      <path d="M 512.275909 318.04 
L 512.275909 26.88 
" clip-path="url(#p9561df5166)" style="fill: none; stroke: #30333e; stroke-width: 0.6; stroke-linecap: square"/>
     </g>
     <g id="line2d_16">
      <g>
       <use xlink:href="#md9c69c4571" x="512.275909" y="318.04" style="fill: #e0e0e0; stroke: #e0e0e0; stroke-width: 0.8"/>
      </g>
     </g>
     <g id="text_8">
      <!-- 1 MB -->
      <g style="fill: #e0e0e0" transform="translate(499.761065 332.638438) scale(0.1 -0.1)">
       <defs>
        <path id="DejaVuSans-4d" d="M 628 4666 
L 1569 4666 
L 2759 1491 
L 3956 4666 
L 4897 4666 
L 4897 0 
L 4281 0 
L 4281 4097 
L 3078 897 
L 2444 897 
L 1241 4097 
L 1241 0 
L 628 0 
L 628 4666 
z
" transform="scale(0.015625)"/>
       </defs>
       <use xlink:href="#DejaVuSans-31"/>
       <use xlink:href="#DejaVuSans-20" transform="translate(63.623047 0)"/>
       <use xlink:href="#DejaVuSans-4d" transform="translate(95.410156 0)"/>
       <use xlink:href="#DejaVuSans-42" transform="translate(181.689453 0)"/>
      </g>
     </g>
    </g>
    <g id="text_9">
     <!-- Block size -->
     <g style="fill: #e0e0e0" transform="translate(281.652969 346.316563) scale(0.1 -0.1)">
      <defs>
       <path id="DejaVuSans-6c" d="M 603 4863 
L 1178 4863 
L 1178 0 
L 603 0 
L 603 4863 
z
" transform="scale(0.015625)"/>
       <path id="DejaVuSans-6f" d="M 1959 3097 
Q 1497 3097 1228 2736 
Q 959 2375 959 1747 
Q 959 1119 1226 758 
Q 1494 397 1959 397 
Q 2419 397 2687 759 
Q 2956 1122 2956 1747 
Q 2956 2369 2687 2733 
Q 2419 3097 1959 3097 
z
M 1959 3584 
Q 2709 3584 3137 3096 
Q 3566 2609 3566 1747 
Q 3566 888 3137 398 
Q 2709 -91 1959 -91 
Q 1206 -91 779 398 
Q 353 888 353 1747 
Q 353 2609 779 3096 
Q 1206 3584 1959 3584 
z
" transform="scale(0.015625)"/>
       <path id="DejaVuSans-63" d="M 3122 3366 
L 3122 2828 
Q 2878 2963 2633 3030 
Q 2388 3097 2138 3097 
Q 1578 3097 1268 2742 
Q 959 2388 959 1747 
Q 959 1106 1268 751 
Q 1578 397 2138 397 
Q 2388 397 2633 464 
Q 2878 531 3122 666 
L 3122 134 
Q 2881 22 2623 -34 
Q 2366 -91 2075 -91 
Q 1284 -91 818 406 
Q 353 903 353 1747 
Q 353 2603 823 3093 
Q 1294 3584 2113 3584 
Q 2378 3584 2631 3529 
Q 2884 3475 3122 3366 
z
" transform="scale(0.015625)"/>
       <path id="DejaVuSans-6b" d="M 581 4863 
L 1159 4863 
L 1159 1991 
L 2875 3500 
L 3609 3500 
L 1753 1863 
L 3688 0 
L 2938 0 
L 1159 1709 
L 1159 0 
L 581 0 
L 581 4863 
z
" transform="scale(0.015625)"/>
       <path id="DejaVuSans-73" d="M 2834 3397 
L 2834 2853 
Q 2591 2978 2328 3040 
Q 2066 3103 1784 3103 
Q 1356 3103 1142 2972 
Q 928 2841 928 2578 
Q 928 2378 1081 2264 
Q 1234 2150 1697 2047 
L 1894 2003 
Q 2506 1872 2764 1633 
Q 3022 1394 3022 966 
Q 3022 478 2636 193 
Q 2250 -91 1575 -91 
Q 1294 -91 989 -36 
Q 684 19 347 128 
L 347 722 
Q 666 556 975 473 
Q 1284 391 1588 391 
Q 1994 391 2212 530 
Q 2431 669 2431 922 
Q 2431 1156 2273 1281 
Q 2116 1406 1581 1522 
L 1381 1569 
Q 847 1681 609 1914 
Q 372 2147 372 2553 
Q 372 3047 722 3315 
Q 1072 3584 1716 3584 
Q 2034 3584 2315 3537 
Q 2597 3491 2834 3397 
z
" transform="scale(0.015625)"/>
       <path id="DejaVuSans-69" d="M 603 3500 
L 1178 3500 
L 1178 0 
L 603 0 
L 603 3500 
z
M 603 4863 
L 1178 4863 
L 1178 4134 
L 603 4134 
L 603 4863 
z
" transform="scale(0.015625)"/>
       <path id="DejaVuSans-7a" d="M 353 3500 
L 3084 3500 
L 3084 2975 
L 922 459 
L 3084 459 
L 3084 0 
L 275 0 
L 275 525 
L 2438 3041 
L 353 3041 
L 353 3500 
z
" transform="scale(0.015625)"/>
       <path id="DejaVuSans-65" d="M 3597 1894 
L 3597 1613 
L 953 1613 
Q 991 1019 1311 708 
Q 1631 397 2203 397 
Q 2534 397 2845 478 
Q 3156 559 3463 722 
L 3463 178 
Q 3153 47 2828 -22 
Q 2503 -91 2169 -91 
Q 1331 -91 842 396 
Q 353 884 353 1716 
Q 353 2575 817 3079 
Q 1281 3584 2069 3584 
Q 2775 3584 3186 3129 
Q 3597 2675 3597 1894 
z
M 3022 2063 
Q 3016 2534 2758 2815 
Q 2500 3097 2075 3097 
Q 1594 3097 1305 2825 
Q 1016 2553 972 2059 
L 3022 2063 
z
" transform="scale(0.015625)"/>
      </defs>
      <use xlink:href="#DejaVuSans-42"/>
      <use xlink:href="#DejaVuSans-6c" transform="translate(68.603516 0)"/>
      <use xlink:href="#DejaVuSans-6f" transform="translate(96.386719 0)"/>
      <use xlink:href="#DejaVuSans-63" transform="translate(157.568359 0)"/>
      <use xlink:href="#DejaVuSans-6b" transform="translate(212.548828 0)"/>
      <use xlink:href="#DejaVuSans-20" transform="translate(270.458984 0)"/>
      <use xlink:href="#DejaVuSans-73" transform="translate(302.246094 0)"/>
      <use xlink:href="#DejaVuSans-69" transform="translate(354.345703 0)"/>
      <use xlink:href="#DejaVuSans-7a" transform="translate(382.128906 0)"/>
      <use xlink:href="#DejaVuSans-65" transform="translate(434.619141 0)"/>
     </g>
    </g>
   </g>
   <g id="matplotlib.axis_2">
    <g id="ytick_1">
     <g id="line2d_17">
      <path d="M 47.72 318.04 
L 565.2 318.04 
" clip-path="url(#p9561df5166)" style="fill: none; stroke: #30333e; stroke-width: 0.6; stroke-linecap: square"/>
     </g>
     <g id="line2d_18">
      <defs>
       <path id="mf3c8fae73b" d="M 0 0 
L -3.5 0 
" style="stroke: #e0e0e0; stroke-width: 0.8"/>
      </defs>
      <g>
       <use xlink:href="#mf3c8fae73b" x="47.72" y="318.04" style="fill: #e0e0e0; stroke: #e0e0e0; stroke-width: 0.8"/>
      </g>
     </g>
     <g id="text_10">
      <!-- 0.0 -->
      <g style="fill: #e0e0e0" transform="translate(24.816875 321.839219) scale(0.1 -0.1)">
       <defs>
        <path id="DejaVuSans-30" d="M 2034 4250 
Q 1547 4250 1301 3770 
Q 1056 3291 1056 2328 
Q 1056 1369 1301 889 
Q 1547 409 2034 409 
Q 2525 409 2770 889 
Q 3016 1369 3016 2328 
Q 3016 3291 2770 3770 
Q 2525 4250 2034 4250 
z
M 2034 4750 
Q 2819 4750 3233 4129 
Q 3647 3509 3647 2328 
Q 3647 1150 3233 529 
Q 2819 -91 2034 -91 
Q 1250 -91 836 529 
Q 422 1150 422 2328 
Q 422 3509 836 4129 
Q 1250 4750 2034 4750 
z
" transform="scale(0.015625)"/>
        <path id="DejaVuSans-2e" d="M 684 794 
L 1344 794 
L 1344 0 
L 684 0 
L 684 794 
z
" transform="scale(0.015625)"/>
       </defs>
       <use xlink:href="#DejaVuSans-30"/>
       <use xlink:href="#DejaVuSans-2e" transform="translate(63.623047 0)"/>
       <use xlink:href="#DejaVuSans-30" transform="translate(95.410156 0)"/>
      </g>
     </g>
    </g>
    <g id="ytick_2">
     <g id="line2d_19">
      <path d="M 47.72 262.580952 
L 565.2 262.580952 
" clip-path="url(#p9561df5166)" style="fill: none; stroke: #30333e; stroke-width: 0.6; stroke-linecap: square"/>
     </g>
     <g id="line2d_20">
      <g>
       <use xlink:href="#mf3c8fae73b" x="47.72" y="262.580952" style="fill: #e0e0e0; stroke: #e0e0e0; stroke-width: 0.8"/>
      </g>
     </g>
     <g id="text_11">
      <!-- 0.2 -->
      <g style="fill: #e0e0e0" transform="translate(24.816875 266.380171) scale(0.1 -0.1)">
       <use xlink:href="#DejaVuSans-30"/>
       <use xlink:href="#DejaVuSans-2e" transform="translate(63.623047 0)"/>
       <use xlink:href="#DejaVuSans-32" transform="translate(95.410156 0)"/>
      </g>
     </g>
    </g>
    <g id="ytick_3">
     <g id="line2d_21">
      <path d="M 47.72 207.121905 
L 565.2 207.121905 
" clip-path="url(#p9561df5166)" style="fill: none; stroke: #30333e; stroke-width: 0.6; stroke-linecap: square"/>
     </g>
     <g id="line2d_22">
      <g>
       <use xlink:href="#mf3c8fae73b" x="47.72" y="207.121905" style="fill: #e0e0e0; stroke: #e0e0e0; stroke-width: 0.8"/>
      </g>
     </g>
     <g id="text_12">
      <!-- 0.4 -->
      <g style="fill: #e0e0e0" transform="translate(24.816875 210.921124) scale(0.1 -0.1)">
       <use xlink:href="#DejaVuSans-30"/>
       <use xlink:href="#DejaVuSans-2e" transform="translate(63.623047 0)"/>
       <use xlink:href="#DejaVuSans-34" transform="translate(95.410156 0)"/>
      </g>
     </g>
    </g>
    <g id="ytick_4">
     <g id="line2d_23">
      <path d="M 47.72 151.662857 
L 565.2 151.662857 
" clip-path="url(#p9561df5166)" style="fill: none; stroke: #30333e; stroke-width: 0.6; stroke-linecap: square"/>
     </g>
     <g id="line2d_24">
      <g>
       <use xlink:href="#mf3c8fae73b" x="47.72" y="151.662857" style="fill: #e0e0e0; stroke: #e0e0e0; stroke-width: 0.8"/>
      </g>
     </g>
     <g id="text_13">
      <!-- 0.6 -->
      <g style="fill: #e0e0e0" transform="translate(24.816875 155.462076) scale(0.1 -0.1)">
       <use xlink:href="#DejaVuSans-30"/>
       <use xlink:href="#DejaVuSans-2e" transform="translate(63.623047 0)"/>
       <use xlink:href="#DejaVuSans-36" transform="translate(95.410156 0)"/>
      </g>
     </g>
    </g>
    <g id="ytick_5">
     <g id="line2d_25">
      <path d="M 47.72 96.20381 
L 565.2 96.20381 
" clip-path="url(#p9561df5166)" style="fill: none; stroke: #30333e; stroke-width: 0.6; stroke-linecap: square"/>
     </g>
     <g id="line2d_26">
      <g>
       <use xlink:href="#mf3c8fae73b" x="47.72" y="96.20381" style="fill: #e0e0e0; stroke: #e0e0e0; stroke-width: 0.8"/>
      </g>
     </g>
     <g id="text_14">
      <!-- 0.8 -->
      <g style="fill: #e0e0e0" transform="translate(24.816875 100.003028) scale(0.1 -0.1)">
       <defs>
        <path id="DejaVuSans-38" d="M 2034 2216 
Q 1584 2216 1326 1975 
Q 1069 1734 1069 1313 
Q 1069 891 1326 650 
Q 1584 409 2034 409 
Q 2484 409 2743 651 
Q 3003 894 3003 1313 
Q 3003 1734 2745 1975 
Q 2488 2216 2034 2216 
z
M 1403 2484 
Q 997 2584 770 2862 
Q 544 3141 544 3541 
Q 544 4100 942 4425 
Q 1341 4750 2034 4750 
Q 2731 4750 3128 4425 
Q 3525 4100 3525 3541 
Q 3525 3141 3298 2862 
Q 3072 2584 2669 2484 
Q 3125 2378 3379 2068 
Q 3634 1759 3634 1313 
Q 3634 634 3220 271 
Q 2806 -91 2034 -91 
Q 1263 -91 848 271 
Q 434 634 434 1313 
Q 434 1759 690 2068 
Q 947 2378 1403 2484 
z
M 1172 3481 
Q 1172 3119 1398 2916 
Q 1625 2713 2034 2713 
Q 2441 2713 2670 2916 
Q 2900 3119 2900 3481 
Q 2900 3844 2670 4047 
Q 2441 4250 2034 4250 
Q 1625 4250 1398 4047 
Q 1172 3844 1172 3481 
z
" transform="scale(0.015625)"/>
       </defs>
       <use xlink:href="#DejaVuSans-30"/>
       <use xlink:href="#DejaVuSans-2e" transform="translate(63.623047 0)"/>
       <use xlink:href="#DejaVuSans-38" transform="translate(95.410156 0)"/>
      </g>
     </g>
    </g>
    <g id="ytick_6">
     <g id="line2d_27">
      <path d="M 47.72 40.744762 
L 565.2 40.744762 
" clip-path="url(#p9561df5166)" style="fill: none; stroke: #30333e; stroke-width: 0.6; stroke-linecap: square"/>
     </g>
     <g id="line2d_28">
      <g>
       <use xlink:href="#mf3c8fae73b" x="47.72" y="40.744762" style="fill: #e0e0e0; stroke: #e0e0e0; stroke-width: 0.8"/>
      </g>
     </g>
     <g id="text_15">
      <!-- 1.0 -->
      <g style="fill: #e0e0e0" transform="translate(24.816875 44.543981) scale(0.1 -0.1)">
       <use xlink:href="#DejaVuSans-31"/>
       <use xlink:href="#DejaVuSans-2e" transform="translate(63.623047 0)"/>
       <use xlink:href="#DejaVuSans-30" transform="translate(95.410156 0)"/>
      </g>
     </g>
    </g>
    <g id="text_16">
     <!-- Normalized throughput -->
     <g style="fill: #e0e0e0" transform="translate(18.737188 230.350625) rotate(-90) scale(0.1 -0.1)">
      <defs>
       <path id="DejaVuSans-4e" d="M 628 4666 
L 1478 4666 
L 3547 763 
L 3547 4666 
L 4159 4666 
L 4159 0 
L 3309 0 
L 1241 3903 
L 1241 0 
L 628 0 
L 628 4666 
z
" transform="scale(0.015625)"/>
       <path id="DejaVuSans-72" d="M 2631 2963 
Q 2534 3019 2420 3045 
Q 2306 3072 2169 3072 
Q 1681 3072 1420 2755 
Q 1159 2438 1159 1844 
L 1159 0 
L 581 0 
L 581 3500 
L 1159 3500 
L 1159 2956 
Q 1341 3275 1631 3429 
Q 1922 3584 2338 3584 
Q 2397 3584 2469 3576 
Q 2541 3569 2628 3553 
L 2631 2963 
z
" transform="scale(0.015625)"/>
       <path id="DejaVuSans-6d" d="M 3328 2828 
Q 3544 3216 3844 3400 
Q 4144 3584 4550 3584 
Q 5097 3584 5394 3201 
Q 5691 2819 5691 2113 
L 5691 0 
L 5113 0 
L 5113 2094 
Q 5113 2597 4934 2840 
Q 4756 3084 4391 3084 
Q 3944 3084 3684 2787 
Q 3425 2491 3425 1978 
L 3425 0 
L 2847 0 
L 2847 2094 
Q 2847 2600 2669 2842 
Q 2491 3084 2119 3084 
Q 1678 3084 1418 2786 
Q 1159 2488 1159 1978 
L 1159 0 
L 581 0 
L 581 3500 
L 1159 3500 
L 1159 2956 
Q 1356 3278 1631 3431 
Q 1906 3584 2284 3584 
Q 2666 3584 2933 3390 
Q 3200 3197 3328 2828 
z
" transform="scale(0.015625)"/>
       <path id="DejaVuSans-61" d="M 2194 1759 
Q 1497 1759 1228 1600 
Q 959 1441 959 1056 
Q 959 750 1161 570 
Q 1363 391 1709 391 
Q 2188 391 2477 730 
Q 2766 1069 2766 1631 
L 2766 1759 
L 2194 1759 
z
M 3341 1997 
L 3341 0 
L 2766 0 
L 2766 531 
Q 2569 213 2275 61 
Q 1981 -91 1556 -91 
Q 1019 -91 701 211 
Q 384 513 384 1019 
Q 384 1609 779 1909 
Q 1175 2209 1959 2209 
L 2766 2209 
L 2766 2266 
Q 2766 2663 2505 2880 
Q 2244 3097 1772 3097 
Q 1472 3097 1187 3025 
Q 903 2953 641 2809 
L 641 3341 
Q 956 3463 1253 3523 
Q 1550 3584 1831 3584 
Q 2591 3584 2966 3190 
Q 3341 2797 3341 1997 
z
" transform="scale(0.015625)"/>
       <path id="DejaVuSans-64" d="M 2906 2969 
L 2906 4863 
L 3481 4863 
L 3481 0 
L 2906 0 
L 2906 525 
Q 2725 213 2448 61 
Q 2172 -91 1784 -91 
Q 1150 -91 751 415 
Q 353 922 353 1747 
Q 353 2572 751 3078 
Q 1150 3584 1784 3584 
Q 2172 3584 2448 3432 
Q 2725 3281 2906 2969 
z
M 947 1747 
Q 947 1113 1208 752 
Q 1469 391 1925 391 
Q 2381 391 2643 752 
Q 2906 1113 2906 1747 
Q 2906 2381 2643 2742 
Q 2381 3103 1925 3103 
Q 1469 3103 1208 2742 
Q 947 2381 947 1747 
z
" transform="scale(0.015625)"/>
       <path id="DejaVuSans-74" d="M 1172 4494 
L 1172 3500 
L 2356 3500 
L 2356 3053 
L 1172 3053 
L 1172 1153 
Q 1172 725 1289 603 
Q 1406 481 1766 481 
L 2356 481 
L 2356 0 
L 1766 0 
Q 1100 0 847 248 
Q 594 497 594 1153 
L 594 3053 
L 172 3053 
L 172 3500 
L 594 3500 
L 594 4494 
L 1172 4494 
z
" transform="scale(0.015625)"/>
       <path id="DejaVuSans-68" d="M 3513 2113 
L 3513 0 
L 2938 0 
L 2938 2094 
Q 2938 2591 2744 2837 
Q 2550 3084 2163 3084 
Q 1697 3084 1428 2787 
Q 1159 2491 1159 1978 
L 1159 0 
L 581 0 
L 581 4863 
L 1159 4863 
L 1159 2956 
Q 1366 3272 1645 3428 
Q 1925 3584 2291 3584 
Q 2894 3584 3203 3211 
Q 3513 2838 3513 2113 
z
" transform="scale(0.015625)"/>
       <path id="DejaVuSans-75" d="M 544 1381 
L 544 3500 
L 1119 3500 
L 1119 1403 
Q 1119 906 1312 657 
Q 1506 409 1894 409 
Q 2359 409 2629 706 
Q 2900 1003 2900 1516 
L 2900 3500 
L 3475 3500 
L 3475 0 
L 2900 0 
L 2900 538 
Q 2691 219 2414 64 
Q 2138 -91 1772 -91 
Q 1169 -91 856 284 
Q 544 659 544 1381 
z
M 1991 3584 
L 1991 3584 
z
" transform="scale(0.015625)"/>
       <path id="DejaVuSans-67" d="M 2906 1791 
Q 2906 2416 2648 2759 
Q 2391 3103 1925 3103 
Q 1463 3103 1205 2759 
Q 947 2416 947 1791 
Q 947 1169 1205 825 
Q 1463 481 1925 481 
Q 2391 481 2648 825 
Q 2906 1169 2906 1791 
z
M 3481 434 
Q 3481 -459 3084 -895 
Q 2688 -1331 1869 -1331 
Q 1566 -1331 1297 -1286 
Q 1028 -1241 775 -1147 
L 775 -588 
Q 1028 -725 1275 -790 
Q 1522 -856 1778 -856 
Q 2344 -856 2625 -561 
Q 2906 -266 2906 331 
L 2906 616 
Q 2728 306 2450 153 
Q 2172 0 1784 0 
Q 1141 0 747 490 
Q 353 981 353 1791 
Q 353 2603 747 3093 
Q 1141 3584 1784 3584 
Q 2172 3584 2450 3431 
Q 2728 3278 2906 2969 
L 2906 3500 
L 3481 3500 
L 3481 434 
z
" transform="scale(0.015625)"/>
       <path id="DejaVuSans-70" d="M 1159 525 
L 1159 -1331 
L 581 -1331 
L 581 3500 
L 1159 3500 
L 1159 2969 
Q 1341 3281 1617 3432 
Q 1894 3584 2278 3584 
Q 2916 3584 3314 3078 
Q 3713 2572 3713 1747 
Q 3713 922 3314 415 
Q 2916 -91 2278 -91 
Q 1894 -91 1617 61 
Q 1341 213 1159 525 
z
M 3116 1747 
Q 3116 2381 2855 2742 
Q 2594 3103 2138 3103 
Q 1681 3103 1420 2742 
Q 1159 2381 1159 1747 
Q 1159 1113 1420 752 
Q 1681 391 2138 391 
Q 2594 391 2855 752 
Q 3116 1113 3116 1747 
z
" transform="scale(0.015625)"/>
      </defs>
      <use xlink:href="#DejaVuSans-4e"/>
      <use xlink:href="#DejaVuSans-6f" transform="translate(74.804688 0)"/>
      <use xlink:href="#DejaVuSans-72" transform="translate(135.986328 0)"/>
      <use xlink:href="#DejaVuSans-6d" transform="translate(175.349609 0)"/>
      <use xlink:href="#DejaVuSans-61" transform="translate(272.761719 0)"/>
      <use xlink:href="#DejaVuSans-6c" transform="translate(334.041016 0)"/>
      <use xlink:href="#DejaVuSans-69" transform="translate(361.824219 0)"/>
      <use xlink:href="#DejaVuSans-7a" transform="translate(389.607422 0)"/>
      <use xlink:href="#DejaVuSans-65" transform="translate(442.097656 0)"/>
      <use xlink:href="#DejaVuSans-64" transform="translate(503.621094 0)"/>
      <use xlink:href="#DejaVuSans-20" transform="translate(567.097656 0)"/>
      <use xlink:href="#DejaVuSans-74" transform="translate(598.884766 0)"/>
      <use xlink:href="#DejaVuSans-68" transform="translate(638.09375 0)"/>
      <use xlink:href="#DejaVuSans-72" transform="translate(701.472656 0)"/>
      <use xlink:href="#DejaVuSans-6f" transform="translate(740.335938 0)"/>
      <use xlink:href="#DejaVuSans-75" transform="translate(801.517578 0)"/>
      <use xlink:href="#DejaVuSans-67" transform="translate(864.896484 0)"/>
      <use xlink:href="#DejaVuSans-68" transform="translate(928.373047 0)"/>
      <use xlink:href="#DejaVuSans-70" transform="translate(991.751953 0)"/>
      <use xlink:href="#DejaVuSans-75" transform="translate(1055.228516 0)"/>
      <use xlink:href="#DejaVuSans-74" transform="translate(1118.607422 0)"/>
     </g>
    </g>
   </g>
   <g id="line2d_29">
    <path d="M 71.241818 155.559348 
L 100.644091 41.310507 
L 130.046364 42.287026 
L 159.448636 40.969901 
L 188.850909 42.269246 
L 218.253182 42.037903 
L 247.655455 41.671707 
L 277.057727 56.464354 
L 306.46 54.453615 
L 335.862273 52.203699 
L 365.264545 49.986739 
L 394.666818 47.031406 
L 424.069091 44.842186 
L 453.471364 40.744762 
L 482.873636 41.702657 
L 512.275909 41.96783 
" clip-path="url(#p9561df5166)" style="fill: none; stroke-dasharray: 1.2,1.98; stroke-dashoffset: 0; stroke: #ffcc80; stroke-opacity: 0.85; stroke-width: 1.2"/>
   </g>
   <g id="line2d_30">
    <path d="M 71.241818 102.825992 
L 100.644091 40.744762 
L 130.046364 41.404709 
L 159.448636 41.650198 
L 188.850909 42.587314 
L 218.253182 42.505108 
L 247.655455 53.414945 
L 277.057727 50.351382 
L 306.46 46.767024 
L 335.862273 43.918071 
L 365.264545 41.599361 
L 394.666818 41.334828 
L 424.069091 53.799585 
L 453.471364 49.820335 
L 482.873636 47.229104 
L 512.275909 44.611613 
L 541.678182 41.008049 
" clip-path="url(#p9561df5166)" style="fill: none; stroke-dasharray: 1.2,1.98; stroke-dashoffset: 0; stroke: #fcbc6b; stroke-opacity: 0.85; stroke-width: 1.2"/>
   </g>
   <g id="line2d_31">
    <path d="M 71.241818 130.671597 
L 100.644091 42.362053 
L 130.046364 46.884113 
L 159.448636 52.483385 
L 188.850909 47.172728 
L 218.253182 43.694923 
L 247.655455 41.68296 
L 277.057727 41.009966 
L 306.46 41.295887 
L 335.862273 41.016759 
L 365.264545 40.744762 
L 394.666818 40.941718 
L 424.069091 40.984561 
L 453.471364 41.16731 
L 482.873636 41.185602 
L 512.275909 50.86958 
L 541.678182 45.859547 
" clip-path="url(#p9561df5166)" style="fill: none; stroke-dasharray: 1.2,1.98; stroke-dashoffset: 0; stroke: #faac55; stroke-opacity: 0.85; stroke-width: 1.2"/>
   </g>
   <g id="line2d_32">
    <path d="M 71.241818 109.289939 
L 100.644091 95.367023 
L 130.046364 75.19225 
L 159.448636 49.711424 
L 188.850909 53.401274 
L 218.253182 47.124338 
L 247.655455 40.744762 
L 277.057727 41.061738 
L 306.46 41.703783 
L 335.862273 41.599671 
L 365.264545 41.869319 
L 394.666818 41.413248 
L 424.069091 41.602605 
L 453.471364 50.137809 
L 482.873636 42.881644 
L 512.275909 41.010187 
L 541.678182 50.554601 
" clip-path="url(#p9561df5166)" style="fill: none; stroke-dasharray: 1.2,1.98; stroke-dashoffset: 0; stroke: #f79c40; stroke-opacity: 0.85; stroke-width: 1.2"/>
   </g>
   <g id="line2d_33">
    <path d="M 71.241818 123.494714 
L 100.644091 120.606374 
L 130.046364 96.301684 
L 159.448636 80.572333 
L 188.850909 61.459983 
L 218.253182 51.638739 
L 247.655455 43.676054 
L 277.057727 47.373984 
L 306.46 47.808135 
L 335.862273 40.777938 
L 365.264545 41.454469 
L 394.666818 46.052481 
L 424.069091 40.955479 
L 453.471364 46.855954 
L 482.873636 40.744762 
L 512.275909 44.464185 
L 541.678182 40.917191 
" clip-path="url(#p9561df5166)" style="fill: none; stroke-dasharray: 1.2,1.98; stroke-dashoffset: 0; stroke: #f48c2b; stroke-opacity: 0.85; stroke-width: 1.2"/>
   </g>
   <g id="line2d_34">
    <path d="M 71.241818 133.465564 
L 100.644091 122.874082 
L 130.046364 92.046268 
L 159.448636 75.22839 
L 188.850909 61.730807 
L 218.253182 54.486068 
L 247.655455 47.950814 
L 277.057727 44.309105 
L 306.46 42.565182 
L 335.862273 44.145338 
L 365.264545 40.744762 
L 394.666818 42.055689 
L 424.069091 41.225704 
L 453.471364 40.830189 
L 482.873636 42.890504 
L 512.275909 41.186424 
L 541.678182 41.10489 
" clip-path="url(#p9561df5166)" style="fill: none; stroke-dasharray: 1.2,1.98; stroke-dashoffset: 0; stroke: #f27c15; stroke-opacity: 0.85; stroke-width: 1.2"/>
   </g>
   <g id="line2d_35">
    <path d="M 71.241818 128.904648 
L 100.644091 118.067971 
L 130.046364 99.716501 
L 159.448636 79.468596 
L 188.850909 62.962813 
L 218.253182 52.727819 
L 247.655455 47.843666 
L 277.057727 44.79084 
L 306.46 42.886998 
L 335.862273 42.090286 
L 365.264545 41.657262 
L 394.666818 41.309129 
L 424.069091 40.919649 
L 453.471364 41.088803 
L 482.873636 40.987703 
L 512.275909 40.744762 
L 541.678182 41.020798 
" clip-path="url(#p9561df5166)" style="fill: none; stroke-dasharray: 1.2,1.98; stroke-dashoffset: 0; stroke: #ef6c00; stroke-opacity: 0.85; stroke-width: 1.2"/>
   </g>
   <g id="line2d_36">
    <path d="M 71.241818 181.911826 
L 100.644091 174.652771 
L 130.046364 137.510836 
L 159.448636 99.482228 
L 188.850909 72.093496 
L 218.253182 58.096695 
L 247.655455 63.476729 
L 277.057727 46.098851 
L 306.46 56.853227 
L 335.862273 51.832543 
L 365.264545 41.403926 
L 394.666818 40.744762 
L 424.069091 40.907439 
L 453.471364 41.478306 
L 482.873636 42.812709 
L 512.275909 50.8824 
" clip-path="url(#p9561df5166)" style="fill: none; stroke: #ffcc80; stroke-opacity: 0.85; stroke-width: 1.2; stroke-linecap: square"/>
   </g>
   <g id="line2d_37">
    <path d="M 71.241818 178.011037 
L 100.644091 169.664706 
L 130.046364 135.268555 
L 159.448636 98.22886 
L 188.850909 79.444914 
L 218.253182 57.270088 
L 247.655455 60.962607 
L 277.057727 47.027693 
L 306.46 43.567875 
L 335.862273 54.451206 
L 365.264545 48.550647 
L 394.666818 41.396706 
L 424.069091 53.493981 
L 453.471364 48.334536 
L 482.873636 40.744762 
L 512.275909 41.298123 
L 541.678182 53.451374 
" clip-path="url(#p9561df5166)" style="fill: none; stroke: #fcbc6b; stroke-opacity: 0.85; stroke-width: 1.2; stroke-linecap: square"/>
   </g>
   <g id="line2d_38">
    <path d="M 71.241818 174.005 
L 100.644091 167.342141 
L 130.046364 132.104658 
L 159.448636 101.926131 
L 188.850909 81.190276 
L 218.253182 61.764633 
L 247.655455 63.253525 
L 277.057727 48.617127 
L 306.46 62.263204 
L 335.862273 48.486835 
L 365.264545 57.382299 
L 394.666818 40.788111 
L 424.069091 40.744762 
L 453.471364 41.025532 
L 482.873636 40.775077 
L 512.275909 40.793263 
L 541.678182 40.756889 
" clip-path="url(#p9561df5166)" style="fill: none; stroke: #faac55; stroke-opacity: 0.85; stroke-width: 1.2; stroke-linecap: square"/>
   </g>
   <g id="line2d_39">
    <path d="M 71.241818 159.55345 
L 100.644091 155.178346 
L 130.046364 126.449067 
L 159.448636 93.2523 
L 188.850909 79.203595 
L 218.253182 56.253244 
L 247.655455 49.048775 
L 277.057727 54.430657 
L 306.46 43.013139 
L 335.862273 42.008408 
L 365.264545 42.153243 
L 394.666818 41.31348 
L 424.069091 41.08507 
L 453.471364 41.039944 
L 482.873636 40.854776 
L 512.275909 40.744762 
L 541.678182 40.918032 
" clip-path="url(#p9561df5166)" style="fill: none; stroke: #f79c40; stroke-opacity: 0.85; stroke-width: 1.2; stroke-linecap: square"/>
   </g>
   <g id="line2d_40">
    <path d="M 71.241818 147.65526 
L 100.644091 146.742411 
L 130.046364 126.180895 
L 159.448636 89.853017 
L 188.850909 77.943927 
L 218.253182 56.147451 
L 247.655455 49.18162 
L 277.057727 45.221212 
L 306.46 43.300221 
L 335.862273 50.071406 
L 365.264545 41.832872 
L 394.666818 41.313832 
L 424.069091 49.560359 
L 453.471364 50.354559 
L 482.873636 40.834889 
L 512.275909 40.744762 
L 541.678182 41.951343 
" clip-path="url(#p9561df5166)" style="fill: none; stroke: #f48c2b; stroke-opacity: 0.85; stroke-width: 1.2; stroke-linecap: square"/>
   </g>
   <g id="line2d_41">
    <path d="M 71.241818 133.165264 
L 100.644091 138.141639 
L 130.046364 114.045489 
L 159.448636 88.06401 
L 188.850909 77.654217 
L 218.253182 62.993928 
L 247.655455 56.547907 
L 277.057727 54.005966 
L 306.46 47.195182 
L 335.862273 49.080798 
L 365.264545 45.646863 
L 394.666818 45.240511 
L 424.069091 40.744762 
L 453.471364 42.48318 
L 482.873636 44.969662 
L 512.275909 45.816722 
L 541.678182 55.65707 
" clip-path="url(#p9561df5166)" style="fill: none; stroke: #f27c15; stroke-opacity: 0.85; stroke-width: 1.2; stroke-linecap: square"/>
   </g>
   <g id="line2d_42">
    <path d="M 71.241818 133.215804 
L 100.644091 133.345853 
L 130.046364 110.202864 
L 159.448636 83.254973 
L 188.850909 68.493519 
L 218.253182 56.769104 
L 247.655455 50.986303 
L 277.057727 44.777216 
L 306.46 45.661787 
L 335.862273 43.284065 
L 365.264545 41.505421 
L 394.666818 44.666241 
L 424.069091 42.627713 
L 453.471364 42.094166 
L 482.873636 40.83501 
L 512.275909 40.904958 
L 541.678182 40.744762 
" clip-path="url(#p9561df5166)" style="fill: none; stroke: #ef6c00; stroke-opacity: 0.85; stroke-width: 1.2; stroke-linecap: square"/>
   </g>
   <g id="line2d_43">
    <path d="M 71.241818 198.940529 
L 100.644091 176.943027 
L 130.046364 176.175987 
L 159.448636 130.903861 
L 188.850909 97.577222 
L 218.253182 51.234552 
L 247.655455 65.600152 
L 277.057727 68.879719 
L 306.46 62.234771 
L 335.862273 57.536162 
L 365.264545 56.071698 
L 394.666818 50.468567 
L 424.069091 48.958474 
L 453.471364 48.738178 
L 482.873636 40.744762 
L 512.275909 44.618601 
" clip-path="url(#p9561df5166)" style="fill: none; stroke-dasharray: 1.2,1.98; stroke-dashoffset: 0; stroke: #90caf9; stroke-opacity: 0.85; stroke-width: 1.2"/>
   </g>
   <g id="line2d_44">
    <path d="M 71.241818 199.093859 
L 100.644091 174.737105 
L 130.046364 176.51154 
L 159.448636 132.878127 
L 188.850909 106.541022 
L 218.253182 76.601424 
L 247.655455 55.674503 
L 277.057727 64.98714 
L 306.46 62.844623 
L 335.862273 57.825864 
L 365.264545 54.780884 
L 394.666818 52.125641 
L 424.069091 51.790987 
L 453.471364 48.555761 
L 482.873636 42.95211 
L 512.275909 42.22414 
L 541.678182 40.744762 
" clip-path="url(#p9561df5166)" style="fill: none; stroke-dasharray: 1.2,1.98; stroke-dashoffset: 0; stroke: #7dbff6; stroke-opacity: 0.85; stroke-width: 1.2"/>
   </g>
   <g id="line2d_45">
    <path d="M 71.241818 255.390644 
L 100.644091 176.199342 
L 130.046364 180.586662 
L 159.448636 131.541689 
L 188.850909 98.958565 
L 218.253182 91.727209 
L 247.655455 77.502414 
L 277.057727 60.570933 
L 306.46 55.032858 
L 335.862273 52.007853 
L 365.264545 49.748408 
L 394.666818 41.849601 
L 424.069091 41.525706 
L 453.471364 40.744762 
L 482.873636 41.888224 
L 512.275909 42.172739 
L 541.678182 57.925616 
" clip-path="url(#p9561df5166)" style="fill: none; stroke-dasharray: 1.2,1.98; stroke-dashoffset: 0; stroke: #6ab4f2; stroke-opacity: 0.85; stroke-width: 1.2"/>
   </g>
   <g id="line2d_46">
    <path d="M 71.241818 274.346662 
L 100.644091 234.92599 
L 130.046364 236.450559 
L 159.448636 170.12929 
L 188.850909 116.930395 
L 218.253182 78.577164 
L 247.655455 65.177784 
L 277.057727 55.502714 
L 306.46 50.698003 
L 335.862273 44.620058 
L 365.264545 43.324521 
L 394.666818 41.845974 
L 424.069091 42.498682 
L 453.471364 41.429221 
L 482.873636 41.373719 
L 512.275909 40.744762 
L 541.678182 41.028146 
" clip-path="url(#p9561df5166)" style="fill: none; stroke-dasharray: 1.2,1.98; stroke-dashoffset: 0; stroke: #57a9ef; stroke-opacity: 0.85; stroke-width: 1.2"/>
   </g>
   <g id="line2d_47">
    <path d="M 71.241818 281.518845 
L 100.644091 274.556745 
L 130.046364 277.668772 
L 159.448636 261.326468 
L 188.850909 226.890061 
L 218.253182 155.911758 
L 247.655455 86.297429 
L 277.057727 59.744646 
L 306.46 51.4527 
L 335.862273 46.800949 
L 365.264545 43.749815 
L 394.666818 43.396333 
L 424.069091 40.744762 
L 453.471364 54.285728 
L 482.873636 50.433939 
L 512.275909 46.541789 
L 541.678182 44.236128 
" clip-path="url(#p9561df5166)" style="fill: none; stroke-dasharray: 1.2,1.98; stroke-dashoffset: 0; stroke: #449eec; stroke-opacity: 0.85; stroke-width: 1.2"/>
   </g>
   <g id="line2d_48">
    <path d="M 71.241818 284.77317 
L 100.644091 275.035119 
L 130.046364 276.335853 
L 159.448636 263.15749 
L 188.850909 233.745126 
L 218.253182 199.499147 
L 247.655455 154.623285 
L 277.057727 119.807669 
L 306.46 84.667235 
L 335.862273 80.863231 
L 365.264545 67.167808 
L 394.666818 51.060099 
L 424.069091 42.175639 
L 453.471364 41.188302 
L 482.873636 40.744762 
L 512.275909 57.445128 
L 541.678182 50.628242 
" clip-path="url(#p9561df5166)" style="fill: none; stroke-dasharray: 1.2,1.98; stroke-dashoffset: 0; stroke: #3193e8; stroke-opacity: 0.85; stroke-width: 1.2"/>
   </g>
   <g id="line2d_49">
    <path d="M 71.241818 285.493255 
L 100.644091 275.407851 
L 130.046364 278.422065 
L 159.448636 252.876872 
L 188.850909 230.698701 
L 218.253182 201.691287 
L 247.655455 159.94647 
L 277.057727 126.190087 
L 306.46 99.179428 
L 335.862273 77.852038 
L 365.264545 60.198389 
L 394.666818 58.690505 
L 424.069091 45.964523 
L 453.471364 43.483317 
L 482.873636 51.087527 
L 512.275909 43.427652 
L 541.678182 40.744762 
" clip-path="url(#p9561df5166)" style="fill: none; stroke-dasharray: 1.2,1.98; stroke-dashoffset: 0; stroke: #1e88e5; stroke-opacity: 0.85; stroke-width: 1.2"/>
   </g>
   <g id="line2d_50">
    <path d="M 71.241818 299.058138 
L 100.644091 293.388485 
L 130.046364 292.527386 
L 159.448636 273.679087 
L 188.850909 247.123796 
L 218.253182 214.449477 
L 247.655455 172.851096 
L 277.057727 140.969146 
L 306.46 111.20191 
L 335.862273 93.194721 
L 365.264545 63.716675 
L 394.666818 52.062782 
L 424.069091 47.045104 
L 453.471364 43.397499 
L 482.873636 42.378047 
L 512.275909 40.744762 
" clip-path="url(#p9561df5166)" style="fill: none; stroke: #90caf9; stroke-opacity: 0.85; stroke-width: 1.2; stroke-linecap: square"/>
   </g>
   <g id="line2d_51">
    <path d="M 71.241818 298.518994 
L 100.644091 293.436451 
L 130.046364 292.597219 
L 159.448636 273.678979 
L 188.850909 248.625863 
L 218.253182 216.658687 
L 247.655455 171.986149 
L 277.057727 140.529723 
L 306.46 111.536195 
L 335.862273 91.712273 
L 365.264545 67.50744 
L 394.666818 55.543526 
L 424.069091 47.976099 
L 453.471364 47.590973 
L 482.873636 46.662743 
L 512.275909 42.185551 
L 541.678182 40.744762 
" clip-path="url(#p9561df5166)" style="fill: none; stroke: #7dbff6; stroke-opacity: 0.85; stroke-width: 1.2; stroke-linecap: square"/>
   </g>
   <g id="line2d_52">
    <path d="M 71.241818 296.021446 
L 100.644091 291.715223 
L 130.046364 291.952623 
L 159.448636 272.747504 
L 188.850909 246.839721 
L 218.253182 213.998655 
L 247.655455 168.881622 
L 277.057727 133.626177 
L 306.46 105.609217 
L 335.862273 81.387253 
L 365.264545 63.542792 
L 394.666818 52.106645 
L 424.069091 45.122585 
L 453.471364 42.788275 
L 482.873636 52.978499 
L 512.275909 40.744762 
L 541.678182 41.682885 
" clip-path="url(#p9561df5166)" style="fill: none; stroke: #6ab4f2; stroke-opacity: 0.85; stroke-width: 1.2; stroke-linecap: square"/>
   </g>
   <g id="line2d_53">
    <path d="M 71.241818 291.020583 
L 100.644091 289.893781 
L 130.046364 290.757271 
L 159.448636 272.613721 
L 188.850909 246.663093 
L 218.253182 214.6477 
L 247.655455 168.681983 
L 277.057727 134.623338 
L 306.46 105.835494 
L 335.862273 87.106637 
L 365.264545 64.839121 
L 394.666818 55.566692 
L 424.069091 47.447616 
L 453.471364 43.485891 
L 482.873636 42.12334 
L 512.275909 45.880478 
L 541.678182 40.744762 
" clip-path="url(#p9561df5166)" style="fill: none; stroke: #57a9ef; stroke-opacity: 0.85; stroke-width: 1.2; stroke-linecap: square"/>
   </g>
   <g id="line2d_54">
    <path d="M 71.241818 287.432146 
L 100.644091 280.338266 
L 130.046364 288.473969 
L 159.448636 272.483353 
L 188.850909 246.44218 
L 218.253182 213.283786 
L 247.655455 170.265585 
L 277.057727 134.224525 
L 306.46 105.444462 
L 335.862273 82.225568 
L 365.264545 63.274034 
L 394.666818 53.761033 
L 424.069091 56.641604 
L 453.471364 43.848849 
L 482.873636 41.787641 
L 512.275909 59.855777 
L 541.678182 40.744762 
" clip-path="url(#p9561df5166)" style="fill: none; stroke: #449eec; stroke-opacity: 0.85; stroke-width: 1.2; stroke-linecap: square"/>
   </g>
   <g id="line2d_55">
    <path d="M 71.241818 286.457409 
L 100.644091 277.91193 
L 130.046364 280.523887 
L 159.448636 268.3602 
L 188.850909 243.89415 
L 218.253182 212.048175 
L 247.655455 168.575691 
L 277.057727 137.975782 
L 306.46 108.50859 
L 335.862273 86.697853 
L 365.264545 65.638515 
L 394.666818 64.911996 
L 424.069091 49.747367 
L 453.471364 40.744762 
L 482.873636 47.628799 
L 512.275909 48.814863 
L 541.678182 50.122375 
" clip-path="url(#p9561df5166)" style="fill: none; stroke: #3193e8; stroke-opacity: 0.85; stroke-width: 1.2; stroke-linecap: square"/>
   </g>
   <g id="line2d_56">
    <path d="M 71.241818 286.14304 
L 100.644091 277.612406 
L 130.046364 279.409639 
L 159.448636 267.582313 
L 188.850909 242.37468 
L 218.253182 210.652222 
L 247.655455 167.570737 
L 277.057727 132.943287 
L 306.46 108.349773 
L 335.862273 81.171498 
L 365.264545 61.564138 
L 394.666818 52.020397 
L 424.069091 52.152305 
L 453.471364 42.952889 
L 482.873636 44.267498 
L 512.275909 43.250857 
L 541.678182 40.744762 
" clip-path="url(#p9561df5166)" style="fill: none; stroke: #1e88e5; stroke-opacity: 0.85; stroke-width: 1.2; stroke-linecap: square"/>
   </g>
   <g id="line2d_57">
    <path d="M 71.241818 273.614551 
L 100.644091 230.047185 
L 130.046364 139.093153 
L 159.448636 91.655601 
L 188.850909 51.876272 
L 218.253182 45.267241 
L 247.655455 40.887862 
L 277.057727 78.649514 
L 306.46 70.293547 
L 335.862273 70.547256 
L 365.264545 57.61256 
L 394.666818 51.288714 
L 424.069091 53.203372 
L 453.471364 49.823292 
L 482.873636 40.744762 
L 512.275909 61.755096 
" clip-path="url(#p9561df5166)" style="fill: none; stroke-dasharray: 1.2,1.98; stroke-dashoffset: 0; stroke: #a5d6a7; stroke-opacity: 0.85; stroke-width: 1.2"/>
   </g>
   <g id="line2d_58">
    <path d="M 71.241818 274.985767 
L 100.644091 233.433073 
L 130.046364 141.411154 
L 159.448636 100.485883 
L 188.850909 84.386984 
L 218.253182 51.928184 
L 247.655455 48.571081 
L 277.057727 41.612055 
L 306.46 42.639375 
L 335.862273 42.015993 
L 365.264545 40.744762 
L 394.666818 42.568499 
L 424.069091 41.936883 
L 453.471364 42.095058 
L 482.873636 59.220681 
L 512.275909 57.822451 
L 541.678182 55.410468 
" clip-path="url(#p9561df5166)" style="fill: none; stroke-dasharray: 1.2,1.98; stroke-dashoffset: 0; stroke: #95cd97; stroke-opacity: 0.85; stroke-width: 1.2"/>
   </g>
   <g id="line2d_59">
    <path d="M 71.241818 277.762188 
L 100.644091 230.118571 
L 130.046364 134.163299 
L 159.448636 85.145672 
L 188.850909 75.494423 
L 218.253182 49.368767 
L 247.655455 47.100574 
L 277.057727 42.919828 
L 306.46 42.170945 
L 335.862273 59.366206 
L 365.264545 58.354548 
L 394.666818 55.454281 
L 424.069091 53.357234 
L 453.471364 51.746685 
L 482.873636 50.826546 
L 512.275909 46.109594 
L 541.678182 40.744762 
" clip-path="url(#p9561df5166)" style="fill: none; stroke-dasharray: 1.2,1.98; stroke-dashoffset: 0; stroke: #84c487; stroke-opacity: 0.85; stroke-width: 1.2"/>
   </g>
   <g id="line2d_60">
    <path d="M 71.241818 291.207695 
L 100.644091 256.712056 
L 130.046364 144.202978 
L 159.448636 138.913574 
L 188.850909 99.030728 
L 218.253182 62.475157 
L 247.655455 56.866578 
L 277.057727 51.284402 
L 306.46 50.192641 
L 335.862273 49.245171 
L 365.264545 40.885841 
L 394.666818 47.400065 
L 424.069091 40.784517 
L 453.471364 41.993563 
L 482.873636 41.161622 
L 512.275909 40.744762 
L 541.678182 40.744762 
" clip-path="url(#p9561df5166)" style="fill: none; stroke-dasharray: 1.2,1.98; stroke-dashoffset: 0; stroke: #74bb77; stroke-opacity: 0.85; stroke-width: 1.2"/>
   </g>
   <g id="line2d_61">
    <path d="M 71.241818 292.300057 
L 100.644091 276.967187 
L 130.046364 254.400876 
L 159.448636 228.353599 
L 188.850909 178.163152 
L 218.253182 123.070375 
L 247.655455 89.866682 
L 277.057727 69.208496 
L 306.46 45.279823 
L 335.862273 64.33418 
L 365.264545 47.945937 
L 394.666818 44.228074 
L 424.069091 51.001805 
L 453.471364 45.226524 
L 482.873636 42.884464 
L 512.275909 42.636075 
L 541.678182 40.744762 
" clip-path="url(#p9561df5166)" style="fill: none; stroke-dasharray: 1.2,1.98; stroke-dashoffset: 0; stroke: #64b267; stroke-opacity: 0.85; stroke-width: 1.2"/>
   </g>
   <g id="line2d_62">
    <path d="M 71.241818 292.212244 
L 100.644091 278.607266 
L 130.046364 264.719221 
L 159.448636 256.83529 
L 188.850909 248.386224 
L 218.253182 248.072564 
L 247.655455 222.602565 
L 277.057727 190.274369 
L 306.46 167.355194 
L 335.862273 158.09537 
L 365.264545 98.155302 
L 394.666818 75.68258 
L 424.069091 50.105608 
L 453.471364 43.967631 
L 482.873636 44.114592 
L 512.275909 40.744762 
L 541.678182 54.090917 
" clip-path="url(#p9561df5166)" style="fill: none; stroke-dasharray: 1.2,1.98; stroke-dashoffset: 0; stroke: #53a957; stroke-opacity: 0.85; stroke-width: 1.2"/>
   </g>
   <g id="line2d_63">
    <path d="M 71.241818 292.420558 
L 100.644091 280.126222 
L 130.046364 265.043406 
L 159.448636 260.427271 
L 188.850909 259.724379 
L 218.253182 256.596898 
L 247.655455 253.857645 
L 277.057727 228.563389 
L 306.46 212.948612 
L 335.862273 195.847861 
L 365.264545 146.998598 
L 394.666818 111.385799 
L 424.069091 86.985698 
L 453.471364 68.337571 
L 482.873636 58.375421 
L 512.275909 49.957112 
L 541.678182 40.744762 
" clip-path="url(#p9561df5166)" style="fill: none; stroke-dasharray: 1.2,1.98; stroke-dashoffset: 0; stroke: #43a047; stroke-opacity: 0.85; stroke-width: 1.2"/>
   </g>
   <g id="line2d_64">
    <path d="M 71.241818 308.638913 
L 100.644091 299.745673 
L 130.046364 284.160379 
L 159.448636 279.236187 
L 188.850909 277.421008 
L 218.253182 270.49782 
L 247.655455 270.744025 
L 277.057727 256.626688 
L 306.46 241.810968 
L 335.862273 221.628075 
L 365.264545 174.761438 
L 394.666818 137.594851 
L 424.069091 97.284883 
L 453.471364 65.593778 
L 482.873636 47.242833 
L 512.275909 40.744762 
" clip-path="url(#p9561df5166)" style="fill: none; stroke: #a5d6a7; stroke-opacity: 0.85; stroke-width: 1.2; stroke-linecap: square"/>
   </g>
   <g id="line2d_65">
    <path d="M 71.241818 308.104399 
L 100.644091 299.50524 
L 130.046364 284.442309 
L 159.448636 279.131269 
L 188.850909 277.512901 
L 218.253182 270.478761 
L 247.655455 267.150512 
L 277.057727 252.766841 
L 306.46 240.837186 
L 335.862273 220.86992 
L 365.264545 177.11378 
L 394.666818 139.513594 
L 424.069091 96.68725 
L 453.471364 70.21212 
L 482.873636 52.691737 
L 512.275909 40.744762 
L 541.678182 41.089219 
" clip-path="url(#p9561df5166)" style="fill: none; stroke: #95cd97; stroke-opacity: 0.85; stroke-width: 1.2; stroke-linecap: square"/>
   </g>
   <g id="line2d_66">
    <path d="M 71.241818 306.198955 
L 100.644091 298.358878 
L 130.046364 284.031218 
L 159.448636 279.029728 
L 188.850909 277.162254 
L 218.253182 269.770844 
L 247.655455 266.705407 
L 277.057727 250.492202 
L 306.46 237.916173 
L 335.862273 220.765251 
L 365.264545 177.924365 
L 394.666818 137.788658 
L 424.069091 96.586967 
L 453.471364 71.561489 
L 482.873636 51.892042 
L 512.275909 44.39464 
L 541.678182 40.744762 
" clip-path="url(#p9561df5166)" style="fill: none; stroke: #84c487; stroke-opacity: 0.85; stroke-width: 1.2; stroke-linecap: square"/>
   </g>
   <g id="line2d_67">
    <path d="M 71.241818 301.530537 
L 100.644091 295.67885 
L 130.046364 283.589066 
L 159.448636 278.552203 
L 188.850909 276.976895 
L 218.253182 270.1055 
L 247.655455 267.136613 
L 277.057727 250.398275 
L 306.46 236.709079 
L 335.862273 218.125989 
L 365.264545 177.872527 
L 394.666818 138.672878 
L 424.069091 103.167685 
L 453.471364 72.649682 
L 482.873636 58.091233 
L 512.275909 42.423061 
L 541.678182 40.744762 
" clip-path="url(#p9561df5166)" style="fill: none; stroke: #74bb77; stroke-opacity: 0.85; stroke-width: 1.2; stroke-linecap: square"/>
   </g>
   <g id="line2d_68">
    <path d="M 71.241818 297.537238 
L 100.644091 291.256438 
L 130.046364 281.287743 
L 159.448636 277.18467 
L 188.850909 275.98759 
L 218.253182 269.358395 
L 247.655455 266.052582 
L 277.057727 249.098185 
L 306.46 235.667987 
L 335.862273 215.881147 
L 365.264545 172.629027 
L 394.666818 138.049275 
L 424.069091 97.200379 
L 453.471364 70.04892 
L 482.873636 53.230665 
L 512.275909 41.968494 
L 541.678182 40.744762 
" clip-path="url(#p9561df5166)" style="fill: none; stroke: #64b267; stroke-opacity: 0.85; stroke-width: 1.2; stroke-linecap: square"/>
   </g>
   <g id="line2d_69">
    <path d="M 71.241818 295.407867 
L 100.644091 286.539431 
L 130.046364 277.177039 
L 159.448636 274.798419 
L 188.850909 275.038319 
L 218.253182 268.989542 
L 247.655455 265.813387 
L 277.057727 249.361971 
L 306.46 235.276531 
L 335.862273 215.64879 
L 365.264545 173.020222 
L 394.666818 135.45345 
L 424.069091 97.041647 
L 453.471364 70.540367 
L 482.873636 54.299942 
L 512.275909 43.570661 
L 541.678182 40.744762 
" clip-path="url(#p9561df5166)" style="fill: none; stroke: #53a957; stroke-opacity: 0.85; stroke-width: 1.2; stroke-linecap: square"/>
   </g>
   <g id="line2d_70">
    <path d="M 71.241818 293.608547 
L 100.644091 283.385858 
L 130.046364 271.807472 
L 159.448636 270.728501 
L 188.850909 273.617386 
L 218.253182 269.138691 
L 247.655455 266.699746 
L 277.057727 250.236753 
L 306.46 236.756242 
L 335.862273 218.356186 
L 365.264545 174.489418 
L 394.666818 139.207904 
L 424.069091 100.173487 
L 453.471364 74.322928 
L 482.873636 56.089659 
L 512.275909 46.853591 
L 541.678182 40.744762 
" clip-path="url(#p9561df5166)" style="fill: none; stroke: #43a047; stroke-opacity: 0.85; stroke-width: 1.2; stroke-linecap: square"/>
   </g>
   <g id="patch_3">
    <path d="M 47.72 318.04 
L 47.72 26.88 
" style="fill: none; stroke: #444444; stroke-width: 0.8; stroke-linejoin: miter; stroke-linecap: square"/>
   </g>
   <g id="patch_4">
    <path d="M 565.2 318.04 
L 565.2 26.88 
" style="fill: none; stroke: #444444; stroke-width: 0.8; stroke-linejoin: miter; stroke-linecap: square"/>
   </g>
   <g id="patch_5">
    <path d="M 47.72 318.04 
L 565.2 318.04 
" style="fill: none; stroke: #444444; stroke-width: 0.8; stroke-linejoin: miter; stroke-linecap: square"/>
   </g>
   <g id="patch_6">
    <path d="M 47.72 26.88 
L 565.2 26.88 
" style="fill: none; stroke: #444444; stroke-width: 0.8; stroke-linejoin: miter; stroke-linecap: square"/>
   </g>
   <g id="text_17">
    <!-- Normalized throughput — all kernels &amp; working sets -->
    <g style="fill: #e0e0e0" transform="translate(150.170312 20.88) scale(0.12 -0.12)">
     <defs>
      <path id="DejaVuSans-2014" d="M 313 1978 
L 6088 1978 
L 6088 1528 
L 313 1528 
L 313 1978 
z
" transform="scale(0.015625)"/>
      <path id="DejaVuSans-6e" d="M 3513 2113 
L 3513 0 
L 2938 0 
L 2938 2094 
Q 2938 2591 2744 2837 
Q 2550 3084 2163 3084 
Q 1697 3084 1428 2787 
Q 1159 2491 1159 1978 
L 1159 0 
L 581 0 
L 581 3500 
L 1159 3500 
L 1159 2956 
Q 1366 3272 1645 3428 
Q 1925 3584 2291 3584 
Q 2894 3584 3203 3211 
Q 3513 2838 3513 2113 
z
" transform="scale(0.015625)"/>
      <path id="DejaVuSans-26" d="M 1556 2509 
Q 1272 2256 1139 2004 
Q 1006 1753 1006 1478 
Q 1006 1022 1337 719 
Q 1669 416 2169 416 
Q 2466 416 2725 514 
Q 2984 613 3213 813 
L 1556 2509 
z
M 1997 2859 
L 3584 1234 
Q 3769 1513 3872 1830 
Q 3975 2147 3994 2503 
L 4575 2503 
Q 4538 2091 4375 1687 
Q 4213 1284 3922 891 
L 4794 0 
L 4006 0 
L 3559 459 
Q 3234 181 2878 45 
Q 2522 -91 2113 -91 
Q 1359 -91 881 339 
Q 403 769 403 1441 
Q 403 1841 612 2192 
Q 822 2544 1241 2853 
Q 1091 3050 1012 3245 
Q 934 3441 934 3628 
Q 934 4134 1281 4442 
Q 1628 4750 2203 4750 
Q 2463 4750 2720 4694 
Q 2978 4638 3244 4525 
L 3244 3956 
Q 2972 4103 2725 4179 
Q 2478 4256 2266 4256 
Q 1938 4256 1733 4082 
Q 1528 3909 1528 3634 
Q 1528 3475 1620 3314 
Q 1713 3153 1997 2859 
z
" transform="scale(0.015625)"/>
      <path id="DejaVuSans-77" d="M 269 3500 
L 844 3500 
L 1563 769 
L 2278 3500 
L 2956 3500 
L 3675 769 
L 4391 3500 
L 4966 3500 
L 4050 0 
L 3372 0 
L 2619 2869 
L 1863 0 
L 1184 0 
L 269 3500 
z
" transform="scale(0.015625)"/>
     </defs>
     <use xlink:href="#DejaVuSans-4e"/>
     <use xlink:href="#DejaVuSans-6f" transform="translate(74.804688 0)"/>
     <use xlink:href="#DejaVuSans-72" transform="translate(135.986328 0)"/>
     <use xlink:href="#DejaVuSans-6d" transform="translate(175.349609 0)"/>
     <use xlink:href="#DejaVuSans-61" transform="translate(272.761719 0)"/>
     <use xlink:href="#DejaVuSans-6c" transform="translate(334.041016 0)"/>
     <use xlink:href="#DejaVuSans-69" transform="translate(361.824219 0)"/>
     <use xlink:href="#DejaVuSans-7a" transform="translate(389.607422 0)"/>
     <use xlink:href="#DejaVuSans-65" transform="translate(442.097656 0)"/>
     <use xlink:href="#DejaVuSans-64" transform="translate(503.621094 0)"/>
     <use xlink:href="#DejaVuSans-20" transform="translate(567.097656 0)"/>
     <use xlink:href="#DejaVuSans-74" transform="translate(598.884766 0)"/>
     <use xlink:href="#DejaVuSans-68" transform="translate(638.09375 0)"/>
     <use xlink:href="#DejaVuSans-72" transform="translate(701.472656 0)"/>
     <use xlink:href="#DejaVuSans-6f" transform="translate(740.335938 0)"/>
     <use xlink:href="#DejaVuSans-75" transform="translate(801.517578 0)"/>
     <use xlink:href="#DejaVuSans-67" transform="translate(864.896484 0)"/>
     <use xlink:href="#DejaVuSans-68" transform="translate(928.373047 0)"/>
     <use xlink:href="#DejaVuSans-70" transform="translate(991.751953 0)"/>
     <use xlink:href="#DejaVuSans-75" transform="translate(1055.228516 0)"/>
     <use xlink:href="#DejaVuSans-74" transform="translate(1118.607422 0)"/>
     <use xlink:href="#DejaVuSans-20" transform="translate(1157.816406 0)"/>
     <use xlink:href="#DejaVuSans-2014" transform="translate(1189.603516 0)"/>
     <use xlink:href="#DejaVuSans-20" transform="translate(1289.603516 0)"/>
     <use xlink:href="#DejaVuSans-61" transform="translate(1321.390625 0)"/>
     <use xlink:href="#DejaVuSans-6c" transform="translate(1382.669922 0)"/>
     <use xlink:href="#DejaVuSans-6c" transform="translate(1410.453125 0)"/>
     <use xlink:href="#DejaVuSans-20" transform="translate(1438.236328 0)"/>
     <use xlink:href="#DejaVuSans-6b" transform="translate(1470.023438 0)"/>
     <use xlink:href="#DejaVuSans-65" transform="translate(1524.308594 0)"/>
     <use xlink:href="#DejaVuSans-72" transform="translate(1585.832031 0)"/>
     <use xlink:href="#DejaVuSans-6e" transform="translate(1625.195312 0)"/>
     <use xlink:href="#DejaVuSans-65" transform="translate(1688.574219 0)"/>
     <use xlink:href="#DejaVuSans-6c" transform="translate(1750.097656 0)"/>
     <use xlink:href="#DejaVuSans-73" transform="translate(1777.880859 0)"/>
     <use xlink:href="#DejaVuSans-20" transform="translate(1829.980469 0)"/>
     <use xlink:href="#DejaVuSans-26" transform="translate(1861.767578 0)"/>
     <use xlink:href="#DejaVuSans-20" transform="translate(1939.746094 0)"/>
     <use xlink:href="#DejaVuSans-77" transform="translate(1971.533203 0)"/>
     <use xlink:href="#DejaVuSans-6f" transform="translate(2053.320312 0)"/>
     <use xlink:href="#DejaVuSans-72" transform="translate(2114.501953 0)"/>
     <use xlink:href="#DejaVuSans-6b" transform="translate(2155.615234 0)"/>
     <use xlink:href="#DejaVuSans-69" transform="translate(2213.525391 0)"/>
     <use xlink:href="#DejaVuSans-6e" transform="translate(2241.308594 0)"/>
     <use xlink:href="#DejaVuSans-67" transform="translate(2304.6875 0)"/>
     <use xlink:href="#DejaVuSans-20" transform="translate(2368.164062 0)"/>
     <use xlink:href="#DejaVuSans-73" transform="translate(2399.951172 0)"/>
     <use xlink:href="#DejaVuSans-65" transform="translate(2452.050781 0)"/>
     <use xlink:href="#DejaVuSans-74" transform="translate(2513.574219 0)"/>
     <use xlink:href="#DejaVuSans-73" transform="translate(2552.783203 0)"/>
    </g>
   </g>
   <g id="legend_1">
    <g id="patch_7">
     <path d="M 486.55 314.04 
L 559.6 314.04 
Q 561.2 314.04 561.2 312.44 
L 561.2 253.86 
Q 561.2 252.26 559.6 252.26 
L 486.55 252.26 
Q 484.95 252.26 484.95 253.86 
L 484.95 312.44 
Q 484.95 314.04 486.55 314.04 
z
" style="fill: #1e2436; opacity: 0.8; stroke: #444444; stroke-linejoin: miter"/>
    </g>
    <g id="patch_8">
     <path d="M 488.15 261.53875 
L 504.15 261.53875 
L 504.15 255.93875 
L 488.15 255.93875 
z
" style="fill: #1e88e5"/>
    </g>
    <g id="text_18">
     <!-- scalar_stats -->
     <g style="fill: #e0e0e0" transform="translate(510.55 261.53875) scale(0.08 -0.08)">
      <defs>
       <path id="DejaVuSans-5f" d="M 3263 -1063 
L 3263 -1509 
L -63 -1509 
L -63 -1063 
L 3263 -1063 
z
" transform="scale(0.015625)"/>
      </defs>
      <use xlink:href="#DejaVuSans-73"/>
      <use xlink:href="#DejaVuSans-63" transform="translate(52.099609 0)"/>
      <use xlink:href="#DejaVuSans-61" transform="translate(107.080078 0)"/>
      <use xlink:href="#DejaVuSans-6c" transform="translate(168.359375 0)"/>
      <use xlink:href="#DejaVuSans-61" transform="translate(196.142578 0)"/>
      <use xlink:href="#DejaVuSans-72" transform="translate(257.421875 0)"/>
      <use xlink:href="#DejaVuSans-5f" transform="translate(298.535156 0)"/>
      <use xlink:href="#DejaVuSans-73" transform="translate(348.535156 0)"/>
      <use xlink:href="#DejaVuSans-74" transform="translate(400.634766 0)"/>
      <use xlink:href="#DejaVuSans-61" transform="translate(439.84375 0)"/>
      <use xlink:href="#DejaVuSans-74" transform="translate(501.123047 0)"/>
      <use xlink:href="#DejaVuSans-73" transform="translate(540.332031 0)"/>
     </g>
    </g>
    <g id="patch_9">
     <path d="M 488.15 273.50375 
L 504.15 273.50375 
L 504.15 267.90375 
L 488.15 267.90375 
z
" style="fill: #43a047"/>
    </g>
    <g id="text_19">
     <!-- simd_sum -->
     <g style="fill: #e0e0e0" transform="translate(510.55 273.50375) scale(0.08 -0.08)">
      <use xlink:href="#DejaVuSans-73"/>
      <use xlink:href="#DejaVuSans-69" transform="translate(52.099609 0)"/>
      <use xlink:href="#DejaVuSans-6d" transform="translate(79.882812 0)"/>
      <use xlink:href="#DejaVuSans-64" transform="translate(177.294922 0)"/>
      <use xlink:href="#DejaVuSans-5f" transform="translate(240.771484 0)"/>
      <use xlink:href="#DejaVuSans-73" transform="translate(290.771484 0)"/>
      <use xlink:href="#DejaVuSans-75" transform="translate(342.871094 0)"/>
      <use xlink:href="#DejaVuSans-6d" transform="translate(406.25 0)"/>
     </g>
    </g>
    <g id="patch_10">
     <path d="M 488.15 285.46875 
L 504.15 285.46875 
L 504.15 279.86875 
L 488.15 279.86875 
z
" style="fill: #ef6c00"/>
    </g>
    <g id="text_20">
     <!-- heavy_sin -->
     <g style="fill: #e0e0e0" transform="translate(510.55 285.46875) scale(0.08 -0.08)">
      <defs>
       <path id="DejaVuSans-76" d="M 191 3500 
L 800 3500 
L 1894 563 
L 2988 3500 
L 3597 3500 
L 2284 0 
L 1503 0 
L 191 3500 
z
" transform="scale(0.015625)"/>
       <path id="DejaVuSans-79" d="M 2059 -325 
Q 1816 -950 1584 -1140 
Q 1353 -1331 966 -1331 
L 506 -1331 
L 506 -850 
L 844 -850 
Q 1081 -850 1212 -737 
Q 1344 -625 1503 -206 
L 1606 56 
L 191 3500 
L 800 3500 
L 1894 763 
L 2988 3500 
L 3597 3500 
L 2059 -325 
z
" transform="scale(0.015625)"/>
      </defs>
      <use xlink:href="#DejaVuSans-68"/>
      <use xlink:href="#DejaVuSans-65" transform="translate(63.378906 0)"/>
      <use xlink:href="#DejaVuSans-61" transform="translate(124.902344 0)"/>
      <use xlink:href="#DejaVuSans-76" transform="translate(186.181641 0)"/>
      <use xlink:href="#DejaVuSans-79" transform="translate(245.361328 0)"/>
      <use xlink:href="#DejaVuSans-5f" transform="translate(304.541016 0)"/>
      <use xlink:href="#DejaVuSans-73" transform="translate(354.541016 0)"/>
      <use xlink:href="#DejaVuSans-69" transform="translate(406.640625 0)"/>
      <use xlink:href="#DejaVuSans-6e" transform="translate(434.423828 0)"/>
     </g>
    </g>
    <g id="line2d_71">
     <path d="M 488.15 294.63375 
L 496.15 294.63375 
L 504.15 294.63375 
" style="fill: none; stroke: #e0e0e0; stroke-width: 1.5; stroke-linecap: square"/>
    </g>
    <g id="text_21">
     <!-- randomized -->
     <g style="fill: #e0e0e0" transform="translate(510.55 297.43375) scale(0.08 -0.08)">
      <use xlink:href="#DejaVuSans-72"/>
      <use xlink:href="#DejaVuSans-61" transform="translate(41.113281 0)"/>
      <use xlink:href="#DejaVuSans-6e" transform="translate(102.392578 0)"/>
      <use xlink:href="#DejaVuSans-64" transform="translate(165.771484 0)"/>
      <use xlink:href="#DejaVuSans-6f" transform="translate(229.248047 0)"/>
      <use xlink:href="#DejaVuSans-6d" transform="translate(290.429688 0)"/>
      <use xlink:href="#DejaVuSans-69" transform="translate(387.841797 0)"/>
      <use xlink:href="#DejaVuSans-7a" transform="translate(415.625 0)"/>
      <use xlink:href="#DejaVuSans-65" transform="translate(468.115234 0)"/>
      <use xlink:href="#DejaVuSans-64" transform="translate(529.638672 0)"/>
     </g>
    </g>
    <g id="line2d_72">
     <path d="M 488.15 306.37625 
L 496.15 306.37625 
L 504.15 306.37625 
" style="fill: none; stroke-dasharray: 1.5,2.475; stroke-dashoffset: 0; stroke: #e0e0e0; stroke-width: 1.5"/>
    </g>
    <g id="text_22">
     <!-- repeated -->
     <g style="fill: #e0e0e0" transform="translate(510.55 309.17625) scale(0.08 -0.08)">
      <use xlink:href="#DejaVuSans-72"/>
      <use xlink:href="#DejaVuSans-65" transform="translate(38.863281 0)"/>
      <use xlink:href="#DejaVuSans-70" transform="translate(100.386719 0)"/>
      <use xlink:href="#DejaVuSans-65" transform="translate(163.863281 0)"/>
      <use xlink:href="#DejaVuSans-61" transform="translate(225.386719 0)"/>
      <use xlink:href="#DejaVuSans-74" transform="translate(286.666016 0)"/>
      <use xlink:href="#DejaVuSans-65" transform="translate(325.875 0)"/>
      <use xlink:href="#DejaVuSans-64" transform="translate(387.398438 0)"/>
     </g>
    </g>
   </g>
  </g>
 </g>
 <defs>
  <clipPath id="p9561df5166">
   <rect x="47.72" y="26.88" width="517.48" height="291.16"/>
  </clipPath>
 </defs>
</svg>
