<?xml version="1.0" encoding="utf-8" standalone="no"?>
<!DOCTYPE svg PUBLIC "-//W3C//DTD SVG 1.1//EN"
  "http://www.w3.org/Graphics/SVG/1.1/DTD/svg11.dtd">
<svg xmlns:xlink="http://www.w3.org/1999/xlink" width="763.5pt" height="477.1875pt" viewBox="0 0 763.5 477.1875" xmlns="http://www.w3.org/2000/svg" version="1.1">
 <metadata>
  <rdf:RDF xmlns:dc="http://purl.org/dc/elements/1.1/" xmlns:cc="http://creativecommons.org/ns#" xmlns:rdf="http://www.w3.org/1999/02/22-rdf-syntax-ns#">
   <cc:Work>
    <dc:type rdf:resource="http://purl.org/dc/dcmitype/StillImage"/>
    <dc:date>2026-04-06T12:18:34.963041</dc:date>
    <dc:format>image/svg+xml</dc:format>
    <dc:creator>
     <cc:Agent>
      <dc:title>Matplotlib v3.10.8, https://matplotlib.org/</dc:title>
     </cc:Agent>
    </dc:creator>
   </cc:Work>
  </rdf:RDF>
 </metadata>
 <defs>
  <style type="text/css">*{stroke-linejoin: round; stroke-linecap: butt}</style>
 </defs>
 <g id="figure_1">
  <g id="patch_1">
   <path d="M 0 477.1875 
L 763.5 477.1875 
L 763.5 0 
L 0 0 
z
" style="fill: #121622"/>
  </g>
  <g id="axes_1">
   <g id="patch_2">
    <path d="M 47.58125 435.8875 
L 752.7 435.8875 
L 752.7 25.8 
L 47.58125 25.8 
z
" style="fill: #121622"/>
   </g>
   <g id="matplotlib.axis_1">
    <g id="xtick_1">
     <g id="line2d_1">
      <path d="M 119.695668 435.8875 
L 119.695668 25.8 
" clip-path="url(#pa1e553f873)" style="fill: none; stroke: #30333e; stroke-width: 0.6; stroke-linecap: square"/>
     </g>
     <g id="line2d_2">
      <defs>
       <path id="mb61272ac43" d="M 0 0 
L 0 3.5 
" style="stroke: #e0e0e0; stroke-width: 0.8"/>
      </defs>
      <g>
       <use xlink:href="#mb61272ac43" x="119.695668" y="435.8875" style="fill: #e0e0e0; stroke: #e0e0e0; stroke-width: 0.8"/>
      </g>
     </g>
     <g id="text_1">
      <!-- 64 B -->
      <g style="fill: #e0e0e0" transform="translate(108.313636 450.485937) scale(0.1 -0.1)">
       <defs>
        <path id="DejaVuSans-36" d="M 2113 2584 
Q 1688 2584 1439 2293 
Q 1191 2003 1191 1497 
Q 1191 994 1439 701 
Q 1688 409 2113 409 
Q 2538 409 2786 701 
Q 3034 994 3034 1497 
Q 3034 2003 2786 2293 
Q 2538 2584 2113 2584 
z
M 3366 4563 
L 3366 3988 
Q 3128 4100 2886 4159 
Q 2644 4219 2406 4219 
Q 1781 4219 1451 3797 
Q 1122 3375 1075 2522 
Q 1259 2794 1537 2939 
Q 1816 3084 2150 3084 
Q 2853 3084 3261 2657 
Q 3669 2231 3669 1497 
Q 3669 778 3244 343 
Q 2819 -91 2113 -91 
Q 1303 -91 875 529 
Q 447 1150 447 2328 
Q 447 3434 972 4092 
Q 1497 4750 2381 4750 
Q 2619 4750 2861 4703 
Q 3103 4656 3366 4563 
z
" transform="scale(0.015625)"/>
        <path id="DejaVuSans-34" d="M 2419 4116 
L 825 1625 
L 2419 1625 
L 2419 4116 
z
M 2253 4666 
L 3047 4666 
L 3047 1625 
L 3713 1625 
L 3713 1100 
L 3047 1100 
L 3047 0 
L 2419 0 
L 2419 1100 
L 313 1100 
L 313 1709 
L 2253 4666 
z
" transform="scale(0.015625)"/>
        <path id="DejaVuSans-20" transform="scale(0.015625)"/>
        <path id="DejaVuSans-42" d="M 1259 2228 
L 1259 519 
L 2272 519 
Q 2781 519 3026 730 
Q 3272 941 3272 1375 
Q 3272 1813 3026 2020 
Q 2781 2228 2272 2228 
L 1259 2228 
z
M 1259 4147 
L 1259 2741 
L 2194 2741 
Q 2656 2741 2882 2914 
Q 3109 3088 3109 3444 
Q 3109 3797 2882 3972 
Q 2656 4147 2194 4147 
L 1259 4147 
z
M 628 4666 
L 2241 4666 
Q 2963 4666 3353 4366 
Q 3744 4066 3744 3513 
Q 3744 3084 3544 2831 
Q 3344 2578 2956 2516 
Q 3422 2416 3680 2098 
Q 3938 1781 3938 1306 
Q 3938 681 3513 340 
Q 3088 0 2303 0 
L 628 0 
L 628 4666 
z
" transform="scale(0.015625)"/>
       </defs>
       <use xlink:href="#DejaVuSans-36"/>
       <use xlink:href="#DejaVuSans-34" transform="translate(63.623047 0)"/>
       <use xlink:href="#DejaVuSans-20" transform="translate(127.246094 0)"/>
       <use xlink:href="#DejaVuSans-42" transform="translate(159.033203 0)"/>
      </g>
     </g>
    </g>
    <g id="xtick_2">
     <g id="line2d_3">
      <path d="M 199.822798 435.8875 
L 199.822798 25.8 
" clip-path="url(#pa1e553f873)" style="fill: none; stroke: #30333e; stroke-width: 0.6; stroke-linecap: square"/>
     </g>
     <g id="line2d_4">
      <g>
       <use xlink:href="#mb61272ac43" x="199.822798" y="435.8875" style="fill: #e0e0e0; stroke: #e0e0e0; stroke-width: 0.8"/>
      </g>
     </g>
     <g id="text_2">
      <!-- 256 B -->
      <g style="fill: #e0e0e0" transform="translate(185.259517 450.485937) scale(0.1 -0.1)">
       <defs>
        <path id="DejaVuSans-32" d="M 1228 531 
L 3431 531 
L 3431 0 
L 469 0 
L 469 531 
Q 828 903 1448 1529 
Q 2069 2156 2228 2338 
Q 2531 2678 2651 2914 
Q 2772 3150 2772 3378 
Q 2772 3750 2511 3984 
Q 2250 4219 1831 4219 
Q 1534 4219 1204 4116 
Q 875 4013 500 3803 
L 500 4441 
Q 881 4594 1212 4672 
Q 1544 4750 1819 4750 
Q 2544 4750 2975 4387 
Q 3406 4025 3406 3419 
Q 3406 3131 3298 2873 
Q 3191 2616 2906 2266 
Q 2828 2175 2409 1742 
Q 1991 1309 1228 531 
z
" transform="scale(0.015625)"/>
        <path id="DejaVuSans-35" d="M 691 4666 
L 3169 4666 
L 3169 4134 
L 1269 4134 
L 1269 2991 
Q 1406 3038 1543 3061 
Q 1681 3084 1819 3084 
Q 2600 3084 3056 2656 
Q 3513 2228 3513 1497 
Q 3513 744 3044 326 
Q 2575 -91 1722 -91 
Q 1428 -91 1123 -41 
Q 819 9 494 109 
L 494 744 
Q 775 591 1075 516 
Q 1375 441 1709 441 
Q 2250 441 2565 725 
Q 2881 1009 2881 1497 
Q 2881 1984 2565 2268 
Q 2250 2553 1709 2553 
Q 1456 2553 1204 2497 
Q 953 2441 691 2322 
L 691 4666 
z
" transform="scale(0.015625)"/>
       </defs>
       <use xlink:href="#DejaVuSans-32"/>
       <use xlink:href="#DejaVuSans-35" transform="translate(63.623047 0)"/>
       <use xlink:href="#DejaVuSans-36" transform="translate(127.246094 0)"/>
       <use xlink:href="#DejaVuSans-20" transform="translate(190.869141 0)"/>
       <use xlink:href="#DejaVuSans-42" transform="translate(222.65625 0)"/>
      </g>
     </g>
    </g>
    <g id="xtick_3">
     <g id="line2d_5">
      <path d="M 279.949929 435.8875 
L 279.949929 25.8 
" clip-path="url(#pa1e553f873)" style="fill: none; stroke: #30333e; stroke-width: 0.6; stroke-linecap: square"/>
     </g>
     <g id="line2d_6">
      <g>
       <use xlink:href="#mb61272ac43" x="279.949929" y="435.8875" style="fill: #e0e0e0; stroke: #e0e0e0; stroke-width: 0.8"/>
      </g>
     </g>
     <g id="text_3">
      <!-- 1 KB -->
      <g style="fill: #e0e0e0" transform="translate(268.470241 450.485937) scale(0.1 -0.1)">
       <defs>
        <path id="DejaVuSans-31" d="M 794 531 
L 1825 531 
L 1825 4091 
L 703 3866 
L 703 4441 
L 1819 4666 
L 2450 4666 
L 2450 531 
L 3481 531 
L 3481 0 
L 794 0 
L 794 531 
z
" transform="scale(0.015625)"/>
        <path id="DejaVuSans-4b" d="M 628 4666 
L 1259 4666 
L 1259 2694 
L 3353 4666 
L 4166 4666 
L 1850 2491 
L 4331 0 
L 3500 0 
L 1259 2247 
L 1259 0 
L 628 0 
L 628 4666 
z
" transform="scale(0.015625)"/>
       </defs>
       <use xlink:href="#DejaVuSans-31"/>
       <use xlink:href="#DejaVuSans-20" transform="translate(63.623047 0)"/>
       <use xlink:href="#DejaVuSans-4b" transform="translate(95.410156 0)"/>
       <use xlink:href="#DejaVuSans-42" transform="translate(160.986328 0)"/>
      </g>
     </g>
    </g>
    <g id="xtick_4">
     <g id="line2d_7">
      <path d="M 360.07706 435.8875 
L 360.07706 25.8 
" clip-path="url(#pa1e553f873)" style="fill: none; stroke: #30333e; stroke-width: 0.6; stroke-linecap: square"/>
     </g>
     <g id="line2d_8">
      <g>
       <use xlink:href="#mb61272ac43" x="360.07706" y="435.8875" style="fill: #e0e0e0; stroke: #e0e0e0; stroke-width: 0.8"/>
      </g>
     </g>
     <g id="text_4">
      <!-- 4 KB -->
      <g style="fill: #e0e0e0" transform="translate(348.597372 450.485937) scale(0.1 -0.1)">
       <use xlink:href="#DejaVuSans-34"/>
       <use xlink:href="#DejaVuSans-20" transform="translate(63.623047 0)"/>
       <use xlink:href="#DejaVuSans-4b" transform="translate(95.410156 0)"/>
       <use xlink:href="#DejaVuSans-42" transform="translate(160.986328 0)"/>
      </g>
     </g>
    </g>
    <g id="xtick_5">
     <g id="line2d_9">
      <path d="M 440.20419 435.8875 
L 440.20419 25.8 
" clip-path="url(#pa1e553f873)" style="fill: none; stroke: #30333e; stroke-width: 0.6; stroke-linecap: square"/>
     </g>
     <g id="line2d_10">
      <g>
       <use xlink:href="#mb61272ac43" x="440.20419" y="435.8875" style="fill: #e0e0e0; stroke: #e0e0e0; stroke-width: 0.8"/>
      </g>
     </g>
     <g id="text_5">
      <!-- 16 KB -->
      <g style="fill: #e0e0e0" transform="translate(425.543253 450.485937) scale(0.1 -0.1)">
       <use xlink:href="#DejaVuSans-31"/>
       <use xlink:href="#DejaVuSans-36" transform="translate(63.623047 0)"/>
       <use xlink:href="#DejaVuSans-20" transform="translate(127.246094 0)"/>
       <use xlink:href="#DejaVuSans-4b" transform="translate(159.033203 0)"/>
       <use xlink:href="#DejaVuSans-42" transform="translate(224.609375 0)"/>
      </g>
     </g>
    </g>
    <g id="xtick_6">
     <g id="line2d_11">
      <path d="M 520.331321 435.8875 
L 520.331321 25.8 
" clip-path="url(#pa1e553f873)" style="fill: none; stroke: #30333e; stroke-width: 0.6; stroke-linecap: square"/>
     </g>
     <g id="line2d_12">
      <g>
       <use xlink:href="#mb61272ac43" x="520.331321" y="435.8875" style="fill: #e0e0e0; stroke: #e0e0e0; stroke-width: 0.8"/>
      </g>
     </g>
     <g id="text_6">
      <!-- 64 KB -->
      <g style="fill: #e0e0e0" transform="translate(505.670384 450.485937) scale(0.1 -0.1)">
       <use xlink:href="#DejaVuSans-36"/>
       <use xlink:href="#DejaVuSans-34" transform="translate(63.623047 0)"/>
       <use xlink:href="#DejaVuSans-20" transform="translate(127.246094 0)"/>
       <use xlink:href="#DejaVuSans-4b" transform="translate(159.033203 0)"/>
       <use xlink:href="#DejaVuSans-42" transform="translate(224.609375 0)"/>
      </g>
     </g>
    </g>
    <g id="xtick_7">
     <g id="line2d_13">
      <path d="M 600.458452 435.8875 
L 600.458452 25.8 
" clip-path="url(#pa1e553f873)" style="fill: none; stroke: #30333e; stroke-width: 0.6; stroke-linecap: square"/>
     </g>
     <g id="line2d_14">
      <g>
       <use xlink:href="#mb61272ac43" x="600.458452" y="435.8875" style="fill: #e0e0e0; stroke: #e0e0e0; stroke-width: 0.8"/>
      </g>
     </g>
     <g id="text_7">
      <!-- 256 KB -->
      <g style="fill: #e0e0e0" transform="translate(582.616264 450.485937) scale(0.1 -0.1)">
       <use xlink:href="#DejaVuSans-32"/>
       <use xlink:href="#DejaVuSans-35" transform="translate(63.623047 0)"/>
       <use xlink:href="#DejaVuSans-36" transform="translate(127.246094 0)"/>
       <use xlink:href="#DejaVuSans-20" transform="translate(190.869141 0)"/>
       <use xlink:href="#DejaVuSans-4b" transform="translate(222.65625 0)"/>
       <use xlink:href="#DejaVuSans-42" transform="translate(288.232422 0)"/>
      </g>
     </g>
    </g>
    <g id="xtick_8">
     <g id="line2d_15">
      <path d="M 680.585582 435.8875 
L 680.585582 25.8 
" clip-path="url(#pa1e553f873)" style="fill: none; stroke: #30333e; stroke-width: 0.6; stroke-linecap: square"/>
     </g>
     <g id="line2d_16">
      <g>
       <use xlink:href="#mb61272ac43" x="680.585582" y="435.8875" style="fill: #e0e0e0; stroke: #e0e0e0; stroke-width: 0.8"/>
      </g>
     </g>
     <g id="text_8">
      <!-- 1 MB -->
      <g style="fill: #e0e0e0" transform="translate(668.070739 450.485937) scale(0.1 -0.1)">
       <defs>
        <path id="DejaVuSans-4d" d="M 628 4666 
L 1569 4666 
L 2759 1491 
L 3956 4666 
L 4897 4666 
L 4897 0 
L 4281 0 
L 4281 4097 
L 3078 897 
L 2444 897 
L 1241 4097 
L 1241 0 
L 628 0 
L 628 4666 
z
" transform="scale(0.015625)"/>
       </defs>
       <use xlink:href="#DejaVuSans-31"/>
       <use xlink:href="#DejaVuSans-20" transform="translate(63.623047 0)"/>
       <use xlink:href="#DejaVuSans-4d" transform="translate(95.410156 0)"/>
       <use xlink:href="#DejaVuSans-42" transform="translate(181.689453 0)"/>
      </g>
     </g>
    </g>
    <g id="text_9">
     <!-- Block size -->
     <g style="fill: #e0e0e0" transform="translate(375.333594 464.164062) scale(0.1 -0.1)">
      <defs>
       <path id="DejaVuSans-6c" d="M 603 4863 
L 1178 4863 
L 1178 0 
L 603 0 
L 603 4863 
z
" transform="scale(0.015625)"/>
       <path id="DejaVuSans-6f" d="M 1959 3097 
Q 1497 3097 1228 2736 
Q 959 2375 959 1747 
Q 959 1119 1226 758 
Q 1494 397 1959 397 
Q 2419 397 2687 759 
Q 2956 1122 2956 1747 
Q 2956 2369 2687 2733 
Q 2419 3097 1959 3097 
z
M 1959 3584 
Q 2709 3584 3137 3096 
Q 3566 2609 3566 1747 
Q 3566 888 3137 398 
Q 2709 -91 1959 -91 
Q 1206 -91 779 398 
Q 353 888 353 1747 
Q 353 2609 779 3096 
Q 1206 3584 1959 3584 
z
" transform="scale(0.015625)"/>
       <path id="DejaVuSans-63" d="M 3122 3366 
L 3122 2828 
Q 2878 2963 2633 3030 
Q 2388 3097 2138 3097 
Q 1578 3097 1268 2742 
Q 959 2388 959 1747 
Q 959 1106 1268 751 
Q 1578 397 2138 397 
Q 2388 397 2633 464 
Q 2878 531 3122 666 
L 3122 134 
Q 2881 22 2623 -34 
Q 2366 -91 2075 -91 
Q 1284 -91 818 406 
Q 353 903 353 1747 
Q 353 2603 823 3093 
Q 1294 3584 2113 3584 
Q 2378 3584 2631 3529 
Q 2884 3475 3122 3366 
z
" transform="scale(0.015625)"/>
       <path id="DejaVuSans-6b" d="M 581 4863 
L 1159 4863 
L 1159 1991 
L 2875 3500 
L 3609 3500 
L 1753 1863 
L 3688 0 
L 2938 0 
L 1159 1709 
L 1159 0 
L 581 0 
L 581 4863 
z
" transform="scale(0.015625)"/>
       <path id="DejaVuSans-73" d="M 2834 3397 
L 2834 2853 
Q 2591 2978 2328 3040 
Q 2066 3103 1784 3103 
Q 1356 3103 1142 2972 
Q 928 2841 928 2578 
Q 928 2378 1081 2264 
Q 1234 2150 1697 2047 
L 1894 2003 
Q 2506 1872 2764 1633 
Q 3022 1394 3022 966 
Q 3022 478 2636 193 
Q 2250 -91 1575 -91 
Q 1294 -91 989 -36 
Q 684 19 347 128 
L 347 722 
Q 666 556 975 473 
Q 1284 391 1588 391 
Q 1994 391 2212 530 
Q 2431 669 2431 922 
Q 2431 1156 2273 1281 
Q 2116 1406 1581 1522 
L 1381 1569 
Q 847 1681 609 1914 
Q 372 2147 372 2553 
Q 372 3047 722 3315 
Q 1072 3584 1716 3584 
Q 2034 3584 2315 3537 
Q 2597 3491 2834 3397 
z
" transform="scale(0.015625)"/>
       <path id="DejaVuSans-69" d="M 603 3500 
L 1178 3500 
L 1178 0 
L 603 0 
L 603 3500 
z
M 603 4863 
L 1178 4863 
L 1178 4134 
L 603 4134 
L 603 4863 
z
" transform="scale(0.015625)"/>
       <path id="DejaVuSans-7a" d="M 353 3500 
L 3084 3500 
L 3084 2975 
L 922 459 
L 3084 459 
L 3084 0 
L 275 0 
L 275 525 
L 2438 3041 
L 353 3041 
L 353 3500 
z
" transform="scale(0.015625)"/>
       <path id="DejaVuSans-65" d="M 3597 1894 
L 3597 1613 
L 953 1613 
Q 991 1019 1311 708 
Q 1631 397 2203 397 
Q 2534 397 2845 478 
Q 3156 559 3463 722 
L 3463 178 
Q 3153 47 2828 -22 
Q 2503 -91 2169 -91 
Q 1331 -91 842 396 
Q 353 884 353 1716 
Q 353 2575 817 3079 
Q 1281 3584 2069 3584 
Q 2775 3584 3186 3129 
Q 3597 2675 3597 1894 
z
M 3022 2063 
Q 3016 2534 2758 2815 
Q 2500 3097 2075 3097 
Q 1594 3097 1305 2825 
Q 1016 2553 972 2059 
L 3022 2063 
z
" transform="scale(0.015625)"/>
      </defs>
      <use xlink:href="#DejaVuSans-42"/>
      <use xlink:href="#DejaVuSans-6c" transform="translate(68.603516 0)"/>
      <use xlink:href="#DejaVuSans-6f" transform="translate(96.386719 0)"/>
      <use xlink:href="#DejaVuSans-63" transform="translate(157.568359 0)"/>
      <use xlink:href="#DejaVuSans-6b" transform="translate(212.548828 0)"/>
      <use xlink:href="#DejaVuSans-20" transform="translate(270.458984 0)"/>
      <use xlink:href="#DejaVuSans-73" transform="translate(302.246094 0)"/>
      <use xlink:href="#DejaVuSans-69" transform="translate(354.345703 0)"/>
      <use xlink:href="#DejaVuSans-7a" transform="translate(382.128906 0)"/>
      <use xlink:href="#DejaVuSans-65" transform="translate(434.619141 0)"/>
     </g>
    </g>
   </g>
   <g id="matplotlib.axis_2">
    <g id="ytick_1">
     <g id="line2d_17">
      <path d="M 47.58125 435.8875 
L 752.7 435.8875 
" clip-path="url(#pa1e553f873)" style="fill: none; stroke: #30333e; stroke-width: 0.6; stroke-linecap: square"/>
     </g>
     <g id="line2d_18">
      <defs>
       <path id="mf77ff1ce33" d="M 0 0 
L -3.5 0 
" style="stroke: #e0e0e0; stroke-width: 0.8"/>
      </defs>
      <g>
       <use xlink:href="#mf77ff1ce33" x="47.58125" y="435.8875" style="fill: #e0e0e0; stroke: #e0e0e0; stroke-width: 0.8"/>
      </g>
     </g>
     <g id="text_10">
      <!-- 0.0 -->
      <g style="fill: #e0e0e0" transform="translate(24.678125 439.686719) scale(0.1 -0.1)">
       <defs>
        <path id="DejaVuSans-30" d="M 2034 4250 
Q 1547 4250 1301 3770 
Q 1056 3291 1056 2328 
Q 1056 1369 1301 889 
Q 1547 409 2034 409 
Q 2525 409 2770 889 
Q 3016 1369 3016 2328 
Q 3016 3291 2770 3770 
Q 2525 4250 2034 4250 
z
M 2034 4750 
Q 2819 4750 3233 4129 
Q 3647 3509 3647 2328 
Q 3647 1150 3233 529 
Q 2819 -91 2034 -91 
Q 1250 -91 836 529 
Q 422 1150 422 2328 
Q 422 3509 836 4129 
Q 1250 4750 2034 4750 
z
" transform="scale(0.015625)"/>
        <path id="DejaVuSans-2e" d="M 684 794 
L 1344 794 
L 1344 0 
L 684 0 
L 684 794 
z
" transform="scale(0.015625)"/>
       </defs>
       <use xlink:href="#DejaVuSans-30"/>
       <use xlink:href="#DejaVuSans-2e" transform="translate(63.623047 0)"/>
       <use xlink:href="#DejaVuSans-30" transform="translate(95.410156 0)"/>
      </g>
     </g>
    </g>
    <g id="ytick_2">
     <g id="line2d_19">
      <path d="M 47.58125 357.775595 
L 752.7 357.775595 
" clip-path="url(#pa1e553f873)" style="fill: none; stroke: #30333e; stroke-width: 0.6; stroke-linecap: square"/>
     </g>
     <g id="line2d_20">
      <g>
       <use xlink:href="#mf77ff1ce33" x="47.58125" y="357.775595" style="fill: #e0e0e0; stroke: #e0e0e0; stroke-width: 0.8"/>
      </g>
     </g>
     <g id="text_11">
      <!-- 0.2 -->
      <g style="fill: #e0e0e0" transform="translate(24.678125 361.574814) scale(0.1 -0.1)">
       <use xlink:href="#DejaVuSans-30"/>
       <use xlink:href="#DejaVuSans-2e" transform="translate(63.623047 0)"/>
       <use xlink:href="#DejaVuSans-32" transform="translate(95.410156 0)"/>
      </g>
     </g>
    </g>
    <g id="ytick_3">
     <g id="line2d_21">
      <path d="M 47.58125 279.66369 
L 752.7 279.66369 
" clip-path="url(#pa1e553f873)" style="fill: none; stroke: #30333e; stroke-width: 0.6; stroke-linecap: square"/>
     </g>
     <g id="line2d_22">
      <g>
       <use xlink:href="#mf77ff1ce33" x="47.58125" y="279.66369" style="fill: #e0e0e0; stroke: #e0e0e0; stroke-width: 0.8"/>
      </g>
     </g>
     <g id="text_12">
      <!-- 0.4 -->
      <g style="fill: #e0e0e0" transform="translate(24.678125 283.462909) scale(0.1 -0.1)">
       <use xlink:href="#DejaVuSans-30"/>
       <use xlink:href="#DejaVuSans-2e" transform="translate(63.623047 0)"/>
       <use xlink:href="#DejaVuSans-34" transform="translate(95.410156 0)"/>
      </g>
     </g>
    </g>
    <g id="ytick_4">
     <g id="line2d_23">
      <path d="M 47.58125 201.551786 
L 752.7 201.551786 
" clip-path="url(#pa1e553f873)" style="fill: none; stroke: #30333e; stroke-width: 0.6; stroke-linecap: square"/>
     </g>
     <g id="line2d_24">
      <g>
       <use xlink:href="#mf77ff1ce33" x="47.58125" y="201.551786" style="fill: #e0e0e0; stroke: #e0e0e0; stroke-width: 0.8"/>
      </g>
     </g>
     <g id="text_13">
      <!-- 0.6 -->
      <g style="fill: #e0e0e0" transform="translate(24.678125 205.351004) scale(0.1 -0.1)">
       <use xlink:href="#DejaVuSans-30"/>
       <use xlink:href="#DejaVuSans-2e" transform="translate(63.623047 0)"/>
       <use xlink:href="#DejaVuSans-36" transform="translate(95.410156 0)"/>
      </g>
     </g>
    </g>
    <g id="ytick_5">
     <g id="line2d_25">
      <path d="M 47.58125 123.439881 
L 752.7 123.439881 
" clip-path="url(#pa1e553f873)" style="fill: none; stroke: #30333e; stroke-width: 0.6; stroke-linecap: square"/>
     </g>
     <g id="line2d_26">
      <g>
       <use xlink:href="#mf77ff1ce33" x="47.58125" y="123.439881" style="fill: #e0e0e0; stroke: #e0e0e0; stroke-width: 0.8"/>
      </g>
     </g>
     <g id="text_14">
      <!-- 0.8 -->
      <g style="fill: #e0e0e0" transform="translate(24.678125 127.2391) scale(0.1 -0.1)">
       <defs>
        <path id="DejaVuSans-38" d="M 2034 2216 
Q 1584 2216 1326 1975 
Q 1069 1734 1069 1313 
Q 1069 891 1326 650 
Q 1584 409 2034 409 
Q 2484 409 2743 651 
Q 3003 894 3003 1313 
Q 3003 1734 2745 1975 
Q 2488 2216 2034 2216 
z
M 1403 2484 
Q 997 2584 770 2862 
Q 544 3141 544 3541 
Q 544 4100 942 4425 
Q 1341 4750 2034 4750 
Q 2731 4750 3128 4425 
Q 3525 4100 3525 3541 
Q 3525 3141 3298 2862 
Q 3072 2584 2669 2484 
Q 3125 2378 3379 2068 
Q 3634 1759 3634 1313 
Q 3634 634 3220 271 
Q 2806 -91 2034 -91 
Q 1263 -91 848 271 
Q 434 634 434 1313 
Q 434 1759 690 2068 
Q 947 2378 1403 2484 
z
M 1172 3481 
Q 1172 3119 1398 2916 
Q 1625 2713 2034 2713 
Q 2441 2713 2670 2916 
Q 2900 3119 2900 3481 
Q 2900 3844 2670 4047 
Q 2441 4250 2034 4250 
Q 1625 4250 1398 4047 
Q 1172 3844 1172 3481 
z
" transform="scale(0.015625)"/>
       </defs>
       <use xlink:href="#DejaVuSans-30"/>
       <use xlink:href="#DejaVuSans-2e" transform="translate(63.623047 0)"/>
       <use xlink:href="#DejaVuSans-38" transform="translate(95.410156 0)"/>
      </g>
     </g>
    </g>
    <g id="ytick_6">
     <g id="line2d_27">
      <path d="M 47.58125 45.327976 
L 752.7 45.327976 
" clip-path="url(#pa1e553f873)" style="fill: none; stroke: #30333e; stroke-width: 0.6; stroke-linecap: square"/>
     </g>
     <g id="line2d_28">
      <g>
       <use xlink:href="#mf77ff1ce33" x="47.58125" y="45.327976" style="fill: #e0e0e0; stroke: #e0e0e0; stroke-width: 0.8"/>
      </g>
     </g>
     <g id="text_15">
      <!-- 1.0 -->
      <g style="fill: #e0e0e0" transform="translate(24.678125 49.127195) scale(0.1 -0.1)">
       <use xlink:href="#DejaVuSans-31"/>
       <use xlink:href="#DejaVuSans-2e" transform="translate(63.623047 0)"/>
       <use xlink:href="#DejaVuSans-30" transform="translate(95.410156 0)"/>
      </g>
     </g>
    </g>
    <g id="text_16">
     <!-- Normalized throughput -->
     <g style="fill: #e0e0e0" transform="translate(18.598437 288.734375) rotate(-90) scale(0.1 -0.1)">
      <defs>
       <path id="DejaVuSans-4e" d="M 628 4666 
L 1478 4666 
L 3547 763 
L 3547 4666 
L 4159 4666 
L 4159 0 
L 3309 0 
L 1241 3903 
L 1241 0 
L 628 0 
L 628 4666 
z
" transform="scale(0.015625)"/>
       <path id="DejaVuSans-72" d="M 2631 2963 
Q 2534 3019 2420 3045 
Q 2306 3072 2169 3072 
Q 1681 3072 1420 2755 
Q 1159 2438 1159 1844 
L 1159 0 
L 581 0 
L 581 3500 
L 1159 3500 
L 1159 2956 
Q 1341 3275 1631 3429 
Q 1922 3584 2338 3584 
Q 2397 3584 2469 3576 
Q 2541 3569 2628 3553 
L 2631 2963 
z
" transform="scale(0.015625)"/>
       <path id="DejaVuSans-6d" d="M 3328 2828 
Q 3544 3216 3844 3400 
Q 4144 3584 4550 3584 
Q 5097 3584 5394 3201 
Q 5691 2819 5691 2113 
L 5691 0 
L 5113 0 
L 5113 2094 
Q 5113 2597 4934 2840 
Q 4756 3084 4391 3084 
Q 3944 3084 3684 2787 
Q 3425 2491 3425 1978 
L 3425 0 
L 2847 0 
L 2847 2094 
Q 2847 2600 2669 2842 
Q 2491 3084 2119 3084 
Q 1678 3084 1418 2786 
Q 1159 2488 1159 1978 
L 1159 0 
L 581 0 
L 581 3500 
L 1159 3500 
L 1159 2956 
Q 1356 3278 1631 3431 
Q 1906 3584 2284 3584 
Q 2666 3584 2933 3390 
Q 3200 3197 3328 2828 
z
" transform="scale(0.015625)"/>
       <path id="DejaVuSans-61" d="M 2194 1759 
Q 1497 1759 1228 1600 
Q 959 1441 959 1056 
Q 959 750 1161 570 
Q 1363 391 1709 391 
Q 2188 391 2477 730 
Q 2766 1069 2766 1631 
L 2766 1759 
L 2194 1759 
z
M 3341 1997 
L 3341 0 
L 2766 0 
L 2766 531 
Q 2569 213 2275 61 
Q 1981 -91 1556 -91 
Q 1019 -91 701 211 
Q 384 513 384 1019 
Q 384 1609 779 1909 
Q 1175 2209 1959 2209 
L 2766 2209 
L 2766 2266 
Q 2766 2663 2505 2880 
Q 2244 3097 1772 3097 
Q 1472 3097 1187 3025 
Q 903 2953 641 2809 
L 641 3341 
Q 956 3463 1253 3523 
Q 1550 3584 1831 3584 
Q 2591 3584 2966 3190 
Q 3341 2797 3341 1997 
z
" transform="scale(0.015625)"/>
       <path id="DejaVuSans-64" d="M 2906 2969 
L 2906 4863 
L 3481 4863 
L 3481 0 
L 2906 0 
L 2906 525 
Q 2725 213 2448 61 
Q 2172 -91 1784 -91 
Q 1150 -91 751 415 
Q 353 922 353 1747 
Q 353 2572 751 3078 
Q 1150 3584 1784 3584 
Q 2172 3584 2448 3432 
Q 2725 3281 2906 2969 
z
M 947 1747 
Q 947 1113 1208 752 
Q 1469 391 1925 391 
Q 2381 391 2643 752 
Q 2906 1113 2906 1747 
Q 2906 2381 2643 2742 
Q 2381 3103 1925 3103 
Q 1469 3103 1208 2742 
Q 947 2381 947 1747 
z
" transform="scale(0.015625)"/>
       <path id="DejaVuSans-74" d="M 1172 4494 
L 1172 3500 
L 2356 3500 
L 2356 3053 
L 1172 3053 
L 1172 1153 
Q 1172 725 1289 603 
Q 1406 481 1766 481 
L 2356 481 
L 2356 0 
L 1766 0 
Q 1100 0 847 248 
Q 594 497 594 1153 
L 594 3053 
L 172 3053 
L 172 3500 
L 594 3500 
L 594 4494 
L 1172 4494 
z
" transform="scale(0.015625)"/>
       <path id="DejaVuSans-68" d="M 3513 2113 
L 3513 0 
L 2938 0 
L 2938 2094 
Q 2938 2591 2744 2837 
Q 2550 3084 2163 3084 
Q 1697 3084 1428 2787 
Q 1159 2491 1159 1978 
L 1159 0 
L 581 0 
L 581 4863 
L 1159 4863 
L 1159 2956 
Q 1366 3272 1645 3428 
Q 1925 3584 2291 3584 
Q 2894 3584 3203 3211 
Q 3513 2838 3513 2113 
z
" transform="scale(0.015625)"/>
       <path id="DejaVuSans-75" d="M 544 1381 
L 544 3500 
L 1119 3500 
L 1119 1403 
Q 1119 906 1312 657 
Q 1506 409 1894 409 
Q 2359 409 2629 706 
Q 2900 1003 2900 1516 
L 2900 3500 
L 3475 3500 
L 3475 0 
L 2900 0 
L 2900 538 
Q 2691 219 2414 64 
Q 2138 -91 1772 -91 
Q 1169 -91 856 284 
Q 544 659 544 1381 
z
M 1991 3584 
L 1991 3584 
z
" transform="scale(0.015625)"/>
       <path id="DejaVuSans-67" d="M 2906 1791 
Q 2906 2416 2648 2759 
Q 2391 3103 1925 3103 
Q 1463 3103 1205 2759 
Q 947 2416 947 1791 
Q 947 1169 1205 825 
Q 1463 481 1925 481 
Q 2391 481 2648 825 
Q 2906 1169 2906 1791 
z
M 3481 434 
Q 3481 -459 3084 -895 
Q 2688 -1331 1869 -1331 
Q 1566 -1331 1297 -1286 
Q 1028 -1241 775 -1147 
L 775 -588 
Q 1028 -725 1275 -790 
Q 1522 -856 1778 -856 
Q 2344 -856 2625 -561 
Q 2906 -266 2906 331 
L 2906 616 
Q 2728 306 2450 153 
Q 2172 0 1784 0 
Q 1141 0 747 490 
Q 353 981 353 1791 
Q 353 2603 747 3093 
Q 1141 3584 1784 3584 
Q 2172 3584 2450 3431 
Q 2728 3278 2906 2969 
L 2906 3500 
L 3481 3500 
L 3481 434 
z
" transform="scale(0.015625)"/>
       <path id="DejaVuSans-70" d="M 1159 525 
L 1159 -1331 
L 581 -1331 
L 581 3500 
L 1159 3500 
L 1159 2969 
Q 1341 3281 1617 3432 
Q 1894 3584 2278 3584 
Q 2916 3584 3314 3078 
Q 3713 2572 3713 1747 
Q 3713 922 3314 415 
Q 2916 -91 2278 -91 
Q 1894 -91 1617 61 
Q 1341 213 1159 525 
z
M 3116 1747 
Q 3116 2381 2855 2742 
Q 2594 3103 2138 3103 
Q 1681 3103 1420 2742 
Q 1159 2381 1159 1747 
Q 1159 1113 1420 752 
Q 1681 391 2138 391 
Q 2594 391 2855 752 
Q 3116 1113 3116 1747 
z
" transform="scale(0.015625)"/>
      </defs>
      <use xlink:href="#DejaVuSans-4e"/>
      <use xlink:href="#DejaVuSans-6f" transform="translate(74.804688 0)"/>
      <use xlink:href="#DejaVuSans-72" transform="translate(135.986328 0)"/>
      <use xlink:href="#DejaVuSans-6d" transform="translate(175.349609 0)"/>
      <use xlink:href="#DejaVuSans-61" transform="translate(272.761719 0)"/>
      <use xlink:href="#DejaVuSans-6c" transform="translate(334.041016 0)"/>
      <use xlink:href="#DejaVuSans-69" transform="translate(361.824219 0)"/>
      <use xlink:href="#DejaVuSans-7a" transform="translate(389.607422 0)"/>
      <use xlink:href="#DejaVuSans-65" transform="translate(442.097656 0)"/>
      <use xlink:href="#DejaVuSans-64" transform="translate(503.621094 0)"/>
      <use xlink:href="#DejaVuSans-20" transform="translate(567.097656 0)"/>
      <use xlink:href="#DejaVuSans-74" transform="translate(598.884766 0)"/>
      <use xlink:href="#DejaVuSans-68" transform="translate(638.09375 0)"/>
      <use xlink:href="#DejaVuSans-72" transform="translate(701.472656 0)"/>
      <use xlink:href="#DejaVuSans-6f" transform="translate(740.335938 0)"/>
      <use xlink:href="#DejaVuSans-75" transform="translate(801.517578 0)"/>
      <use xlink:href="#DejaVuSans-67" transform="translate(864.896484 0)"/>
      <use xlink:href="#DejaVuSans-68" transform="translate(928.373047 0)"/>
      <use xlink:href="#DejaVuSans-70" transform="translate(991.751953 0)"/>
      <use xlink:href="#DejaVuSans-75" transform="translate(1055.228516 0)"/>
      <use xlink:href="#DejaVuSans-74" transform="translate(1118.607422 0)"/>
     </g>
    </g>
   </g>
   <g id="line2d_29">
    <path d="M 79.632102 59.855367 
L 119.695668 59.510157 
L 159.759233 61.946173 
L 199.822798 45.327976 
L 239.886364 61.852319 
L 279.949929 61.716667 
L 320.013494 60.136794 
L 360.07706 61.386819 
L 400.140625 62.595904 
L 440.20419 63.250775 
L 480.267756 60.519881 
L 520.331321 61.746489 
L 560.394886 61.821023 
L 600.458452 63.878296 
L 640.522017 64.240555 
L 680.585582 64.01975 
" clip-path="url(#pa1e553f873)" style="fill: none; stroke-dasharray: 1.2,1.98; stroke-dashoffset: 0; stroke: #ffcc80; stroke-opacity: 0.85; stroke-width: 1.2"/>
   </g>
   <g id="line2d_30">
    <path d="M 79.632102 53.172339 
L 119.695668 53.025984 
L 159.759233 52.939795 
L 199.822798 55.440928 
L 239.886364 46.45865 
L 279.949929 51.949282 
L 320.013494 52.166179 
L 360.07706 51.450179 
L 400.140625 45.327976 
L 440.20419 54.879138 
L 480.267756 55.187008 
L 520.331321 54.087563 
L 560.394886 54.973514 
L 600.458452 53.790064 
L 640.522017 53.957844 
L 680.585582 48.924947 
L 720.649148 52.497565 
" clip-path="url(#pa1e553f873)" style="fill: none; stroke-dasharray: 1.2,1.98; stroke-dashoffset: 0; stroke: #fcbc6b; stroke-opacity: 0.85; stroke-width: 1.2"/>
   </g>
   <g id="line2d_31">
    <path d="M 79.632102 60.646397 
L 119.695668 56.266407 
L 159.759233 51.276983 
L 199.822798 47.236693 
L 239.886364 50.918571 
L 279.949929 51.858931 
L 320.013494 51.885514 
L 360.07706 52.177684 
L 400.140625 52.435334 
L 440.20419 52.204223 
L 480.267756 52.881613 
L 520.331321 51.630926 
L 560.394886 52.69642 
L 600.458452 51.995604 
L 640.522017 52.048729 
L 680.585582 52.181475 
L 720.649148 45.327976 
" clip-path="url(#pa1e553f873)" style="fill: none; stroke-dasharray: 1.2,1.98; stroke-dashoffset: 0; stroke: #faac55; stroke-opacity: 0.85; stroke-width: 1.2"/>
   </g>
   <g id="line2d_32">
    <path d="M 79.632102 80.061987 
L 119.695668 79.807674 
L 159.759233 56.557711 
L 199.822798 50.957507 
L 239.886364 51.600491 
L 279.949929 49.130353 
L 320.013494 49.769921 
L 360.07706 45.327976 
L 400.140625 48.939026 
L 440.20419 48.436852 
L 480.267756 58.766976 
L 520.331321 58.612365 
L 560.394886 49.285189 
L 600.458452 48.615254 
L 640.522017 49.2183 
L 680.585582 49.283278 
L 720.649148 49.340594 
" clip-path="url(#pa1e553f873)" style="fill: none; stroke-dasharray: 1.2,1.98; stroke-dashoffset: 0; stroke: #f79c40; stroke-opacity: 0.85; stroke-width: 1.2"/>
   </g>
   <g id="line2d_33">
    <path d="M 79.632102 90.349001 
L 119.695668 84.341949 
L 159.759233 71.239844 
L 199.822798 57.731692 
L 239.886364 48.490557 
L 279.949929 47.317539 
L 320.013494 48.676671 
L 360.07706 47.075575 
L 400.140625 45.78128 
L 440.20419 46.722131 
L 480.267756 46.159512 
L 520.331321 50.672745 
L 560.394886 50.532731 
L 600.458452 46.368043 
L 640.522017 45.327976 
L 680.585582 46.726924 
L 720.649148 46.345951 
" clip-path="url(#pa1e553f873)" style="fill: none; stroke-dasharray: 1.2,1.98; stroke-dashoffset: 0; stroke: #f48c2b; stroke-opacity: 0.85; stroke-width: 1.2"/>
   </g>
   <g id="line2d_34">
    <path d="M 79.632102 80.633824 
L 119.695668 82.516673 
L 159.759233 70.323717 
L 199.822798 60.004746 
L 239.886364 52.425576 
L 279.949929 52.574935 
L 320.013494 50.533912 
L 360.07706 48.440151 
L 400.140625 46.152895 
L 440.20419 46.492064 
L 480.267756 46.079314 
L 520.331321 48.27376 
L 560.394886 46.034094 
L 600.458452 46.242308 
L 640.522017 46.311503 
L 680.585582 45.476159 
L 720.649148 45.327976 
" clip-path="url(#pa1e553f873)" style="fill: none; stroke-dasharray: 1.2,1.98; stroke-dashoffset: 0; stroke: #f27c15; stroke-opacity: 0.85; stroke-width: 1.2"/>
   </g>
   <g id="line2d_35">
    <path d="M 79.632102 78.949081 
L 119.695668 80.742489 
L 159.759233 70.745741 
L 199.822798 60.633313 
L 239.886364 54.728484 
L 279.949929 53.743236 
L 320.013494 50.704873 
L 360.07706 49.911699 
L 400.140625 48.910871 
L 440.20419 48.494311 
L 480.267756 47.8116 
L 520.331321 47.691998 
L 560.394886 46.932001 
L 600.458452 46.662773 
L 640.522017 46.4293 
L 680.585582 46.441342 
L 720.649148 45.327976 
" clip-path="url(#pa1e553f873)" style="fill: none; stroke-dasharray: 1.2,1.98; stroke-dashoffset: 0; stroke: #ef6c00; stroke-opacity: 0.85; stroke-width: 1.2"/>
   </g>
   <g id="line2d_36">
    <path d="M 79.632102 89.310209 
L 119.695668 91.868915 
L 159.759233 73.180275 
L 199.822798 64.090491 
L 239.886364 60.621859 
L 279.949929 56.069922 
L 320.013494 70.236892 
L 360.07706 55.044984 
L 400.140625 49.254202 
L 440.20419 50.310502 
L 480.267756 50.776106 
L 520.331321 58.162899 
L 560.394886 48.588016 
L 600.458452 45.327976 
L 640.522017 48.084954 
L 680.585582 47.849029 
" clip-path="url(#pa1e553f873)" style="fill: none; stroke: #ffcc80; stroke-opacity: 0.85; stroke-width: 1.2; stroke-linecap: square"/>
   </g>
   <g id="line2d_37">
    <path d="M 79.632102 82.659733 
L 119.695668 87.545653 
L 159.759233 85.241194 
L 199.822798 70.211953 
L 239.886364 61.135644 
L 279.949929 56.181121 
L 320.013494 55.652698 
L 360.07706 53.972966 
L 400.140625 50.700408 
L 440.20419 51.616153 
L 480.267756 51.745004 
L 520.331321 49.325443 
L 560.394886 51.270617 
L 600.458452 45.327976 
L 640.522017 46.736885 
L 680.585582 48.177873 
L 720.649148 47.726933 
" clip-path="url(#pa1e553f873)" style="fill: none; stroke: #fcbc6b; stroke-opacity: 0.85; stroke-width: 1.2; stroke-linecap: square"/>
   </g>
   <g id="line2d_38">
    <path d="M 79.632102 85.383124 
L 119.695668 88.972362 
L 159.759233 78.710957 
L 199.822798 62.277425 
L 239.886364 55.471395 
L 279.949929 57.910877 
L 320.013494 52.490876 
L 360.07706 53.336541 
L 400.140625 50.606586 
L 440.20419 49.638448 
L 480.267756 45.327976 
L 520.331321 45.495243 
L 560.394886 47.194755 
L 600.458452 49.508995 
L 640.522017 49.573732 
L 680.585582 49.352775 
L 720.649148 48.768689 
" clip-path="url(#pa1e553f873)" style="fill: none; stroke: #faac55; stroke-opacity: 0.85; stroke-width: 1.2; stroke-linecap: square"/>
   </g>
   <g id="line2d_39">
    <path d="M 79.632102 77.498105 
L 119.695668 82.458969 
L 159.759233 77.692234 
L 199.822798 64.581923 
L 239.886364 56.985431 
L 279.949929 54.375088 
L 320.013494 54.726194 
L 360.07706 51.861634 
L 400.140625 49.572938 
L 440.20419 49.629825 
L 480.267756 55.755449 
L 520.331321 47.61346 
L 560.394886 47.406446 
L 600.458452 46.816782 
L 640.522017 46.69363 
L 680.585582 47.11856 
L 720.649148 45.327976 
" clip-path="url(#pa1e553f873)" style="fill: none; stroke: #f79c40; stroke-opacity: 0.85; stroke-width: 1.2; stroke-linecap: square"/>
   </g>
   <g id="line2d_40">
    <path d="M 79.632102 80.505277 
L 119.695668 85.52689 
L 159.759233 74.621465 
L 199.822798 60.774954 
L 239.886364 56.238087 
L 279.949929 55.478916 
L 320.013494 51.06373 
L 360.07706 48.994052 
L 400.140625 48.898884 
L 440.20419 48.813193 
L 480.267756 45.327976 
L 520.331321 46.737461 
L 560.394886 48.292519 
L 600.458452 45.377418 
L 640.522017 47.479153 
L 680.585582 47.335263 
L 720.649148 46.844277 
" clip-path="url(#pa1e553f873)" style="fill: none; stroke: #f48c2b; stroke-opacity: 0.85; stroke-width: 1.2; stroke-linecap: square"/>
   </g>
   <g id="line2d_41">
    <path d="M 79.632102 78.167764 
L 119.695668 80.506738 
L 159.759233 73.268582 
L 199.822798 61.474454 
L 239.886364 56.269994 
L 279.949929 55.045519 
L 320.013494 51.340661 
L 360.07706 48.998509 
L 400.140625 48.635753 
L 440.20419 47.379174 
L 480.267756 47.038805 
L 520.331321 46.370238 
L 560.394886 45.327976 
L 600.458452 46.489123 
L 640.522017 45.491998 
L 680.585582 45.894453 
L 720.649148 46.060893 
" clip-path="url(#pa1e553f873)" style="fill: none; stroke: #f27c15; stroke-opacity: 0.85; stroke-width: 1.2; stroke-linecap: square"/>
   </g>
   <g id="line2d_42">
    <path d="M 79.632102 80.208379 
L 119.695668 86.822072 
L 159.759233 73.422664 
L 199.822798 61.902592 
L 239.886364 55.264274 
L 279.949929 54.041585 
L 320.013494 51.152381 
L 360.07706 48.774146 
L 400.140625 46.941071 
L 440.20419 46.92186 
L 480.267756 46.950676 
L 520.331321 47.526094 
L 560.394886 46.878629 
L 600.458452 45.327976 
L 640.522017 46.515586 
L 680.585582 45.91303 
L 720.649148 46.633469 
" clip-path="url(#pa1e553f873)" style="fill: none; stroke: #ef6c00; stroke-opacity: 0.85; stroke-width: 1.2; stroke-linecap: square"/>
   </g>
   <g id="line2d_43">
    <path d="M 79.632102 69.669088 
L 119.695668 69.895951 
L 159.759233 69.160001 
L 199.822798 46.034765 
L 239.886364 45.456252 
L 279.949929 46.036306 
L 320.013494 51.352672 
L 360.07706 50.413712 
L 400.140625 45.456252 
L 440.20419 45.456252 
L 480.267756 45.457797 
L 520.331321 47.250967 
L 560.394886 49.722726 
L 600.458452 49.471669 
L 640.522017 45.327976 
L 680.585582 45.392898 
" clip-path="url(#pa1e553f873)" style="fill: none; stroke-dasharray: 1.2,1.98; stroke-dashoffset: 0; stroke: #90caf9; stroke-opacity: 0.85; stroke-width: 1.2"/>
   </g>
   <g id="line2d_44">
    <path d="M 79.632102 48.489601 
L 119.695668 45.991426 
L 159.759233 48.359412 
L 199.822798 45.361441 
L 239.886364 45.360645 
L 279.949929 45.725999 
L 320.013494 47.736276 
L 360.07706 47.408582 
L 400.140625 47.638656 
L 440.20419 46.056536 
L 480.267756 46.750742 
L 520.331321 45.427558 
L 560.394886 46.717515 
L 600.458452 48.881209 
L 640.522017 45.924706 
L 680.585582 45.461006 
L 720.649148 45.327976 
" clip-path="url(#pa1e553f873)" style="fill: none; stroke-dasharray: 1.2,1.98; stroke-dashoffset: 0; stroke: #7dbff6; stroke-opacity: 0.85; stroke-width: 1.2"/>
   </g>
   <g id="line2d_45">
    <path d="M 79.632102 226.650483 
L 119.695668 48.637918 
L 159.759233 47.190661 
L 199.822798 50.403035 
L 239.886364 46.320324 
L 279.949929 46.253089 
L 320.013494 46.588225 
L 360.07706 48.985246 
L 400.140625 48.736934 
L 440.20419 48.654226 
L 480.267756 47.273997 
L 520.331321 47.390526 
L 560.394886 46.672221 
L 600.458452 46.705568 
L 640.522017 45.327976 
L 680.585582 46.420931 
L 720.649148 45.530568 
" clip-path="url(#pa1e553f873)" style="fill: none; stroke-dasharray: 1.2,1.98; stroke-dashoffset: 0; stroke: #6ab4f2; stroke-opacity: 0.85; stroke-width: 1.2"/>
   </g>
   <g id="line2d_46">
    <path d="M 79.632102 291.230936 
L 119.695668 252.495804 
L 159.759233 101.89918 
L 199.822798 84.157237 
L 239.886364 89.744075 
L 279.949929 121.607379 
L 320.013494 50.716652 
L 360.07706 47.891351 
L 400.140625 49.067588 
L 440.20419 47.806916 
L 480.267756 48.767695 
L 520.331321 45.954228 
L 560.394886 46.495492 
L 600.458452 45.472518 
L 640.522017 45.675916 
L 680.585582 45.327976 
L 720.649148 45.35445 
" clip-path="url(#pa1e553f873)" style="fill: none; stroke-dasharray: 1.2,1.98; stroke-dashoffset: 0; stroke: #57a9ef; stroke-opacity: 0.85; stroke-width: 1.2"/>
   </g>
   <g id="line2d_47">
    <path d="M 79.632102 292.427351 
L 119.695668 286.349685 
L 159.759233 257.406437 
L 199.822798 229.995106 
L 239.886364 136.069873 
L 279.949929 66.777124 
L 320.013494 57.955886 
L 360.07706 51.931625 
L 400.140625 47.670546 
L 440.20419 50.799339 
L 480.267756 50.239665 
L 520.331321 48.535745 
L 560.394886 47.320549 
L 600.458452 46.293225 
L 640.522017 45.805076 
L 680.585582 46.115024 
L 720.649148 45.327976 
" clip-path="url(#pa1e553f873)" style="fill: none; stroke-dasharray: 1.2,1.98; stroke-dashoffset: 0; stroke: #449eec; stroke-opacity: 0.85; stroke-width: 1.2"/>
   </g>
   <g id="line2d_48">
    <path d="M 79.632102 293.812975 
L 119.695668 287.136899 
L 159.759233 264.394577 
L 199.822798 255.537091 
L 239.886364 207.29082 
L 279.949929 119.375299 
L 320.013494 74.682716 
L 360.07706 54.98513 
L 400.140625 49.38489 
L 440.20419 48.418916 
L 480.267756 49.001793 
L 520.331321 48.286795 
L 560.394886 45.327976 
L 600.458452 46.32622 
L 640.522017 45.458027 
L 680.585582 45.792483 
L 720.649148 46.045757 
" clip-path="url(#pa1e553f873)" style="fill: none; stroke-dasharray: 1.2,1.98; stroke-dashoffset: 0; stroke: #3193e8; stroke-opacity: 0.85; stroke-width: 1.2"/>
   </g>
   <g id="line2d_49">
    <path d="M 79.632102 293.945381 
L 119.695668 287.572022 
L 159.759233 267.773344 
L 199.822798 257.085161 
L 239.886364 212.621815 
L 279.949929 178.071942 
L 320.013494 112.701269 
L 360.07706 70.212232 
L 400.140625 59.764832 
L 440.20419 93.857626 
L 480.267756 49.899722 
L 520.331321 50.61577 
L 560.394886 50.452695 
L 600.458452 55.337043 
L 640.522017 45.327976 
L 680.585582 46.432994 
L 720.649148 45.747592 
" clip-path="url(#pa1e553f873)" style="fill: none; stroke-dasharray: 1.2,1.98; stroke-dashoffset: 0; stroke: #1e88e5; stroke-opacity: 0.85; stroke-width: 1.2"/>
   </g>
   <g id="line2d_50">
    <path d="M 79.632102 421.675739 
L 119.695668 349.172335 
L 159.759233 317.379037 
L 199.822798 311.323244 
L 239.886364 261.503436 
L 279.949929 200.763389 
L 320.013494 215.566673 
L 360.07706 160.658683 
L 400.140625 165.197661 
L 440.20419 127.640078 
L 480.267756 98.566818 
L 520.331321 92.370112 
L 560.394886 79.713883 
L 600.458452 68.591069 
L 640.522017 63.677313 
L 680.585582 45.327976 
" clip-path="url(#pa1e553f873)" style="fill: none; stroke: #90caf9; stroke-opacity: 0.85; stroke-width: 1.2; stroke-linecap: square"/>
   </g>
   <g id="line2d_51">
    <path d="M 79.632102 414.283797 
L 119.695668 302.632918 
L 159.759233 409.29039 
L 199.822798 378.298088 
L 239.886364 357.17687 
L 279.949929 301.785135 
L 320.013494 238.838669 
L 360.07706 177.273189 
L 400.140625 123.313073 
L 440.20419 86.21947 
L 480.267756 75.06266 
L 520.331321 75.306314 
L 560.394886 61.688963 
L 600.458452 62.590247 
L 640.522017 56.069682 
L 680.585582 45.327976 
L 720.649148 51.143693 
" clip-path="url(#pa1e553f873)" style="fill: none; stroke: #7dbff6; stroke-opacity: 0.85; stroke-width: 1.2; stroke-linecap: square"/>
   </g>
   <g id="line2d_52">
    <path d="M 79.632102 366.348522 
L 119.695668 292.951327 
L 159.759233 275.818682 
L 199.822798 297.061403 
L 239.886364 223.819847 
L 279.949929 171.713223 
L 320.013494 126.098073 
L 360.07706 92.500181 
L 400.140625 69.637204 
L 440.20419 58.43176 
L 480.267756 51.495852 
L 520.331321 48.595915 
L 560.394886 45.839195 
L 600.458452 45.9242 
L 640.522017 45.566766 
L 680.585582 45.327976 
L 720.649148 45.413204 
" clip-path="url(#pa1e553f873)" style="fill: none; stroke: #6ab4f2; stroke-opacity: 0.85; stroke-width: 1.2; stroke-linecap: square"/>
   </g>
   <g id="line2d_53">
    <path d="M 79.632102 297.985026 
L 119.695668 292.762322 
L 159.759233 265.471768 
L 199.822798 267.537744 
L 239.886364 256.300668 
L 279.949929 173.777637 
L 320.013494 122.290744 
L 360.07706 90.065916 
L 400.140625 68.221655 
L 440.20419 54.761734 
L 480.267756 47.871119 
L 520.331321 51.334601 
L 560.394886 56.169998 
L 600.458452 53.541897 
L 640.522017 51.683789 
L 680.585582 48.951492 
L 720.649148 45.327976 
" clip-path="url(#pa1e553f873)" style="fill: none; stroke: #57a9ef; stroke-opacity: 0.85; stroke-width: 1.2; stroke-linecap: square"/>
   </g>
   <g id="line2d_54">
    <path d="M 79.632102 286.156121 
L 119.695668 277.274377 
L 159.759233 252.765645 
L 199.822798 247.714203 
L 239.886364 195.789076 
L 279.949929 141.333878 
L 320.013494 94.357972 
L 360.07706 280.456993 
L 400.140625 147.683397 
L 440.20419 109.724299 
L 480.267756 86.292652 
L 520.331321 68.360046 
L 560.394886 56.509016 
L 600.458452 50.537531 
L 640.522017 45.327976 
L 680.585582 49.24525 
L 720.649148 51.028162 
" clip-path="url(#pa1e553f873)" style="fill: none; stroke: #449eec; stroke-opacity: 0.85; stroke-width: 1.2; stroke-linecap: square"/>
   </g>
   <g id="line2d_55">
    <path d="M 79.632102 308.231905 
L 119.695668 294.954862 
L 159.759233 272.499121 
L 199.822798 271.917559 
L 239.886364 220.469486 
L 279.949929 164.490207 
L 320.013494 119.134975 
L 360.07706 88.843634 
L 400.140625 69.403995 
L 440.20419 58.392631 
L 480.267756 52.514075 
L 520.331321 48.997133 
L 560.394886 46.972544 
L 600.458452 46.304116 
L 640.522017 45.737625 
L 680.585582 45.438488 
L 720.649148 45.327976 
" clip-path="url(#pa1e553f873)" style="fill: none; stroke: #3193e8; stroke-opacity: 0.85; stroke-width: 1.2; stroke-linecap: square"/>
   </g>
   <g id="line2d_56">
    <path d="M 79.632102 296.816117 
L 119.695668 291.696542 
L 159.759233 269.582536 
L 199.822798 264.75058 
L 239.886364 215.209948 
L 279.949929 158.091115 
L 320.013494 110.59923 
L 360.07706 82.227964 
L 400.140625 61.631448 
L 440.20419 50.424912 
L 480.267756 45.327976 
L 520.331321 107.596866 
L 560.394886 63.552508 
L 600.458452 51.74277 
L 640.522017 53.429821 
L 680.585582 57.557421 
L 720.649148 51.84713 
" clip-path="url(#pa1e553f873)" style="fill: none; stroke: #1e88e5; stroke-opacity: 0.85; stroke-width: 1.2; stroke-linecap: square"/>
   </g>
   <g id="line2d_57">
    <path d="M 79.632102 326.591187 
L 119.695668 269.845923 
L 159.759233 240.429234 
L 199.822798 202.617957 
L 239.886364 63.758946 
L 279.949929 63.758946 
L 320.013494 75.316821 
L 360.07706 72.337134 
L 400.140625 63.125305 
L 440.20419 61.881955 
L 480.267756 56.730704 
L 520.331321 61.226634 
L 560.394886 56.07288 
L 600.458452 45.327976 
L 640.522017 61.881955 
L 680.585582 54.117349 
" clip-path="url(#pa1e553f873)" style="fill: none; stroke-dasharray: 1.2,1.98; stroke-dashoffset: 0; stroke: #a5d6a7; stroke-opacity: 0.85; stroke-width: 1.2"/>
   </g>
   <g id="line2d_58">
    <path d="M 79.632102 318.740935 
L 119.695668 249.588683 
L 159.759233 214.508251 
L 199.822798 171.110281 
L 239.886364 122.471461 
L 279.949929 62.679497 
L 320.013494 70.786135 
L 360.07706 69.605081 
L 400.140625 62.067124 
L 440.20419 57.390534 
L 480.267756 52.268862 
L 520.331321 47.669345 
L 560.394886 47.334303 
L 600.458452 45.336043 
L 640.522017 45.327976 
L 680.585582 46.670492 
L 720.649148 47.006679 
" clip-path="url(#pa1e553f873)" style="fill: none; stroke-dasharray: 1.2,1.98; stroke-dashoffset: 0; stroke: #95cd97; stroke-opacity: 0.85; stroke-width: 1.2"/>
   </g>
   <g id="line2d_59">
    <path d="M 79.632102 342.210833 
L 119.695668 276.675945 
L 159.759233 235.221208 
L 199.822798 211.157333 
L 239.886364 165.124995 
L 279.949929 137.740501 
L 320.013494 45.327976 
L 360.07706 61.612149 
L 400.140625 57.228231 
L 440.20419 54.187516 
L 480.267756 52.006149 
L 520.331321 47.769283 
L 560.394886 49.990077 
L 600.458452 47.952716 
L 640.522017 46.078939 
L 680.585582 46.64252 
L 720.649148 47.020332 
" clip-path="url(#pa1e553f873)" style="fill: none; stroke-dasharray: 1.2,1.98; stroke-dashoffset: 0; stroke: #84c487; stroke-opacity: 0.85; stroke-width: 1.2"/>
   </g>
   <g id="line2d_60">
    <path d="M 79.632102 381.889793 
L 119.695668 353.779813 
L 159.759233 269.031977 
L 199.822798 240.409128 
L 239.886364 185.631617 
L 279.949929 153.001569 
L 320.013494 97.097022 
L 360.07706 59.399606 
L 400.140625 56.610807 
L 440.20419 52.53994 
L 480.267756 54.160971 
L 520.331321 45.327976 
L 560.394886 52.732713 
L 600.458452 58.936178 
L 640.522017 51.196639 
L 680.585582 57.916626 
L 720.649148 55.576361 
" clip-path="url(#pa1e553f873)" style="fill: none; stroke-dasharray: 1.2,1.98; stroke-dashoffset: 0; stroke: #74bb77; stroke-opacity: 0.85; stroke-width: 1.2"/>
   </g>
   <g id="line2d_61">
    <path d="M 79.632102 394.29666 
L 119.695668 382.731894 
L 159.759233 371.941074 
L 199.822798 355.810203 
L 239.886364 337.192799 
L 279.949929 300.611734 
L 320.013494 230.323904 
L 360.07706 231.959267 
L 400.140625 150.416435 
L 440.20419 132.696146 
L 480.267756 81.286159 
L 520.331321 68.185028 
L 560.394886 55.7839 
L 600.458452 55.73481 
L 640.522017 56.77973 
L 680.585582 47.214737 
L 720.649148 45.327976 
" clip-path="url(#pa1e553f873)" style="fill: none; stroke-dasharray: 1.2,1.98; stroke-dashoffset: 0; stroke: #64b267; stroke-opacity: 0.85; stroke-width: 1.2"/>
   </g>
   <g id="line2d_62">
    <path d="M 79.632102 396.411766 
L 119.695668 391.689278 
L 159.759233 390.156289 
L 199.822798 387.683629 
L 239.886364 383.601182 
L 279.949929 382.370344 
L 320.013494 376.025135 
L 360.07706 340.072114 
L 400.140625 301.585779 
L 440.20419 216.290166 
L 480.267756 124.832673 
L 520.331321 78.321829 
L 560.394886 66.122632 
L 600.458452 59.036584 
L 640.522017 49.755372 
L 680.585582 52.394795 
L 720.649148 45.327976 
" clip-path="url(#pa1e553f873)" style="fill: none; stroke-dasharray: 1.2,1.98; stroke-dashoffset: 0; stroke: #53a957; stroke-opacity: 0.85; stroke-width: 1.2"/>
   </g>
   <g id="line2d_63">
    <path d="M 79.632102 395.638897 
L 119.695668 391.583517 
L 159.759233 389.863689 
L 199.822798 389.128382 
L 239.886364 387.593039 
L 279.949929 387.265443 
L 320.013494 372.779422 
L 360.07706 348.204527 
L 400.140625 318.342682 
L 440.20419 261.310722 
L 480.267756 190.151928 
L 520.331321 95.293563 
L 560.394886 59.370145 
L 600.458452 52.233504 
L 640.522017 47.726473 
L 680.585582 45.327976 
L 720.649148 50.058409 
" clip-path="url(#pa1e553f873)" style="fill: none; stroke-dasharray: 1.2,1.98; stroke-dashoffset: 0; stroke: #43a047; stroke-opacity: 0.85; stroke-width: 1.2"/>
   </g>
   <g id="line2d_64">
    <path d="M 79.632102 405.191173 
L 119.695668 402.668442 
L 159.759233 402.380249 
L 199.822798 403.54611 
L 239.886364 397.393123 
L 279.949929 398.486572 
L 320.013494 379.347954 
L 360.07706 348.768647 
L 400.140625 314.517988 
L 440.20419 272.232027 
L 480.267756 207.800738 
L 520.331321 144.281046 
L 560.394886 93.762745 
L 600.458452 63.732986 
L 640.522017 74.558556 
L 680.585582 45.327976 
" clip-path="url(#pa1e553f873)" style="fill: none; stroke: #a5d6a7; stroke-opacity: 0.85; stroke-width: 1.2; stroke-linecap: square"/>
   </g>
   <g id="line2d_65">
    <path d="M 79.632102 403.650097 
L 119.695668 400.912901 
L 159.759233 400.183573 
L 199.822798 401.315904 
L 239.886364 396.736504 
L 279.949929 397.546694 
L 320.013494 380.175364 
L 360.07706 351.473297 
L 400.140625 317.51917 
L 440.20419 275.371974 
L 480.267756 217.171022 
L 520.331321 152.433437 
L 560.394886 108.031073 
L 600.458452 76.764974 
L 640.522017 61.288839 
L 680.585582 54.120843 
L 720.649148 45.327976 
" clip-path="url(#pa1e553f873)" style="fill: none; stroke: #95cd97; stroke-opacity: 0.85; stroke-width: 1.2; stroke-linecap: square"/>
   </g>
   <g id="line2d_66">
    <path d="M 79.632102 404.193354 
L 119.695668 399.219232 
L 159.759233 398.401978 
L 199.822798 398.829139 
L 239.886364 394.050552 
L 279.949929 396.836188 
L 320.013494 378.003871 
L 360.07706 350.506144 
L 400.140625 317.16589 
L 440.20419 275.106983 
L 480.267756 217.973336 
L 520.331321 169.605017 
L 560.394886 130.635046 
L 600.458452 92.439072 
L 640.522017 83.807292 
L 680.585582 54.023305 
L 720.649148 45.327976 
" clip-path="url(#pa1e553f873)" style="fill: none; stroke: #84c487; stroke-opacity: 0.85; stroke-width: 1.2; stroke-linecap: square"/>
   </g>
   <g id="line2d_67">
    <path d="M 79.632102 399.62196 
L 119.695668 397.435177 
L 159.759233 395.666047 
L 199.822798 395.475967 
L 239.886364 391.649955 
L 279.949929 392.787387 
L 320.013494 374.435653 
L 360.07706 346.663594 
L 400.140625 313.371407 
L 440.20419 272.809526 
L 480.267756 210.322595 
L 520.331321 150.951845 
L 560.394886 109.881809 
L 600.458452 71.238017 
L 640.522017 68.782221 
L 680.585582 45.327976 
L 720.649148 53.746634 
" clip-path="url(#pa1e553f873)" style="fill: none; stroke: #74bb77; stroke-opacity: 0.85; stroke-width: 1.2; stroke-linecap: square"/>
   </g>
   <g id="line2d_68">
    <path d="M 79.632102 396.756053 
L 119.695668 394.894462 
L 159.759233 393.855958 
L 199.822798 393.066916 
L 239.886364 389.951658 
L 279.949929 390.068622 
L 320.013494 372.582461 
L 360.07706 344.752353 
L 400.140625 309.131422 
L 440.20419 266.943218 
L 480.267756 206.421338 
L 520.331321 144.519555 
L 560.394886 100.313549 
L 600.458452 73.983554 
L 640.522017 57.985859 
L 680.585582 45.327976 
L 720.649148 47.358074 
" clip-path="url(#pa1e553f873)" style="fill: none; stroke: #64b267; stroke-opacity: 0.85; stroke-width: 1.2; stroke-linecap: square"/>
   </g>
   <g id="line2d_69">
    <path d="M 79.632102 395.506122 
L 119.695668 394.097033 
L 159.759233 392.467316 
L 199.822798 392.824204 
L 239.886364 423.956306 
L 279.949929 392.933544 
L 320.013494 373.45559 
L 360.07706 342.50405 
L 400.140625 305.567047 
L 440.20419 265.079567 
L 480.267756 203.147195 
L 520.331321 146.031614 
L 560.394886 102.964397 
L 600.458452 75.186599 
L 640.522017 55.629087 
L 680.585582 50.622641 
L 720.649148 45.327976 
" clip-path="url(#pa1e553f873)" style="fill: none; stroke: #53a957; stroke-opacity: 0.85; stroke-width: 1.2; stroke-linecap: square"/>
   </g>
   <g id="line2d_70">
    <path d="M 79.632102 396.720142 
L 119.695668 393.724553 
L 159.759233 391.97387 
L 199.822798 392.228873 
L 239.886364 388.978498 
L 279.949929 388.487718 
L 320.013494 372.757217 
L 360.07706 344.563132 
L 400.140625 310.116098 
L 440.20419 264.126484 
L 480.267756 205.282634 
L 520.331321 140.904939 
L 560.394886 106.257699 
L 600.458452 78.31808 
L 640.522017 65.925938 
L 680.585582 56.904718 
L 720.649148 45.327976 
" clip-path="url(#pa1e553f873)" style="fill: none; stroke: #43a047; stroke-opacity: 0.85; stroke-width: 1.2; stroke-linecap: square"/>
   </g>
   <g id="patch_3">
    <path d="M 47.58125 435.8875 
L 47.58125 25.8 
" style="fill: none; stroke: #444444; stroke-width: 0.8; stroke-linejoin: miter; stroke-linecap: square"/>
   </g>
   <g id="patch_4">
    <path d="M 752.7 435.8875 
L 752.7 25.8 
" style="fill: none; stroke: #444444; stroke-width: 0.8; stroke-linejoin: miter; stroke-linecap: square"/>
   </g>
   <g id="patch_5">
    <path d="M 47.58125 435.8875 
L 752.7 435.8875 
" style="fill: none; stroke: #444444; stroke-width: 0.8; stroke-linejoin: miter; stroke-linecap: square"/>
   </g>
   <g id="patch_6">
    <path d="M 47.58125 25.8 
L 752.7 25.8 
" style="fill: none; stroke: #444444; stroke-width: 0.8; stroke-linejoin: miter; stroke-linecap: square"/>
   </g>
   <g id="text_17">
    <!-- Normalized throughput — all kernels &amp; working sets -->
    <g style="fill: #e0e0e0" transform="translate(243.850938 19.8) scale(0.12 -0.12)">
     <defs>
      <path id="DejaVuSans-2014" d="M 313 1978 
L 6088 1978 
L 6088 1528 
L 313 1528 
L 313 1978 
z
" transform="scale(0.015625)"/>
      <path id="DejaVuSans-6e" d="M 3513 2113 
L 3513 0 
L 2938 0 
L 2938 2094 
Q 2938 2591 2744 2837 
Q 2550 3084 2163 3084 
Q 1697 3084 1428 2787 
Q 1159 2491 1159 1978 
L 1159 0 
L 581 0 
L 581 3500 
L 1159 3500 
L 1159 2956 
Q 1366 3272 1645 3428 
Q 1925 3584 2291 3584 
Q 2894 3584 3203 3211 
Q 3513 2838 3513 2113 
z
" transform="scale(0.015625)"/>
      <path id="DejaVuSans-26" d="M 1556 2509 
Q 1272 2256 1139 2004 
Q 1006 1753 1006 1478 
Q 1006 1022 1337 719 
Q 1669 416 2169 416 
Q 2466 416 2725 514 
Q 2984 613 3213 813 
L 1556 2509 
z
M 1997 2859 
L 3584 1234 
Q 3769 1513 3872 1830 
Q 3975 2147 3994 2503 
L 4575 2503 
Q 4538 2091 4375 1687 
Q 4213 1284 3922 891 
L 4794 0 
L 4006 0 
L 3559 459 
Q 3234 181 2878 45 
Q 2522 -91 2113 -91 
Q 1359 -91 881 339 
Q 403 769 403 1441 
Q 403 1841 612 2192 
Q 822 2544 1241 2853 
Q 1091 3050 1012 3245 
Q 934 3441 934 3628 
Q 934 4134 1281 4442 
Q 1628 4750 2203 4750 
Q 2463 4750 2720 4694 
Q 2978 4638 3244 4525 
L 3244 3956 
Q 2972 4103 2725 4179 
Q 2478 4256 2266 4256 
Q 1938 4256 1733 4082 
Q 1528 3909 1528 3634 
Q 1528 3475 1620 3314 
Q 1713 3153 1997 2859 
z
" transform="scale(0.015625)"/>
      <path id="DejaVuSans-77" d="M 269 3500 
L 844 3500 
L 1563 769 
L 2278 3500 
L 2956 3500 
L 3675 769 
L 4391 3500 
L 4966 3500 
L 4050 0 
L 3372 0 
L 2619 2869 
L 1863 0 
L 1184 0 
L 269 3500 
z
" transform="scale(0.015625)"/>
     </defs>
     <use xlink:href="#DejaVuSans-4e"/>
     <use xlink:href="#DejaVuSans-6f" transform="translate(74.804688 0)"/>
     <use xlink:href="#DejaVuSans-72" transform="translate(135.986328 0)"/>
     <use xlink:href="#DejaVuSans-6d" transform="translate(175.349609 0)"/>
     <use xlink:href="#DejaVuSans-61" transform="translate(272.761719 0)"/>
     <use xlink:href="#DejaVuSans-6c" transform="translate(334.041016 0)"/>
     <use xlink:href="#DejaVuSans-69" transform="translate(361.824219 0)"/>
     <use xlink:href="#DejaVuSans-7a" transform="translate(389.607422 0)"/>
     <use xlink:href="#DejaVuSans-65" transform="translate(442.097656 0)"/>
     <use xlink:href="#DejaVuSans-64" transform="translate(503.621094 0)"/>
     <use xlink:href="#DejaVuSans-20" transform="translate(567.097656 0)"/>
     <use xlink:href="#DejaVuSans-74" transform="translate(598.884766 0)"/>
     <use xlink:href="#DejaVuSans-68" transform="translate(638.09375 0)"/>
     <use xlink:href="#DejaVuSans-72" transform="translate(701.472656 0)"/>
     <use xlink:href="#DejaVuSans-6f" transform="translate(740.335938 0)"/>
     <use xlink:href="#DejaVuSans-75" transform="translate(801.517578 0)"/>
     <use xlink:href="#DejaVuSans-67" transform="translate(864.896484 0)"/>
     <use xlink:href="#DejaVuSans-68" transform="translate(928.373047 0)"/>
     <use xlink:href="#DejaVuSans-70" transform="translate(991.751953 0)"/>
     <use xlink:href="#DejaVuSans-75" transform="translate(1055.228516 0)"/>
     <use xlink:href="#DejaVuSans-74" transform="translate(1118.607422 0)"/>
     <use xlink:href="#DejaVuSans-20" transform="translate(1157.816406 0)"/>
     <use xlink:href="#DejaVuSans-2014" transform="translate(1189.603516 0)"/>
     <use xlink:href="#DejaVuSans-20" transform="translate(1289.603516 0)"/>
     <use xlink:href="#DejaVuSans-61" transform="translate(1321.390625 0)"/>
     <use xlink:href="#DejaVuSans-6c" transform="translate(1382.669922 0)"/>
     <use xlink:href="#DejaVuSans-6c" transform="translate(1410.453125 0)"/>
     <use xlink:href="#DejaVuSans-20" transform="translate(1438.236328 0)"/>
     <use xlink:href="#DejaVuSans-6b" transform="translate(1470.023438 0)"/>
     <use xlink:href="#DejaVuSans-65" transform="translate(1524.308594 0)"/>
     <use xlink:href="#DejaVuSans-72" transform="translate(1585.832031 0)"/>
     <use xlink:href="#DejaVuSans-6e" transform="translate(1625.195312 0)"/>
     <use xlink:href="#DejaVuSans-65" transform="translate(1688.574219 0)"/>
     <use xlink:href="#DejaVuSans-6c" transform="translate(1750.097656 0)"/>
     <use xlink:href="#DejaVuSans-73" transform="translate(1777.880859 0)"/>
     <use xlink:href="#DejaVuSans-20" transform="translate(1829.980469 0)"/>
     <use xlink:href="#DejaVuSans-26" transform="translate(1861.767578 0)"/>
     <use xlink:href="#DejaVuSans-20" transform="translate(1939.746094 0)"/>
     <use xlink:href="#DejaVuSans-77" transform="translate(1971.533203 0)"/>
     <use xlink:href="#DejaVuSans-6f" transform="translate(2053.320312 0)"/>
     <use xlink:href="#DejaVuSans-72" transform="translate(2114.501953 0)"/>
     <use xlink:href="#DejaVuSans-6b" transform="translate(2155.615234 0)"/>
     <use xlink:href="#DejaVuSans-69" transform="translate(2213.525391 0)"/>
     <use xlink:href="#DejaVuSans-6e" transform="translate(2241.308594 0)"/>
     <use xlink:href="#DejaVuSans-67" transform="translate(2304.6875 0)"/>
     <use xlink:href="#DejaVuSans-20" transform="translate(2368.164062 0)"/>
     <use xlink:href="#DejaVuSans-73" transform="translate(2399.951172 0)"/>
     <use xlink:href="#DejaVuSans-65" transform="translate(2452.050781 0)"/>
     <use xlink:href="#DejaVuSans-74" transform="translate(2513.574219 0)"/>
     <use xlink:href="#DejaVuSans-73" transform="translate(2552.783203 0)"/>
    </g>
   </g>
   <g id="legend_1">
    <g id="patch_7">
     <path d="M 674.05 431.8875 
L 747.1 431.8875 
Q 748.7 431.8875 748.7 430.2875 
L 748.7 371.7075 
Q 748.7 370.1075 747.1 370.1075 
L 674.05 370.1075 
Q 672.45 370.1075 672.45 371.7075 
L 672.45 430.2875 
Q 672.45 431.8875 674.05 431.8875 
z
" style="fill: #1e2436; opacity: 0.8; stroke: #444444; stroke-linejoin: miter"/>
    </g>
    <g id="patch_8">
     <path d="M 675.65 379.38625 
L 691.65 379.38625 
L 691.65 373.78625 
L 675.65 373.78625 
z
" style="fill: #ef6c00"/>
    </g>
    <g id="text_18">
     <!-- heavy_sin -->
     <g style="fill: #e0e0e0" transform="translate(698.05 379.38625) scale(0.08 -0.08)">
      <defs>
       <path id="DejaVuSans-76" d="M 191 3500 
L 800 3500 
L 1894 563 
L 2988 3500 
L 3597 3500 
L 2284 0 
L 1503 0 
L 191 3500 
z
" transform="scale(0.015625)"/>
       <path id="DejaVuSans-79" d="M 2059 -325 
Q 1816 -950 1584 -1140 
Q 1353 -1331 966 -1331 
L 506 -1331 
L 506 -850 
L 844 -850 
Q 1081 -850 1212 -737 
Q 1344 -625 1503 -206 
L 1606 56 
L 191 3500 
L 800 3500 
L 1894 763 
L 2988 3500 
L 3597 3500 
L 2059 -325 
z
" transform="scale(0.015625)"/>
       <path id="DejaVuSans-5f" d="M 3263 -1063 
L 3263 -1509 
L -63 -1509 
L -63 -1063 
L 3263 -1063 
z
" transform="scale(0.015625)"/>
      </defs>
      <use xlink:href="#DejaVuSans-68"/>
      <use xlink:href="#DejaVuSans-65" transform="translate(63.378906 0)"/>
      <use xlink:href="#DejaVuSans-61" transform="translate(124.902344 0)"/>
      <use xlink:href="#DejaVuSans-76" transform="translate(186.181641 0)"/>
      <use xlink:href="#DejaVuSans-79" transform="translate(245.361328 0)"/>
      <use xlink:href="#DejaVuSans-5f" transform="translate(304.541016 0)"/>
      <use xlink:href="#DejaVuSans-73" transform="translate(354.541016 0)"/>
      <use xlink:href="#DejaVuSans-69" transform="translate(406.640625 0)"/>
      <use xlink:href="#DejaVuSans-6e" transform="translate(434.423828 0)"/>
     </g>
    </g>
    <g id="patch_9">
     <path d="M 675.65 391.35125 
L 691.65 391.35125 
L 691.65 385.75125 
L 675.65 385.75125 
z
" style="fill: #1e88e5"/>
    </g>
    <g id="text_19">
     <!-- scalar_stats -->
     <g style="fill: #e0e0e0" transform="translate(698.05 391.35125) scale(0.08 -0.08)">
      <use xlink:href="#DejaVuSans-73"/>
      <use xlink:href="#DejaVuSans-63" transform="translate(52.099609 0)"/>
      <use xlink:href="#DejaVuSans-61" transform="translate(107.080078 0)"/>
      <use xlink:href="#DejaVuSans-6c" transform="translate(168.359375 0)"/>
      <use xlink:href="#DejaVuSans-61" transform="translate(196.142578 0)"/>
      <use xlink:href="#DejaVuSans-72" transform="translate(257.421875 0)"/>
      <use xlink:href="#DejaVuSans-5f" transform="translate(298.535156 0)"/>
      <use xlink:href="#DejaVuSans-73" transform="translate(348.535156 0)"/>
      <use xlink:href="#DejaVuSans-74" transform="translate(400.634766 0)"/>
      <use xlink:href="#DejaVuSans-61" transform="translate(439.84375 0)"/>
      <use xlink:href="#DejaVuSans-74" transform="translate(501.123047 0)"/>
      <use xlink:href="#DejaVuSans-73" transform="translate(540.332031 0)"/>
     </g>
    </g>
    <g id="patch_10">
     <path d="M 675.65 403.31625 
L 691.65 403.31625 
L 691.65 397.71625 
L 675.65 397.71625 
z
" style="fill: #43a047"/>
    </g>
    <g id="text_20">
     <!-- simd_sum -->
     <g style="fill: #e0e0e0" transform="translate(698.05 403.31625) scale(0.08 -0.08)">
      <use xlink:href="#DejaVuSans-73"/>
      <use xlink:href="#DejaVuSans-69" transform="translate(52.099609 0)"/>
      <use xlink:href="#DejaVuSans-6d" transform="translate(79.882812 0)"/>
      <use xlink:href="#DejaVuSans-64" transform="translate(177.294922 0)"/>
      <use xlink:href="#DejaVuSans-5f" transform="translate(240.771484 0)"/>
      <use xlink:href="#DejaVuSans-73" transform="translate(290.771484 0)"/>
      <use xlink:href="#DejaVuSans-75" transform="translate(342.871094 0)"/>
      <use xlink:href="#DejaVuSans-6d" transform="translate(406.25 0)"/>
     </g>
    </g>
    <g id="line2d_71">
     <path d="M 675.65 412.48125 
L 683.65 412.48125 
L 691.65 412.48125 
" style="fill: none; stroke: #e0e0e0; stroke-width: 1.5; stroke-linecap: square"/>
    </g>
    <g id="text_21">
     <!-- randomized -->
     <g style="fill: #e0e0e0" transform="translate(698.05 415.28125) scale(0.08 -0.08)">
      <use xlink:href="#DejaVuSans-72"/>
      <use xlink:href="#DejaVuSans-61" transform="translate(41.113281 0)"/>
      <use xlink:href="#DejaVuSans-6e" transform="translate(102.392578 0)"/>
      <use xlink:href="#DejaVuSans-64" transform="translate(165.771484 0)"/>
      <use xlink:href="#DejaVuSans-6f" transform="translate(229.248047 0)"/>
      <use xlink:href="#DejaVuSans-6d" transform="translate(290.429688 0)"/>
      <use xlink:href="#DejaVuSans-69" transform="translate(387.841797 0)"/>
      <use xlink:href="#DejaVuSans-7a" transform="translate(415.625 0)"/>
      <use xlink:href="#DejaVuSans-65" transform="translate(468.115234 0)"/>
      <use xlink:href="#DejaVuSans-64" transform="translate(529.638672 0)"/>
     </g>
    </g>
    <g id="line2d_72">
     <path d="M 675.65 424.22375 
L 683.65 424.22375 
L 691.65 424.22375 
" style="fill: none; stroke-dasharray: 1.5,2.475; stroke-dashoffset: 0; stroke: #e0e0e0; stroke-width: 1.5"/>
    </g>
    <g id="text_22">
     <!-- repeated -->
     <g style="fill: #e0e0e0" transform="translate(698.05 427.02375) scale(0.08 -0.08)">
      <use xlink:href="#DejaVuSans-72"/>
      <use xlink:href="#DejaVuSans-65" transform="translate(38.863281 0)"/>
      <use xlink:href="#DejaVuSans-70" transform="translate(100.386719 0)"/>
      <use xlink:href="#DejaVuSans-65" transform="translate(163.863281 0)"/>
      <use xlink:href="#DejaVuSans-61" transform="translate(225.386719 0)"/>
      <use xlink:href="#DejaVuSans-74" transform="translate(286.666016 0)"/>
      <use xlink:href="#DejaVuSans-65" transform="translate(325.875 0)"/>
      <use xlink:href="#DejaVuSans-64" transform="translate(387.398438 0)"/>
     </g>
    </g>
   </g>
  </g>
 </g>
 <defs>
  <clipPath id="pa1e553f873">
   <rect x="47.58125" y="25.8" width="705.11875" height="410.0875"/>
  </clipPath>
 </defs>
</svg>
