<?xml version="1.0" encoding="utf-8" standalone="no"?>
<!DOCTYPE svg PUBLIC "-//W3C//DTD SVG 1.1//EN"
  "http://www.w3.org/Graphics/SVG/1.1/DTD/svg11.dtd">
<svg xmlns:xlink="http://www.w3.org/1999/xlink" width="576pt" height="360pt" viewBox="0 0 576 360" xmlns="http://www.w3.org/2000/svg" version="1.1">
 <metadata>
  <rdf:RDF xmlns:dc="http://purl.org/dc/elements/1.1/" xmlns:cc="http://creativecommons.org/ns#" xmlns:rdf="http://www.w3.org/1999/02/22-rdf-syntax-ns#">
   <cc:Work>
    <dc:type rdf:resource="http://purl.org/dc/dcmitype/StillImage"/>
    <dc:date>2026-04-01T09:32:37.144360</dc:date>
    <dc:format>image/svg+xml</dc:format>
    <dc:creator>
     <cc:Agent>
      <dc:title>Matplotlib v3.10.8, https://matplotlib.org/</dc:title>
     </cc:Agent>
    </dc:creator>
   </cc:Work>
  </rdf:RDF>
 </metadata>
 <defs>
  <style type="text/css">*{stroke-linejoin: round; stroke-linecap: butt}</style>
 </defs>
 <g id="figure_1">
  <g id="patch_1">
   <path d="M 0 360 
L 576 360 
L 576 0 
L 0 0 
z
" style="fill: #121622"/>
  </g>
  <g id="axes_1">
   <g id="patch_2">
    <path d="M 47.855 318.04 
L 565.2 318.04 
L 565.2 26.16 
L 47.855 26.16 
z
" style="fill: #121622"/>
   </g>
   <g id="matplotlib.axis_1">
    <g id="xtick_1">
     <g id="line2d_1">
      <path d="M 100.765284 318.04 
L 100.765284 26.16 
" clip-path="url(#pd291706dce)" style="fill: none; stroke: #30333e; stroke-width: 0.6; stroke-linecap: square"/>
     </g>
     <g id="line2d_2">
      <defs>
       <path id="m3e891f1f9f" d="M 0 0 
L 0 3.5 
" style="stroke: #e0e0e0; stroke-width: 0.8"/>
      </defs>
      <g>
       <use xlink:href="#m3e891f1f9f" x="100.765284" y="318.04" style="fill: #e0e0e0; stroke: #e0e0e0; stroke-width: 0.8"/>
      </g>
     </g>
     <g id="text_1">
      <!-- 64 B -->
      <g style="fill: #e0e0e0" transform="translate(89.383253 332.638438) scale(0.1 -0.1)">
       <defs>
        <path id="DejaVuSans-36" d="M 2113 2584 
Q 1688 2584 1439 2293 
Q 1191 2003 1191 1497 
Q 1191 994 1439 701 
Q 1688 409 2113 409 
Q 2538 409 2786 701 
Q 3034 994 3034 1497 
Q 3034 2003 2786 2293 
Q 2538 2584 2113 2584 
z
M 3366 4563 
L 3366 3988 
Q 3128 4100 2886 4159 
Q 2644 4219 2406 4219 
Q 1781 4219 1451 3797 
Q 1122 3375 1075 2522 
Q 1259 2794 1537 2939 
Q 1816 3084 2150 3084 
Q 2853 3084 3261 2657 
Q 3669 2231 3669 1497 
Q 3669 778 3244 343 
Q 2819 -91 2113 -91 
Q 1303 -91 875 529 
Q 447 1150 447 2328 
Q 447 3434 972 4092 
Q 1497 4750 2381 4750 
Q 2619 4750 2861 4703 
Q 3103 4656 3366 4563 
z
" transform="scale(0.015625)"/>
        <path id="DejaVuSans-34" d="M 2419 4116 
L 825 1625 
L 2419 1625 
L 2419 4116 
z
M 2253 4666 
L 3047 4666 
L 3047 1625 
L 3713 1625 
L 3713 1100 
L 3047 1100 
L 3047 0 
L 2419 0 
L 2419 1100 
L 313 1100 
L 313 1709 
L 2253 4666 
z
" transform="scale(0.015625)"/>
        <path id="DejaVuSans-20" transform="scale(0.015625)"/>
        <path id="DejaVuSans-42" d="M 1259 2228 
L 1259 519 
L 2272 519 
Q 2781 519 3026 730 
Q 3272 941 3272 1375 
Q 3272 1813 3026 2020 
Q 2781 2228 2272 2228 
L 1259 2228 
z
M 1259 4147 
L 1259 2741 
L 2194 2741 
Q 2656 2741 2882 2914 
Q 3109 3088 3109 3444 
Q 3109 3797 2882 3972 
Q 2656 4147 2194 4147 
L 1259 4147 
z
M 628 4666 
L 2241 4666 
Q 2963 4666 3353 4366 
Q 3744 4066 3744 3513 
Q 3744 3084 3544 2831 
Q 3344 2578 2956 2516 
Q 3422 2416 3680 2098 
Q 3938 1781 3938 1306 
Q 3938 681 3513 340 
Q 3088 0 2303 0 
L 628 0 
L 628 4666 
z
" transform="scale(0.015625)"/>
       </defs>
       <use xlink:href="#DejaVuSans-36"/>
       <use xlink:href="#DejaVuSans-34" transform="translate(63.623047 0)"/>
       <use xlink:href="#DejaVuSans-20" transform="translate(127.246094 0)"/>
       <use xlink:href="#DejaVuSans-42" transform="translate(159.033203 0)"/>
      </g>
     </g>
    </g>
    <g id="xtick_2">
     <g id="line2d_3">
      <path d="M 159.554489 318.04 
L 159.554489 26.16 
" clip-path="url(#pd291706dce)" style="fill: none; stroke: #30333e; stroke-width: 0.6; stroke-linecap: square"/>
     </g>
     <g id="line2d_4">
      <g>
       <use xlink:href="#m3e891f1f9f" x="159.554489" y="318.04" style="fill: #e0e0e0; stroke: #e0e0e0; stroke-width: 0.8"/>
      </g>
     </g>
     <g id="text_2">
      <!-- 256 B -->
      <g style="fill: #e0e0e0" transform="translate(144.991207 332.638438) scale(0.1 -0.1)">
       <defs>
        <path id="DejaVuSans-32" d="M 1228 531 
L 3431 531 
L 3431 0 
L 469 0 
L 469 531 
Q 828 903 1448 1529 
Q 2069 2156 2228 2338 
Q 2531 2678 2651 2914 
Q 2772 3150 2772 3378 
Q 2772 3750 2511 3984 
Q 2250 4219 1831 4219 
Q 1534 4219 1204 4116 
Q 875 4013 500 3803 
L 500 4441 
Q 881 4594 1212 4672 
Q 1544 4750 1819 4750 
Q 2544 4750 2975 4387 
Q 3406 4025 3406 3419 
Q 3406 3131 3298 2873 
Q 3191 2616 2906 2266 
Q 2828 2175 2409 1742 
Q 1991 1309 1228 531 
z
" transform="scale(0.015625)"/>
        <path id="DejaVuSans-35" d="M 691 4666 
L 3169 4666 
L 3169 4134 
L 1269 4134 
L 1269 2991 
Q 1406 3038 1543 3061 
Q 1681 3084 1819 3084 
Q 2600 3084 3056 2656 
Q 3513 2228 3513 1497 
Q 3513 744 3044 326 
Q 2575 -91 1722 -91 
Q 1428 -91 1123 -41 
Q 819 9 494 109 
L 494 744 
Q 775 591 1075 516 
Q 1375 441 1709 441 
Q 2250 441 2565 725 
Q 2881 1009 2881 1497 
Q 2881 1984 2565 2268 
Q 2250 2553 1709 2553 
Q 1456 2553 1204 2497 
Q 953 2441 691 2322 
L 691 4666 
z
" transform="scale(0.015625)"/>
       </defs>
       <use xlink:href="#DejaVuSans-32"/>
       <use xlink:href="#DejaVuSans-35" transform="translate(63.623047 0)"/>
       <use xlink:href="#DejaVuSans-36" transform="translate(127.246094 0)"/>
       <use xlink:href="#DejaVuSans-20" transform="translate(190.869141 0)"/>
       <use xlink:href="#DejaVuSans-42" transform="translate(222.65625 0)"/>
      </g>
     </g>
    </g>
    <g id="xtick_3">
     <g id="line2d_5">
      <path d="M 218.343693 318.04 
L 218.343693 26.16 
" clip-path="url(#pd291706dce)" style="fill: none; stroke: #30333e; stroke-width: 0.6; stroke-linecap: square"/>
     </g>
     <g id="line2d_6">
      <g>
       <use xlink:href="#m3e891f1f9f" x="218.343693" y="318.04" style="fill: #e0e0e0; stroke: #e0e0e0; stroke-width: 0.8"/>
      </g>
     </g>
     <g id="text_3">
      <!-- 1 KB -->
      <g style="fill: #e0e0e0" transform="translate(206.864006 332.638438) scale(0.1 -0.1)">
       <defs>
        <path id="DejaVuSans-31" d="M 794 531 
L 1825 531 
L 1825 4091 
L 703 3866 
L 703 4441 
L 1819 4666 
L 2450 4666 
L 2450 531 
L 3481 531 
L 3481 0 
L 794 0 
L 794 531 
z
" transform="scale(0.015625)"/>
        <path id="DejaVuSans-4b" d="M 628 4666 
L 1259 4666 
L 1259 2694 
L 3353 4666 
L 4166 4666 
L 1850 2491 
L 4331 0 
L 3500 0 
L 1259 2247 
L 1259 0 
L 628 0 
L 628 4666 
z
" transform="scale(0.015625)"/>
       </defs>
       <use xlink:href="#DejaVuSans-31"/>
       <use xlink:href="#DejaVuSans-20" transform="translate(63.623047 0)"/>
       <use xlink:href="#DejaVuSans-4b" transform="translate(95.410156 0)"/>
       <use xlink:href="#DejaVuSans-42" transform="translate(160.986328 0)"/>
      </g>
     </g>
    </g>
    <g id="xtick_4">
     <g id="line2d_7">
      <path d="M 277.132898 318.04 
L 277.132898 26.16 
" clip-path="url(#pd291706dce)" style="fill: none; stroke: #30333e; stroke-width: 0.6; stroke-linecap: square"/>
     </g>
     <g id="line2d_8">
      <g>
       <use xlink:href="#m3e891f1f9f" x="277.132898" y="318.04" style="fill: #e0e0e0; stroke: #e0e0e0; stroke-width: 0.8"/>
      </g>
     </g>
     <g id="text_4">
      <!-- 4 KB -->
      <g style="fill: #e0e0e0" transform="translate(265.65321 332.638438) scale(0.1 -0.1)">
       <use xlink:href="#DejaVuSans-34"/>
       <use xlink:href="#DejaVuSans-20" transform="translate(63.623047 0)"/>
       <use xlink:href="#DejaVuSans-4b" transform="translate(95.410156 0)"/>
       <use xlink:href="#DejaVuSans-42" transform="translate(160.986328 0)"/>
      </g>
     </g>
    </g>
    <g id="xtick_5">
     <g id="line2d_9">
      <path d="M 335.922102 318.04 
L 335.922102 26.16 
" clip-path="url(#pd291706dce)" style="fill: none; stroke: #30333e; stroke-width: 0.6; stroke-linecap: square"/>
     </g>
     <g id="line2d_10">
      <g>
       <use xlink:href="#m3e891f1f9f" x="335.922102" y="318.04" style="fill: #e0e0e0; stroke: #e0e0e0; stroke-width: 0.8"/>
      </g>
     </g>
     <g id="text_5">
      <!-- 16 KB -->
      <g style="fill: #e0e0e0" transform="translate(321.261165 332.638438) scale(0.1 -0.1)">
       <use xlink:href="#DejaVuSans-31"/>
       <use xlink:href="#DejaVuSans-36" transform="translate(63.623047 0)"/>
       <use xlink:href="#DejaVuSans-20" transform="translate(127.246094 0)"/>
       <use xlink:href="#DejaVuSans-4b" transform="translate(159.033203 0)"/>
       <use xlink:href="#DejaVuSans-42" transform="translate(224.609375 0)"/>
      </g>
     </g>
    </g>
    <g id="xtick_6">
     <g id="line2d_11">
      <path d="M 394.711307 318.04 
L 394.711307 26.16 
" clip-path="url(#pd291706dce)" style="fill: none; stroke: #30333e; stroke-width: 0.6; stroke-linecap: square"/>
     </g>
     <g id="line2d_12">
      <g>
       <use xlink:href="#m3e891f1f9f" x="394.711307" y="318.04" style="fill: #e0e0e0; stroke: #e0e0e0; stroke-width: 0.8"/>
      </g>
     </g>
     <g id="text_6">
      <!-- 64 KB -->
      <g style="fill: #e0e0e0" transform="translate(380.050369 332.638438) scale(0.1 -0.1)">
       <use xlink:href="#DejaVuSans-36"/>
       <use xlink:href="#DejaVuSans-34" transform="translate(63.623047 0)"/>
       <use xlink:href="#DejaVuSans-20" transform="translate(127.246094 0)"/>
       <use xlink:href="#DejaVuSans-4b" transform="translate(159.033203 0)"/>
       <use xlink:href="#DejaVuSans-42" transform="translate(224.609375 0)"/>
      </g>
     </g>
    </g>
    <g id="xtick_7">
     <g id="line2d_13">
      <path d="M 453.500511 318.04 
L 453.500511 26.16 
" clip-path="url(#pd291706dce)" style="fill: none; stroke: #30333e; stroke-width: 0.6; stroke-linecap: square"/>
     </g>
     <g id="line2d_14">
      <g>
       <use xlink:href="#m3e891f1f9f" x="453.500511" y="318.04" style="fill: #e0e0e0; stroke: #e0e0e0; stroke-width: 0.8"/>
      </g>
     </g>
     <g id="text_7">
      <!-- 256 KB -->
      <g style="fill: #e0e0e0" transform="translate(435.658324 332.638438) scale(0.1 -0.1)">
       <use xlink:href="#DejaVuSans-32"/>
       <use xlink:href="#DejaVuSans-35" transform="translate(63.623047 0)"/>
       <use xlink:href="#DejaVuSans-36" transform="translate(127.246094 0)"/>
       <use xlink:href="#DejaVuSans-20" transform="translate(190.869141 0)"/>
       <use xlink:href="#DejaVuSans-4b" transform="translate(222.65625 0)"/>
       <use xlink:href="#DejaVuSans-42" transform="translate(288.232422 0)"/>
      </g>
     </g>
    </g>
    <g id="xtick_8">
     <g id="line2d_15">
      <path d="M 512.289716 318.04 
L 512.289716 26.16 
" clip-path="url(#pd291706dce)" style="fill: none; stroke: #30333e; stroke-width: 0.6; stroke-linecap: square"/>
     </g>
     <g id="line2d_16">
      <g>
       <use xlink:href="#m3e891f1f9f" x="512.289716" y="318.04" style="fill: #e0e0e0; stroke: #e0e0e0; stroke-width: 0.8"/>
      </g>
     </g>
     <g id="text_8">
      <!-- 1 MB -->
      <g style="fill: #e0e0e0" transform="translate(499.774872 332.638438) scale(0.1 -0.1)">
       <defs>
        <path id="DejaVuSans-4d" d="M 628 4666 
L 1569 4666 
L 2759 1491 
L 3956 4666 
L 4897 4666 
L 4897 0 
L 4281 0 
L 4281 4097 
L 3078 897 
L 2444 897 
L 1241 4097 
L 1241 0 
L 628 0 
L 628 4666 
z
" transform="scale(0.015625)"/>
       </defs>
       <use xlink:href="#DejaVuSans-31"/>
       <use xlink:href="#DejaVuSans-20" transform="translate(63.623047 0)"/>
       <use xlink:href="#DejaVuSans-4d" transform="translate(95.410156 0)"/>
       <use xlink:href="#DejaVuSans-42" transform="translate(181.689453 0)"/>
      </g>
     </g>
    </g>
    <g id="text_9">
     <!-- Block size -->
     <g style="fill: #e0e0e0" transform="translate(281.720469 346.316563) scale(0.1 -0.1)">
      <defs>
       <path id="DejaVuSans-6c" d="M 603 4863 
L 1178 4863 
L 1178 0 
L 603 0 
L 603 4863 
z
" transform="scale(0.015625)"/>
       <path id="DejaVuSans-6f" d="M 1959 3097 
Q 1497 3097 1228 2736 
Q 959 2375 959 1747 
Q 959 1119 1226 758 
Q 1494 397 1959 397 
Q 2419 397 2687 759 
Q 2956 1122 2956 1747 
Q 2956 2369 2687 2733 
Q 2419 3097 1959 3097 
z
M 1959 3584 
Q 2709 3584 3137 3096 
Q 3566 2609 3566 1747 
Q 3566 888 3137 398 
Q 2709 -91 1959 -91 
Q 1206 -91 779 398 
Q 353 888 353 1747 
Q 353 2609 779 3096 
Q 1206 3584 1959 3584 
z
" transform="scale(0.015625)"/>
       <path id="DejaVuSans-63" d="M 3122 3366 
L 3122 2828 
Q 2878 2963 2633 3030 
Q 2388 3097 2138 3097 
Q 1578 3097 1268 2742 
Q 959 2388 959 1747 
Q 959 1106 1268 751 
Q 1578 397 2138 397 
Q 2388 397 2633 464 
Q 2878 531 3122 666 
L 3122 134 
Q 2881 22 2623 -34 
Q 2366 -91 2075 -91 
Q 1284 -91 818 406 
Q 353 903 353 1747 
Q 353 2603 823 3093 
Q 1294 3584 2113 3584 
Q 2378 3584 2631 3529 
Q 2884 3475 3122 3366 
z
" transform="scale(0.015625)"/>
       <path id="DejaVuSans-6b" d="M 581 4863 
L 1159 4863 
L 1159 1991 
L 2875 3500 
L 3609 3500 
L 1753 1863 
L 3688 0 
L 2938 0 
L 1159 1709 
L 1159 0 
L 581 0 
L 581 4863 
z
" transform="scale(0.015625)"/>
       <path id="DejaVuSans-73" d="M 2834 3397 
L 2834 2853 
Q 2591 2978 2328 3040 
Q 2066 3103 1784 3103 
Q 1356 3103 1142 2972 
Q 928 2841 928 2578 
Q 928 2378 1081 2264 
Q 1234 2150 1697 2047 
L 1894 2003 
Q 2506 1872 2764 1633 
Q 3022 1394 3022 966 
Q 3022 478 2636 193 
Q 2250 -91 1575 -91 
Q 1294 -91 989 -36 
Q 684 19 347 128 
L 347 722 
Q 666 556 975 473 
Q 1284 391 1588 391 
Q 1994 391 2212 530 
Q 2431 669 2431 922 
Q 2431 1156 2273 1281 
Q 2116 1406 1581 1522 
L 1381 1569 
Q 847 1681 609 1914 
Q 372 2147 372 2553 
Q 372 3047 722 3315 
Q 1072 3584 1716 3584 
Q 2034 3584 2315 3537 
Q 2597 3491 2834 3397 
z
" transform="scale(0.015625)"/>
       <path id="DejaVuSans-69" d="M 603 3500 
L 1178 3500 
L 1178 0 
L 603 0 
L 603 3500 
z
M 603 4863 
L 1178 4863 
L 1178 4134 
L 603 4134 
L 603 4863 
z
" transform="scale(0.015625)"/>
       <path id="DejaVuSans-7a" d="M 353 3500 
L 3084 3500 
L 3084 2975 
L 922 459 
L 3084 459 
L 3084 0 
L 275 0 
L 275 525 
L 2438 3041 
L 353 3041 
L 353 3500 
z
" transform="scale(0.015625)"/>
       <path id="DejaVuSans-65" d="M 3597 1894 
L 3597 1613 
L 953 1613 
Q 991 1019 1311 708 
Q 1631 397 2203 397 
Q 2534 397 2845 478 
Q 3156 559 3463 722 
L 3463 178 
Q 3153 47 2828 -22 
Q 2503 -91 2169 -91 
Q 1331 -91 842 396 
Q 353 884 353 1716 
Q 353 2575 817 3079 
Q 1281 3584 2069 3584 
Q 2775 3584 3186 3129 
Q 3597 2675 3597 1894 
z
M 3022 2063 
Q 3016 2534 2758 2815 
Q 2500 3097 2075 3097 
Q 1594 3097 1305 2825 
Q 1016 2553 972 2059 
L 3022 2063 
z
" transform="scale(0.015625)"/>
      </defs>
      <use xlink:href="#DejaVuSans-42"/>
      <use xlink:href="#DejaVuSans-6c" transform="translate(68.603516 0)"/>
      <use xlink:href="#DejaVuSans-6f" transform="translate(96.386719 0)"/>
      <use xlink:href="#DejaVuSans-63" transform="translate(157.568359 0)"/>
      <use xlink:href="#DejaVuSans-6b" transform="translate(212.548828 0)"/>
      <use xlink:href="#DejaVuSans-20" transform="translate(270.458984 0)"/>
      <use xlink:href="#DejaVuSans-73" transform="translate(302.246094 0)"/>
      <use xlink:href="#DejaVuSans-69" transform="translate(354.345703 0)"/>
      <use xlink:href="#DejaVuSans-7a" transform="translate(382.128906 0)"/>
      <use xlink:href="#DejaVuSans-65" transform="translate(434.619141 0)"/>
     </g>
    </g>
   </g>
   <g id="matplotlib.axis_2">
    <g id="ytick_1">
     <g id="line2d_17">
      <path d="M 47.855 318.04 
L 565.2 318.04 
" clip-path="url(#pd291706dce)" style="fill: none; stroke: #30333e; stroke-width: 0.6; stroke-linecap: square"/>
     </g>
     <g id="line2d_18">
      <defs>
       <path id="m3ac3085d5b" d="M 0 0 
L -3.5 0 
" style="stroke: #e0e0e0; stroke-width: 0.8"/>
      </defs>
      <g>
       <use xlink:href="#m3ac3085d5b" x="47.855" y="318.04" style="fill: #e0e0e0; stroke: #e0e0e0; stroke-width: 0.8"/>
      </g>
     </g>
     <g id="text_10">
      <!-- 0.0 -->
      <g style="fill: #e0e0e0" transform="translate(24.951875 321.839219) scale(0.1 -0.1)">
       <defs>
        <path id="DejaVuSans-30" d="M 2034 4250 
Q 1547 4250 1301 3770 
Q 1056 3291 1056 2328 
Q 1056 1369 1301 889 
Q 1547 409 2034 409 
Q 2525 409 2770 889 
Q 3016 1369 3016 2328 
Q 3016 3291 2770 3770 
Q 2525 4250 2034 4250 
z
M 2034 4750 
Q 2819 4750 3233 4129 
Q 3647 3509 3647 2328 
Q 3647 1150 3233 529 
Q 2819 -91 2034 -91 
Q 1250 -91 836 529 
Q 422 1150 422 2328 
Q 422 3509 836 4129 
Q 1250 4750 2034 4750 
z
" transform="scale(0.015625)"/>
        <path id="DejaVuSans-2e" d="M 684 794 
L 1344 794 
L 1344 0 
L 684 0 
L 684 794 
z
" transform="scale(0.015625)"/>
       </defs>
       <use xlink:href="#DejaVuSans-30"/>
       <use xlink:href="#DejaVuSans-2e" transform="translate(63.623047 0)"/>
       <use xlink:href="#DejaVuSans-30" transform="translate(95.410156 0)"/>
      </g>
     </g>
    </g>
    <g id="ytick_2">
     <g id="line2d_19">
      <path d="M 47.855 262.44381 
L 565.2 262.44381 
" clip-path="url(#pd291706dce)" style="fill: none; stroke: #30333e; stroke-width: 0.6; stroke-linecap: square"/>
     </g>
     <g id="line2d_20">
      <g>
       <use xlink:href="#m3ac3085d5b" x="47.855" y="262.44381" style="fill: #e0e0e0; stroke: #e0e0e0; stroke-width: 0.8"/>
      </g>
     </g>
     <g id="text_11">
      <!-- 0.2 -->
      <g style="fill: #e0e0e0" transform="translate(24.951875 266.243028) scale(0.1 -0.1)">
       <use xlink:href="#DejaVuSans-30"/>
       <use xlink:href="#DejaVuSans-2e" transform="translate(63.623047 0)"/>
       <use xlink:href="#DejaVuSans-32" transform="translate(95.410156 0)"/>
      </g>
     </g>
    </g>
    <g id="ytick_3">
     <g id="line2d_21">
      <path d="M 47.855 206.847619 
L 565.2 206.847619 
" clip-path="url(#pd291706dce)" style="fill: none; stroke: #30333e; stroke-width: 0.6; stroke-linecap: square"/>
     </g>
     <g id="line2d_22">
      <g>
       <use xlink:href="#m3ac3085d5b" x="47.855" y="206.847619" style="fill: #e0e0e0; stroke: #e0e0e0; stroke-width: 0.8"/>
      </g>
     </g>
     <g id="text_12">
      <!-- 0.4 -->
      <g style="fill: #e0e0e0" transform="translate(24.951875 210.646838) scale(0.1 -0.1)">
       <use xlink:href="#DejaVuSans-30"/>
       <use xlink:href="#DejaVuSans-2e" transform="translate(63.623047 0)"/>
       <use xlink:href="#DejaVuSans-34" transform="translate(95.410156 0)"/>
      </g>
     </g>
    </g>
    <g id="ytick_4">
     <g id="line2d_23">
      <path d="M 47.855 151.251429 
L 565.2 151.251429 
" clip-path="url(#pd291706dce)" style="fill: none; stroke: #30333e; stroke-width: 0.6; stroke-linecap: square"/>
     </g>
     <g id="line2d_24">
      <g>
       <use xlink:href="#m3ac3085d5b" x="47.855" y="151.251429" style="fill: #e0e0e0; stroke: #e0e0e0; stroke-width: 0.8"/>
      </g>
     </g>
     <g id="text_13">
      <!-- 0.6 -->
      <g style="fill: #e0e0e0" transform="translate(24.951875 155.050647) scale(0.1 -0.1)">
       <use xlink:href="#DejaVuSans-30"/>
       <use xlink:href="#DejaVuSans-2e" transform="translate(63.623047 0)"/>
       <use xlink:href="#DejaVuSans-36" transform="translate(95.410156 0)"/>
      </g>
     </g>
    </g>
    <g id="ytick_5">
     <g id="line2d_25">
      <path d="M 47.855 95.655238 
L 565.2 95.655238 
" clip-path="url(#pd291706dce)" style="fill: none; stroke: #30333e; stroke-width: 0.6; stroke-linecap: square"/>
     </g>
     <g id="line2d_26">
      <g>
       <use xlink:href="#m3ac3085d5b" x="47.855" y="95.655238" style="fill: #e0e0e0; stroke: #e0e0e0; stroke-width: 0.8"/>
      </g>
     </g>
     <g id="text_14">
      <!-- 0.8 -->
      <g style="fill: #e0e0e0" transform="translate(24.951875 99.454457) scale(0.1 -0.1)">
       <defs>
        <path id="DejaVuSans-38" d="M 2034 2216 
Q 1584 2216 1326 1975 
Q 1069 1734 1069 1313 
Q 1069 891 1326 650 
Q 1584 409 2034 409 
Q 2484 409 2743 651 
Q 3003 894 3003 1313 
Q 3003 1734 2745 1975 
Q 2488 2216 2034 2216 
z
M 1403 2484 
Q 997 2584 770 2862 
Q 544 3141 544 3541 
Q 544 4100 942 4425 
Q 1341 4750 2034 4750 
Q 2731 4750 3128 4425 
Q 3525 4100 3525 3541 
Q 3525 3141 3298 2862 
Q 3072 2584 2669 2484 
Q 3125 2378 3379 2068 
Q 3634 1759 3634 1313 
Q 3634 634 3220 271 
Q 2806 -91 2034 -91 
Q 1263 -91 848 271 
Q 434 634 434 1313 
Q 434 1759 690 2068 
Q 947 2378 1403 2484 
z
M 1172 3481 
Q 1172 3119 1398 2916 
Q 1625 2713 2034 2713 
Q 2441 2713 2670 2916 
Q 2900 3119 2900 3481 
Q 2900 3844 2670 4047 
Q 2441 4250 2034 4250 
Q 1625 4250 1398 4047 
Q 1172 3844 1172 3481 
z
" transform="scale(0.015625)"/>
       </defs>
       <use xlink:href="#DejaVuSans-30"/>
       <use xlink:href="#DejaVuSans-2e" transform="translate(63.623047 0)"/>
       <use xlink:href="#DejaVuSans-38" transform="translate(95.410156 0)"/>
      </g>
     </g>
    </g>
    <g id="ytick_6">
     <g id="line2d_27">
      <path d="M 47.855 40.059048 
L 565.2 40.059048 
" clip-path="url(#pd291706dce)" style="fill: none; stroke: #30333e; stroke-width: 0.6; stroke-linecap: square"/>
     </g>
     <g id="line2d_28">
      <g>
       <use xlink:href="#m3ac3085d5b" x="47.855" y="40.059048" style="fill: #e0e0e0; stroke: #e0e0e0; stroke-width: 0.8"/>
      </g>
     </g>
     <g id="text_15">
      <!-- 1.0 -->
      <g style="fill: #e0e0e0" transform="translate(24.951875 43.858266) scale(0.1 -0.1)">
       <use xlink:href="#DejaVuSans-31"/>
       <use xlink:href="#DejaVuSans-2e" transform="translate(63.623047 0)"/>
       <use xlink:href="#DejaVuSans-30" transform="translate(95.410156 0)"/>
      </g>
     </g>
    </g>
    <g id="text_16">
     <!-- Normalized throughput -->
     <g style="fill: #e0e0e0" transform="translate(18.872187 229.990625) rotate(-90) scale(0.1 -0.1)">
      <defs>
       <path id="DejaVuSans-4e" d="M 628 4666 
L 1478 4666 
L 3547 763 
L 3547 4666 
L 4159 4666 
L 4159 0 
L 3309 0 
L 1241 3903 
L 1241 0 
L 628 0 
L 628 4666 
z
" transform="scale(0.015625)"/>
       <path id="DejaVuSans-72" d="M 2631 2963 
Q 2534 3019 2420 3045 
Q 2306 3072 2169 3072 
Q 1681 3072 1420 2755 
Q 1159 2438 1159 1844 
L 1159 0 
L 581 0 
L 581 3500 
L 1159 3500 
L 1159 2956 
Q 1341 3275 1631 3429 
Q 1922 3584 2338 3584 
Q 2397 3584 2469 3576 
Q 2541 3569 2628 3553 
L 2631 2963 
z
" transform="scale(0.015625)"/>
       <path id="DejaVuSans-6d" d="M 3328 2828 
Q 3544 3216 3844 3400 
Q 4144 3584 4550 3584 
Q 5097 3584 5394 3201 
Q 5691 2819 5691 2113 
L 5691 0 
L 5113 0 
L 5113 2094 
Q 5113 2597 4934 2840 
Q 4756 3084 4391 3084 
Q 3944 3084 3684 2787 
Q 3425 2491 3425 1978 
L 3425 0 
L 2847 0 
L 2847 2094 
Q 2847 2600 2669 2842 
Q 2491 3084 2119 3084 
Q 1678 3084 1418 2786 
Q 1159 2488 1159 1978 
L 1159 0 
L 581 0 
L 581 3500 
L 1159 3500 
L 1159 2956 
Q 1356 3278 1631 3431 
Q 1906 3584 2284 3584 
Q 2666 3584 2933 3390 
Q 3200 3197 3328 2828 
z
" transform="scale(0.015625)"/>
       <path id="DejaVuSans-61" d="M 2194 1759 
Q 1497 1759 1228 1600 
Q 959 1441 959 1056 
Q 959 750 1161 570 
Q 1363 391 1709 391 
Q 2188 391 2477 730 
Q 2766 1069 2766 1631 
L 2766 1759 
L 2194 1759 
z
M 3341 1997 
L 3341 0 
L 2766 0 
L 2766 531 
Q 2569 213 2275 61 
Q 1981 -91 1556 -91 
Q 1019 -91 701 211 
Q 384 513 384 1019 
Q 384 1609 779 1909 
Q 1175 2209 1959 2209 
L 2766 2209 
L 2766 2266 
Q 2766 2663 2505 2880 
Q 2244 3097 1772 3097 
Q 1472 3097 1187 3025 
Q 903 2953 641 2809 
L 641 3341 
Q 956 3463 1253 3523 
Q 1550 3584 1831 3584 
Q 2591 3584 2966 3190 
Q 3341 2797 3341 1997 
z
" transform="scale(0.015625)"/>
       <path id="DejaVuSans-64" d="M 2906 2969 
L 2906 4863 
L 3481 4863 
L 3481 0 
L 2906 0 
L 2906 525 
Q 2725 213 2448 61 
Q 2172 -91 1784 -91 
Q 1150 -91 751 415 
Q 353 922 353 1747 
Q 353 2572 751 3078 
Q 1150 3584 1784 3584 
Q 2172 3584 2448 3432 
Q 2725 3281 2906 2969 
z
M 947 1747 
Q 947 1113 1208 752 
Q 1469 391 1925 391 
Q 2381 391 2643 752 
Q 2906 1113 2906 1747 
Q 2906 2381 2643 2742 
Q 2381 3103 1925 3103 
Q 1469 3103 1208 2742 
Q 947 2381 947 1747 
z
" transform="scale(0.015625)"/>
       <path id="DejaVuSans-74" d="M 1172 4494 
L 1172 3500 
L 2356 3500 
L 2356 3053 
L 1172 3053 
L 1172 1153 
Q 1172 725 1289 603 
Q 1406 481 1766 481 
L 2356 481 
L 2356 0 
L 1766 0 
Q 1100 0 847 248 
Q 594 497 594 1153 
L 594 3053 
L 172 3053 
L 172 3500 
L 594 3500 
L 594 4494 
L 1172 4494 
z
" transform="scale(0.015625)"/>
       <path id="DejaVuSans-68" d="M 3513 2113 
L 3513 0 
L 2938 0 
L 2938 2094 
Q 2938 2591 2744 2837 
Q 2550 3084 2163 3084 
Q 1697 3084 1428 2787 
Q 1159 2491 1159 1978 
L 1159 0 
L 581 0 
L 581 4863 
L 1159 4863 
L 1159 2956 
Q 1366 3272 1645 3428 
Q 1925 3584 2291 3584 
Q 2894 3584 3203 3211 
Q 3513 2838 3513 2113 
z
" transform="scale(0.015625)"/>
       <path id="DejaVuSans-75" d="M 544 1381 
L 544 3500 
L 1119 3500 
L 1119 1403 
Q 1119 906 1312 657 
Q 1506 409 1894 409 
Q 2359 409 2629 706 
Q 2900 1003 2900 1516 
L 2900 3500 
L 3475 3500 
L 3475 0 
L 2900 0 
L 2900 538 
Q 2691 219 2414 64 
Q 2138 -91 1772 -91 
Q 1169 -91 856 284 
Q 544 659 544 1381 
z
M 1991 3584 
L 1991 3584 
z
" transform="scale(0.015625)"/>
       <path id="DejaVuSans-67" d="M 2906 1791 
Q 2906 2416 2648 2759 
Q 2391 3103 1925 3103 
Q 1463 3103 1205 2759 
Q 947 2416 947 1791 
Q 947 1169 1205 825 
Q 1463 481 1925 481 
Q 2391 481 2648 825 
Q 2906 1169 2906 1791 
z
M 3481 434 
Q 3481 -459 3084 -895 
Q 2688 -1331 1869 -1331 
Q 1566 -1331 1297 -1286 
Q 1028 -1241 775 -1147 
L 775 -588 
Q 1028 -725 1275 -790 
Q 1522 -856 1778 -856 
Q 2344 -856 2625 -561 
Q 2906 -266 2906 331 
L 2906 616 
Q 2728 306 2450 153 
Q 2172 0 1784 0 
Q 1141 0 747 490 
Q 353 981 353 1791 
Q 353 2603 747 3093 
Q 1141 3584 1784 3584 
Q 2172 3584 2450 3431 
Q 2728 3278 2906 2969 
L 2906 3500 
L 3481 3500 
L 3481 434 
z
" transform="scale(0.015625)"/>
       <path id="DejaVuSans-70" d="M 1159 525 
L 1159 -1331 
L 581 -1331 
L 581 3500 
L 1159 3500 
L 1159 2969 
Q 1341 3281 1617 3432 
Q 1894 3584 2278 3584 
Q 2916 3584 3314 3078 
Q 3713 2572 3713 1747 
Q 3713 922 3314 415 
Q 2916 -91 2278 -91 
Q 1894 -91 1617 61 
Q 1341 213 1159 525 
z
M 3116 1747 
Q 3116 2381 2855 2742 
Q 2594 3103 2138 3103 
Q 1681 3103 1420 2742 
Q 1159 2381 1159 1747 
Q 1159 1113 1420 752 
Q 1681 391 2138 391 
Q 2594 391 2855 752 
Q 3116 1113 3116 1747 
z
" transform="scale(0.015625)"/>
      </defs>
      <use xlink:href="#DejaVuSans-4e"/>
      <use xlink:href="#DejaVuSans-6f" transform="translate(74.804688 0)"/>
      <use xlink:href="#DejaVuSans-72" transform="translate(135.986328 0)"/>
      <use xlink:href="#DejaVuSans-6d" transform="translate(175.349609 0)"/>
      <use xlink:href="#DejaVuSans-61" transform="translate(272.761719 0)"/>
      <use xlink:href="#DejaVuSans-6c" transform="translate(334.041016 0)"/>
      <use xlink:href="#DejaVuSans-69" transform="translate(361.824219 0)"/>
      <use xlink:href="#DejaVuSans-7a" transform="translate(389.607422 0)"/>
      <use xlink:href="#DejaVuSans-65" transform="translate(442.097656 0)"/>
      <use xlink:href="#DejaVuSans-64" transform="translate(503.621094 0)"/>
      <use xlink:href="#DejaVuSans-20" transform="translate(567.097656 0)"/>
      <use xlink:href="#DejaVuSans-74" transform="translate(598.884766 0)"/>
      <use xlink:href="#DejaVuSans-68" transform="translate(638.09375 0)"/>
      <use xlink:href="#DejaVuSans-72" transform="translate(701.472656 0)"/>
      <use xlink:href="#DejaVuSans-6f" transform="translate(740.335938 0)"/>
      <use xlink:href="#DejaVuSans-75" transform="translate(801.517578 0)"/>
      <use xlink:href="#DejaVuSans-67" transform="translate(864.896484 0)"/>
      <use xlink:href="#DejaVuSans-68" transform="translate(928.373047 0)"/>
      <use xlink:href="#DejaVuSans-70" transform="translate(991.751953 0)"/>
      <use xlink:href="#DejaVuSans-75" transform="translate(1055.228516 0)"/>
      <use xlink:href="#DejaVuSans-74" transform="translate(1118.607422 0)"/>
     </g>
    </g>
   </g>
   <g id="line2d_29">
    <path d="M 71.370682 50.398926 
L 100.765284 50.153222 
L 130.159886 51.887058 
L 159.554489 40.059048 
L 188.949091 51.820257 
L 218.343693 51.723707 
L 247.738295 50.599232 
L 277.132898 51.488937 
L 306.5275 52.349504 
L 335.922102 52.81561 
L 365.316705 50.871894 
L 394.711307 51.744933 
L 424.105909 51.797983 
L 453.500511 53.262248 
L 482.895114 53.520086 
L 512.289716 53.362927 
" clip-path="url(#pd291706dce)" style="fill: none; stroke-dasharray: 1.2,1.98; stroke-dashoffset: 0; stroke: #ffcc80; stroke-opacity: 0.85; stroke-width: 1.2"/>
   </g>
   <g id="line2d_30">
    <path d="M 71.370682 45.642277 
L 100.765284 45.538109 
L 130.159886 45.476764 
L 159.554489 47.256947 
L 188.949091 40.863805 
L 218.343693 44.771766 
L 247.738295 44.926142 
L 277.132898 44.416529 
L 306.5275 40.059048 
L 335.922102 46.857092 
L 365.316705 47.076219 
L 394.711307 46.293689 
L 424.105909 46.924264 
L 453.500511 46.081943 
L 482.895114 46.201361 
L 512.289716 42.619194 
L 541.684318 45.162006 
" clip-path="url(#pd291706dce)" style="fill: none; stroke-dasharray: 1.2,1.98; stroke-dashoffset: 0; stroke: #fcbc6b; stroke-opacity: 0.85; stroke-width: 1.2"/>
   </g>
   <g id="line2d_31">
    <path d="M 71.370682 50.961942 
L 100.765284 47.844482 
L 130.159886 44.293257 
L 159.554489 41.417578 
L 188.949091 44.038157 
L 218.343693 44.707458 
L 247.738295 44.726379 
L 277.132898 44.934331 
L 306.5275 45.117714 
L 335.922102 44.95322 
L 365.316705 45.435353 
L 394.711307 44.545176 
L 424.105909 45.303542 
L 453.500511 44.804735 
L 482.895114 44.842547 
L 512.289716 44.937029 
L 541.684318 40.059048 
" clip-path="url(#pd291706dce)" style="fill: none; stroke-dasharray: 1.2,1.98; stroke-dashoffset: 0; stroke: #faac55; stroke-opacity: 0.85; stroke-width: 1.2"/>
   </g>
   <g id="line2d_32">
    <path d="M 71.370682 64.780999 
L 100.765284 64.599992 
L 130.159886 48.051817 
L 159.554489 44.065869 
L 188.949091 44.523514 
L 218.343693 42.765391 
L 247.738295 43.220604 
L 277.132898 40.059048 
L 306.5275 42.629215 
L 335.922102 42.271792 
L 365.316705 49.624263 
L 394.711307 49.514219 
L 424.105909 42.875596 
L 453.500511 42.398769 
L 482.895114 42.827988 
L 512.289716 42.874236 
L 541.684318 42.91503 
" clip-path="url(#pd291706dce)" style="fill: none; stroke-dasharray: 1.2,1.98; stroke-dashoffset: 0; stroke: #f79c40; stroke-opacity: 0.85; stroke-width: 1.2"/>
   </g>
   <g id="line2d_33">
    <path d="M 71.370682 72.102786 
L 100.765284 67.827264 
L 130.159886 58.501834 
L 159.554489 48.887399 
L 188.949091 42.310016 
L 218.343693 41.47512 
L 247.738295 42.442483 
L 277.132898 41.302902 
L 306.5275 40.381687 
L 335.922102 41.051338 
L 365.316705 40.650893 
L 394.711307 43.863189 
L 424.105909 43.763534 
L 453.500511 40.799316 
L 482.895114 40.059048 
L 512.289716 41.05475 
L 541.684318 40.783592 
" clip-path="url(#pd291706dce)" style="fill: none; stroke-dasharray: 1.2,1.98; stroke-dashoffset: 0; stroke: #f48c2b; stroke-opacity: 0.85; stroke-width: 1.2"/>
   </g>
   <g id="line2d_34">
    <path d="M 71.370682 65.188004 
L 100.765284 66.528123 
L 130.159886 57.84978 
L 159.554489 50.505246 
L 188.949091 45.110768 
L 218.343693 45.217075 
L 247.738295 43.764375 
L 277.132898 42.27414 
L 306.5275 40.646184 
L 335.922102 40.887587 
L 365.316705 40.593813 
L 394.711307 42.155711 
L 424.105909 40.561628 
L 453.500511 40.709824 
L 482.895114 40.759074 
L 512.289716 40.164517 
L 541.684318 40.059048 
" clip-path="url(#pd291706dce)" style="fill: none; stroke-dasharray: 1.2,1.98; stroke-dashoffset: 0; stroke: #f27c15; stroke-opacity: 0.85; stroke-width: 1.2"/>
   </g>
   <g id="line2d_35">
    <path d="M 71.370682 63.988887 
L 100.765284 65.265346 
L 130.159886 58.150155 
L 159.554489 50.952629 
L 188.949091 46.749864 
L 218.343693 46.048613 
L 247.738295 43.886057 
L 277.132898 43.321515 
L 306.5275 42.609175 
L 335.922102 42.312688 
L 365.316705 41.826768 
L 394.711307 41.741641 
L 424.105909 41.200713 
L 453.500511 41.00909 
L 482.895114 40.842916 
L 512.289716 40.851486 
L 541.684318 40.059048 
" clip-path="url(#pd291706dce)" style="fill: none; stroke-dasharray: 1.2,1.98; stroke-dashoffset: 0; stroke: #ef6c00; stroke-opacity: 0.85; stroke-width: 1.2"/>
   </g>
   <g id="line2d_36">
    <path d="M 71.370682 71.363425 
L 100.765284 73.184586 
L 130.159886 59.882937 
L 159.554489 53.413278 
L 188.949091 50.944477 
L 218.343693 47.704634 
L 247.738295 57.787982 
L 277.132898 46.975133 
L 306.5275 42.853541 
L 335.922102 43.605363 
L 365.316705 43.936757 
L 394.711307 49.194311 
L 424.105909 42.379383 
L 453.500511 40.059048 
L 482.895114 42.021328 
L 512.289716 41.853408 
" clip-path="url(#pd291706dce)" style="fill: none; stroke: #ffcc80; stroke-opacity: 0.85; stroke-width: 1.2; stroke-linecap: square"/>
   </g>
   <g id="line2d_37">
    <path d="M 71.370682 66.629945 
L 100.765284 70.107502 
L 130.159886 68.467302 
L 159.554489 57.770231 
L 188.949091 51.310164 
L 218.343693 47.783779 
L 247.738295 47.407674 
L 277.132898 46.212124 
L 306.5275 43.882879 
L 335.922102 44.534661 
L 365.316705 44.626371 
L 394.711307 42.904247 
L 424.105909 44.288725 
L 453.500511 40.059048 
L 482.895114 41.061839 
L 512.289716 42.087463 
L 541.684318 41.766507 
" clip-path="url(#pd291706dce)" style="fill: none; stroke: #fcbc6b; stroke-opacity: 0.85; stroke-width: 1.2; stroke-linecap: square"/>
   </g>
   <g id="line2d_38">
    <path d="M 71.370682 68.568321 
L 100.765284 71.122963 
L 130.159886 63.819402 
L 159.554489 52.122827 
L 188.949091 47.278631 
L 218.343693 49.014934 
L 247.738295 45.157246 
L 277.132898 45.759148 
L 306.5275 43.816101 
L 335.922102 43.127028 
L 365.316705 40.059048 
L 394.711307 40.1781 
L 424.105909 41.387728 
L 453.500511 43.03489 
L 482.895114 43.080967 
L 512.289716 42.9237 
L 541.684318 42.507977 
" clip-path="url(#pd291706dce)" style="fill: none; stroke: #faac55; stroke-opacity: 0.85; stroke-width: 1.2; stroke-linecap: square"/>
   </g>
   <g id="line2d_39">
    <path d="M 71.370682 62.956154 
L 100.765284 66.487052 
L 130.159886 63.094326 
L 159.554489 53.763054 
L 188.949091 48.356247 
L 218.343693 46.498334 
L 247.738295 46.748234 
L 277.132898 44.709382 
L 306.5275 43.080402 
L 335.922102 43.120891 
L 365.316705 47.480807 
L 394.711307 41.685742 
L 424.105909 41.5384 
L 453.500511 41.118706 
L 482.895114 41.031052 
L 512.289716 41.333497 
L 541.684318 40.059048 
" clip-path="url(#pd291706dce)" style="fill: none; stroke: #f79c40; stroke-opacity: 0.85; stroke-width: 1.2; stroke-linecap: square"/>
   </g>
   <g id="line2d_40">
    <path d="M 71.370682 65.09651 
L 100.765284 68.670646 
L 130.159886 60.908704 
L 159.554489 51.053442 
L 188.949091 47.824325 
L 218.343693 47.283985 
L 247.738295 44.141473 
L 277.132898 42.668379 
L 306.5275 42.600643 
L 335.922102 42.539653 
L 365.316705 40.059048 
L 394.711307 41.062249 
L 424.105909 42.169063 
L 453.500511 40.094238 
L 482.895114 41.590149 
L 512.289716 41.487735 
L 541.684318 41.138276 
" clip-path="url(#pd291706dce)" style="fill: none; stroke: #f48c2b; stroke-opacity: 0.85; stroke-width: 1.2; stroke-linecap: square"/>
   </g>
   <g id="line2d_41">
    <path d="M 71.370682 63.432784 
L 100.765284 65.09755 
L 130.159886 59.945789 
L 159.554489 51.551312 
L 188.949091 47.847035 
L 218.343693 46.975514 
L 247.738295 44.338579 
L 277.132898 42.671551 
L 306.5275 42.413359 
L 335.922102 41.518988 
L 365.316705 41.276731 
L 394.711307 40.800878 
L 424.105909 40.059048 
L 453.500511 40.885495 
L 482.895114 40.17579 
L 512.289716 40.462238 
L 541.684318 40.580701 
" clip-path="url(#pd291706dce)" style="fill: none; stroke: #f27c15; stroke-opacity: 0.85; stroke-width: 1.2; stroke-linecap: square"/>
   </g>
   <g id="line2d_42">
    <path d="M 71.370682 64.885193 
L 100.765284 69.592493 
L 130.159886 60.055457 
L 159.554489 51.856039 
L 188.949091 47.131213 
L 218.343693 46.260963 
L 247.738295 44.204571 
L 277.132898 42.511861 
L 306.5275 41.207169 
L 335.922102 41.193496 
L 365.316705 41.214005 
L 394.711307 41.623559 
L 424.105909 41.162726 
L 453.500511 40.059048 
L 482.895114 40.90433 
L 512.289716 40.47546 
L 541.684318 40.988233 
" clip-path="url(#pd291706dce)" style="fill: none; stroke: #ef6c00; stroke-opacity: 0.85; stroke-width: 1.2; stroke-linecap: square"/>
   </g>
   <g id="line2d_43">
    <path d="M 71.370682 57.383847 
L 100.765284 57.545317 
L 130.159886 57.021504 
L 159.554489 40.562105 
L 188.949091 40.150348 
L 218.343693 40.563201 
L 247.738295 44.347128 
L 277.132898 43.678823 
L 306.5275 40.150348 
L 335.922102 40.150348 
L 365.316705 40.151448 
L 394.711307 41.427738 
L 424.105909 43.187013 
L 453.500511 43.008323 
L 482.895114 40.059048 
L 512.289716 40.105255 
" clip-path="url(#pd291706dce)" style="fill: none; stroke-dasharray: 1.2,1.98; stroke-dashoffset: 0; stroke: #90caf9; stroke-opacity: 0.85; stroke-width: 1.2"/>
   </g>
   <g id="line2d_44">
    <path d="M 71.370682 42.309336 
L 100.765284 40.531258 
L 130.159886 42.216674 
L 159.554489 40.082866 
L 188.949091 40.082299 
L 218.343693 40.34234 
L 247.738295 41.773156 
L 277.132898 41.53992 
L 306.5275 41.703675 
L 335.922102 40.5776 
L 365.316705 41.071702 
L 394.711307 40.129925 
L 424.105909 41.048052 
L 453.500511 42.588063 
L 482.895114 40.48377 
L 512.289716 40.153732 
L 541.684318 40.059048 
" clip-path="url(#pd291706dce)" style="fill: none; stroke-dasharray: 1.2,1.98; stroke-dashoffset: 0; stroke: #7dbff6; stroke-opacity: 0.85; stroke-width: 1.2"/>
   </g>
   <g id="line2d_45">
    <path d="M 71.370682 169.11544 
L 100.765284 42.414901 
L 130.159886 41.384815 
L 159.554489 43.671224 
L 188.949091 40.765351 
L 218.343693 40.717497 
L 247.738295 40.956031 
L 277.132898 42.662111 
L 306.5275 42.485375 
L 335.922102 42.426507 
L 365.316705 41.444129 
L 394.711307 41.527068 
L 424.105909 41.015814 
L 453.500511 41.039549 
L 482.895114 40.059048 
L 512.289716 40.836958 
L 541.684318 40.203243 
" clip-path="url(#pd291706dce)" style="fill: none; stroke-dasharray: 1.2,1.98; stroke-dashoffset: 0; stroke: #6ab4f2; stroke-opacity: 0.85; stroke-width: 1.2"/>
   </g>
   <g id="line2d_46">
    <path d="M 71.370682 215.080612 
L 100.765284 187.510861 
L 130.159886 80.323632 
L 159.554489 67.695795 
L 188.949091 71.67223 
L 218.343693 94.350954 
L 247.738295 43.894441 
L 277.132898 41.883531 
L 306.5275 42.720719 
L 335.922102 41.823434 
L 365.316705 42.50727 
L 394.711307 40.504783 
L 424.105909 40.890028 
L 453.500511 40.161925 
L 482.895114 40.306694 
L 512.289716 40.059048 
L 541.684318 40.07789 
" clip-path="url(#pd291706dce)" style="fill: none; stroke-dasharray: 1.2,1.98; stroke-dashoffset: 0; stroke: #57a9ef; stroke-opacity: 0.85; stroke-width: 1.2"/>
   </g>
   <g id="line2d_47">
    <path d="M 71.370682 215.932161 
L 100.765284 211.606379 
L 130.159886 191.006007 
L 159.554489 171.495977 
L 188.949091 104.644642 
L 218.343693 55.32549 
L 247.738295 49.046969 
L 277.132898 44.759198 
L 306.5275 41.726373 
L 335.922102 43.953293 
L 365.316705 43.554944 
L 394.711307 42.342179 
L 424.105909 41.477262 
L 453.500511 40.746064 
L 482.895114 40.398623 
L 512.289716 40.619229 
L 541.684318 40.059048 
" clip-path="url(#pd291706dce)" style="fill: none; stroke-dasharray: 1.2,1.98; stroke-dashoffset: 0; stroke: #449eec; stroke-opacity: 0.85; stroke-width: 1.2"/>
   </g>
   <g id="line2d_48">
    <path d="M 71.370682 216.91838 
L 100.765284 212.166679 
L 130.159886 195.979819 
L 159.554489 189.675499 
L 188.949091 155.336189 
L 218.343693 92.76227 
L 247.738295 60.952299 
L 277.132898 46.932532 
L 306.5275 42.946558 
L 335.922102 42.259026 
L 365.316705 42.673889 
L 394.711307 42.164989 
L 424.105909 40.059048 
L 453.500511 40.769548 
L 482.895114 40.151611 
L 512.289716 40.389661 
L 541.684318 40.569928 
" clip-path="url(#pd291706dce)" style="fill: none; stroke-dasharray: 1.2,1.98; stroke-dashoffset: 0; stroke: #3193e8; stroke-opacity: 0.85; stroke-width: 1.2"/>
   </g>
   <g id="line2d_49">
    <path d="M 71.370682 217.01262 
L 100.765284 212.476379 
L 130.159886 198.384658 
L 159.554489 190.777339 
L 188.949091 159.130528 
L 218.343693 134.539637 
L 247.738295 88.012026 
L 277.132898 57.77043 
L 306.5275 50.334488 
L 335.922102 74.600052 
L 365.316705 43.31299 
L 394.711307 43.822638 
L 424.105909 43.706569 
L 453.500511 47.183007 
L 482.895114 40.059048 
L 512.289716 40.845545 
L 541.684318 40.35771 
" clip-path="url(#pd291706dce)" style="fill: none; stroke-dasharray: 1.2,1.98; stroke-dashoffset: 0; stroke: #1e88e5; stroke-opacity: 0.85; stroke-width: 1.2"/>
   </g>
   <g id="line2d_50">
    <path d="M 71.370682 307.924772 
L 100.765284 256.320434 
L 130.159886 233.691537 
L 159.554489 229.381323 
L 188.949091 193.922048 
L 218.343693 150.690287 
L 247.738295 161.226532 
L 277.132898 122.145741 
L 306.5275 125.37636 
L 335.922102 98.64473 
L 365.316705 77.951822 
L 394.711307 73.541313 
L 424.105909 64.533236 
L 453.500511 56.616567 
L 482.895114 53.119198 
L 512.289716 40.059048 
" clip-path="url(#pd291706dce)" style="fill: none; stroke: #90caf9; stroke-opacity: 0.85; stroke-width: 1.2; stroke-linecap: square"/>
   </g>
   <g id="line2d_51">
    <path d="M 71.370682 302.663553 
L 100.765284 223.195979 
L 130.159886 299.109493 
L 159.554489 277.050705 
L 188.949091 262.017666 
L 218.343693 222.592569 
L 247.738295 177.790388 
L 277.132898 133.971124 
L 306.5275 95.564982 
L 335.922102 69.16359 
L 365.316705 61.222725 
L 394.711307 61.396146 
L 424.105909 51.703989 
L 453.500511 52.345479 
L 482.895114 47.704462 
L 512.289716 40.059048 
L 541.684318 44.198387 
" clip-path="url(#pd291706dce)" style="fill: none; stroke: #7dbff6; stroke-opacity: 0.85; stroke-width: 1.2; stroke-linecap: square"/>
   </g>
   <g id="line2d_52">
    <path d="M 71.370682 268.545595 
L 100.765284 216.305101 
L 130.159886 204.110932 
L 159.554489 219.23045 
L 188.949091 167.100733 
L 218.343693 130.013816 
L 247.738295 97.547208 
L 277.132898 73.63389 
L 306.5275 57.361154 
L 335.922102 49.385672 
L 365.316705 44.449037 
L 394.711307 42.385005 
L 424.105909 40.422908 
L 453.500511 40.48341 
L 482.895114 40.229006 
L 512.289716 40.059048 
L 541.684318 40.119709 
" clip-path="url(#pd291706dce)" style="fill: none; stroke: #6ab4f2; stroke-opacity: 0.85; stroke-width: 1.2; stroke-linecap: square"/>
   </g>
   <g id="line2d_53">
    <path d="M 71.370682 219.88784 
L 100.765284 216.170577 
L 130.159886 196.74651 
L 159.554489 198.21697 
L 188.949091 190.218975 
L 218.343693 131.483163 
L 247.738295 94.837339 
L 277.132898 71.901301 
L 306.5275 56.353636 
L 335.922102 46.77353 
L 365.316705 41.869131 
L 394.711307 44.334266 
L 424.105909 47.775863 
L 453.500511 45.90531 
L 482.895114 44.582801 
L 512.289716 42.638087 
L 541.684318 40.059048 
" clip-path="url(#pd291706dce)" style="fill: none; stroke: #57a9ef; stroke-opacity: 0.85; stroke-width: 1.2; stroke-linecap: square"/>
   </g>
   <g id="line2d_54">
    <path d="M 71.370682 211.46861 
L 100.765284 205.147024 
L 130.159886 187.702921 
L 159.554489 184.107554 
L 188.949091 147.149816 
L 218.343693 108.391301 
L 247.738295 74.956174 
L 277.132898 207.412252 
L 306.5275 112.910574 
L 335.922102 85.893165 
L 365.316705 69.215678 
L 394.711307 56.452136 
L 424.105909 48.017159 
L 453.500511 43.766951 
L 482.895114 40.059048 
L 512.289716 42.847169 
L 541.684318 44.116158 
" clip-path="url(#pd291706dce)" style="fill: none; stroke: #449eec; stroke-opacity: 0.85; stroke-width: 1.2; stroke-linecap: square"/>
   </g>
   <g id="line2d_55">
    <path d="M 71.370682 227.181061 
L 100.765284 217.731119 
L 130.159886 201.748233 
L 159.554489 201.334306 
L 188.949091 164.716112 
L 218.343693 124.87283 
L 247.738295 92.591219 
L 277.132898 71.031341 
L 306.5275 57.195167 
L 335.922102 49.357823 
L 365.316705 45.173757 
L 394.711307 42.670572 
L 424.105909 41.22957 
L 453.500511 40.753816 
L 482.895114 40.350615 
L 512.289716 40.137704 
L 541.684318 40.059048 
" clip-path="url(#pd291706dce)" style="fill: none; stroke: #3193e8; stroke-opacity: 0.85; stroke-width: 1.2; stroke-linecap: square"/>
   </g>
   <g id="line2d_56">
    <path d="M 71.370682 219.055868 
L 100.765284 215.412008 
L 130.159886 199.672352 
L 159.554489 196.233205 
L 188.949091 160.972633 
L 218.343693 120.318273 
L 247.738295 86.515898 
L 277.132898 66.322634 
L 306.5275 51.663052 
L 335.922102 43.686795 
L 365.316705 40.059048 
L 394.711307 84.378964 
L 424.105909 53.030368 
L 453.500511 44.624781 
L 482.895114 45.82554 
L 512.289716 48.763362 
L 541.684318 44.699059 
" clip-path="url(#pd291706dce)" style="fill: none; stroke: #1e88e5; stroke-opacity: 0.85; stroke-width: 1.2; stroke-linecap: square"/>
   </g>
   <g id="line2d_57">
    <path d="M 71.370682 240.24829 
L 100.765284 199.859818 
L 130.159886 178.922473 
L 159.554489 152.010277 
L 188.949091 53.1773 
L 218.343693 53.1773 
L 247.738295 61.403624 
L 277.132898 59.28283 
L 306.5275 52.726306 
L 335.922102 51.841351 
L 365.316705 48.174945 
L 394.711307 51.374926 
L 424.105909 47.706739 
L 453.500511 40.059048 
L 482.895114 51.841351 
L 512.289716 46.314889 
" clip-path="url(#pd291706dce)" style="fill: none; stroke-dasharray: 1.2,1.98; stroke-dashoffset: 0; stroke: #a5d6a7; stroke-opacity: 0.85; stroke-width: 1.2"/>
   </g>
   <g id="line2d_58">
    <path d="M 71.370682 234.660869 
L 100.765284 185.441716 
L 130.159886 160.4732 
L 159.554489 129.584671 
L 188.949091 94.965964 
L 218.343693 52.409002 
L 247.738295 58.178906 
L 277.132898 57.33829 
L 306.5275 51.973145 
L 335.922102 48.64458 
L 365.316705 44.999227 
L 394.711307 41.725518 
L 424.105909 41.487052 
L 453.500511 40.064789 
L 482.895114 40.059048 
L 512.289716 41.014584 
L 541.684318 41.253865 
" clip-path="url(#pd291706dce)" style="fill: none; stroke-dasharray: 1.2,1.98; stroke-dashoffset: 0; stroke: #95cd97; stroke-opacity: 0.85; stroke-width: 1.2"/>
   </g>
   <g id="line2d_59">
    <path d="M 71.370682 251.365582 
L 100.765284 204.721089 
L 130.159886 175.215658 
L 159.554489 158.088182 
L 188.949091 125.324641 
L 218.343693 105.833712 
L 247.738295 40.059048 
L 277.132898 51.649316 
L 306.5275 48.529061 
L 335.922102 46.36483 
L 365.316705 44.812241 
L 394.711307 41.796649 
L 424.105909 43.3773 
L 453.500511 41.927208 
L 482.895114 40.593546 
L 512.289716 40.994675 
L 541.684318 41.263582 
" clip-path="url(#pd291706dce)" style="fill: none; stroke-dasharray: 1.2,1.98; stroke-dashoffset: 0; stroke: #84c487; stroke-opacity: 0.85; stroke-width: 1.2"/>
   </g>
   <g id="line2d_60">
    <path d="M 71.370682 279.607103 
L 100.765284 259.599809 
L 130.159886 199.280491 
L 159.554489 178.908163 
L 188.949091 139.92024 
L 218.343693 116.695785 
L 247.738295 76.905694 
L 277.132898 50.074538 
L 306.5275 48.089608 
L 335.922102 45.192167 
L 365.316705 46.345936 
L 394.711307 40.059048 
L 424.105909 45.329373 
L 453.500511 49.744692 
L 482.895114 44.236072 
L 512.289716 49.019026 
L 541.684318 47.353341 
" clip-path="url(#pd291706dce)" style="fill: none; stroke-dasharray: 1.2,1.98; stroke-dashoffset: 0; stroke: #74bb77; stroke-opacity: 0.85; stroke-width: 1.2"/>
   </g>
   <g id="line2d_61">
    <path d="M 71.370682 288.437697 
L 100.765284 280.206469 
L 130.159886 272.526097 
L 159.554489 261.04494 
L 188.949091 247.793994 
L 218.343693 221.7574 
L 247.738295 171.729999 
L 277.132898 172.89397 
L 306.5275 114.855815 
L 335.922102 102.24339 
L 365.316705 65.652304 
L 394.711307 56.327567 
L 424.105909 47.501057 
L 453.500511 47.466117 
L 482.895114 48.20984 
L 512.289716 41.401951 
L 541.684318 40.059048 
" clip-path="url(#pd291706dce)" style="fill: none; stroke-dasharray: 1.2,1.98; stroke-dashoffset: 0; stroke: #64b267; stroke-opacity: 0.85; stroke-width: 1.2"/>
   </g>
   <g id="line2d_62">
    <path d="M 71.370682 289.943125 
L 100.765284 286.581892 
L 130.159886 285.490786 
L 159.554489 283.730869 
L 188.949091 280.825185 
L 218.343693 279.949135 
L 247.738295 275.432929 
L 277.132898 249.843347 
L 306.5275 222.450677 
L 335.922102 161.741479 
L 365.316705 96.646559 
L 394.711307 63.54244 
L 424.105909 54.859655 
L 453.500511 49.816157 
L 482.895114 43.210249 
L 512.289716 45.08886 
L 541.684318 40.059048 
" clip-path="url(#pd291706dce)" style="fill: none; stroke-dasharray: 1.2,1.98; stroke-dashoffset: 0; stroke: #53a957; stroke-opacity: 0.85; stroke-width: 1.2"/>
   </g>
   <g id="line2d_63">
    <path d="M 71.370682 289.393035 
L 100.765284 286.506616 
L 130.159886 285.282527 
L 159.554489 284.759173 
L 188.949091 283.666391 
L 218.343693 283.433225 
L 247.738295 273.122792 
L 277.132898 255.631596 
L 306.5275 234.377412 
L 335.922102 193.784883 
L 365.316705 143.137573 
L 394.711307 75.622081 
L 424.105909 50.053569 
L 453.500511 44.974061 
L 482.895114 41.766179 
L 512.289716 40.059048 
L 541.684318 43.425936 
" clip-path="url(#pd291706dce)" style="fill: none; stroke-dasharray: 1.2,1.98; stroke-dashoffset: 0; stroke: #43a047; stroke-opacity: 0.85; stroke-width: 1.2"/>
   </g>
   <g id="line2d_64">
    <path d="M 71.370682 296.191873 
L 100.765284 294.396317 
L 130.159886 294.191196 
L 159.554489 295.020998 
L 188.949091 290.641606 
L 218.343693 291.419869 
L 247.738295 277.797947 
L 277.132898 256.033109 
L 306.5275 231.655184 
L 335.922102 201.558128 
L 365.316705 155.699124 
L 394.711307 110.488948 
L 424.105909 74.53252 
L 453.500511 53.158823 
L 482.895114 60.863929 
L 512.289716 40.059048 
" clip-path="url(#pd291706dce)" style="fill: none; stroke: #a5d6a7; stroke-opacity: 0.85; stroke-width: 1.2; stroke-linecap: square"/>
   </g>
   <g id="line2d_65">
    <path d="M 71.370682 295.095011 
L 100.765284 293.14681 
L 130.159886 292.62771 
L 159.554489 293.433648 
L 188.949091 290.174257 
L 218.343693 290.750911 
L 247.738295 278.386857 
L 277.132898 257.958145 
L 306.5275 233.791277 
L 335.922102 203.792987 
L 365.316705 162.368428 
L 394.711307 116.291418 
L 424.105909 84.688011 
L 453.500511 62.434348 
L 482.895114 51.419201 
L 512.289716 46.317376 
L 541.684318 40.059048 
" clip-path="url(#pd291706dce)" style="fill: none; stroke: #95cd97; stroke-opacity: 0.85; stroke-width: 1.2; stroke-linecap: square"/>
   </g>
   <g id="line2d_66">
    <path d="M 71.370682 295.481674 
L 100.765284 291.941341 
L 130.159886 291.35966 
L 159.554489 291.663692 
L 188.949091 288.262529 
L 218.343693 290.245208 
L 247.738295 276.841296 
L 277.132898 257.269774 
L 306.5275 233.53983 
L 335.922102 203.60438 
L 365.316705 162.939476 
L 394.711307 128.513299 
L 424.105909 100.776401 
L 453.500511 73.590396 
L 482.895114 67.446721 
L 512.289716 46.247952 
L 541.684318 40.059048 
" clip-path="url(#pd291706dce)" style="fill: none; stroke: #84c487; stroke-opacity: 0.85; stroke-width: 1.2; stroke-linecap: square"/>
   </g>
   <g id="line2d_67">
    <path d="M 71.370682 292.227983 
L 100.765284 290.671538 
L 130.159886 289.412359 
L 159.554489 289.277069 
L 188.949091 286.553903 
L 218.343693 287.363471 
L 247.738295 274.301615 
L 277.132898 254.534837 
L 306.5275 230.839105 
L 335.922102 201.969164 
L 365.316705 157.494057 
L 394.711307 115.236893 
L 424.105909 86.005273 
L 453.500511 58.500533 
L 482.895114 56.752619 
L 512.289716 40.059048 
L 541.684318 46.051032 
" clip-path="url(#pd291706dce)" style="fill: none; stroke: #74bb77; stroke-opacity: 0.85; stroke-width: 1.2; stroke-linecap: square"/>
   </g>
   <g id="line2d_68">
    <path d="M 71.370682 290.188171 
L 100.765284 288.863183 
L 130.159886 288.124027 
L 159.554489 287.562426 
L 188.949091 285.34514 
L 218.343693 285.428389 
L 247.738295 272.982604 
L 277.132898 253.17451 
L 306.5275 227.821293 
L 335.922102 197.793816 
L 365.316705 154.717335 
L 394.711307 110.658708 
L 424.105909 79.195058 
L 453.500511 60.454671 
L 482.895114 49.068302 
L 512.289716 40.059048 
L 541.684318 41.503971 
" clip-path="url(#pd291706dce)" style="fill: none; stroke: #64b267; stroke-opacity: 0.85; stroke-width: 1.2; stroke-linecap: square"/>
   </g>
   <g id="line2d_69">
    <path d="M 71.370682 289.298533 
L 100.765284 288.295613 
L 130.159886 287.13566 
L 159.554489 287.389676 
L 188.949091 309.547966 
L 218.343693 287.467499 
L 247.738295 273.604054 
L 277.132898 251.574279 
L 306.5275 225.284347 
L 335.922102 196.467361 
L 365.316705 152.386962 
L 394.711307 111.734916 
L 424.105909 81.081801 
L 453.500511 61.310938 
L 482.895114 47.390869 
L 512.289716 43.827528 
L 541.684318 40.059048 
" clip-path="url(#pd291706dce)" style="fill: none; stroke: #53a957; stroke-opacity: 0.85; stroke-width: 1.2; stroke-linecap: square"/>
   </g>
   <g id="line2d_70">
    <path d="M 71.370682 290.162612 
L 100.765284 288.0305 
L 130.159886 286.78445 
L 159.554489 286.965948 
L 188.949091 284.652493 
L 218.343693 284.303179 
L 247.738295 273.106987 
L 277.132898 253.039832 
L 306.5275 228.522137 
L 335.922102 195.789004 
L 365.316705 153.906862 
L 394.711307 108.086003 
L 424.105909 83.425811 
L 453.500511 63.539772 
L 482.895114 54.719658 
L 512.289716 48.2988 
L 541.684318 40.059048 
" clip-path="url(#pd291706dce)" style="fill: none; stroke: #43a047; stroke-opacity: 0.85; stroke-width: 1.2; stroke-linecap: square"/>
   </g>
   <g id="patch_3">
    <path d="M 47.855 318.04 
L 47.855 26.16 
" style="fill: none; stroke: #444444; stroke-width: 0.8; stroke-linejoin: miter; stroke-linecap: square"/>
   </g>
   <g id="patch_4">
    <path d="M 565.2 318.04 
L 565.2 26.16 
" style="fill: none; stroke: #444444; stroke-width: 0.8; stroke-linejoin: miter; stroke-linecap: square"/>
   </g>
   <g id="patch_5">
    <path d="M 47.855 318.04 
L 565.2 318.04 
" style="fill: none; stroke: #444444; stroke-width: 0.8; stroke-linejoin: miter; stroke-linecap: square"/>
   </g>
   <g id="patch_6">
    <path d="M 47.855 26.16 
L 565.2 26.16 
" style="fill: none; stroke: #444444; stroke-width: 0.8; stroke-linejoin: miter; stroke-linecap: square"/>
   </g>
   <g id="text_17">
    <!-- Normalized throughput — all kernels &amp; working sets -->
    <g style="fill: #e0e0e0" transform="translate(150.237812 20.16) scale(0.12 -0.12)">
     <defs>
      <path id="DejaVuSans-2014" d="M 313 1978 
L 6088 1978 
L 6088 1528 
L 313 1528 
L 313 1978 
z
" transform="scale(0.015625)"/>
      <path id="DejaVuSans-6e" d="M 3513 2113 
L 3513 0 
L 2938 0 
L 2938 2094 
Q 2938 2591 2744 2837 
Q 2550 3084 2163 3084 
Q 1697 3084 1428 2787 
Q 1159 2491 1159 1978 
L 1159 0 
L 581 0 
L 581 3500 
L 1159 3500 
L 1159 2956 
Q 1366 3272 1645 3428 
Q 1925 3584 2291 3584 
Q 2894 3584 3203 3211 
Q 3513 2838 3513 2113 
z
" transform="scale(0.015625)"/>
      <path id="DejaVuSans-26" d="M 1556 2509 
Q 1272 2256 1139 2004 
Q 1006 1753 1006 1478 
Q 1006 1022 1337 719 
Q 1669 416 2169 416 
Q 2466 416 2725 514 
Q 2984 613 3213 813 
L 1556 2509 
z
M 1997 2859 
L 3584 1234 
Q 3769 1513 3872 1830 
Q 3975 2147 3994 2503 
L 4575 2503 
Q 4538 2091 4375 1687 
Q 4213 1284 3922 891 
L 4794 0 
L 4006 0 
L 3559 459 
Q 3234 181 2878 45 
Q 2522 -91 2113 -91 
Q 1359 -91 881 339 
Q 403 769 403 1441 
Q 403 1841 612 2192 
Q 822 2544 1241 2853 
Q 1091 3050 1012 3245 
Q 934 3441 934 3628 
Q 934 4134 1281 4442 
Q 1628 4750 2203 4750 
Q 2463 4750 2720 4694 
Q 2978 4638 3244 4525 
L 3244 3956 
Q 2972 4103 2725 4179 
Q 2478 4256 2266 4256 
Q 1938 4256 1733 4082 
Q 1528 3909 1528 3634 
Q 1528 3475 1620 3314 
Q 1713 3153 1997 2859 
z
" transform="scale(0.015625)"/>
      <path id="DejaVuSans-77" d="M 269 3500 
L 844 3500 
L 1563 769 
L 2278 3500 
L 2956 3500 
L 3675 769 
L 4391 3500 
L 4966 3500 
L 4050 0 
L 3372 0 
L 2619 2869 
L 1863 0 
L 1184 0 
L 269 3500 
z
" transform="scale(0.015625)"/>
     </defs>
     <use xlink:href="#DejaVuSans-4e"/>
     <use xlink:href="#DejaVuSans-6f" transform="translate(74.804688 0)"/>
     <use xlink:href="#DejaVuSans-72" transform="translate(135.986328 0)"/>
     <use xlink:href="#DejaVuSans-6d" transform="translate(175.349609 0)"/>
     <use xlink:href="#DejaVuSans-61" transform="translate(272.761719 0)"/>
     <use xlink:href="#DejaVuSans-6c" transform="translate(334.041016 0)"/>
     <use xlink:href="#DejaVuSans-69" transform="translate(361.824219 0)"/>
     <use xlink:href="#DejaVuSans-7a" transform="translate(389.607422 0)"/>
     <use xlink:href="#DejaVuSans-65" transform="translate(442.097656 0)"/>
     <use xlink:href="#DejaVuSans-64" transform="translate(503.621094 0)"/>
     <use xlink:href="#DejaVuSans-20" transform="translate(567.097656 0)"/>
     <use xlink:href="#DejaVuSans-74" transform="translate(598.884766 0)"/>
     <use xlink:href="#DejaVuSans-68" transform="translate(638.09375 0)"/>
     <use xlink:href="#DejaVuSans-72" transform="translate(701.472656 0)"/>
     <use xlink:href="#DejaVuSans-6f" transform="translate(740.335938 0)"/>
     <use xlink:href="#DejaVuSans-75" transform="translate(801.517578 0)"/>
     <use xlink:href="#DejaVuSans-67" transform="translate(864.896484 0)"/>
     <use xlink:href="#DejaVuSans-68" transform="translate(928.373047 0)"/>
     <use xlink:href="#DejaVuSans-70" transform="translate(991.751953 0)"/>
     <use xlink:href="#DejaVuSans-75" transform="translate(1055.228516 0)"/>
     <use xlink:href="#DejaVuSans-74" transform="translate(1118.607422 0)"/>
     <use xlink:href="#DejaVuSans-20" transform="translate(1157.816406 0)"/>
     <use xlink:href="#DejaVuSans-2014" transform="translate(1189.603516 0)"/>
     <use xlink:href="#DejaVuSans-20" transform="translate(1289.603516 0)"/>
     <use xlink:href="#DejaVuSans-61" transform="translate(1321.390625 0)"/>
     <use xlink:href="#DejaVuSans-6c" transform="translate(1382.669922 0)"/>
     <use xlink:href="#DejaVuSans-6c" transform="translate(1410.453125 0)"/>
     <use xlink:href="#DejaVuSans-20" transform="translate(1438.236328 0)"/>
     <use xlink:href="#DejaVuSans-6b" transform="translate(1470.023438 0)"/>
     <use xlink:href="#DejaVuSans-65" transform="translate(1524.308594 0)"/>
     <use xlink:href="#DejaVuSans-72" transform="translate(1585.832031 0)"/>
     <use xlink:href="#DejaVuSans-6e" transform="translate(1625.195312 0)"/>
     <use xlink:href="#DejaVuSans-65" transform="translate(1688.574219 0)"/>
     <use xlink:href="#DejaVuSans-6c" transform="translate(1750.097656 0)"/>
     <use xlink:href="#DejaVuSans-73" transform="translate(1777.880859 0)"/>
     <use xlink:href="#DejaVuSans-20" transform="translate(1829.980469 0)"/>
     <use xlink:href="#DejaVuSans-26" transform="translate(1861.767578 0)"/>
     <use xlink:href="#DejaVuSans-20" transform="translate(1939.746094 0)"/>
     <use xlink:href="#DejaVuSans-77" transform="translate(1971.533203 0)"/>
     <use xlink:href="#DejaVuSans-6f" transform="translate(2053.320312 0)"/>
     <use xlink:href="#DejaVuSans-72" transform="translate(2114.501953 0)"/>
     <use xlink:href="#DejaVuSans-6b" transform="translate(2155.615234 0)"/>
     <use xlink:href="#DejaVuSans-69" transform="translate(2213.525391 0)"/>
     <use xlink:href="#DejaVuSans-6e" transform="translate(2241.308594 0)"/>
     <use xlink:href="#DejaVuSans-67" transform="translate(2304.6875 0)"/>
     <use xlink:href="#DejaVuSans-20" transform="translate(2368.164062 0)"/>
     <use xlink:href="#DejaVuSans-73" transform="translate(2399.951172 0)"/>
     <use xlink:href="#DejaVuSans-65" transform="translate(2452.050781 0)"/>
     <use xlink:href="#DejaVuSans-74" transform="translate(2513.574219 0)"/>
     <use xlink:href="#DejaVuSans-73" transform="translate(2552.783203 0)"/>
    </g>
   </g>
   <g id="legend_1">
    <g id="patch_7">
     <path d="M 486.55 314.04 
L 559.6 314.04 
Q 561.2 314.04 561.2 312.44 
L 561.2 253.86 
Q 561.2 252.26 559.6 252.26 
L 486.55 252.26 
Q 484.95 252.26 484.95 253.86 
L 484.95 312.44 
Q 484.95 314.04 486.55 314.04 
z
" style="fill: #1e2436; opacity: 0.8; stroke: #444444; stroke-linejoin: miter"/>
    </g>
    <g id="patch_8">
     <path d="M 488.15 261.53875 
L 504.15 261.53875 
L 504.15 255.93875 
L 488.15 255.93875 
z
" style="fill: #1e88e5"/>
    </g>
    <g id="text_18">
     <!-- scalar_stats -->
     <g style="fill: #e0e0e0" transform="translate(510.55 261.53875) scale(0.08 -0.08)">
      <defs>
       <path id="DejaVuSans-5f" d="M 3263 -1063 
L 3263 -1509 
L -63 -1509 
L -63 -1063 
L 3263 -1063 
z
" transform="scale(0.015625)"/>
      </defs>
      <use xlink:href="#DejaVuSans-73"/>
      <use xlink:href="#DejaVuSans-63" transform="translate(52.099609 0)"/>
      <use xlink:href="#DejaVuSans-61" transform="translate(107.080078 0)"/>
      <use xlink:href="#DejaVuSans-6c" transform="translate(168.359375 0)"/>
      <use xlink:href="#DejaVuSans-61" transform="translate(196.142578 0)"/>
      <use xlink:href="#DejaVuSans-72" transform="translate(257.421875 0)"/>
      <use xlink:href="#DejaVuSans-5f" transform="translate(298.535156 0)"/>
      <use xlink:href="#DejaVuSans-73" transform="translate(348.535156 0)"/>
      <use xlink:href="#DejaVuSans-74" transform="translate(400.634766 0)"/>
      <use xlink:href="#DejaVuSans-61" transform="translate(439.84375 0)"/>
      <use xlink:href="#DejaVuSans-74" transform="translate(501.123047 0)"/>
      <use xlink:href="#DejaVuSans-73" transform="translate(540.332031 0)"/>
     </g>
    </g>
    <g id="patch_9">
     <path d="M 488.15 273.50375 
L 504.15 273.50375 
L 504.15 267.90375 
L 488.15 267.90375 
z
" style="fill: #43a047"/>
    </g>
    <g id="text_19">
     <!-- simd_sum -->
     <g style="fill: #e0e0e0" transform="translate(510.55 273.50375) scale(0.08 -0.08)">
      <use xlink:href="#DejaVuSans-73"/>
      <use xlink:href="#DejaVuSans-69" transform="translate(52.099609 0)"/>
      <use xlink:href="#DejaVuSans-6d" transform="translate(79.882812 0)"/>
      <use xlink:href="#DejaVuSans-64" transform="translate(177.294922 0)"/>
      <use xlink:href="#DejaVuSans-5f" transform="translate(240.771484 0)"/>
      <use xlink:href="#DejaVuSans-73" transform="translate(290.771484 0)"/>
      <use xlink:href="#DejaVuSans-75" transform="translate(342.871094 0)"/>
      <use xlink:href="#DejaVuSans-6d" transform="translate(406.25 0)"/>
     </g>
    </g>
    <g id="patch_10">
     <path d="M 488.15 285.46875 
L 504.15 285.46875 
L 504.15 279.86875 
L 488.15 279.86875 
z
" style="fill: #ef6c00"/>
    </g>
    <g id="text_20">
     <!-- heavy_sin -->
     <g style="fill: #e0e0e0" transform="translate(510.55 285.46875) scale(0.08 -0.08)">
      <defs>
       <path id="DejaVuSans-76" d="M 191 3500 
L 800 3500 
L 1894 563 
L 2988 3500 
L 3597 3500 
L 2284 0 
L 1503 0 
L 191 3500 
z
" transform="scale(0.015625)"/>
       <path id="DejaVuSans-79" d="M 2059 -325 
Q 1816 -950 1584 -1140 
Q 1353 -1331 966 -1331 
L 506 -1331 
L 506 -850 
L 844 -850 
Q 1081 -850 1212 -737 
Q 1344 -625 1503 -206 
L 1606 56 
L 191 3500 
L 800 3500 
L 1894 763 
L 2988 3500 
L 3597 3500 
L 2059 -325 
z
" transform="scale(0.015625)"/>
      </defs>
      <use xlink:href="#DejaVuSans-68"/>
      <use xlink:href="#DejaVuSans-65" transform="translate(63.378906 0)"/>
      <use xlink:href="#DejaVuSans-61" transform="translate(124.902344 0)"/>
      <use xlink:href="#DejaVuSans-76" transform="translate(186.181641 0)"/>
      <use xlink:href="#DejaVuSans-79" transform="translate(245.361328 0)"/>
      <use xlink:href="#DejaVuSans-5f" transform="translate(304.541016 0)"/>
      <use xlink:href="#DejaVuSans-73" transform="translate(354.541016 0)"/>
      <use xlink:href="#DejaVuSans-69" transform="translate(406.640625 0)"/>
      <use xlink:href="#DejaVuSans-6e" transform="translate(434.423828 0)"/>
     </g>
    </g>
    <g id="line2d_71">
     <path d="M 488.15 294.63375 
L 496.15 294.63375 
L 504.15 294.63375 
" style="fill: none; stroke: #e0e0e0; stroke-width: 1.5; stroke-linecap: square"/>
    </g>
    <g id="text_21">
     <!-- randomized -->
     <g style="fill: #e0e0e0" transform="translate(510.55 297.43375) scale(0.08 -0.08)">
      <use xlink:href="#DejaVuSans-72"/>
      <use xlink:href="#DejaVuSans-61" transform="translate(41.113281 0)"/>
      <use xlink:href="#DejaVuSans-6e" transform="translate(102.392578 0)"/>
      <use xlink:href="#DejaVuSans-64" transform="translate(165.771484 0)"/>
      <use xlink:href="#DejaVuSans-6f" transform="translate(229.248047 0)"/>
      <use xlink:href="#DejaVuSans-6d" transform="translate(290.429688 0)"/>
      <use xlink:href="#DejaVuSans-69" transform="translate(387.841797 0)"/>
      <use xlink:href="#DejaVuSans-7a" transform="translate(415.625 0)"/>
      <use xlink:href="#DejaVuSans-65" transform="translate(468.115234 0)"/>
      <use xlink:href="#DejaVuSans-64" transform="translate(529.638672 0)"/>
     </g>
    </g>
    <g id="line2d_72">
     <path d="M 488.15 306.37625 
L 496.15 306.37625 
L 504.15 306.37625 
" style="fill: none; stroke-dasharray: 1.5,2.475; stroke-dashoffset: 0; stroke: #e0e0e0; stroke-width: 1.5"/>
    </g>
    <g id="text_22">
     <!-- repeated -->
     <g style="fill: #e0e0e0" transform="translate(510.55 309.17625) scale(0.08 -0.08)">
      <use xlink:href="#DejaVuSans-72"/>
      <use xlink:href="#DejaVuSans-65" transform="translate(38.863281 0)"/>
      <use xlink:href="#DejaVuSans-70" transform="translate(100.386719 0)"/>
      <use xlink:href="#DejaVuSans-65" transform="translate(163.863281 0)"/>
      <use xlink:href="#DejaVuSans-61" transform="translate(225.386719 0)"/>
      <use xlink:href="#DejaVuSans-74" transform="translate(286.666016 0)"/>
      <use xlink:href="#DejaVuSans-65" transform="translate(325.875 0)"/>
      <use xlink:href="#DejaVuSans-64" transform="translate(387.398438 0)"/>
     </g>
    </g>
   </g>
  </g>
 </g>
 <defs>
  <clipPath id="pd291706dce">
   <rect x="47.855" y="26.16" width="517.345" height="291.88"/>
  </clipPath>
 </defs>
</svg>
