<?xml version="1.0" encoding="utf-8" standalone="no"?>
<!DOCTYPE svg PUBLIC "-//W3C//DTD SVG 1.1//EN"
  "http://www.w3.org/Graphics/SVG/1.1/DTD/svg11.dtd">
<svg xmlns:xlink="http://www.w3.org/1999/xlink" width="576pt" height="360pt" viewBox="0 0 576 360" xmlns="http://www.w3.org/2000/svg" version="1.1">
 <metadata>
  <rdf:RDF xmlns:dc="http://purl.org/dc/elements/1.1/" xmlns:cc="http://creativecommons.org/ns#" xmlns:rdf="http://www.w3.org/1999/02/22-rdf-syntax-ns#">
   <cc:Work>
    <dc:type rdf:resource="http://purl.org/dc/dcmitype/StillImage"/>
    <dc:date>2026-04-01T09:21:52.645893</dc:date>
    <dc:format>image/svg+xml</dc:format>
    <dc:creator>
     <cc:Agent>
      <dc:title>Matplotlib v3.10.8, https://matplotlib.org/</dc:title>
     </cc:Agent>
    </dc:creator>
   </cc:Work>
  </rdf:RDF>
 </metadata>
 <defs>
  <style type="text/css">*{stroke-linejoin: round; stroke-linecap: butt}</style>
 </defs>
 <g id="figure_1">
  <g id="patch_1">
   <path d="M 0 360 
L 576 360 
L 576 0 
L 0 0 
z
" style="fill: #121622"/>
  </g>
  <g id="axes_1">
   <g id="patch_2">
    <path d="M 47.855 318.04 
L 565.2 318.04 
L 565.2 26.16 
L 47.855 26.16 
z
" style="fill: #121622"/>
   </g>
   <g id="matplotlib.axis_1">
    <g id="xtick_1">
     <g id="line2d_1">
      <path d="M 100.765284 318.04 
L 100.765284 26.16 
" clip-path="url(#p2b66211125)" style="fill: none; stroke: #30333e; stroke-width: 0.6; stroke-linecap: square"/>
     </g>
     <g id="line2d_2">
      <defs>
       <path id="mc7416fe2b4" d="M 0 0 
L 0 3.5 
" style="stroke: #e0e0e0; stroke-width: 0.8"/>
      </defs>
      <g>
       <use xlink:href="#mc7416fe2b4" x="100.765284" y="318.04" style="fill: #e0e0e0; stroke: #e0e0e0; stroke-width: 0.8"/>
      </g>
     </g>
     <g id="text_1">
      <!-- 64 B -->
      <g style="fill: #e0e0e0" transform="translate(89.383253 332.638438) scale(0.1 -0.1)">
       <defs>
        <path id="DejaVuSans-36" d="M 2113 2584 
Q 1688 2584 1439 2293 
Q 1191 2003 1191 1497 
Q 1191 994 1439 701 
Q 1688 409 2113 409 
Q 2538 409 2786 701 
Q 3034 994 3034 1497 
Q 3034 2003 2786 2293 
Q 2538 2584 2113 2584 
z
M 3366 4563 
L 3366 3988 
Q 3128 4100 2886 4159 
Q 2644 4219 2406 4219 
Q 1781 4219 1451 3797 
Q 1122 3375 1075 2522 
Q 1259 2794 1537 2939 
Q 1816 3084 2150 3084 
Q 2853 3084 3261 2657 
Q 3669 2231 3669 1497 
Q 3669 778 3244 343 
Q 2819 -91 2113 -91 
Q 1303 -91 875 529 
Q 447 1150 447 2328 
Q 447 3434 972 4092 
Q 1497 4750 2381 4750 
Q 2619 4750 2861 4703 
Q 3103 4656 3366 4563 
z
" transform="scale(0.015625)"/>
        <path id="DejaVuSans-34" d="M 2419 4116 
L 825 1625 
L 2419 1625 
L 2419 4116 
z
M 2253 4666 
L 3047 4666 
L 3047 1625 
L 3713 1625 
L 3713 1100 
L 3047 1100 
L 3047 0 
L 2419 0 
L 2419 1100 
L 313 1100 
L 313 1709 
L 2253 4666 
z
" transform="scale(0.015625)"/>
        <path id="DejaVuSans-20" transform="scale(0.015625)"/>
        <path id="DejaVuSans-42" d="M 1259 2228 
L 1259 519 
L 2272 519 
Q 2781 519 3026 730 
Q 3272 941 3272 1375 
Q 3272 1813 3026 2020 
Q 2781 2228 2272 2228 
L 1259 2228 
z
M 1259 4147 
L 1259 2741 
L 2194 2741 
Q 2656 2741 2882 2914 
Q 3109 3088 3109 3444 
Q 3109 3797 2882 3972 
Q 2656 4147 2194 4147 
L 1259 4147 
z
M 628 4666 
L 2241 4666 
Q 2963 4666 3353 4366 
Q 3744 4066 3744 3513 
Q 3744 3084 3544 2831 
Q 3344 2578 2956 2516 
Q 3422 2416 3680 2098 
Q 3938 1781 3938 1306 
Q 3938 681 3513 340 
Q 3088 0 2303 0 
L 628 0 
L 628 4666 
z
" transform="scale(0.015625)"/>
       </defs>
       <use xlink:href="#DejaVuSans-36"/>
       <use xlink:href="#DejaVuSans-34" transform="translate(63.623047 0)"/>
       <use xlink:href="#DejaVuSans-20" transform="translate(127.246094 0)"/>
       <use xlink:href="#DejaVuSans-42" transform="translate(159.033203 0)"/>
      </g>
     </g>
    </g>
    <g id="xtick_2">
     <g id="line2d_3">
      <path d="M 159.554489 318.04 
L 159.554489 26.16 
" clip-path="url(#p2b66211125)" style="fill: none; stroke: #30333e; stroke-width: 0.6; stroke-linecap: square"/>
     </g>
     <g id="line2d_4">
      <g>
       <use xlink:href="#mc7416fe2b4" x="159.554489" y="318.04" style="fill: #e0e0e0; stroke: #e0e0e0; stroke-width: 0.8"/>
      </g>
     </g>
     <g id="text_2">
      <!-- 256 B -->
      <g style="fill: #e0e0e0" transform="translate(144.991207 332.638438) scale(0.1 -0.1)">
       <defs>
        <path id="DejaVuSans-32" d="M 1228 531 
L 3431 531 
L 3431 0 
L 469 0 
L 469 531 
Q 828 903 1448 1529 
Q 2069 2156 2228 2338 
Q 2531 2678 2651 2914 
Q 2772 3150 2772 3378 
Q 2772 3750 2511 3984 
Q 2250 4219 1831 4219 
Q 1534 4219 1204 4116 
Q 875 4013 500 3803 
L 500 4441 
Q 881 4594 1212 4672 
Q 1544 4750 1819 4750 
Q 2544 4750 2975 4387 
Q 3406 4025 3406 3419 
Q 3406 3131 3298 2873 
Q 3191 2616 2906 2266 
Q 2828 2175 2409 1742 
Q 1991 1309 1228 531 
z
" transform="scale(0.015625)"/>
        <path id="DejaVuSans-35" d="M 691 4666 
L 3169 4666 
L 3169 4134 
L 1269 4134 
L 1269 2991 
Q 1406 3038 1543 3061 
Q 1681 3084 1819 3084 
Q 2600 3084 3056 2656 
Q 3513 2228 3513 1497 
Q 3513 744 3044 326 
Q 2575 -91 1722 -91 
Q 1428 -91 1123 -41 
Q 819 9 494 109 
L 494 744 
Q 775 591 1075 516 
Q 1375 441 1709 441 
Q 2250 441 2565 725 
Q 2881 1009 2881 1497 
Q 2881 1984 2565 2268 
Q 2250 2553 1709 2553 
Q 1456 2553 1204 2497 
Q 953 2441 691 2322 
L 691 4666 
z
" transform="scale(0.015625)"/>
       </defs>
       <use xlink:href="#DejaVuSans-32"/>
       <use xlink:href="#DejaVuSans-35" transform="translate(63.623047 0)"/>
       <use xlink:href="#DejaVuSans-36" transform="translate(127.246094 0)"/>
       <use xlink:href="#DejaVuSans-20" transform="translate(190.869141 0)"/>
       <use xlink:href="#DejaVuSans-42" transform="translate(222.65625 0)"/>
      </g>
     </g>
    </g>
    <g id="xtick_3">
     <g id="line2d_5">
      <path d="M 218.343693 318.04 
L 218.343693 26.16 
" clip-path="url(#p2b66211125)" style="fill: none; stroke: #30333e; stroke-width: 0.6; stroke-linecap: square"/>
     </g>
     <g id="line2d_6">
      <g>
       <use xlink:href="#mc7416fe2b4" x="218.343693" y="318.04" style="fill: #e0e0e0; stroke: #e0e0e0; stroke-width: 0.8"/>
      </g>
     </g>
     <g id="text_3">
      <!-- 1 KB -->
      <g style="fill: #e0e0e0" transform="translate(206.864006 332.638438) scale(0.1 -0.1)">
       <defs>
        <path id="DejaVuSans-31" d="M 794 531 
L 1825 531 
L 1825 4091 
L 703 3866 
L 703 4441 
L 1819 4666 
L 2450 4666 
L 2450 531 
L 3481 531 
L 3481 0 
L 794 0 
L 794 531 
z
" transform="scale(0.015625)"/>
        <path id="DejaVuSans-4b" d="M 628 4666 
L 1259 4666 
L 1259 2694 
L 3353 4666 
L 4166 4666 
L 1850 2491 
L 4331 0 
L 3500 0 
L 1259 2247 
L 1259 0 
L 628 0 
L 628 4666 
z
" transform="scale(0.015625)"/>
       </defs>
       <use xlink:href="#DejaVuSans-31"/>
       <use xlink:href="#DejaVuSans-20" transform="translate(63.623047 0)"/>
       <use xlink:href="#DejaVuSans-4b" transform="translate(95.410156 0)"/>
       <use xlink:href="#DejaVuSans-42" transform="translate(160.986328 0)"/>
      </g>
     </g>
    </g>
    <g id="xtick_4">
     <g id="line2d_7">
      <path d="M 277.132898 318.04 
L 277.132898 26.16 
" clip-path="url(#p2b66211125)" style="fill: none; stroke: #30333e; stroke-width: 0.6; stroke-linecap: square"/>
     </g>
     <g id="line2d_8">
      <g>
       <use xlink:href="#mc7416fe2b4" x="277.132898" y="318.04" style="fill: #e0e0e0; stroke: #e0e0e0; stroke-width: 0.8"/>
      </g>
     </g>
     <g id="text_4">
      <!-- 4 KB -->
      <g style="fill: #e0e0e0" transform="translate(265.65321 332.638438) scale(0.1 -0.1)">
       <use xlink:href="#DejaVuSans-34"/>
       <use xlink:href="#DejaVuSans-20" transform="translate(63.623047 0)"/>
       <use xlink:href="#DejaVuSans-4b" transform="translate(95.410156 0)"/>
       <use xlink:href="#DejaVuSans-42" transform="translate(160.986328 0)"/>
      </g>
     </g>
    </g>
    <g id="xtick_5">
     <g id="line2d_9">
      <path d="M 335.922102 318.04 
L 335.922102 26.16 
" clip-path="url(#p2b66211125)" style="fill: none; stroke: #30333e; stroke-width: 0.6; stroke-linecap: square"/>
     </g>
     <g id="line2d_10">
      <g>
       <use xlink:href="#mc7416fe2b4" x="335.922102" y="318.04" style="fill: #e0e0e0; stroke: #e0e0e0; stroke-width: 0.8"/>
      </g>
     </g>
     <g id="text_5">
      <!-- 16 KB -->
      <g style="fill: #e0e0e0" transform="translate(321.261165 332.638438) scale(0.1 -0.1)">
       <use xlink:href="#DejaVuSans-31"/>
       <use xlink:href="#DejaVuSans-36" transform="translate(63.623047 0)"/>
       <use xlink:href="#DejaVuSans-20" transform="translate(127.246094 0)"/>
       <use xlink:href="#DejaVuSans-4b" transform="translate(159.033203 0)"/>
       <use xlink:href="#DejaVuSans-42" transform="translate(224.609375 0)"/>
      </g>
     </g>
    </g>
    <g id="xtick_6">
     <g id="line2d_11">
      <path d="M 394.711307 318.04 
L 394.711307 26.16 
" clip-path="url(#p2b66211125)" style="fill: none; stroke: #30333e; stroke-width: 0.6; stroke-linecap: square"/>
     </g>
     <g id="line2d_12">
      <g>
       <use xlink:href="#mc7416fe2b4" x="394.711307" y="318.04" style="fill: #e0e0e0; stroke: #e0e0e0; stroke-width: 0.8"/>
      </g>
     </g>
     <g id="text_6">
      <!-- 64 KB -->
      <g style="fill: #e0e0e0" transform="translate(380.050369 332.638438) scale(0.1 -0.1)">
       <use xlink:href="#DejaVuSans-36"/>
       <use xlink:href="#DejaVuSans-34" transform="translate(63.623047 0)"/>
       <use xlink:href="#DejaVuSans-20" transform="translate(127.246094 0)"/>
       <use xlink:href="#DejaVuSans-4b" transform="translate(159.033203 0)"/>
       <use xlink:href="#DejaVuSans-42" transform="translate(224.609375 0)"/>
      </g>
     </g>
    </g>
    <g id="xtick_7">
     <g id="line2d_13">
      <path d="M 453.500511 318.04 
L 453.500511 26.16 
" clip-path="url(#p2b66211125)" style="fill: none; stroke: #30333e; stroke-width: 0.6; stroke-linecap: square"/>
     </g>
     <g id="line2d_14">
      <g>
       <use xlink:href="#mc7416fe2b4" x="453.500511" y="318.04" style="fill: #e0e0e0; stroke: #e0e0e0; stroke-width: 0.8"/>
      </g>
     </g>
     <g id="text_7">
      <!-- 256 KB -->
      <g style="fill: #e0e0e0" transform="translate(435.658324 332.638438) scale(0.1 -0.1)">
       <use xlink:href="#DejaVuSans-32"/>
       <use xlink:href="#DejaVuSans-35" transform="translate(63.623047 0)"/>
       <use xlink:href="#DejaVuSans-36" transform="translate(127.246094 0)"/>
       <use xlink:href="#DejaVuSans-20" transform="translate(190.869141 0)"/>
       <use xlink:href="#DejaVuSans-4b" transform="translate(222.65625 0)"/>
       <use xlink:href="#DejaVuSans-42" transform="translate(288.232422 0)"/>
      </g>
     </g>
    </g>
    <g id="xtick_8">
     <g id="line2d_15">
      <path d="M 512.289716 318.04 
L 512.289716 26.16 
" clip-path="url(#p2b66211125)" style="fill: none; stroke: #30333e; stroke-width: 0.6; stroke-linecap: square"/>
     </g>
     <g id="line2d_16">
      <g>
       <use xlink:href="#mc7416fe2b4" x="512.289716" y="318.04" style="fill: #e0e0e0; stroke: #e0e0e0; stroke-width: 0.8"/>
      </g>
     </g>
     <g id="text_8">
      <!-- 1 MB -->
      <g style="fill: #e0e0e0" transform="translate(499.774872 332.638438) scale(0.1 -0.1)">
       <defs>
        <path id="DejaVuSans-4d" d="M 628 4666 
L 1569 4666 
L 2759 1491 
L 3956 4666 
L 4897 4666 
L 4897 0 
L 4281 0 
L 4281 4097 
L 3078 897 
L 2444 897 
L 1241 4097 
L 1241 0 
L 628 0 
L 628 4666 
z
" transform="scale(0.015625)"/>
       </defs>
       <use xlink:href="#DejaVuSans-31"/>
       <use xlink:href="#DejaVuSans-20" transform="translate(63.623047 0)"/>
       <use xlink:href="#DejaVuSans-4d" transform="translate(95.410156 0)"/>
       <use xlink:href="#DejaVuSans-42" transform="translate(181.689453 0)"/>
      </g>
     </g>
    </g>
    <g id="text_9">
     <!-- Block size -->
     <g style="fill: #e0e0e0" transform="translate(281.720469 346.316563) scale(0.1 -0.1)">
      <defs>
       <path id="DejaVuSans-6c" d="M 603 4863 
L 1178 4863 
L 1178 0 
L 603 0 
L 603 4863 
z
" transform="scale(0.015625)"/>
       <path id="DejaVuSans-6f" d="M 1959 3097 
Q 1497 3097 1228 2736 
Q 959 2375 959 1747 
Q 959 1119 1226 758 
Q 1494 397 1959 397 
Q 2419 397 2687 759 
Q 2956 1122 2956 1747 
Q 2956 2369 2687 2733 
Q 2419 3097 1959 3097 
z
M 1959 3584 
Q 2709 3584 3137 3096 
Q 3566 2609 3566 1747 
Q 3566 888 3137 398 
Q 2709 -91 1959 -91 
Q 1206 -91 779 398 
Q 353 888 353 1747 
Q 353 2609 779 3096 
Q 1206 3584 1959 3584 
z
" transform="scale(0.015625)"/>
       <path id="DejaVuSans-63" d="M 3122 3366 
L 3122 2828 
Q 2878 2963 2633 3030 
Q 2388 3097 2138 3097 
Q 1578 3097 1268 2742 
Q 959 2388 959 1747 
Q 959 1106 1268 751 
Q 1578 397 2138 397 
Q 2388 397 2633 464 
Q 2878 531 3122 666 
L 3122 134 
Q 2881 22 2623 -34 
Q 2366 -91 2075 -91 
Q 1284 -91 818 406 
Q 353 903 353 1747 
Q 353 2603 823 3093 
Q 1294 3584 2113 3584 
Q 2378 3584 2631 3529 
Q 2884 3475 3122 3366 
z
" transform="scale(0.015625)"/>
       <path id="DejaVuSans-6b" d="M 581 4863 
L 1159 4863 
L 1159 1991 
L 2875 3500 
L 3609 3500 
L 1753 1863 
L 3688 0 
L 2938 0 
L 1159 1709 
L 1159 0 
L 581 0 
L 581 4863 
z
" transform="scale(0.015625)"/>
       <path id="DejaVuSans-73" d="M 2834 3397 
L 2834 2853 
Q 2591 2978 2328 3040 
Q 2066 3103 1784 3103 
Q 1356 3103 1142 2972 
Q 928 2841 928 2578 
Q 928 2378 1081 2264 
Q 1234 2150 1697 2047 
L 1894 2003 
Q 2506 1872 2764 1633 
Q 3022 1394 3022 966 
Q 3022 478 2636 193 
Q 2250 -91 1575 -91 
Q 1294 -91 989 -36 
Q 684 19 347 128 
L 347 722 
Q 666 556 975 473 
Q 1284 391 1588 391 
Q 1994 391 2212 530 
Q 2431 669 2431 922 
Q 2431 1156 2273 1281 
Q 2116 1406 1581 1522 
L 1381 1569 
Q 847 1681 609 1914 
Q 372 2147 372 2553 
Q 372 3047 722 3315 
Q 1072 3584 1716 3584 
Q 2034 3584 2315 3537 
Q 2597 3491 2834 3397 
z
" transform="scale(0.015625)"/>
       <path id="DejaVuSans-69" d="M 603 3500 
L 1178 3500 
L 1178 0 
L 603 0 
L 603 3500 
z
M 603 4863 
L 1178 4863 
L 1178 4134 
L 603 4134 
L 603 4863 
z
" transform="scale(0.015625)"/>
       <path id="DejaVuSans-7a" d="M 353 3500 
L 3084 3500 
L 3084 2975 
L 922 459 
L 3084 459 
L 3084 0 
L 275 0 
L 275 525 
L 2438 3041 
L 353 3041 
L 353 3500 
z
" transform="scale(0.015625)"/>
       <path id="DejaVuSans-65" d="M 3597 1894 
L 3597 1613 
L 953 1613 
Q 991 1019 1311 708 
Q 1631 397 2203 397 
Q 2534 397 2845 478 
Q 3156 559 3463 722 
L 3463 178 
Q 3153 47 2828 -22 
Q 2503 -91 2169 -91 
Q 1331 -91 842 396 
Q 353 884 353 1716 
Q 353 2575 817 3079 
Q 1281 3584 2069 3584 
Q 2775 3584 3186 3129 
Q 3597 2675 3597 1894 
z
M 3022 2063 
Q 3016 2534 2758 2815 
Q 2500 3097 2075 3097 
Q 1594 3097 1305 2825 
Q 1016 2553 972 2059 
L 3022 2063 
z
" transform="scale(0.015625)"/>
      </defs>
      <use xlink:href="#DejaVuSans-42"/>
      <use xlink:href="#DejaVuSans-6c" transform="translate(68.603516 0)"/>
      <use xlink:href="#DejaVuSans-6f" transform="translate(96.386719 0)"/>
      <use xlink:href="#DejaVuSans-63" transform="translate(157.568359 0)"/>
      <use xlink:href="#DejaVuSans-6b" transform="translate(212.548828 0)"/>
      <use xlink:href="#DejaVuSans-20" transform="translate(270.458984 0)"/>
      <use xlink:href="#DejaVuSans-73" transform="translate(302.246094 0)"/>
      <use xlink:href="#DejaVuSans-69" transform="translate(354.345703 0)"/>
      <use xlink:href="#DejaVuSans-7a" transform="translate(382.128906 0)"/>
      <use xlink:href="#DejaVuSans-65" transform="translate(434.619141 0)"/>
     </g>
    </g>
   </g>
   <g id="matplotlib.axis_2">
    <g id="ytick_1">
     <g id="line2d_17">
      <path d="M 47.855 318.04 
L 565.2 318.04 
" clip-path="url(#p2b66211125)" style="fill: none; stroke: #30333e; stroke-width: 0.6; stroke-linecap: square"/>
     </g>
     <g id="line2d_18">
      <defs>
       <path id="mb688ca049b" d="M 0 0 
L -3.5 0 
" style="stroke: #e0e0e0; stroke-width: 0.8"/>
      </defs>
      <g>
       <use xlink:href="#mb688ca049b" x="47.855" y="318.04" style="fill: #e0e0e0; stroke: #e0e0e0; stroke-width: 0.8"/>
      </g>
     </g>
     <g id="text_10">
      <!-- 0.0 -->
      <g style="fill: #e0e0e0" transform="translate(24.951875 321.839219) scale(0.1 -0.1)">
       <defs>
        <path id="DejaVuSans-30" d="M 2034 4250 
Q 1547 4250 1301 3770 
Q 1056 3291 1056 2328 
Q 1056 1369 1301 889 
Q 1547 409 2034 409 
Q 2525 409 2770 889 
Q 3016 1369 3016 2328 
Q 3016 3291 2770 3770 
Q 2525 4250 2034 4250 
z
M 2034 4750 
Q 2819 4750 3233 4129 
Q 3647 3509 3647 2328 
Q 3647 1150 3233 529 
Q 2819 -91 2034 -91 
Q 1250 -91 836 529 
Q 422 1150 422 2328 
Q 422 3509 836 4129 
Q 1250 4750 2034 4750 
z
" transform="scale(0.015625)"/>
        <path id="DejaVuSans-2e" d="M 684 794 
L 1344 794 
L 1344 0 
L 684 0 
L 684 794 
z
" transform="scale(0.015625)"/>
       </defs>
       <use xlink:href="#DejaVuSans-30"/>
       <use xlink:href="#DejaVuSans-2e" transform="translate(63.623047 0)"/>
       <use xlink:href="#DejaVuSans-30" transform="translate(95.410156 0)"/>
      </g>
     </g>
    </g>
    <g id="ytick_2">
     <g id="line2d_19">
      <path d="M 47.855 262.44381 
L 565.2 262.44381 
" clip-path="url(#p2b66211125)" style="fill: none; stroke: #30333e; stroke-width: 0.6; stroke-linecap: square"/>
     </g>
     <g id="line2d_20">
      <g>
       <use xlink:href="#mb688ca049b" x="47.855" y="262.44381" style="fill: #e0e0e0; stroke: #e0e0e0; stroke-width: 0.8"/>
      </g>
     </g>
     <g id="text_11">
      <!-- 0.2 -->
      <g style="fill: #e0e0e0" transform="translate(24.951875 266.243028) scale(0.1 -0.1)">
       <use xlink:href="#DejaVuSans-30"/>
       <use xlink:href="#DejaVuSans-2e" transform="translate(63.623047 0)"/>
       <use xlink:href="#DejaVuSans-32" transform="translate(95.410156 0)"/>
      </g>
     </g>
    </g>
    <g id="ytick_3">
     <g id="line2d_21">
      <path d="M 47.855 206.847619 
L 565.2 206.847619 
" clip-path="url(#p2b66211125)" style="fill: none; stroke: #30333e; stroke-width: 0.6; stroke-linecap: square"/>
     </g>
     <g id="line2d_22">
      <g>
       <use xlink:href="#mb688ca049b" x="47.855" y="206.847619" style="fill: #e0e0e0; stroke: #e0e0e0; stroke-width: 0.8"/>
      </g>
     </g>
     <g id="text_12">
      <!-- 0.4 -->
      <g style="fill: #e0e0e0" transform="translate(24.951875 210.646838) scale(0.1 -0.1)">
       <use xlink:href="#DejaVuSans-30"/>
       <use xlink:href="#DejaVuSans-2e" transform="translate(63.623047 0)"/>
       <use xlink:href="#DejaVuSans-34" transform="translate(95.410156 0)"/>
      </g>
     </g>
    </g>
    <g id="ytick_4">
     <g id="line2d_23">
      <path d="M 47.855 151.251429 
L 565.2 151.251429 
" clip-path="url(#p2b66211125)" style="fill: none; stroke: #30333e; stroke-width: 0.6; stroke-linecap: square"/>
     </g>
     <g id="line2d_24">
      <g>
       <use xlink:href="#mb688ca049b" x="47.855" y="151.251429" style="fill: #e0e0e0; stroke: #e0e0e0; stroke-width: 0.8"/>
      </g>
     </g>
     <g id="text_13">
      <!-- 0.6 -->
      <g style="fill: #e0e0e0" transform="translate(24.951875 155.050647) scale(0.1 -0.1)">
       <use xlink:href="#DejaVuSans-30"/>
       <use xlink:href="#DejaVuSans-2e" transform="translate(63.623047 0)"/>
       <use xlink:href="#DejaVuSans-36" transform="translate(95.410156 0)"/>
      </g>
     </g>
    </g>
    <g id="ytick_5">
     <g id="line2d_25">
      <path d="M 47.855 95.655238 
L 565.2 95.655238 
" clip-path="url(#p2b66211125)" style="fill: none; stroke: #30333e; stroke-width: 0.6; stroke-linecap: square"/>
     </g>
     <g id="line2d_26">
      <g>
       <use xlink:href="#mb688ca049b" x="47.855" y="95.655238" style="fill: #e0e0e0; stroke: #e0e0e0; stroke-width: 0.8"/>
      </g>
     </g>
     <g id="text_14">
      <!-- 0.8 -->
      <g style="fill: #e0e0e0" transform="translate(24.951875 99.454457) scale(0.1 -0.1)">
       <defs>
        <path id="DejaVuSans-38" d="M 2034 2216 
Q 1584 2216 1326 1975 
Q 1069 1734 1069 1313 
Q 1069 891 1326 650 
Q 1584 409 2034 409 
Q 2484 409 2743 651 
Q 3003 894 3003 1313 
Q 3003 1734 2745 1975 
Q 2488 2216 2034 2216 
z
M 1403 2484 
Q 997 2584 770 2862 
Q 544 3141 544 3541 
Q 544 4100 942 4425 
Q 1341 4750 2034 4750 
Q 2731 4750 3128 4425 
Q 3525 4100 3525 3541 
Q 3525 3141 3298 2862 
Q 3072 2584 2669 2484 
Q 3125 2378 3379 2068 
Q 3634 1759 3634 1313 
Q 3634 634 3220 271 
Q 2806 -91 2034 -91 
Q 1263 -91 848 271 
Q 434 634 434 1313 
Q 434 1759 690 2068 
Q 947 2378 1403 2484 
z
M 1172 3481 
Q 1172 3119 1398 2916 
Q 1625 2713 2034 2713 
Q 2441 2713 2670 2916 
Q 2900 3119 2900 3481 
Q 2900 3844 2670 4047 
Q 2441 4250 2034 4250 
Q 1625 4250 1398 4047 
Q 1172 3844 1172 3481 
z
" transform="scale(0.015625)"/>
       </defs>
       <use xlink:href="#DejaVuSans-30"/>
       <use xlink:href="#DejaVuSans-2e" transform="translate(63.623047 0)"/>
       <use xlink:href="#DejaVuSans-38" transform="translate(95.410156 0)"/>
      </g>
     </g>
    </g>
    <g id="ytick_6">
     <g id="line2d_27">
      <path d="M 47.855 40.059048 
L 565.2 40.059048 
" clip-path="url(#p2b66211125)" style="fill: none; stroke: #30333e; stroke-width: 0.6; stroke-linecap: square"/>
     </g>
     <g id="line2d_28">
      <g>
       <use xlink:href="#mb688ca049b" x="47.855" y="40.059048" style="fill: #e0e0e0; stroke: #e0e0e0; stroke-width: 0.8"/>
      </g>
     </g>
     <g id="text_15">
      <!-- 1.0 -->
      <g style="fill: #e0e0e0" transform="translate(24.951875 43.858266) scale(0.1 -0.1)">
       <use xlink:href="#DejaVuSans-31"/>
       <use xlink:href="#DejaVuSans-2e" transform="translate(63.623047 0)"/>
       <use xlink:href="#DejaVuSans-30" transform="translate(95.410156 0)"/>
      </g>
     </g>
    </g>
    <g id="text_16">
     <!-- Normalized throughput -->
     <g style="fill: #e0e0e0" transform="translate(18.872187 229.990625) rotate(-90) scale(0.1 -0.1)">
      <defs>
       <path id="DejaVuSans-4e" d="M 628 4666 
L 1478 4666 
L 3547 763 
L 3547 4666 
L 4159 4666 
L 4159 0 
L 3309 0 
L 1241 3903 
L 1241 0 
L 628 0 
L 628 4666 
z
" transform="scale(0.015625)"/>
       <path id="DejaVuSans-72" d="M 2631 2963 
Q 2534 3019 2420 3045 
Q 2306 3072 2169 3072 
Q 1681 3072 1420 2755 
Q 1159 2438 1159 1844 
L 1159 0 
L 581 0 
L 581 3500 
L 1159 3500 
L 1159 2956 
Q 1341 3275 1631 3429 
Q 1922 3584 2338 3584 
Q 2397 3584 2469 3576 
Q 2541 3569 2628 3553 
L 2631 2963 
z
" transform="scale(0.015625)"/>
       <path id="DejaVuSans-6d" d="M 3328 2828 
Q 3544 3216 3844 3400 
Q 4144 3584 4550 3584 
Q 5097 3584 5394 3201 
Q 5691 2819 5691 2113 
L 5691 0 
L 5113 0 
L 5113 2094 
Q 5113 2597 4934 2840 
Q 4756 3084 4391 3084 
Q 3944 3084 3684 2787 
Q 3425 2491 3425 1978 
L 3425 0 
L 2847 0 
L 2847 2094 
Q 2847 2600 2669 2842 
Q 2491 3084 2119 3084 
Q 1678 3084 1418 2786 
Q 1159 2488 1159 1978 
L 1159 0 
L 581 0 
L 581 3500 
L 1159 3500 
L 1159 2956 
Q 1356 3278 1631 3431 
Q 1906 3584 2284 3584 
Q 2666 3584 2933 3390 
Q 3200 3197 3328 2828 
z
" transform="scale(0.015625)"/>
       <path id="DejaVuSans-61" d="M 2194 1759 
Q 1497 1759 1228 1600 
Q 959 1441 959 1056 
Q 959 750 1161 570 
Q 1363 391 1709 391 
Q 2188 391 2477 730 
Q 2766 1069 2766 1631 
L 2766 1759 
L 2194 1759 
z
M 3341 1997 
L 3341 0 
L 2766 0 
L 2766 531 
Q 2569 213 2275 61 
Q 1981 -91 1556 -91 
Q 1019 -91 701 211 
Q 384 513 384 1019 
Q 384 1609 779 1909 
Q 1175 2209 1959 2209 
L 2766 2209 
L 2766 2266 
Q 2766 2663 2505 2880 
Q 2244 3097 1772 3097 
Q 1472 3097 1187 3025 
Q 903 2953 641 2809 
L 641 3341 
Q 956 3463 1253 3523 
Q 1550 3584 1831 3584 
Q 2591 3584 2966 3190 
Q 3341 2797 3341 1997 
z
" transform="scale(0.015625)"/>
       <path id="DejaVuSans-64" d="M 2906 2969 
L 2906 4863 
L 3481 4863 
L 3481 0 
L 2906 0 
L 2906 525 
Q 2725 213 2448 61 
Q 2172 -91 1784 -91 
Q 1150 -91 751 415 
Q 353 922 353 1747 
Q 353 2572 751 3078 
Q 1150 3584 1784 3584 
Q 2172 3584 2448 3432 
Q 2725 3281 2906 2969 
z
M 947 1747 
Q 947 1113 1208 752 
Q 1469 391 1925 391 
Q 2381 391 2643 752 
Q 2906 1113 2906 1747 
Q 2906 2381 2643 2742 
Q 2381 3103 1925 3103 
Q 1469 3103 1208 2742 
Q 947 2381 947 1747 
z
" transform="scale(0.015625)"/>
       <path id="DejaVuSans-74" d="M 1172 4494 
L 1172 3500 
L 2356 3500 
L 2356 3053 
L 1172 3053 
L 1172 1153 
Q 1172 725 1289 603 
Q 1406 481 1766 481 
L 2356 481 
L 2356 0 
L 1766 0 
Q 1100 0 847 248 
Q 594 497 594 1153 
L 594 3053 
L 172 3053 
L 172 3500 
L 594 3500 
L 594 4494 
L 1172 4494 
z
" transform="scale(0.015625)"/>
       <path id="DejaVuSans-68" d="M 3513 2113 
L 3513 0 
L 2938 0 
L 2938 2094 
Q 2938 2591 2744 2837 
Q 2550 3084 2163 3084 
Q 1697 3084 1428 2787 
Q 1159 2491 1159 1978 
L 1159 0 
L 581 0 
L 581 4863 
L 1159 4863 
L 1159 2956 
Q 1366 3272 1645 3428 
Q 1925 3584 2291 3584 
Q 2894 3584 3203 3211 
Q 3513 2838 3513 2113 
z
" transform="scale(0.015625)"/>
       <path id="DejaVuSans-75" d="M 544 1381 
L 544 3500 
L 1119 3500 
L 1119 1403 
Q 1119 906 1312 657 
Q 1506 409 1894 409 
Q 2359 409 2629 706 
Q 2900 1003 2900 1516 
L 2900 3500 
L 3475 3500 
L 3475 0 
L 2900 0 
L 2900 538 
Q 2691 219 2414 64 
Q 2138 -91 1772 -91 
Q 1169 -91 856 284 
Q 544 659 544 1381 
z
M 1991 3584 
L 1991 3584 
z
" transform="scale(0.015625)"/>
       <path id="DejaVuSans-67" d="M 2906 1791 
Q 2906 2416 2648 2759 
Q 2391 3103 1925 3103 
Q 1463 3103 1205 2759 
Q 947 2416 947 1791 
Q 947 1169 1205 825 
Q 1463 481 1925 481 
Q 2391 481 2648 825 
Q 2906 1169 2906 1791 
z
M 3481 434 
Q 3481 -459 3084 -895 
Q 2688 -1331 1869 -1331 
Q 1566 -1331 1297 -1286 
Q 1028 -1241 775 -1147 
L 775 -588 
Q 1028 -725 1275 -790 
Q 1522 -856 1778 -856 
Q 2344 -856 2625 -561 
Q 2906 -266 2906 331 
L 2906 616 
Q 2728 306 2450 153 
Q 2172 0 1784 0 
Q 1141 0 747 490 
Q 353 981 353 1791 
Q 353 2603 747 3093 
Q 1141 3584 1784 3584 
Q 2172 3584 2450 3431 
Q 2728 3278 2906 2969 
L 2906 3500 
L 3481 3500 
L 3481 434 
z
" transform="scale(0.015625)"/>
       <path id="DejaVuSans-70" d="M 1159 525 
L 1159 -1331 
L 581 -1331 
L 581 3500 
L 1159 3500 
L 1159 2969 
Q 1341 3281 1617 3432 
Q 1894 3584 2278 3584 
Q 2916 3584 3314 3078 
Q 3713 2572 3713 1747 
Q 3713 922 3314 415 
Q 2916 -91 2278 -91 
Q 1894 -91 1617 61 
Q 1341 213 1159 525 
z
M 3116 1747 
Q 3116 2381 2855 2742 
Q 2594 3103 2138 3103 
Q 1681 3103 1420 2742 
Q 1159 2381 1159 1747 
Q 1159 1113 1420 752 
Q 1681 391 2138 391 
Q 2594 391 2855 752 
Q 3116 1113 3116 1747 
z
" transform="scale(0.015625)"/>
      </defs>
      <use xlink:href="#DejaVuSans-4e"/>
      <use xlink:href="#DejaVuSans-6f" transform="translate(74.804688 0)"/>
      <use xlink:href="#DejaVuSans-72" transform="translate(135.986328 0)"/>
      <use xlink:href="#DejaVuSans-6d" transform="translate(175.349609 0)"/>
      <use xlink:href="#DejaVuSans-61" transform="translate(272.761719 0)"/>
      <use xlink:href="#DejaVuSans-6c" transform="translate(334.041016 0)"/>
      <use xlink:href="#DejaVuSans-69" transform="translate(361.824219 0)"/>
      <use xlink:href="#DejaVuSans-7a" transform="translate(389.607422 0)"/>
      <use xlink:href="#DejaVuSans-65" transform="translate(442.097656 0)"/>
      <use xlink:href="#DejaVuSans-64" transform="translate(503.621094 0)"/>
      <use xlink:href="#DejaVuSans-20" transform="translate(567.097656 0)"/>
      <use xlink:href="#DejaVuSans-74" transform="translate(598.884766 0)"/>
      <use xlink:href="#DejaVuSans-68" transform="translate(638.09375 0)"/>
      <use xlink:href="#DejaVuSans-72" transform="translate(701.472656 0)"/>
      <use xlink:href="#DejaVuSans-6f" transform="translate(740.335938 0)"/>
      <use xlink:href="#DejaVuSans-75" transform="translate(801.517578 0)"/>
      <use xlink:href="#DejaVuSans-67" transform="translate(864.896484 0)"/>
      <use xlink:href="#DejaVuSans-68" transform="translate(928.373047 0)"/>
      <use xlink:href="#DejaVuSans-70" transform="translate(991.751953 0)"/>
      <use xlink:href="#DejaVuSans-75" transform="translate(1055.228516 0)"/>
      <use xlink:href="#DejaVuSans-74" transform="translate(1118.607422 0)"/>
     </g>
    </g>
   </g>
   <g id="line2d_29">
    <path d="M 71.370682 56.85417 
L 100.765284 55.244533 
L 130.159886 57.626442 
L 159.554489 43.264607 
L 188.949091 44.716804 
L 218.343693 46.138865 
L 247.738295 40.982359 
L 277.132898 40.918224 
L 306.5275 41.899556 
L 335.922102 43.72633 
L 365.316705 42.844679 
L 394.711307 45.786172 
L 424.105909 40.059048 
L 453.500511 44.465804 
L 482.895114 42.551492 
L 512.289716 46.019876 
" clip-path="url(#p2b66211125)" style="fill: none; stroke-dasharray: 1.2,1.98; stroke-dashoffset: 0; stroke: #ffcc80; stroke-opacity: 0.85; stroke-width: 1.2"/>
   </g>
   <g id="line2d_30">
    <path d="M 71.370682 54.274873 
L 100.765284 47.402746 
L 130.159886 50.007064 
L 159.554489 55.185589 
L 188.949091 53.698771 
L 218.343693 52.369835 
L 247.738295 52.681402 
L 277.132898 51.851286 
L 306.5275 52.267807 
L 335.922102 57.231623 
L 365.316705 51.728692 
L 394.711307 40.059048 
L 424.105909 56.2587 
L 453.500511 45.658194 
L 482.895114 47.090502 
L 512.289716 55.825541 
L 541.684318 55.999293 
" clip-path="url(#p2b66211125)" style="fill: none; stroke-dasharray: 1.2,1.98; stroke-dashoffset: 0; stroke: #fcbc6b; stroke-opacity: 0.85; stroke-width: 1.2"/>
   </g>
   <g id="line2d_31">
    <path d="M 71.370682 46.613704 
L 100.765284 41.824068 
L 130.159886 40.395015 
L 159.554489 40.059048 
L 188.949091 40.834394 
L 218.343693 41.345202 
L 247.738295 41.064518 
L 277.132898 40.607226 
L 306.5275 41.953653 
L 335.922102 40.965187 
L 365.316705 41.453942 
L 394.711307 41.567295 
L 424.105909 41.055365 
L 453.500511 40.674553 
L 482.895114 41.161561 
L 512.289716 41.218092 
L 541.684318 41.396954 
" clip-path="url(#p2b66211125)" style="fill: none; stroke-dasharray: 1.2,1.98; stroke-dashoffset: 0; stroke: #faac55; stroke-opacity: 0.85; stroke-width: 1.2"/>
   </g>
   <g id="line2d_32">
    <path d="M 71.370682 47.935308 
L 100.765284 51.090908 
L 130.159886 40.70667 
L 159.554489 40.059048 
L 188.949091 44.835789 
L 218.343693 44.342052 
L 247.738295 44.435347 
L 277.132898 47.457933 
L 306.5275 47.104345 
L 335.922102 48.295797 
L 365.316705 51.220211 
L 394.711307 51.430378 
L 424.105909 51.95183 
L 453.500511 59.698645 
L 482.895114 59.915833 
L 512.289716 59.508454 
L 541.684318 59.735462 
" clip-path="url(#p2b66211125)" style="fill: none; stroke-dasharray: 1.2,1.98; stroke-dashoffset: 0; stroke: #f79c40; stroke-opacity: 0.85; stroke-width: 1.2"/>
   </g>
   <g id="line2d_33">
    <path d="M 71.370682 85.251695 
L 100.765284 122.652072 
L 130.159886 118.843271 
L 159.554489 126.064013 
L 188.949091 136.625731 
L 218.343693 120.713687 
L 247.738295 105.289112 
L 277.132898 91.369837 
L 306.5275 79.686312 
L 335.922102 79.459592 
L 365.316705 68.872429 
L 394.711307 69.153263 
L 424.105909 59.926616 
L 453.500511 55.133873 
L 482.895114 51.807545 
L 512.289716 41.341687 
L 541.684318 40.059048 
" clip-path="url(#p2b66211125)" style="fill: none; stroke-dasharray: 1.2,1.98; stroke-dashoffset: 0; stroke: #f48c2b; stroke-opacity: 0.85; stroke-width: 1.2"/>
   </g>
   <g id="line2d_34">
    <path d="M 71.370682 54.622685 
L 100.765284 56.408058 
L 130.159886 49.010761 
L 159.554489 40.059048 
L 188.949091 40.964148 
L 218.343693 44.056817 
L 247.738295 48.336322 
L 277.132898 58.222386 
L 306.5275 67.43868 
L 335.922102 67.183378 
L 365.316705 67.098439 
L 394.711307 78.583014 
L 424.105909 103.819132 
L 453.500511 119.593271 
L 482.895114 103.318151 
L 512.289716 77.955348 
L 541.684318 67.258276 
" clip-path="url(#p2b66211125)" style="fill: none; stroke-dasharray: 1.2,1.98; stroke-dashoffset: 0; stroke: #f27c15; stroke-opacity: 0.85; stroke-width: 1.2"/>
   </g>
   <g id="line2d_35">
    <path d="M 71.370682 80.623317 
L 100.765284 77.712676 
L 130.159886 75.386894 
L 159.554489 72.785914 
L 188.949091 75.481428 
L 218.343693 73.272076 
L 247.738295 73.980201 
L 277.132898 90.391121 
L 306.5275 116.199504 
L 335.922102 94.232639 
L 365.316705 73.650974 
L 394.711307 57.186085 
L 424.105909 52.003921 
L 453.500511 45.44001 
L 482.895114 40.852148 
L 512.289716 40.059048 
L 541.684318 40.852148 
" clip-path="url(#p2b66211125)" style="fill: none; stroke-dasharray: 1.2,1.98; stroke-dashoffset: 0; stroke: #ef6c00; stroke-opacity: 0.85; stroke-width: 1.2"/>
   </g>
   <g id="line2d_36">
    <path d="M 71.370682 72.696479 
L 100.765284 66.188051 
L 130.159886 63.859731 
L 159.554489 56.957042 
L 188.949091 46.77963 
L 218.343693 45.263121 
L 247.738295 45.439865 
L 277.132898 42.869731 
L 306.5275 42.525196 
L 335.922102 48.700798 
L 365.316705 48.270666 
L 394.711307 46.436 
L 424.105909 45.286478 
L 453.500511 40.059048 
L 482.895114 42.254859 
L 512.289716 47.501493 
" clip-path="url(#p2b66211125)" style="fill: none; stroke: #ffcc80; stroke-opacity: 0.85; stroke-width: 1.2; stroke-linecap: square"/>
   </g>
   <g id="line2d_37">
    <path d="M 71.370682 67.519449 
L 100.765284 60.47961 
L 130.159886 55.828499 
L 159.554489 51.641886 
L 188.949091 49.607528 
L 218.343693 45.089058 
L 247.738295 44.695769 
L 277.132898 49.175503 
L 306.5275 49.498041 
L 335.922102 45.412062 
L 365.316705 44.431274 
L 394.711307 40.059048 
L 424.105909 40.10219 
L 453.500511 40.200506 
L 482.895114 40.487579 
L 512.289716 41.561118 
L 541.684318 41.323589 
" clip-path="url(#p2b66211125)" style="fill: none; stroke: #fcbc6b; stroke-opacity: 0.85; stroke-width: 1.2; stroke-linecap: square"/>
   </g>
   <g id="line2d_38">
    <path d="M 71.370682 56.345328 
L 100.765284 60.668087 
L 130.159886 72.620103 
L 159.554489 73.205727 
L 188.949091 63.8654 
L 218.343693 78.253638 
L 247.738295 77.598069 
L 277.132898 67.084316 
L 306.5275 57.413832 
L 335.922102 56.389818 
L 365.316705 51.862094 
L 394.711307 48.306317 
L 424.105909 48.122351 
L 453.500511 44.270614 
L 482.895114 44.037745 
L 512.289716 40.145212 
L 541.684318 40.059048 
" clip-path="url(#p2b66211125)" style="fill: none; stroke: #faac55; stroke-opacity: 0.85; stroke-width: 1.2; stroke-linecap: square"/>
   </g>
   <g id="line2d_39">
    <path d="M 71.370682 61.031229 
L 100.765284 63.562778 
L 130.159886 58.033673 
L 159.554489 48.908386 
L 188.949091 44.294671 
L 218.343693 44.255468 
L 247.738295 41.980224 
L 277.132898 45.904384 
L 306.5275 41.045111 
L 335.922102 41.477594 
L 365.316705 40.338912 
L 394.711307 40.059048 
L 424.105909 45.216064 
L 453.500511 48.190548 
L 482.895114 48.138001 
L 512.289716 48.026271 
L 541.684318 47.637783 
" clip-path="url(#p2b66211125)" style="fill: none; stroke: #f79c40; stroke-opacity: 0.85; stroke-width: 1.2; stroke-linecap: square"/>
   </g>
   <g id="line2d_40">
    <path d="M 71.370682 75.887419 
L 100.765284 85.554849 
L 130.159886 72.391218 
L 159.554489 69.791367 
L 188.949091 75.699591 
L 218.343693 116.981037 
L 247.738295 129.473303 
L 277.132898 118.222458 
L 306.5275 101.115573 
L 335.922102 88.978076 
L 365.316705 78.74956 
L 394.711307 69.297542 
L 424.105909 57.441502 
L 453.500511 50.567218 
L 482.895114 46.276121 
L 512.289716 40.059048 
L 541.684318 41.969582 
" clip-path="url(#p2b66211125)" style="fill: none; stroke: #f48c2b; stroke-opacity: 0.85; stroke-width: 1.2; stroke-linecap: square"/>
   </g>
   <g id="line2d_41">
    <path d="M 71.370682 65.901623 
L 100.765284 65.518614 
L 130.159886 64.102167 
L 159.554489 62.683204 
L 188.949091 70.315837 
L 218.343693 77.325571 
L 247.738295 75.240779 
L 277.132898 74.05374 
L 306.5275 115.075616 
L 335.922102 127.325518 
L 365.316705 98.907786 
L 394.711307 77.214119 
L 424.105909 60.315107 
L 453.500511 51.23818 
L 482.895114 40.059048 
L 512.289716 40.182737 
L 541.684318 41.901847 
" clip-path="url(#p2b66211125)" style="fill: none; stroke: #f27c15; stroke-opacity: 0.85; stroke-width: 1.2; stroke-linecap: square"/>
   </g>
   <g id="line2d_42">
    <path d="M 71.370682 55.207934 
L 100.765284 66.195412 
L 130.159886 79.425717 
L 159.554489 79.92871 
L 188.949091 130.361644 
L 218.343693 78.505147 
L 247.738295 57.677693 
L 277.132898 44.920349 
L 306.5275 42.841791 
L 335.922102 43.300725 
L 365.316705 44.21566 
L 394.711307 48.101382 
L 424.105909 52.616792 
L 453.500511 96.647536 
L 482.895114 85.979267 
L 512.289716 61.546879 
L 541.684318 40.059048 
" clip-path="url(#p2b66211125)" style="fill: none; stroke: #ef6c00; stroke-opacity: 0.85; stroke-width: 1.2; stroke-linecap: square"/>
   </g>
   <g id="line2d_43">
    <path d="M 71.370682 50.315898 
L 100.765284 49.892714 
L 130.159886 51.236171 
L 159.554489 40.099819 
L 188.949091 40.059048 
L 218.343693 40.100813 
L 247.738295 44.101961 
L 277.132898 40.142566 
L 306.5275 52.111007 
L 335.922102 49.853839 
L 365.316705 49.814954 
L 394.711307 49.81588 
L 424.105909 49.81588 
L 453.500511 49.545223 
L 482.895114 49.545223 
L 512.289716 49.545223 
" clip-path="url(#p2b66211125)" style="fill: none; stroke-dasharray: 1.2,1.98; stroke-dashoffset: 0; stroke: #90caf9; stroke-opacity: 0.85; stroke-width: 1.2"/>
   </g>
   <g id="line2d_44">
    <path d="M 71.370682 77.871765 
L 100.765284 63.364571 
L 130.159886 61.683388 
L 159.554489 61.559761 
L 188.949091 50.149067 
L 218.343693 49.897905 
L 247.738295 50.667477 
L 277.132898 49.840483 
L 306.5275 49.840483 
L 335.922102 49.840483 
L 365.316705 49.840483 
L 394.711307 50.033027 
L 424.105909 52.742055 
L 453.500511 50.129657 
L 482.895114 50.99345 
L 512.289716 40.059048 
L 541.684318 40.079447 
" clip-path="url(#p2b66211125)" style="fill: none; stroke-dasharray: 1.2,1.98; stroke-dashoffset: 0; stroke: #7dbff6; stroke-opacity: 0.85; stroke-width: 1.2"/>
   </g>
   <g id="line2d_45">
    <path d="M 71.370682 141.924176 
L 100.765284 57.715277 
L 130.159886 52.316553 
L 159.554489 52.95619 
L 188.949091 52.006742 
L 218.343693 50.92795 
L 247.738295 48.721016 
L 277.132898 48.499589 
L 306.5275 48.12718 
L 335.922102 44.371952 
L 365.316705 44.109115 
L 394.711307 44.60021 
L 424.105909 40.059048 
L 453.500511 44.73122 
L 482.895114 44.043327 
L 512.289716 40.723932 
L 541.684318 41.374908 
" clip-path="url(#p2b66211125)" style="fill: none; stroke-dasharray: 1.2,1.98; stroke-dashoffset: 0; stroke: #6ab4f2; stroke-opacity: 0.85; stroke-width: 1.2"/>
   </g>
   <g id="line2d_46">
    <path d="M 71.370682 206.560404 
L 100.765284 94.742099 
L 130.159886 51.76533 
L 159.554489 61.960748 
L 188.949091 61.744296 
L 218.343693 43.4169 
L 247.738295 41.640237 
L 277.132898 42.197729 
L 306.5275 43.042591 
L 335.922102 43.291769 
L 365.316705 42.858621 
L 394.711307 41.808584 
L 424.105909 45.828778 
L 453.500511 40.338368 
L 482.895114 59.748204 
L 512.289716 40.059048 
L 541.684318 40.35726 
" clip-path="url(#p2b66211125)" style="fill: none; stroke-dasharray: 1.2,1.98; stroke-dashoffset: 0; stroke: #57a9ef; stroke-opacity: 0.85; stroke-width: 1.2"/>
   </g>
   <g id="line2d_47">
    <path d="M 71.370682 206.397923 
L 100.765284 201.915634 
L 130.159886 168.458134 
L 159.554489 112.152483 
L 188.949091 68.642234 
L 218.343693 49.238559 
L 247.738295 53.149914 
L 277.132898 47.589012 
L 306.5275 47.164104 
L 335.922102 40.059048 
L 365.316705 52.424065 
L 394.711307 51.537819 
L 424.105909 51.140806 
L 453.500511 49.602542 
L 482.895114 51.801409 
L 512.289716 51.121995 
L 541.684318 51.502893 
" clip-path="url(#p2b66211125)" style="fill: none; stroke-dasharray: 1.2,1.98; stroke-dashoffset: 0; stroke: #449eec; stroke-opacity: 0.85; stroke-width: 1.2"/>
   </g>
   <g id="line2d_48">
    <path d="M 71.370682 203.345669 
L 100.765284 196.653032 
L 130.159886 176.875146 
L 159.554489 166.006399 
L 188.949091 123.432151 
L 218.343693 72.844291 
L 247.738295 42.370502 
L 277.132898 40.532945 
L 306.5275 40.059048 
L 335.922102 47.474639 
L 365.316705 50.673253 
L 394.711307 54.931127 
L 424.105909 55.487139 
L 453.500511 53.984123 
L 482.895114 53.533478 
L 512.289716 53.309866 
L 541.684318 61.877215 
" clip-path="url(#p2b66211125)" style="fill: none; stroke-dasharray: 1.2,1.98; stroke-dashoffset: 0; stroke: #3193e8; stroke-opacity: 0.85; stroke-width: 1.2"/>
   </g>
   <g id="line2d_49">
    <path d="M 71.370682 235.717145 
L 100.765284 218.685759 
L 130.159886 259.0333 
L 159.554489 216.728257 
L 188.949091 140.58435 
L 218.343693 99.877382 
L 247.738295 67.579973 
L 277.132898 44.610921 
L 306.5275 40.059048 
L 335.922102 40.359449 
L 365.316705 41.137463 
L 394.711307 43.136237 
L 424.105909 44.460224 
L 453.500511 46.48916 
L 482.895114 46.215414 
L 512.289716 47.540131 
L 541.684318 46.807834 
" clip-path="url(#p2b66211125)" style="fill: none; stroke-dasharray: 1.2,1.98; stroke-dashoffset: 0; stroke: #1e88e5; stroke-opacity: 0.85; stroke-width: 1.2"/>
   </g>
   <g id="line2d_50">
    <path d="M 71.370682 309.768605 
L 100.765284 264.06634 
L 130.159886 222.030383 
L 159.554489 214.90367 
L 188.949091 181.271126 
L 218.343693 130.581936 
L 247.738295 100.418202 
L 277.132898 72.439023 
L 306.5275 54.310179 
L 335.922102 46.875252 
L 365.316705 42.087353 
L 394.711307 40.059048 
L 424.105909 59.920127 
L 453.500511 105.566045 
L 482.895114 85.972215 
L 512.289716 84.20246 
" clip-path="url(#p2b66211125)" style="fill: none; stroke: #90caf9; stroke-opacity: 0.85; stroke-width: 1.2; stroke-linecap: square"/>
   </g>
   <g id="line2d_51">
    <path d="M 71.370682 259.506962 
L 100.765284 211.825544 
L 130.159886 194.78549 
L 159.554489 182.930553 
L 188.949091 159.952071 
L 218.343693 122.494071 
L 247.738295 88.659345 
L 277.132898 72.879663 
L 306.5275 56.567226 
L 335.922102 51.010346 
L 365.316705 47.832407 
L 394.711307 60.943985 
L 424.105909 46.818247 
L 453.500511 40.059048 
L 482.895114 58.93231 
L 512.289716 58.847638 
L 541.684318 58.826842 
" clip-path="url(#p2b66211125)" style="fill: none; stroke: #7dbff6; stroke-opacity: 0.85; stroke-width: 1.2; stroke-linecap: square"/>
   </g>
   <g id="line2d_52">
    <path d="M 71.370682 215.322162 
L 100.765284 209.005785 
L 130.159886 192.435275 
L 159.554489 190.48493 
L 188.949091 159.133829 
L 218.343693 124.19473 
L 247.738295 101.981758 
L 277.132898 113.769091 
L 306.5275 145.279001 
L 335.922102 126.078733 
L 365.316705 101.597759 
L 394.711307 93.949812 
L 424.105909 75.610712 
L 453.500511 63.946582 
L 482.895114 40.290441 
L 512.289716 40.059048 
L 541.684318 40.083315 
" clip-path="url(#p2b66211125)" style="fill: none; stroke: #6ab4f2; stroke-opacity: 0.85; stroke-width: 1.2; stroke-linecap: square"/>
   </g>
   <g id="line2d_53">
    <path d="M 71.370682 209.890738 
L 100.765284 203.692668 
L 130.159886 183.299625 
L 159.554489 175.097164 
L 188.949091 145.880466 
L 218.343693 109.220035 
L 247.738295 87.931556 
L 277.132898 71.09917 
L 306.5275 46.267453 
L 335.922102 40.059048 
L 365.316705 54.347525 
L 394.711307 53.154023 
L 424.105909 51.950962 
L 453.500511 83.546639 
L 482.895114 75.258247 
L 512.289716 89.717413 
L 541.684318 151.719171 
" clip-path="url(#p2b66211125)" style="fill: none; stroke: #57a9ef; stroke-opacity: 0.85; stroke-width: 1.2; stroke-linecap: square"/>
   </g>
   <g id="line2d_54">
    <path d="M 71.370682 243.131523 
L 100.765284 210.799943 
L 130.159886 187.394756 
L 159.554489 173.115171 
L 188.949091 145.700975 
L 218.343693 105.372316 
L 247.738295 74.271126 
L 277.132898 56.343113 
L 306.5275 47.733676 
L 335.922102 40.059048 
L 365.316705 44.451249 
L 394.711307 46.051684 
L 424.105909 63.343961 
L 453.500511 62.898666 
L 482.895114 92.328843 
L 512.289716 84.643672 
L 541.684318 82.378245 
" clip-path="url(#p2b66211125)" style="fill: none; stroke: #449eec; stroke-opacity: 0.85; stroke-width: 1.2; stroke-linecap: square"/>
   </g>
   <g id="line2d_55">
    <path d="M 71.370682 260.932102 
L 100.765284 242.308309 
L 130.159886 188.774613 
L 159.554489 178.459936 
L 188.949091 275.647413 
L 218.343693 198.946337 
L 247.738295 90.740041 
L 277.132898 67.219599 
L 306.5275 56.718239 
L 335.922102 47.337692 
L 365.316705 51.454417 
L 394.711307 54.970232 
L 424.105909 46.822893 
L 453.500511 58.184855 
L 482.895114 42.067936 
L 512.289716 40.059048 
L 541.684318 50.304626 
" clip-path="url(#p2b66211125)" style="fill: none; stroke: #3193e8; stroke-opacity: 0.85; stroke-width: 1.2; stroke-linecap: square"/>
   </g>
   <g id="line2d_56">
    <path d="M 71.370682 270.838805 
L 100.765284 241.176773 
L 130.159886 181.451205 
L 159.554489 174.102935 
L 188.949091 142.862337 
L 218.343693 114.946794 
L 247.738295 85.093201 
L 277.132898 63.919552 
L 306.5275 51.383347 
L 335.922102 57.421951 
L 365.316705 46.834642 
L 394.711307 43.126786 
L 424.105909 40.059048 
L 453.500511 83.379103 
L 482.895114 117.606148 
L 512.289716 93.540874 
L 541.684318 85.952632 
" clip-path="url(#p2b66211125)" style="fill: none; stroke: #1e88e5; stroke-opacity: 0.85; stroke-width: 1.2; stroke-linecap: square"/>
   </g>
   <g id="line2d_57">
    <path d="M 71.370682 243.6773 
L 100.765284 194.652561 
L 130.159886 171.193802 
L 159.554489 148.791961 
L 188.949091 43.80724 
L 218.343693 44.441765 
L 247.738295 51.022376 
L 277.132898 51.022376 
L 306.5275 102.820969 
L 335.922102 40.059048 
L 365.316705 102.820969 
L 394.711307 51.022376 
L 424.105909 42.589022 
L 453.500511 102.437676 
L 482.895114 101.676187 
L 512.289716 102.053016 
" clip-path="url(#p2b66211125)" style="fill: none; stroke-dasharray: 1.2,1.98; stroke-dashoffset: 0; stroke: #a5d6a7; stroke-opacity: 0.85; stroke-width: 1.2"/>
   </g>
   <g id="line2d_58">
    <path d="M 71.370682 237.791126 
L 100.765284 187.048029 
L 130.159886 159.825135 
L 159.554489 140.430181 
L 188.949091 101.498881 
L 218.343693 46.685214 
L 247.738295 54.754205 
L 277.132898 53.002843 
L 306.5275 49.429276 
L 335.922102 46.995334 
L 365.316705 43.574788 
L 394.711307 43.256787 
L 424.105909 41.992681 
L 453.500511 40.709169 
L 482.895114 40.384489 
L 512.289716 40.059048 
L 541.684318 40.384489 
" clip-path="url(#p2b66211125)" style="fill: none; stroke-dasharray: 1.2,1.98; stroke-dashoffset: 0; stroke: #95cd97; stroke-opacity: 0.85; stroke-width: 1.2"/>
   </g>
   <g id="line2d_59">
    <path d="M 71.370682 247.545578 
L 100.765284 195.373688 
L 130.159886 161.181167 
L 159.554489 143.914385 
L 188.949091 104.010368 
L 218.343693 80.567556 
L 247.738295 49.289144 
L 277.132898 47.340475 
L 306.5275 44.748317 
L 335.922102 43.047278 
L 365.316705 40.535584 
L 394.711307 40.059048 
L 424.105909 45.212604 
L 453.500511 48.242807 
L 482.895114 45.67165 
L 512.289716 47.492488 
L 541.684318 44.596899 
" clip-path="url(#p2b66211125)" style="fill: none; stroke-dasharray: 1.2,1.98; stroke-dashoffset: 0; stroke: #84c487; stroke-opacity: 0.85; stroke-width: 1.2"/>
   </g>
   <g id="line2d_60">
    <path d="M 71.370682 283.105451 
L 100.765284 262.334132 
L 130.159886 200.847142 
L 159.554489 172.590522 
L 188.949091 142.132554 
L 218.343693 120.550815 
L 247.738295 75.183701 
L 277.132898 59.502907 
L 306.5275 59.223828 
L 335.922102 44.723056 
L 365.316705 40.778946 
L 394.711307 40.059048 
L 424.105909 49.007377 
L 453.500511 45.264882 
L 482.895114 43.472979 
L 512.289716 45.188672 
L 541.684318 50.35808 
" clip-path="url(#p2b66211125)" style="fill: none; stroke-dasharray: 1.2,1.98; stroke-dashoffset: 0; stroke: #74bb77; stroke-opacity: 0.85; stroke-width: 1.2"/>
   </g>
   <g id="line2d_61">
    <path d="M 71.370682 288.641484 
L 100.765284 284.987763 
L 130.159886 271.062995 
L 159.554489 258.876018 
L 188.949091 227.075331 
L 218.343693 202.173314 
L 247.738295 151.397011 
L 277.132898 126.059578 
L 306.5275 112.407546 
L 335.922102 83.513318 
L 365.316705 49.921165 
L 394.711307 40.059048 
L 424.105909 46.082632 
L 453.500511 51.293245 
L 482.895114 40.551718 
L 512.289716 52.443315 
L 541.684318 58.776994 
" clip-path="url(#p2b66211125)" style="fill: none; stroke-dasharray: 1.2,1.98; stroke-dashoffset: 0; stroke: #64b267; stroke-opacity: 0.85; stroke-width: 1.2"/>
   </g>
   <g id="line2d_62">
    <path d="M 71.370682 290.220799 
L 100.765284 283.96028 
L 130.159886 281.829164 
L 159.554489 282.566698 
L 188.949091 281.618689 
L 218.343693 276.791044 
L 247.738295 273.732252 
L 277.132898 245.717687 
L 306.5275 221.238107 
L 335.922102 162.310322 
L 365.316705 86.336983 
L 394.711307 56.571116 
L 424.105909 46.994313 
L 453.500511 43.079578 
L 482.895114 40.059048 
L 512.289716 40.374086 
L 541.684318 42.403395 
" clip-path="url(#p2b66211125)" style="fill: none; stroke-dasharray: 1.2,1.98; stroke-dashoffset: 0; stroke: #53a957; stroke-opacity: 0.85; stroke-width: 1.2"/>
   </g>
   <g id="line2d_63">
    <path d="M 71.370682 288.678908 
L 100.765284 282.351896 
L 130.159886 280.605536 
L 159.554489 281.769611 
L 188.949091 282.08669 
L 218.343693 281.024796 
L 247.738295 273.446336 
L 277.132898 253.069742 
L 306.5275 234.57399 
L 335.922102 193.149619 
L 365.316705 138.646004 
L 394.711307 73.613339 
L 424.105909 48.901737 
L 453.500511 43.007653 
L 482.895114 40.212559 
L 512.289716 40.059048 
L 541.684318 40.708589 
" clip-path="url(#p2b66211125)" style="fill: none; stroke-dasharray: 1.2,1.98; stroke-dashoffset: 0; stroke: #43a047; stroke-opacity: 0.85; stroke-width: 1.2"/>
   </g>
   <g id="line2d_64">
    <path d="M 71.370682 295.836546 
L 100.765284 294.980878 
L 130.159886 294.07558 
L 159.554489 293.389909 
L 188.949091 289.558012 
L 218.343693 287.822226 
L 247.738295 276.338849 
L 277.132898 254.339968 
L 306.5275 232.372766 
L 335.922102 212.500211 
L 365.316705 254.17278 
L 394.711307 239.567486 
L 424.105909 149.559966 
L 453.500511 79.852839 
L 482.895114 44.446639 
L 512.289716 40.059048 
" clip-path="url(#p2b66211125)" style="fill: none; stroke: #a5d6a7; stroke-opacity: 0.85; stroke-width: 1.2; stroke-linecap: square"/>
   </g>
   <g id="line2d_65">
    <path d="M 71.370682 294.402669 
L 100.765284 292.52834 
L 130.159886 290.883004 
L 159.554489 290.548915 
L 188.949091 286.16557 
L 218.343693 288.488264 
L 247.738295 275.356584 
L 277.132898 254.408753 
L 306.5275 232.232367 
L 335.922102 204.331809 
L 365.316705 163.564375 
L 394.711307 143.949314 
L 424.105909 227.193252 
L 453.500511 219.834998 
L 482.895114 115.445801 
L 512.289716 66.696572 
L 541.684318 40.059048 
" clip-path="url(#p2b66211125)" style="fill: none; stroke: #95cd97; stroke-opacity: 0.85; stroke-width: 1.2; stroke-linecap: square"/>
   </g>
   <g id="line2d_66">
    <path d="M 71.370682 291.193327 
L 100.765284 289.143773 
L 130.159886 288.112311 
L 159.554489 287.294904 
L 188.949091 283.642324 
L 218.343693 284.625933 
L 247.738295 270.69759 
L 277.132898 248.793077 
L 306.5275 226.675794 
L 335.922102 195.485689 
L 365.316705 152.116523 
L 394.711307 112.72222 
L 424.105909 116.524401 
L 453.500511 212.752906 
L 482.895114 207.071563 
L 512.289716 95.297904 
L 541.684318 40.059048 
" clip-path="url(#p2b66211125)" style="fill: none; stroke: #84c487; stroke-opacity: 0.85; stroke-width: 1.2; stroke-linecap: square"/>
   </g>
   <g id="line2d_67">
    <path d="M 71.370682 284.29232 
L 100.765284 282.229459 
L 130.159886 280.437523 
L 159.554489 279.289505 
L 188.949091 275.047614 
L 218.343693 275.590228 
L 247.738295 258.311997 
L 277.132898 232.370465 
L 306.5275 205.037465 
L 335.922102 168.86244 
L 365.316705 116.141677 
L 394.711307 64.030908 
L 424.105909 72.715836 
L 453.500511 188.889454 
L 482.895114 183.617447 
L 512.289716 52.03547 
L 541.684318 40.059048 
" clip-path="url(#p2b66211125)" style="fill: none; stroke: #74bb77; stroke-opacity: 0.85; stroke-width: 1.2; stroke-linecap: square"/>
   </g>
   <g id="line2d_68">
    <path d="M 71.370682 292.124519 
L 100.765284 289.661557 
L 130.159886 289.198235 
L 159.554489 288.75094 
L 188.949091 285.188117 
L 218.343693 285.712019 
L 247.738295 272.221919 
L 277.132898 252.299553 
L 306.5275 231.540376 
L 335.922102 205.378662 
L 365.316705 163.133797 
L 394.711307 143.354783 
L 424.105909 141.184642 
L 453.500511 209.624813 
L 482.895114 117.432915 
L 512.289716 69.278554 
L 541.684318 40.059048 
" clip-path="url(#p2b66211125)" style="fill: none; stroke: #64b267; stroke-opacity: 0.85; stroke-width: 1.2; stroke-linecap: square"/>
   </g>
   <g id="line2d_69">
    <path d="M 71.370682 290.753157 
L 100.765284 286.842689 
L 130.159886 285.952529 
L 159.554489 286.160568 
L 188.949091 284.849406 
L 218.343693 284.260343 
L 247.738295 271.875661 
L 277.132898 251.04968 
L 306.5275 233.175063 
L 335.922102 205.446804 
L 365.316705 162.370023 
L 394.711307 115.924749 
L 424.105909 82.955486 
L 453.500511 62.56021 
L 482.895114 50.236059 
L 512.289716 43.977201 
L 541.684318 40.059048 
" clip-path="url(#p2b66211125)" style="fill: none; stroke: #53a957; stroke-opacity: 0.85; stroke-width: 1.2; stroke-linecap: square"/>
   </g>
   <g id="line2d_70">
    <path d="M 71.370682 290.589675 
L 100.765284 285.199206 
L 130.159886 283.486071 
L 159.554489 284.247922 
L 188.949091 287.169498 
L 218.343693 284.664112 
L 247.738295 273.313293 
L 277.132898 252.2673 
L 306.5275 231.636338 
L 335.922102 201.971015 
L 365.316705 158.882284 
L 394.711307 114.924733 
L 424.105909 89.077195 
L 453.500511 61.073426 
L 482.895114 55.194057 
L 512.289716 44.257964 
L 541.684318 40.059048 
" clip-path="url(#p2b66211125)" style="fill: none; stroke: #43a047; stroke-opacity: 0.85; stroke-width: 1.2; stroke-linecap: square"/>
   </g>
   <g id="patch_3">
    <path d="M 47.855 318.04 
L 47.855 26.16 
" style="fill: none; stroke: #444444; stroke-width: 0.8; stroke-linejoin: miter; stroke-linecap: square"/>
   </g>
   <g id="patch_4">
    <path d="M 565.2 318.04 
L 565.2 26.16 
" style="fill: none; stroke: #444444; stroke-width: 0.8; stroke-linejoin: miter; stroke-linecap: square"/>
   </g>
   <g id="patch_5">
    <path d="M 47.855 318.04 
L 565.2 318.04 
" style="fill: none; stroke: #444444; stroke-width: 0.8; stroke-linejoin: miter; stroke-linecap: square"/>
   </g>
   <g id="patch_6">
    <path d="M 47.855 26.16 
L 565.2 26.16 
" style="fill: none; stroke: #444444; stroke-width: 0.8; stroke-linejoin: miter; stroke-linecap: square"/>
   </g>
   <g id="text_17">
    <!-- Normalized throughput — all kernels &amp; working sets -->
    <g style="fill: #e0e0e0" transform="translate(150.237812 20.16) scale(0.12 -0.12)">
     <defs>
      <path id="DejaVuSans-2014" d="M 313 1978 
L 6088 1978 
L 6088 1528 
L 313 1528 
L 313 1978 
z
" transform="scale(0.015625)"/>
      <path id="DejaVuSans-6e" d="M 3513 2113 
L 3513 0 
L 2938 0 
L 2938 2094 
Q 2938 2591 2744 2837 
Q 2550 3084 2163 3084 
Q 1697 3084 1428 2787 
Q 1159 2491 1159 1978 
L 1159 0 
L 581 0 
L 581 3500 
L 1159 3500 
L 1159 2956 
Q 1366 3272 1645 3428 
Q 1925 3584 2291 3584 
Q 2894 3584 3203 3211 
Q 3513 2838 3513 2113 
z
" transform="scale(0.015625)"/>
      <path id="DejaVuSans-26" d="M 1556 2509 
Q 1272 2256 1139 2004 
Q 1006 1753 1006 1478 
Q 1006 1022 1337 719 
Q 1669 416 2169 416 
Q 2466 416 2725 514 
Q 2984 613 3213 813 
L 1556 2509 
z
M 1997 2859 
L 3584 1234 
Q 3769 1513 3872 1830 
Q 3975 2147 3994 2503 
L 4575 2503 
Q 4538 2091 4375 1687 
Q 4213 1284 3922 891 
L 4794 0 
L 4006 0 
L 3559 459 
Q 3234 181 2878 45 
Q 2522 -91 2113 -91 
Q 1359 -91 881 339 
Q 403 769 403 1441 
Q 403 1841 612 2192 
Q 822 2544 1241 2853 
Q 1091 3050 1012 3245 
Q 934 3441 934 3628 
Q 934 4134 1281 4442 
Q 1628 4750 2203 4750 
Q 2463 4750 2720 4694 
Q 2978 4638 3244 4525 
L 3244 3956 
Q 2972 4103 2725 4179 
Q 2478 4256 2266 4256 
Q 1938 4256 1733 4082 
Q 1528 3909 1528 3634 
Q 1528 3475 1620 3314 
Q 1713 3153 1997 2859 
z
" transform="scale(0.015625)"/>
      <path id="DejaVuSans-77" d="M 269 3500 
L 844 3500 
L 1563 769 
L 2278 3500 
L 2956 3500 
L 3675 769 
L 4391 3500 
L 4966 3500 
L 4050 0 
L 3372 0 
L 2619 2869 
L 1863 0 
L 1184 0 
L 269 3500 
z
" transform="scale(0.015625)"/>
     </defs>
     <use xlink:href="#DejaVuSans-4e"/>
     <use xlink:href="#DejaVuSans-6f" transform="translate(74.804688 0)"/>
     <use xlink:href="#DejaVuSans-72" transform="translate(135.986328 0)"/>
     <use xlink:href="#DejaVuSans-6d" transform="translate(175.349609 0)"/>
     <use xlink:href="#DejaVuSans-61" transform="translate(272.761719 0)"/>
     <use xlink:href="#DejaVuSans-6c" transform="translate(334.041016 0)"/>
     <use xlink:href="#DejaVuSans-69" transform="translate(361.824219 0)"/>
     <use xlink:href="#DejaVuSans-7a" transform="translate(389.607422 0)"/>
     <use xlink:href="#DejaVuSans-65" transform="translate(442.097656 0)"/>
     <use xlink:href="#DejaVuSans-64" transform="translate(503.621094 0)"/>
     <use xlink:href="#DejaVuSans-20" transform="translate(567.097656 0)"/>
     <use xlink:href="#DejaVuSans-74" transform="translate(598.884766 0)"/>
     <use xlink:href="#DejaVuSans-68" transform="translate(638.09375 0)"/>
     <use xlink:href="#DejaVuSans-72" transform="translate(701.472656 0)"/>
     <use xlink:href="#DejaVuSans-6f" transform="translate(740.335938 0)"/>
     <use xlink:href="#DejaVuSans-75" transform="translate(801.517578 0)"/>
     <use xlink:href="#DejaVuSans-67" transform="translate(864.896484 0)"/>
     <use xlink:href="#DejaVuSans-68" transform="translate(928.373047 0)"/>
     <use xlink:href="#DejaVuSans-70" transform="translate(991.751953 0)"/>
     <use xlink:href="#DejaVuSans-75" transform="translate(1055.228516 0)"/>
     <use xlink:href="#DejaVuSans-74" transform="translate(1118.607422 0)"/>
     <use xlink:href="#DejaVuSans-20" transform="translate(1157.816406 0)"/>
     <use xlink:href="#DejaVuSans-2014" transform="translate(1189.603516 0)"/>
     <use xlink:href="#DejaVuSans-20" transform="translate(1289.603516 0)"/>
     <use xlink:href="#DejaVuSans-61" transform="translate(1321.390625 0)"/>
     <use xlink:href="#DejaVuSans-6c" transform="translate(1382.669922 0)"/>
     <use xlink:href="#DejaVuSans-6c" transform="translate(1410.453125 0)"/>
     <use xlink:href="#DejaVuSans-20" transform="translate(1438.236328 0)"/>
     <use xlink:href="#DejaVuSans-6b" transform="translate(1470.023438 0)"/>
     <use xlink:href="#DejaVuSans-65" transform="translate(1524.308594 0)"/>
     <use xlink:href="#DejaVuSans-72" transform="translate(1585.832031 0)"/>
     <use xlink:href="#DejaVuSans-6e" transform="translate(1625.195312 0)"/>
     <use xlink:href="#DejaVuSans-65" transform="translate(1688.574219 0)"/>
     <use xlink:href="#DejaVuSans-6c" transform="translate(1750.097656 0)"/>
     <use xlink:href="#DejaVuSans-73" transform="translate(1777.880859 0)"/>
     <use xlink:href="#DejaVuSans-20" transform="translate(1829.980469 0)"/>
     <use xlink:href="#DejaVuSans-26" transform="translate(1861.767578 0)"/>
     <use xlink:href="#DejaVuSans-20" transform="translate(1939.746094 0)"/>
     <use xlink:href="#DejaVuSans-77" transform="translate(1971.533203 0)"/>
     <use xlink:href="#DejaVuSans-6f" transform="translate(2053.320312 0)"/>
     <use xlink:href="#DejaVuSans-72" transform="translate(2114.501953 0)"/>
     <use xlink:href="#DejaVuSans-6b" transform="translate(2155.615234 0)"/>
     <use xlink:href="#DejaVuSans-69" transform="translate(2213.525391 0)"/>
     <use xlink:href="#DejaVuSans-6e" transform="translate(2241.308594 0)"/>
     <use xlink:href="#DejaVuSans-67" transform="translate(2304.6875 0)"/>
     <use xlink:href="#DejaVuSans-20" transform="translate(2368.164062 0)"/>
     <use xlink:href="#DejaVuSans-73" transform="translate(2399.951172 0)"/>
     <use xlink:href="#DejaVuSans-65" transform="translate(2452.050781 0)"/>
     <use xlink:href="#DejaVuSans-74" transform="translate(2513.574219 0)"/>
     <use xlink:href="#DejaVuSans-73" transform="translate(2552.783203 0)"/>
    </g>
   </g>
   <g id="legend_1">
    <g id="patch_7">
     <path d="M 486.55 314.04 
L 559.6 314.04 
Q 561.2 314.04 561.2 312.44 
L 561.2 253.86 
Q 561.2 252.26 559.6 252.26 
L 486.55 252.26 
Q 484.95 252.26 484.95 253.86 
L 484.95 312.44 
Q 484.95 314.04 486.55 314.04 
z
" style="fill: #1e2436; opacity: 0.8; stroke: #444444; stroke-linejoin: miter"/>
    </g>
    <g id="patch_8">
     <path d="M 488.15 261.53875 
L 504.15 261.53875 
L 504.15 255.93875 
L 488.15 255.93875 
z
" style="fill: #1e88e5"/>
    </g>
    <g id="text_18">
     <!-- scalar_stats -->
     <g style="fill: #e0e0e0" transform="translate(510.55 261.53875) scale(0.08 -0.08)">
      <defs>
       <path id="DejaVuSans-5f" d="M 3263 -1063 
L 3263 -1509 
L -63 -1509 
L -63 -1063 
L 3263 -1063 
z
" transform="scale(0.015625)"/>
      </defs>
      <use xlink:href="#DejaVuSans-73"/>
      <use xlink:href="#DejaVuSans-63" transform="translate(52.099609 0)"/>
      <use xlink:href="#DejaVuSans-61" transform="translate(107.080078 0)"/>
      <use xlink:href="#DejaVuSans-6c" transform="translate(168.359375 0)"/>
      <use xlink:href="#DejaVuSans-61" transform="translate(196.142578 0)"/>
      <use xlink:href="#DejaVuSans-72" transform="translate(257.421875 0)"/>
      <use xlink:href="#DejaVuSans-5f" transform="translate(298.535156 0)"/>
      <use xlink:href="#DejaVuSans-73" transform="translate(348.535156 0)"/>
      <use xlink:href="#DejaVuSans-74" transform="translate(400.634766 0)"/>
      <use xlink:href="#DejaVuSans-61" transform="translate(439.84375 0)"/>
      <use xlink:href="#DejaVuSans-74" transform="translate(501.123047 0)"/>
      <use xlink:href="#DejaVuSans-73" transform="translate(540.332031 0)"/>
     </g>
    </g>
    <g id="patch_9">
     <path d="M 488.15 273.50375 
L 504.15 273.50375 
L 504.15 267.90375 
L 488.15 267.90375 
z
" style="fill: #43a047"/>
    </g>
    <g id="text_19">
     <!-- simd_sum -->
     <g style="fill: #e0e0e0" transform="translate(510.55 273.50375) scale(0.08 -0.08)">
      <use xlink:href="#DejaVuSans-73"/>
      <use xlink:href="#DejaVuSans-69" transform="translate(52.099609 0)"/>
      <use xlink:href="#DejaVuSans-6d" transform="translate(79.882812 0)"/>
      <use xlink:href="#DejaVuSans-64" transform="translate(177.294922 0)"/>
      <use xlink:href="#DejaVuSans-5f" transform="translate(240.771484 0)"/>
      <use xlink:href="#DejaVuSans-73" transform="translate(290.771484 0)"/>
      <use xlink:href="#DejaVuSans-75" transform="translate(342.871094 0)"/>
      <use xlink:href="#DejaVuSans-6d" transform="translate(406.25 0)"/>
     </g>
    </g>
    <g id="patch_10">
     <path d="M 488.15 285.46875 
L 504.15 285.46875 
L 504.15 279.86875 
L 488.15 279.86875 
z
" style="fill: #ef6c00"/>
    </g>
    <g id="text_20">
     <!-- heavy_sin -->
     <g style="fill: #e0e0e0" transform="translate(510.55 285.46875) scale(0.08 -0.08)">
      <defs>
       <path id="DejaVuSans-76" d="M 191 3500 
L 800 3500 
L 1894 563 
L 2988 3500 
L 3597 3500 
L 2284 0 
L 1503 0 
L 191 3500 
z
" transform="scale(0.015625)"/>
       <path id="DejaVuSans-79" d="M 2059 -325 
Q 1816 -950 1584 -1140 
Q 1353 -1331 966 -1331 
L 506 -1331 
L 506 -850 
L 844 -850 
Q 1081 -850 1212 -737 
Q 1344 -625 1503 -206 
L 1606 56 
L 191 3500 
L 800 3500 
L 1894 763 
L 2988 3500 
L 3597 3500 
L 2059 -325 
z
" transform="scale(0.015625)"/>
      </defs>
      <use xlink:href="#DejaVuSans-68"/>
      <use xlink:href="#DejaVuSans-65" transform="translate(63.378906 0)"/>
      <use xlink:href="#DejaVuSans-61" transform="translate(124.902344 0)"/>
      <use xlink:href="#DejaVuSans-76" transform="translate(186.181641 0)"/>
      <use xlink:href="#DejaVuSans-79" transform="translate(245.361328 0)"/>
      <use xlink:href="#DejaVuSans-5f" transform="translate(304.541016 0)"/>
      <use xlink:href="#DejaVuSans-73" transform="translate(354.541016 0)"/>
      <use xlink:href="#DejaVuSans-69" transform="translate(406.640625 0)"/>
      <use xlink:href="#DejaVuSans-6e" transform="translate(434.423828 0)"/>
     </g>
    </g>
    <g id="line2d_71">
     <path d="M 488.15 294.63375 
L 496.15 294.63375 
L 504.15 294.63375 
" style="fill: none; stroke: #e0e0e0; stroke-width: 1.5; stroke-linecap: square"/>
    </g>
    <g id="text_21">
     <!-- randomized -->
     <g style="fill: #e0e0e0" transform="translate(510.55 297.43375) scale(0.08 -0.08)">
      <use xlink:href="#DejaVuSans-72"/>
      <use xlink:href="#DejaVuSans-61" transform="translate(41.113281 0)"/>
      <use xlink:href="#DejaVuSans-6e" transform="translate(102.392578 0)"/>
      <use xlink:href="#DejaVuSans-64" transform="translate(165.771484 0)"/>
      <use xlink:href="#DejaVuSans-6f" transform="translate(229.248047 0)"/>
      <use xlink:href="#DejaVuSans-6d" transform="translate(290.429688 0)"/>
      <use xlink:href="#DejaVuSans-69" transform="translate(387.841797 0)"/>
      <use xlink:href="#DejaVuSans-7a" transform="translate(415.625 0)"/>
      <use xlink:href="#DejaVuSans-65" transform="translate(468.115234 0)"/>
      <use xlink:href="#DejaVuSans-64" transform="translate(529.638672 0)"/>
     </g>
    </g>
    <g id="line2d_72">
     <path d="M 488.15 306.37625 
L 496.15 306.37625 
L 504.15 306.37625 
" style="fill: none; stroke-dasharray: 1.5,2.475; stroke-dashoffset: 0; stroke: #e0e0e0; stroke-width: 1.5"/>
    </g>
    <g id="text_22">
     <!-- repeated -->
     <g style="fill: #e0e0e0" transform="translate(510.55 309.17625) scale(0.08 -0.08)">
      <use xlink:href="#DejaVuSans-72"/>
      <use xlink:href="#DejaVuSans-65" transform="translate(38.863281 0)"/>
      <use xlink:href="#DejaVuSans-70" transform="translate(100.386719 0)"/>
      <use xlink:href="#DejaVuSans-65" transform="translate(163.863281 0)"/>
      <use xlink:href="#DejaVuSans-61" transform="translate(225.386719 0)"/>
      <use xlink:href="#DejaVuSans-74" transform="translate(286.666016 0)"/>
      <use xlink:href="#DejaVuSans-65" transform="translate(325.875 0)"/>
      <use xlink:href="#DejaVuSans-64" transform="translate(387.398438 0)"/>
     </g>
    </g>
   </g>
  </g>
 </g>
 <defs>
  <clipPath id="p2b66211125">
   <rect x="47.855" y="26.16" width="517.345" height="291.88"/>
  </clipPath>
 </defs>
</svg>
