<?xml version="1.0" encoding="utf-8" standalone="no"?>
<!DOCTYPE svg PUBLIC "-//W3C//DTD SVG 1.1//EN"
  "http://www.w3.org/Graphics/SVG/1.1/DTD/svg11.dtd">
<svg xmlns:xlink="http://www.w3.org/1999/xlink" width="576pt" height="360pt" viewBox="0 0 576 360" xmlns="http://www.w3.org/2000/svg" version="1.1">
 <metadata>
  <rdf:RDF xmlns:dc="http://purl.org/dc/elements/1.1/" xmlns:cc="http://creativecommons.org/ns#" xmlns:rdf="http://www.w3.org/1999/02/22-rdf-syntax-ns#">
   <cc:Work>
    <dc:type rdf:resource="http://purl.org/dc/dcmitype/StillImage"/>
    <dc:date>2026-04-01T14:22:19.014545</dc:date>
    <dc:format>image/svg+xml</dc:format>
    <dc:creator>
     <cc:Agent>
      <dc:title>Matplotlib v3.10.8, https://matplotlib.org/</dc:title>
     </cc:Agent>
    </dc:creator>
   </cc:Work>
  </rdf:RDF>
 </metadata>
 <defs>
  <style type="text/css">*{stroke-linejoin: round; stroke-linecap: butt}</style>
 </defs>
 <g id="figure_1">
  <g id="patch_1">
   <path d="M 0 360 
L 576 360 
L 576 0 
L 0 0 
z
" style="fill: #121622"/>
  </g>
  <g id="axes_1">
   <g id="patch_2">
    <path d="M 47.72 318.04 
L 565.2 318.04 
L 565.2 26.88 
L 47.72 26.88 
z
" style="fill: #121622"/>
   </g>
   <g id="matplotlib.axis_1">
    <g id="xtick_1">
     <g id="line2d_1">
      <path d="M 100.644091 318.04 
L 100.644091 26.88 
" clip-path="url(#pdcb9661710)" style="fill: none; stroke: #30333e; stroke-width: 0.6; stroke-linecap: square"/>
     </g>
     <g id="line2d_2">
      <defs>
       <path id="mec1ddf917e" d="M 0 0 
L 0 3.5 
" style="stroke: #e0e0e0; stroke-width: 0.8"/>
      </defs>
      <g>
       <use xlink:href="#mec1ddf917e" x="100.644091" y="318.04" style="fill: #e0e0e0; stroke: #e0e0e0; stroke-width: 0.8"/>
      </g>
     </g>
     <g id="text_1">
      <!-- 64 B -->
      <g style="fill: #e0e0e0" transform="translate(89.26206 332.638438) scale(0.1 -0.1)">
       <defs>
        <path id="DejaVuSans-36" d="M 2113 2584 
Q 1688 2584 1439 2293 
Q 1191 2003 1191 1497 
Q 1191 994 1439 701 
Q 1688 409 2113 409 
Q 2538 409 2786 701 
Q 3034 994 3034 1497 
Q 3034 2003 2786 2293 
Q 2538 2584 2113 2584 
z
M 3366 4563 
L 3366 3988 
Q 3128 4100 2886 4159 
Q 2644 4219 2406 4219 
Q 1781 4219 1451 3797 
Q 1122 3375 1075 2522 
Q 1259 2794 1537 2939 
Q 1816 3084 2150 3084 
Q 2853 3084 3261 2657 
Q 3669 2231 3669 1497 
Q 3669 778 3244 343 
Q 2819 -91 2113 -91 
Q 1303 -91 875 529 
Q 447 1150 447 2328 
Q 447 3434 972 4092 
Q 1497 4750 2381 4750 
Q 2619 4750 2861 4703 
Q 3103 4656 3366 4563 
z
" transform="scale(0.015625)"/>
        <path id="DejaVuSans-34" d="M 2419 4116 
L 825 1625 
L 2419 1625 
L 2419 4116 
z
M 2253 4666 
L 3047 4666 
L 3047 1625 
L 3713 1625 
L 3713 1100 
L 3047 1100 
L 3047 0 
L 2419 0 
L 2419 1100 
L 313 1100 
L 313 1709 
L 2253 4666 
z
" transform="scale(0.015625)"/>
        <path id="DejaVuSans-20" transform="scale(0.015625)"/>
        <path id="DejaVuSans-42" d="M 1259 2228 
L 1259 519 
L 2272 519 
Q 2781 519 3026 730 
Q 3272 941 3272 1375 
Q 3272 1813 3026 2020 
Q 2781 2228 2272 2228 
L 1259 2228 
z
M 1259 4147 
L 1259 2741 
L 2194 2741 
Q 2656 2741 2882 2914 
Q 3109 3088 3109 3444 
Q 3109 3797 2882 3972 
Q 2656 4147 2194 4147 
L 1259 4147 
z
M 628 4666 
L 2241 4666 
Q 2963 4666 3353 4366 
Q 3744 4066 3744 3513 
Q 3744 3084 3544 2831 
Q 3344 2578 2956 2516 
Q 3422 2416 3680 2098 
Q 3938 1781 3938 1306 
Q 3938 681 3513 340 
Q 3088 0 2303 0 
L 628 0 
L 628 4666 
z
" transform="scale(0.015625)"/>
       </defs>
       <use xlink:href="#DejaVuSans-36"/>
       <use xlink:href="#DejaVuSans-34" transform="translate(63.623047 0)"/>
       <use xlink:href="#DejaVuSans-20" transform="translate(127.246094 0)"/>
       <use xlink:href="#DejaVuSans-42" transform="translate(159.033203 0)"/>
      </g>
     </g>
    </g>
    <g id="xtick_2">
     <g id="line2d_3">
      <path d="M 159.448636 318.04 
L 159.448636 26.88 
" clip-path="url(#pdcb9661710)" style="fill: none; stroke: #30333e; stroke-width: 0.6; stroke-linecap: square"/>
     </g>
     <g id="line2d_4">
      <g>
       <use xlink:href="#mec1ddf917e" x="159.448636" y="318.04" style="fill: #e0e0e0; stroke: #e0e0e0; stroke-width: 0.8"/>
      </g>
     </g>
     <g id="text_2">
      <!-- 256 B -->
      <g style="fill: #e0e0e0" transform="translate(144.885355 332.638438) scale(0.1 -0.1)">
       <defs>
        <path id="DejaVuSans-32" d="M 1228 531 
L 3431 531 
L 3431 0 
L 469 0 
L 469 531 
Q 828 903 1448 1529 
Q 2069 2156 2228 2338 
Q 2531 2678 2651 2914 
Q 2772 3150 2772 3378 
Q 2772 3750 2511 3984 
Q 2250 4219 1831 4219 
Q 1534 4219 1204 4116 
Q 875 4013 500 3803 
L 500 4441 
Q 881 4594 1212 4672 
Q 1544 4750 1819 4750 
Q 2544 4750 2975 4387 
Q 3406 4025 3406 3419 
Q 3406 3131 3298 2873 
Q 3191 2616 2906 2266 
Q 2828 2175 2409 1742 
Q 1991 1309 1228 531 
z
" transform="scale(0.015625)"/>
        <path id="DejaVuSans-35" d="M 691 4666 
L 3169 4666 
L 3169 4134 
L 1269 4134 
L 1269 2991 
Q 1406 3038 1543 3061 
Q 1681 3084 1819 3084 
Q 2600 3084 3056 2656 
Q 3513 2228 3513 1497 
Q 3513 744 3044 326 
Q 2575 -91 1722 -91 
Q 1428 -91 1123 -41 
Q 819 9 494 109 
L 494 744 
Q 775 591 1075 516 
Q 1375 441 1709 441 
Q 2250 441 2565 725 
Q 2881 1009 2881 1497 
Q 2881 1984 2565 2268 
Q 2250 2553 1709 2553 
Q 1456 2553 1204 2497 
Q 953 2441 691 2322 
L 691 4666 
z
" transform="scale(0.015625)"/>
       </defs>
       <use xlink:href="#DejaVuSans-32"/>
       <use xlink:href="#DejaVuSans-35" transform="translate(63.623047 0)"/>
       <use xlink:href="#DejaVuSans-36" transform="translate(127.246094 0)"/>
       <use xlink:href="#DejaVuSans-20" transform="translate(190.869141 0)"/>
       <use xlink:href="#DejaVuSans-42" transform="translate(222.65625 0)"/>
      </g>
     </g>
    </g>
    <g id="xtick_3">
     <g id="line2d_5">
      <path d="M 218.253182 318.04 
L 218.253182 26.88 
" clip-path="url(#pdcb9661710)" style="fill: none; stroke: #30333e; stroke-width: 0.6; stroke-linecap: square"/>
     </g>
     <g id="line2d_6">
      <g>
       <use xlink:href="#mec1ddf917e" x="218.253182" y="318.04" style="fill: #e0e0e0; stroke: #e0e0e0; stroke-width: 0.8"/>
      </g>
     </g>
     <g id="text_3">
      <!-- 1 KB -->
      <g style="fill: #e0e0e0" transform="translate(206.773494 332.638438) scale(0.1 -0.1)">
       <defs>
        <path id="DejaVuSans-31" d="M 794 531 
L 1825 531 
L 1825 4091 
L 703 3866 
L 703 4441 
L 1819 4666 
L 2450 4666 
L 2450 531 
L 3481 531 
L 3481 0 
L 794 0 
L 794 531 
z
" transform="scale(0.015625)"/>
        <path id="DejaVuSans-4b" d="M 628 4666 
L 1259 4666 
L 1259 2694 
L 3353 4666 
L 4166 4666 
L 1850 2491 
L 4331 0 
L 3500 0 
L 1259 2247 
L 1259 0 
L 628 0 
L 628 4666 
z
" transform="scale(0.015625)"/>
       </defs>
       <use xlink:href="#DejaVuSans-31"/>
       <use xlink:href="#DejaVuSans-20" transform="translate(63.623047 0)"/>
       <use xlink:href="#DejaVuSans-4b" transform="translate(95.410156 0)"/>
       <use xlink:href="#DejaVuSans-42" transform="translate(160.986328 0)"/>
      </g>
     </g>
    </g>
    <g id="xtick_4">
     <g id="line2d_7">
      <path d="M 277.057727 318.04 
L 277.057727 26.88 
" clip-path="url(#pdcb9661710)" style="fill: none; stroke: #30333e; stroke-width: 0.6; stroke-linecap: square"/>
     </g>
     <g id="line2d_8">
      <g>
       <use xlink:href="#mec1ddf917e" x="277.057727" y="318.04" style="fill: #e0e0e0; stroke: #e0e0e0; stroke-width: 0.8"/>
      </g>
     </g>
     <g id="text_4">
      <!-- 4 KB -->
      <g style="fill: #e0e0e0" transform="translate(265.57804 332.638438) scale(0.1 -0.1)">
       <use xlink:href="#DejaVuSans-34"/>
       <use xlink:href="#DejaVuSans-20" transform="translate(63.623047 0)"/>
       <use xlink:href="#DejaVuSans-4b" transform="translate(95.410156 0)"/>
       <use xlink:href="#DejaVuSans-42" transform="translate(160.986328 0)"/>
      </g>
     </g>
    </g>
    <g id="xtick_5">
     <g id="line2d_9">
      <path d="M 335.862273 318.04 
L 335.862273 26.88 
" clip-path="url(#pdcb9661710)" style="fill: none; stroke: #30333e; stroke-width: 0.6; stroke-linecap: square"/>
     </g>
     <g id="line2d_10">
      <g>
       <use xlink:href="#mec1ddf917e" x="335.862273" y="318.04" style="fill: #e0e0e0; stroke: #e0e0e0; stroke-width: 0.8"/>
      </g>
     </g>
     <g id="text_5">
      <!-- 16 KB -->
      <g style="fill: #e0e0e0" transform="translate(321.201335 332.638438) scale(0.1 -0.1)">
       <use xlink:href="#DejaVuSans-31"/>
       <use xlink:href="#DejaVuSans-36" transform="translate(63.623047 0)"/>
       <use xlink:href="#DejaVuSans-20" transform="translate(127.246094 0)"/>
       <use xlink:href="#DejaVuSans-4b" transform="translate(159.033203 0)"/>
       <use xlink:href="#DejaVuSans-42" transform="translate(224.609375 0)"/>
      </g>
     </g>
    </g>
    <g id="xtick_6">
     <g id="line2d_11">
      <path d="M 394.666818 318.04 
L 394.666818 26.88 
" clip-path="url(#pdcb9661710)" style="fill: none; stroke: #30333e; stroke-width: 0.6; stroke-linecap: square"/>
     </g>
     <g id="line2d_12">
      <g>
       <use xlink:href="#mec1ddf917e" x="394.666818" y="318.04" style="fill: #e0e0e0; stroke: #e0e0e0; stroke-width: 0.8"/>
      </g>
     </g>
     <g id="text_6">
      <!-- 64 KB -->
      <g style="fill: #e0e0e0" transform="translate(380.005881 332.638438) scale(0.1 -0.1)">
       <use xlink:href="#DejaVuSans-36"/>
       <use xlink:href="#DejaVuSans-34" transform="translate(63.623047 0)"/>
       <use xlink:href="#DejaVuSans-20" transform="translate(127.246094 0)"/>
       <use xlink:href="#DejaVuSans-4b" transform="translate(159.033203 0)"/>
       <use xlink:href="#DejaVuSans-42" transform="translate(224.609375 0)"/>
      </g>
     </g>
    </g>
    <g id="xtick_7">
     <g id="line2d_13">
      <path d="M 453.471364 318.04 
L 453.471364 26.88 
" clip-path="url(#pdcb9661710)" style="fill: none; stroke: #30333e; stroke-width: 0.6; stroke-linecap: square"/>
     </g>
     <g id="line2d_14">
      <g>
       <use xlink:href="#mec1ddf917e" x="453.471364" y="318.04" style="fill: #e0e0e0; stroke: #e0e0e0; stroke-width: 0.8"/>
      </g>
     </g>
     <g id="text_7">
      <!-- 256 KB -->
      <g style="fill: #e0e0e0" transform="translate(435.629176 332.638438) scale(0.1 -0.1)">
       <use xlink:href="#DejaVuSans-32"/>
       <use xlink:href="#DejaVuSans-35" transform="translate(63.623047 0)"/>
       <use xlink:href="#DejaVuSans-36" transform="translate(127.246094 0)"/>
       <use xlink:href="#DejaVuSans-20" transform="translate(190.869141 0)"/>
       <use xlink:href="#DejaVuSans-4b" transform="translate(222.65625 0)"/>
       <use xlink:href="#DejaVuSans-42" transform="translate(288.232422 0)"/>
      </g>
     </g>
    </g>
    <g id="xtick_8">
     <g id="line2d_15">
      <path d="M 512.275909 318.04 
L 512.275909 26.88 
" clip-path="url(#pdcb9661710)" style="fill: none; stroke: #30333e; stroke-width: 0.6; stroke-linecap: square"/>
     </g>
     <g id="line2d_16">
      <g>
       <use xlink:href="#mec1ddf917e" x="512.275909" y="318.04" style="fill: #e0e0e0; stroke: #e0e0e0; stroke-width: 0.8"/>
      </g>
     </g>
     <g id="text_8">
      <!-- 1 MB -->
      <g style="fill: #e0e0e0" transform="translate(499.761065 332.638438) scale(0.1 -0.1)">
       <defs>
        <path id="DejaVuSans-4d" d="M 628 4666 
L 1569 4666 
L 2759 1491 
L 3956 4666 
L 4897 4666 
L 4897 0 
L 4281 0 
L 4281 4097 
L 3078 897 
L 2444 897 
L 1241 4097 
L 1241 0 
L 628 0 
L 628 4666 
z
" transform="scale(0.015625)"/>
       </defs>
       <use xlink:href="#DejaVuSans-31"/>
       <use xlink:href="#DejaVuSans-20" transform="translate(63.623047 0)"/>
       <use xlink:href="#DejaVuSans-4d" transform="translate(95.410156 0)"/>
       <use xlink:href="#DejaVuSans-42" transform="translate(181.689453 0)"/>
      </g>
     </g>
    </g>
    <g id="text_9">
     <!-- Block size -->
     <g style="fill: #e0e0e0" transform="translate(281.652969 346.316563) scale(0.1 -0.1)">
      <defs>
       <path id="DejaVuSans-6c" d="M 603 4863 
L 1178 4863 
L 1178 0 
L 603 0 
L 603 4863 
z
" transform="scale(0.015625)"/>
       <path id="DejaVuSans-6f" d="M 1959 3097 
Q 1497 3097 1228 2736 
Q 959 2375 959 1747 
Q 959 1119 1226 758 
Q 1494 397 1959 397 
Q 2419 397 2687 759 
Q 2956 1122 2956 1747 
Q 2956 2369 2687 2733 
Q 2419 3097 1959 3097 
z
M 1959 3584 
Q 2709 3584 3137 3096 
Q 3566 2609 3566 1747 
Q 3566 888 3137 398 
Q 2709 -91 1959 -91 
Q 1206 -91 779 398 
Q 353 888 353 1747 
Q 353 2609 779 3096 
Q 1206 3584 1959 3584 
z
" transform="scale(0.015625)"/>
       <path id="DejaVuSans-63" d="M 3122 3366 
L 3122 2828 
Q 2878 2963 2633 3030 
Q 2388 3097 2138 3097 
Q 1578 3097 1268 2742 
Q 959 2388 959 1747 
Q 959 1106 1268 751 
Q 1578 397 2138 397 
Q 2388 397 2633 464 
Q 2878 531 3122 666 
L 3122 134 
Q 2881 22 2623 -34 
Q 2366 -91 2075 -91 
Q 1284 -91 818 406 
Q 353 903 353 1747 
Q 353 2603 823 3093 
Q 1294 3584 2113 3584 
Q 2378 3584 2631 3529 
Q 2884 3475 3122 3366 
z
" transform="scale(0.015625)"/>
       <path id="DejaVuSans-6b" d="M 581 4863 
L 1159 4863 
L 1159 1991 
L 2875 3500 
L 3609 3500 
L 1753 1863 
L 3688 0 
L 2938 0 
L 1159 1709 
L 1159 0 
L 581 0 
L 581 4863 
z
" transform="scale(0.015625)"/>
       <path id="DejaVuSans-73" d="M 2834 3397 
L 2834 2853 
Q 2591 2978 2328 3040 
Q 2066 3103 1784 3103 
Q 1356 3103 1142 2972 
Q 928 2841 928 2578 
Q 928 2378 1081 2264 
Q 1234 2150 1697 2047 
L 1894 2003 
Q 2506 1872 2764 1633 
Q 3022 1394 3022 966 
Q 3022 478 2636 193 
Q 2250 -91 1575 -91 
Q 1294 -91 989 -36 
Q 684 19 347 128 
L 347 722 
Q 666 556 975 473 
Q 1284 391 1588 391 
Q 1994 391 2212 530 
Q 2431 669 2431 922 
Q 2431 1156 2273 1281 
Q 2116 1406 1581 1522 
L 1381 1569 
Q 847 1681 609 1914 
Q 372 2147 372 2553 
Q 372 3047 722 3315 
Q 1072 3584 1716 3584 
Q 2034 3584 2315 3537 
Q 2597 3491 2834 3397 
z
" transform="scale(0.015625)"/>
       <path id="DejaVuSans-69" d="M 603 3500 
L 1178 3500 
L 1178 0 
L 603 0 
L 603 3500 
z
M 603 4863 
L 1178 4863 
L 1178 4134 
L 603 4134 
L 603 4863 
z
" transform="scale(0.015625)"/>
       <path id="DejaVuSans-7a" d="M 353 3500 
L 3084 3500 
L 3084 2975 
L 922 459 
L 3084 459 
L 3084 0 
L 275 0 
L 275 525 
L 2438 3041 
L 353 3041 
L 353 3500 
z
" transform="scale(0.015625)"/>
       <path id="DejaVuSans-65" d="M 3597 1894 
L 3597 1613 
L 953 1613 
Q 991 1019 1311 708 
Q 1631 397 2203 397 
Q 2534 397 2845 478 
Q 3156 559 3463 722 
L 3463 178 
Q 3153 47 2828 -22 
Q 2503 -91 2169 -91 
Q 1331 -91 842 396 
Q 353 884 353 1716 
Q 353 2575 817 3079 
Q 1281 3584 2069 3584 
Q 2775 3584 3186 3129 
Q 3597 2675 3597 1894 
z
M 3022 2063 
Q 3016 2534 2758 2815 
Q 2500 3097 2075 3097 
Q 1594 3097 1305 2825 
Q 1016 2553 972 2059 
L 3022 2063 
z
" transform="scale(0.015625)"/>
      </defs>
      <use xlink:href="#DejaVuSans-42"/>
      <use xlink:href="#DejaVuSans-6c" transform="translate(68.603516 0)"/>
      <use xlink:href="#DejaVuSans-6f" transform="translate(96.386719 0)"/>
      <use xlink:href="#DejaVuSans-63" transform="translate(157.568359 0)"/>
      <use xlink:href="#DejaVuSans-6b" transform="translate(212.548828 0)"/>
      <use xlink:href="#DejaVuSans-20" transform="translate(270.458984 0)"/>
      <use xlink:href="#DejaVuSans-73" transform="translate(302.246094 0)"/>
      <use xlink:href="#DejaVuSans-69" transform="translate(354.345703 0)"/>
      <use xlink:href="#DejaVuSans-7a" transform="translate(382.128906 0)"/>
      <use xlink:href="#DejaVuSans-65" transform="translate(434.619141 0)"/>
     </g>
    </g>
   </g>
   <g id="matplotlib.axis_2">
    <g id="ytick_1">
     <g id="line2d_17">
      <path d="M 47.72 318.04 
L 565.2 318.04 
" clip-path="url(#pdcb9661710)" style="fill: none; stroke: #30333e; stroke-width: 0.6; stroke-linecap: square"/>
     </g>
     <g id="line2d_18">
      <defs>
       <path id="m29c991964b" d="M 0 0 
L -3.5 0 
" style="stroke: #e0e0e0; stroke-width: 0.8"/>
      </defs>
      <g>
       <use xlink:href="#m29c991964b" x="47.72" y="318.04" style="fill: #e0e0e0; stroke: #e0e0e0; stroke-width: 0.8"/>
      </g>
     </g>
     <g id="text_10">
      <!-- 0.0 -->
      <g style="fill: #e0e0e0" transform="translate(24.816875 321.839219) scale(0.1 -0.1)">
       <defs>
        <path id="DejaVuSans-30" d="M 2034 4250 
Q 1547 4250 1301 3770 
Q 1056 3291 1056 2328 
Q 1056 1369 1301 889 
Q 1547 409 2034 409 
Q 2525 409 2770 889 
Q 3016 1369 3016 2328 
Q 3016 3291 2770 3770 
Q 2525 4250 2034 4250 
z
M 2034 4750 
Q 2819 4750 3233 4129 
Q 3647 3509 3647 2328 
Q 3647 1150 3233 529 
Q 2819 -91 2034 -91 
Q 1250 -91 836 529 
Q 422 1150 422 2328 
Q 422 3509 836 4129 
Q 1250 4750 2034 4750 
z
" transform="scale(0.015625)"/>
        <path id="DejaVuSans-2e" d="M 684 794 
L 1344 794 
L 1344 0 
L 684 0 
L 684 794 
z
" transform="scale(0.015625)"/>
       </defs>
       <use xlink:href="#DejaVuSans-30"/>
       <use xlink:href="#DejaVuSans-2e" transform="translate(63.623047 0)"/>
       <use xlink:href="#DejaVuSans-30" transform="translate(95.410156 0)"/>
      </g>
     </g>
    </g>
    <g id="ytick_2">
     <g id="line2d_19">
      <path d="M 47.72 262.580952 
L 565.2 262.580952 
" clip-path="url(#pdcb9661710)" style="fill: none; stroke: #30333e; stroke-width: 0.6; stroke-linecap: square"/>
     </g>
     <g id="line2d_20">
      <g>
       <use xlink:href="#m29c991964b" x="47.72" y="262.580952" style="fill: #e0e0e0; stroke: #e0e0e0; stroke-width: 0.8"/>
      </g>
     </g>
     <g id="text_11">
      <!-- 0.2 -->
      <g style="fill: #e0e0e0" transform="translate(24.816875 266.380171) scale(0.1 -0.1)">
       <use xlink:href="#DejaVuSans-30"/>
       <use xlink:href="#DejaVuSans-2e" transform="translate(63.623047 0)"/>
       <use xlink:href="#DejaVuSans-32" transform="translate(95.410156 0)"/>
      </g>
     </g>
    </g>
    <g id="ytick_3">
     <g id="line2d_21">
      <path d="M 47.72 207.121905 
L 565.2 207.121905 
" clip-path="url(#pdcb9661710)" style="fill: none; stroke: #30333e; stroke-width: 0.6; stroke-linecap: square"/>
     </g>
     <g id="line2d_22">
      <g>
       <use xlink:href="#m29c991964b" x="47.72" y="207.121905" style="fill: #e0e0e0; stroke: #e0e0e0; stroke-width: 0.8"/>
      </g>
     </g>
     <g id="text_12">
      <!-- 0.4 -->
      <g style="fill: #e0e0e0" transform="translate(24.816875 210.921124) scale(0.1 -0.1)">
       <use xlink:href="#DejaVuSans-30"/>
       <use xlink:href="#DejaVuSans-2e" transform="translate(63.623047 0)"/>
       <use xlink:href="#DejaVuSans-34" transform="translate(95.410156 0)"/>
      </g>
     </g>
    </g>
    <g id="ytick_4">
     <g id="line2d_23">
      <path d="M 47.72 151.662857 
L 565.2 151.662857 
" clip-path="url(#pdcb9661710)" style="fill: none; stroke: #30333e; stroke-width: 0.6; stroke-linecap: square"/>
     </g>
     <g id="line2d_24">
      <g>
       <use xlink:href="#m29c991964b" x="47.72" y="151.662857" style="fill: #e0e0e0; stroke: #e0e0e0; stroke-width: 0.8"/>
      </g>
     </g>
     <g id="text_13">
      <!-- 0.6 -->
      <g style="fill: #e0e0e0" transform="translate(24.816875 155.462076) scale(0.1 -0.1)">
       <use xlink:href="#DejaVuSans-30"/>
       <use xlink:href="#DejaVuSans-2e" transform="translate(63.623047 0)"/>
       <use xlink:href="#DejaVuSans-36" transform="translate(95.410156 0)"/>
      </g>
     </g>
    </g>
    <g id="ytick_5">
     <g id="line2d_25">
      <path d="M 47.72 96.20381 
L 565.2 96.20381 
" clip-path="url(#pdcb9661710)" style="fill: none; stroke: #30333e; stroke-width: 0.6; stroke-linecap: square"/>
     </g>
     <g id="line2d_26">
      <g>
       <use xlink:href="#m29c991964b" x="47.72" y="96.20381" style="fill: #e0e0e0; stroke: #e0e0e0; stroke-width: 0.8"/>
      </g>
     </g>
     <g id="text_14">
      <!-- 0.8 -->
      <g style="fill: #e0e0e0" transform="translate(24.816875 100.003028) scale(0.1 -0.1)">
       <defs>
        <path id="DejaVuSans-38" d="M 2034 2216 
Q 1584 2216 1326 1975 
Q 1069 1734 1069 1313 
Q 1069 891 1326 650 
Q 1584 409 2034 409 
Q 2484 409 2743 651 
Q 3003 894 3003 1313 
Q 3003 1734 2745 1975 
Q 2488 2216 2034 2216 
z
M 1403 2484 
Q 997 2584 770 2862 
Q 544 3141 544 3541 
Q 544 4100 942 4425 
Q 1341 4750 2034 4750 
Q 2731 4750 3128 4425 
Q 3525 4100 3525 3541 
Q 3525 3141 3298 2862 
Q 3072 2584 2669 2484 
Q 3125 2378 3379 2068 
Q 3634 1759 3634 1313 
Q 3634 634 3220 271 
Q 2806 -91 2034 -91 
Q 1263 -91 848 271 
Q 434 634 434 1313 
Q 434 1759 690 2068 
Q 947 2378 1403 2484 
z
M 1172 3481 
Q 1172 3119 1398 2916 
Q 1625 2713 2034 2713 
Q 2441 2713 2670 2916 
Q 2900 3119 2900 3481 
Q 2900 3844 2670 4047 
Q 2441 4250 2034 4250 
Q 1625 4250 1398 4047 
Q 1172 3844 1172 3481 
z
" transform="scale(0.015625)"/>
       </defs>
       <use xlink:href="#DejaVuSans-30"/>
       <use xlink:href="#DejaVuSans-2e" transform="translate(63.623047 0)"/>
       <use xlink:href="#DejaVuSans-38" transform="translate(95.410156 0)"/>
      </g>
     </g>
    </g>
    <g id="ytick_6">
     <g id="line2d_27">
      <path d="M 47.72 40.744762 
L 565.2 40.744762 
" clip-path="url(#pdcb9661710)" style="fill: none; stroke: #30333e; stroke-width: 0.6; stroke-linecap: square"/>
     </g>
     <g id="line2d_28">
      <g>
       <use xlink:href="#m29c991964b" x="47.72" y="40.744762" style="fill: #e0e0e0; stroke: #e0e0e0; stroke-width: 0.8"/>
      </g>
     </g>
     <g id="text_15">
      <!-- 1.0 -->
      <g style="fill: #e0e0e0" transform="translate(24.816875 44.543981) scale(0.1 -0.1)">
       <use xlink:href="#DejaVuSans-31"/>
       <use xlink:href="#DejaVuSans-2e" transform="translate(63.623047 0)"/>
       <use xlink:href="#DejaVuSans-30" transform="translate(95.410156 0)"/>
      </g>
     </g>
    </g>
    <g id="text_16">
     <!-- Normalized throughput -->
     <g style="fill: #e0e0e0" transform="translate(18.737188 230.350625) rotate(-90) scale(0.1 -0.1)">
      <defs>
       <path id="DejaVuSans-4e" d="M 628 4666 
L 1478 4666 
L 3547 763 
L 3547 4666 
L 4159 4666 
L 4159 0 
L 3309 0 
L 1241 3903 
L 1241 0 
L 628 0 
L 628 4666 
z
" transform="scale(0.015625)"/>
       <path id="DejaVuSans-72" d="M 2631 2963 
Q 2534 3019 2420 3045 
Q 2306 3072 2169 3072 
Q 1681 3072 1420 2755 
Q 1159 2438 1159 1844 
L 1159 0 
L 581 0 
L 581 3500 
L 1159 3500 
L 1159 2956 
Q 1341 3275 1631 3429 
Q 1922 3584 2338 3584 
Q 2397 3584 2469 3576 
Q 2541 3569 2628 3553 
L 2631 2963 
z
" transform="scale(0.015625)"/>
       <path id="DejaVuSans-6d" d="M 3328 2828 
Q 3544 3216 3844 3400 
Q 4144 3584 4550 3584 
Q 5097 3584 5394 3201 
Q 5691 2819 5691 2113 
L 5691 0 
L 5113 0 
L 5113 2094 
Q 5113 2597 4934 2840 
Q 4756 3084 4391 3084 
Q 3944 3084 3684 2787 
Q 3425 2491 3425 1978 
L 3425 0 
L 2847 0 
L 2847 2094 
Q 2847 2600 2669 2842 
Q 2491 3084 2119 3084 
Q 1678 3084 1418 2786 
Q 1159 2488 1159 1978 
L 1159 0 
L 581 0 
L 581 3500 
L 1159 3500 
L 1159 2956 
Q 1356 3278 1631 3431 
Q 1906 3584 2284 3584 
Q 2666 3584 2933 3390 
Q 3200 3197 3328 2828 
z
" transform="scale(0.015625)"/>
       <path id="DejaVuSans-61" d="M 2194 1759 
Q 1497 1759 1228 1600 
Q 959 1441 959 1056 
Q 959 750 1161 570 
Q 1363 391 1709 391 
Q 2188 391 2477 730 
Q 2766 1069 2766 1631 
L 2766 1759 
L 2194 1759 
z
M 3341 1997 
L 3341 0 
L 2766 0 
L 2766 531 
Q 2569 213 2275 61 
Q 1981 -91 1556 -91 
Q 1019 -91 701 211 
Q 384 513 384 1019 
Q 384 1609 779 1909 
Q 1175 2209 1959 2209 
L 2766 2209 
L 2766 2266 
Q 2766 2663 2505 2880 
Q 2244 3097 1772 3097 
Q 1472 3097 1187 3025 
Q 903 2953 641 2809 
L 641 3341 
Q 956 3463 1253 3523 
Q 1550 3584 1831 3584 
Q 2591 3584 2966 3190 
Q 3341 2797 3341 1997 
z
" transform="scale(0.015625)"/>
       <path id="DejaVuSans-64" d="M 2906 2969 
L 2906 4863 
L 3481 4863 
L 3481 0 
L 2906 0 
L 2906 525 
Q 2725 213 2448 61 
Q 2172 -91 1784 -91 
Q 1150 -91 751 415 
Q 353 922 353 1747 
Q 353 2572 751 3078 
Q 1150 3584 1784 3584 
Q 2172 3584 2448 3432 
Q 2725 3281 2906 2969 
z
M 947 1747 
Q 947 1113 1208 752 
Q 1469 391 1925 391 
Q 2381 391 2643 752 
Q 2906 1113 2906 1747 
Q 2906 2381 2643 2742 
Q 2381 3103 1925 3103 
Q 1469 3103 1208 2742 
Q 947 2381 947 1747 
z
" transform="scale(0.015625)"/>
       <path id="DejaVuSans-74" d="M 1172 4494 
L 1172 3500 
L 2356 3500 
L 2356 3053 
L 1172 3053 
L 1172 1153 
Q 1172 725 1289 603 
Q 1406 481 1766 481 
L 2356 481 
L 2356 0 
L 1766 0 
Q 1100 0 847 248 
Q 594 497 594 1153 
L 594 3053 
L 172 3053 
L 172 3500 
L 594 3500 
L 594 4494 
L 1172 4494 
z
" transform="scale(0.015625)"/>
       <path id="DejaVuSans-68" d="M 3513 2113 
L 3513 0 
L 2938 0 
L 2938 2094 
Q 2938 2591 2744 2837 
Q 2550 3084 2163 3084 
Q 1697 3084 1428 2787 
Q 1159 2491 1159 1978 
L 1159 0 
L 581 0 
L 581 4863 
L 1159 4863 
L 1159 2956 
Q 1366 3272 1645 3428 
Q 1925 3584 2291 3584 
Q 2894 3584 3203 3211 
Q 3513 2838 3513 2113 
z
" transform="scale(0.015625)"/>
       <path id="DejaVuSans-75" d="M 544 1381 
L 544 3500 
L 1119 3500 
L 1119 1403 
Q 1119 906 1312 657 
Q 1506 409 1894 409 
Q 2359 409 2629 706 
Q 2900 1003 2900 1516 
L 2900 3500 
L 3475 3500 
L 3475 0 
L 2900 0 
L 2900 538 
Q 2691 219 2414 64 
Q 2138 -91 1772 -91 
Q 1169 -91 856 284 
Q 544 659 544 1381 
z
M 1991 3584 
L 1991 3584 
z
" transform="scale(0.015625)"/>
       <path id="DejaVuSans-67" d="M 2906 1791 
Q 2906 2416 2648 2759 
Q 2391 3103 1925 3103 
Q 1463 3103 1205 2759 
Q 947 2416 947 1791 
Q 947 1169 1205 825 
Q 1463 481 1925 481 
Q 2391 481 2648 825 
Q 2906 1169 2906 1791 
z
M 3481 434 
Q 3481 -459 3084 -895 
Q 2688 -1331 1869 -1331 
Q 1566 -1331 1297 -1286 
Q 1028 -1241 775 -1147 
L 775 -588 
Q 1028 -725 1275 -790 
Q 1522 -856 1778 -856 
Q 2344 -856 2625 -561 
Q 2906 -266 2906 331 
L 2906 616 
Q 2728 306 2450 153 
Q 2172 0 1784 0 
Q 1141 0 747 490 
Q 353 981 353 1791 
Q 353 2603 747 3093 
Q 1141 3584 1784 3584 
Q 2172 3584 2450 3431 
Q 2728 3278 2906 2969 
L 2906 3500 
L 3481 3500 
L 3481 434 
z
" transform="scale(0.015625)"/>
       <path id="DejaVuSans-70" d="M 1159 525 
L 1159 -1331 
L 581 -1331 
L 581 3500 
L 1159 3500 
L 1159 2969 
Q 1341 3281 1617 3432 
Q 1894 3584 2278 3584 
Q 2916 3584 3314 3078 
Q 3713 2572 3713 1747 
Q 3713 922 3314 415 
Q 2916 -91 2278 -91 
Q 1894 -91 1617 61 
Q 1341 213 1159 525 
z
M 3116 1747 
Q 3116 2381 2855 2742 
Q 2594 3103 2138 3103 
Q 1681 3103 1420 2742 
Q 1159 2381 1159 1747 
Q 1159 1113 1420 752 
Q 1681 391 2138 391 
Q 2594 391 2855 752 
Q 3116 1113 3116 1747 
z
" transform="scale(0.015625)"/>
      </defs>
      <use xlink:href="#DejaVuSans-4e"/>
      <use xlink:href="#DejaVuSans-6f" transform="translate(74.804688 0)"/>
      <use xlink:href="#DejaVuSans-72" transform="translate(135.986328 0)"/>
      <use xlink:href="#DejaVuSans-6d" transform="translate(175.349609 0)"/>
      <use xlink:href="#DejaVuSans-61" transform="translate(272.761719 0)"/>
      <use xlink:href="#DejaVuSans-6c" transform="translate(334.041016 0)"/>
      <use xlink:href="#DejaVuSans-69" transform="translate(361.824219 0)"/>
      <use xlink:href="#DejaVuSans-7a" transform="translate(389.607422 0)"/>
      <use xlink:href="#DejaVuSans-65" transform="translate(442.097656 0)"/>
      <use xlink:href="#DejaVuSans-64" transform="translate(503.621094 0)"/>
      <use xlink:href="#DejaVuSans-20" transform="translate(567.097656 0)"/>
      <use xlink:href="#DejaVuSans-74" transform="translate(598.884766 0)"/>
      <use xlink:href="#DejaVuSans-68" transform="translate(638.09375 0)"/>
      <use xlink:href="#DejaVuSans-72" transform="translate(701.472656 0)"/>
      <use xlink:href="#DejaVuSans-6f" transform="translate(740.335938 0)"/>
      <use xlink:href="#DejaVuSans-75" transform="translate(801.517578 0)"/>
      <use xlink:href="#DejaVuSans-67" transform="translate(864.896484 0)"/>
      <use xlink:href="#DejaVuSans-68" transform="translate(928.373047 0)"/>
      <use xlink:href="#DejaVuSans-70" transform="translate(991.751953 0)"/>
      <use xlink:href="#DejaVuSans-75" transform="translate(1055.228516 0)"/>
      <use xlink:href="#DejaVuSans-74" transform="translate(1118.607422 0)"/>
     </g>
    </g>
   </g>
   <g id="line2d_29">
    <path d="M 71.241818 51.059134 
L 100.644091 50.814036 
L 130.046364 52.543596 
L 159.448636 40.744762 
L 188.850909 52.476959 
L 218.253182 52.380648 
L 247.655455 51.258946 
L 277.057727 52.146457 
L 306.46 53.004901 
L 335.862273 53.469856 
L 365.264545 51.530935 
L 394.666818 52.401821 
L 424.069091 52.45474 
L 453.471364 53.915393 
L 482.873636 54.172595 
L 512.275909 54.015824 
" clip-path="url(#pdcb9661710)" style="fill: none; stroke-dasharray: 1.2,1.98; stroke-dashoffset: 0; stroke: #ffcc80; stroke-opacity: 0.85; stroke-width: 1.2"/>
   </g>
   <g id="line2d_30">
    <path d="M 71.241818 46.314219 
L 100.644091 46.210307 
L 130.046364 46.149114 
L 159.448636 47.924905 
L 188.850909 41.547534 
L 218.253182 45.445855 
L 247.655455 45.59985 
L 277.057727 45.091494 
L 306.46 40.744762 
L 335.862273 47.526037 
L 365.264545 47.744623 
L 394.666818 46.964023 
L 424.069091 47.593044 
L 453.471364 46.752801 
L 482.873636 46.871923 
L 512.275909 43.298593 
L 541.678182 45.835133 
" clip-path="url(#pdcb9661710)" style="fill: none; stroke-dasharray: 1.2,1.98; stroke-dashoffset: 0; stroke: #fcbc6b; stroke-opacity: 0.85; stroke-width: 1.2"/>
   </g>
   <g id="line2d_31">
    <path d="M 71.241818 51.620761 
L 100.644091 48.510991 
L 130.046364 44.968526 
L 159.448636 42.099941 
L 188.850909 44.714055 
L 218.253182 45.381706 
L 247.655455 45.40058 
L 277.057727 45.608019 
L 306.46 45.790949 
L 335.862273 45.626861 
L 365.264545 46.107805 
L 394.666818 45.219824 
L 424.069091 45.976319 
L 453.471364 45.478743 
L 482.873636 45.516461 
L 512.275909 45.610711 
L 541.678182 40.744762 
" clip-path="url(#pdcb9661710)" style="fill: none; stroke-dasharray: 1.2,1.98; stroke-dashoffset: 0; stroke: #faac55; stroke-opacity: 0.85; stroke-width: 1.2"/>
   </g>
   <g id="line2d_32">
    <path d="M 71.241818 65.40573 
L 100.644091 65.225169 
L 130.046364 48.717815 
L 159.448636 44.7417 
L 188.850909 45.198215 
L 218.253182 43.44443 
L 247.655455 43.89852 
L 277.057727 40.744762 
L 306.46 43.308589 
L 335.862273 42.952048 
L 365.264545 50.286382 
L 394.666818 50.176609 
L 424.069091 43.554362 
L 453.471364 43.078712 
L 482.873636 43.506871 
L 512.275909 43.553006 
L 541.678182 43.5937 
" clip-path="url(#pdcb9661710)" style="fill: none; stroke-dasharray: 1.2,1.98; stroke-dashoffset: 0; stroke: #f79c40; stroke-opacity: 0.85; stroke-width: 1.2"/>
   </g>
   <g id="line2d_33">
    <path d="M 71.241818 72.709456 
L 100.644091 68.444481 
L 130.046364 59.142054 
L 159.448636 49.551336 
L 188.850909 42.990178 
L 218.253182 42.157341 
L 247.655455 43.122318 
L 277.057727 41.985548 
L 306.46 41.066605 
L 335.862273 41.734604 
L 365.264545 41.335148 
L 394.666818 44.53952 
L 424.069091 44.440111 
L 453.471364 41.483204 
L 482.873636 40.744762 
L 512.275909 41.738008 
L 541.678182 41.467519 
" clip-path="url(#pdcb9661710)" style="fill: none; stroke-dasharray: 1.2,1.98; stroke-dashoffset: 0; stroke: #f48c2b; stroke-opacity: 0.85; stroke-width: 1.2"/>
   </g>
   <g id="line2d_34">
    <path d="M 71.241818 65.811731 
L 100.644091 67.148544 
L 130.046364 58.491608 
L 159.448636 51.165192 
L 188.850909 45.784021 
L 218.253182 45.890065 
L 247.655455 44.440949 
L 277.057727 42.95439 
L 306.46 41.33045 
L 335.862273 41.571258 
L 365.264545 41.278208 
L 394.666818 42.836253 
L 424.069091 41.246102 
L 453.471364 41.393933 
L 482.873636 41.443061 
L 512.275909 40.849971 
L 541.678182 40.744762 
" clip-path="url(#pdcb9661710)" style="fill: none; stroke-dasharray: 1.2,1.98; stroke-dashoffset: 0; stroke: #f27c15; stroke-opacity: 0.85; stroke-width: 1.2"/>
   </g>
   <g id="line2d_35">
    <path d="M 71.241818 64.615572 
L 100.644091 65.888882 
L 130.046364 58.791243 
L 159.448636 51.611472 
L 188.850909 47.419073 
L 218.253182 46.719553 
L 247.655455 44.562331 
L 277.057727 43.999181 
L 306.46 43.288599 
L 335.862273 42.992844 
L 365.264545 42.508122 
L 394.666818 42.423205 
L 424.069091 41.883611 
L 453.471364 41.692461 
L 482.873636 41.526696 
L 512.275909 41.535246 
L 541.678182 40.744762 
" clip-path="url(#pdcb9661710)" style="fill: none; stroke-dasharray: 1.2,1.98; stroke-dashoffset: 0; stroke: #ef6c00; stroke-opacity: 0.85; stroke-width: 1.2"/>
   </g>
   <g id="line2d_36">
    <path d="M 71.241818 71.971919 
L 100.644091 73.788587 
L 130.046364 60.51975 
L 159.448636 54.066051 
L 188.850909 51.60334 
L 218.253182 48.371488 
L 247.655455 58.429963 
L 277.057727 47.643787 
L 306.46 43.532362 
L 335.862273 44.28233 
L 365.264545 44.612906 
L 394.666818 49.857491 
L 424.069091 43.059373 
L 453.471364 40.744762 
L 482.873636 42.702202 
L 512.275909 42.534696 
" clip-path="url(#pdcb9661710)" style="fill: none; stroke: #ffcc80; stroke-opacity: 0.85; stroke-width: 1.2; stroke-linecap: square"/>
   </g>
   <g id="line2d_37">
    <path d="M 71.241818 67.250116 
L 100.644091 70.719094 
L 130.046364 69.08294 
L 159.448636 58.412256 
L 188.850909 51.968124 
L 218.253182 48.450438 
L 247.655455 48.075261 
L 277.057727 46.88266 
L 306.46 44.559161 
L 335.862273 45.209335 
L 365.264545 45.300819 
L 394.666818 43.582943 
L 424.069091 44.964006 
L 453.471364 40.744762 
L 482.873636 41.74508 
L 512.275909 42.768174 
L 541.678182 42.448009 
" clip-path="url(#pdcb9661710)" style="fill: none; stroke: #fcbc6b; stroke-opacity: 0.85; stroke-width: 1.2; stroke-linecap: square"/>
   </g>
   <g id="line2d_38">
    <path d="M 71.241818 69.18371 
L 100.644091 71.732049 
L 130.046364 64.446505 
L 159.448636 52.778783 
L 188.850909 47.946537 
L 218.253182 49.678556 
L 247.655455 45.830384 
L 277.057727 46.430801 
L 306.46 44.492547 
L 335.862273 43.805174 
L 365.264545 40.744762 
L 394.666818 40.86352 
L 424.069091 42.070165 
L 453.471364 43.713264 
L 482.873636 43.759227 
L 512.275909 43.602348 
L 541.678182 43.18765 
" clip-path="url(#pdcb9661710)" style="fill: none; stroke: #faac55; stroke-opacity: 0.85; stroke-width: 1.2; stroke-linecap: square"/>
   </g>
   <g id="line2d_39">
    <path d="M 71.241818 63.585387 
L 100.644091 67.107574 
L 130.046364 63.723217 
L 159.448636 54.414964 
L 188.850909 49.021494 
L 218.253182 47.168164 
L 247.655455 47.417448 
L 277.057727 45.383625 
L 306.46 43.758663 
L 335.862273 43.799052 
L 365.264545 48.148214 
L 394.666818 42.367444 
L 424.069091 42.220465 
L 453.471364 41.801806 
L 482.873636 41.714369 
L 512.275909 42.016067 
L 541.678182 40.744762 
" clip-path="url(#pdcb9661710)" style="fill: none; stroke: #f79c40; stroke-opacity: 0.85; stroke-width: 1.2; stroke-linecap: square"/>
   </g>
   <g id="line2d_40">
    <path d="M 71.241818 65.720463 
L 100.644091 69.285782 
L 130.046364 61.542987 
L 159.448636 51.712036 
L 188.850909 48.490884 
L 218.253182 47.951877 
L 247.655455 44.817117 
L 277.057727 43.347657 
L 306.46 43.280088 
L 335.862273 43.219248 
L 365.264545 40.744762 
L 394.666818 41.745489 
L 424.069091 42.849572 
L 453.471364 40.779865 
L 482.873636 42.272086 
L 512.275909 42.169925 
L 541.678182 41.821328 
" clip-path="url(#pdcb9661710)" style="fill: none; stroke: #f48c2b; stroke-opacity: 0.85; stroke-width: 1.2; stroke-linecap: square"/>
   </g>
   <g id="line2d_41">
    <path d="M 71.241818 64.060841 
L 100.644091 65.7215 
L 130.046364 60.582447 
L 159.448636 52.208678 
L 188.850909 48.513538 
L 218.253182 47.644167 
L 247.655455 45.013737 
L 277.057727 43.350821 
L 306.46 43.093266 
L 335.862273 42.201101 
L 365.264545 41.959441 
L 394.666818 41.484762 
L 424.069091 40.744762 
L 453.471364 41.56917 
L 482.873636 40.861217 
L 512.275909 41.146957 
L 541.678182 41.265129 
" clip-path="url(#pdcb9661710)" style="fill: none; stroke: #f27c15; stroke-opacity: 0.85; stroke-width: 1.2; stroke-linecap: square"/>
   </g>
   <g id="line2d_42">
    <path d="M 71.241818 65.509667 
L 100.644091 70.205355 
L 130.046364 60.691844 
L 159.448636 52.512653 
L 188.850909 47.799482 
L 218.253182 46.931379 
L 247.655455 44.880059 
L 277.057727 43.191525 
L 306.46 41.890051 
L 335.862273 41.876411 
L 365.264545 41.89687 
L 394.666818 42.305414 
L 424.069091 41.845717 
L 453.471364 40.744762 
L 482.873636 41.587959 
L 512.275909 41.160147 
L 541.678182 41.671655 
" clip-path="url(#pdcb9661710)" style="fill: none; stroke: #ef6c00; stroke-opacity: 0.85; stroke-width: 1.2; stroke-linecap: square"/>
   </g>
   <g id="line2d_43">
    <path d="M 71.241818 58.026825 
L 100.644091 58.187897 
L 130.046364 57.665376 
L 159.448636 41.246578 
L 188.850909 40.835837 
L 218.253182 41.247672 
L 247.655455 45.022265 
L 277.057727 44.355608 
L 306.46 40.835837 
L 335.862273 40.835837 
L 365.264545 40.836934 
L 394.666818 42.110076 
L 424.069091 43.865012 
L 453.471364 43.686763 
L 482.873636 40.744762 
L 512.275909 40.790856 
" clip-path="url(#pdcb9661710)" style="fill: none; stroke-dasharray: 1.2,1.98; stroke-dashoffset: 0; stroke: #90caf9; stroke-opacity: 0.85; stroke-width: 1.2"/>
   </g>
   <g id="line2d_44">
    <path d="M 71.241818 42.989499 
L 100.644091 41.215808 
L 130.046364 42.897066 
L 159.448636 40.768522 
L 188.850909 40.767956 
L 218.253182 41.027356 
L 247.655455 42.454642 
L 277.057727 42.221982 
L 306.46 42.385333 
L 335.862273 41.262035 
L 365.264545 41.754918 
L 394.666818 40.815464 
L 424.069091 41.731327 
L 453.471364 43.267539 
L 482.873636 41.168437 
L 512.275909 40.839212 
L 541.678182 40.744762 
" clip-path="url(#pdcb9661710)" style="fill: none; stroke-dasharray: 1.2,1.98; stroke-dashoffset: 0; stroke: #7dbff6; stroke-opacity: 0.85; stroke-width: 1.2"/>
   </g>
   <g id="line2d_45">
    <path d="M 71.241818 169.482802 
L 100.644091 43.094804 
L 130.046364 42.067259 
L 159.448636 44.348028 
L 188.850909 41.449323 
L 218.253182 41.401587 
L 247.655455 41.639532 
L 277.057727 43.341404 
L 306.46 43.165105 
L 335.862273 43.106382 
L 365.264545 42.126426 
L 394.666818 42.209161 
L 424.069091 41.699169 
L 453.471364 41.722845 
L 482.873636 40.744762 
L 512.275909 41.520754 
L 541.678182 40.888601 
" clip-path="url(#pdcb9661710)" style="fill: none; stroke-dasharray: 1.2,1.98; stroke-dashoffset: 0; stroke: #6ab4f2; stroke-opacity: 0.85; stroke-width: 1.2"/>
   </g>
   <g id="line2d_46">
    <path d="M 71.241818 215.334589 
L 100.644091 187.832846 
L 130.046364 80.910023 
L 159.448636 68.313336 
L 188.850909 72.279962 
L 218.253182 94.902743 
L 247.655455 44.570694 
L 277.057727 42.564744 
L 306.46 43.399867 
L 335.862273 42.504796 
L 365.264545 43.186945 
L 394.666818 41.189397 
L 424.069091 41.573692 
L 453.471364 40.847386 
L 482.873636 40.991797 
L 512.275909 40.744762 
L 541.678182 40.763558 
" clip-path="url(#pdcb9661710)" style="fill: none; stroke-dasharray: 1.2,1.98; stroke-dashoffset: 0; stroke: #57a9ef; stroke-opacity: 0.85; stroke-width: 1.2"/>
   </g>
   <g id="line2d_47">
    <path d="M 71.241818 216.184038 
L 100.644091 211.868926 
L 130.046364 191.31937 
L 159.448636 171.857467 
L 188.850909 105.171038 
L 218.253182 55.973546 
L 247.655455 49.710512 
L 277.057727 45.433318 
L 306.46 42.407975 
L 335.862273 44.629401 
L 365.264545 44.232035 
L 394.666818 43.022261 
L 424.069091 42.159478 
L 453.471364 41.430084 
L 482.873636 41.0835 
L 512.275909 41.303562 
L 541.678182 40.744762 
" clip-path="url(#pdcb9661710)" style="fill: none; stroke-dasharray: 1.2,1.98; stroke-dashoffset: 0; stroke: #449eec; stroke-opacity: 0.85; stroke-width: 1.2"/>
   </g>
   <g id="line2d_48">
    <path d="M 71.241818 217.167823 
L 100.644091 212.427844 
L 130.046364 196.280913 
L 159.448636 189.992144 
L 188.850909 155.737542 
L 218.253182 93.317978 
L 247.655455 61.586475 
L 277.057727 47.601291 
L 306.46 43.625149 
L 335.862273 42.939313 
L 365.264545 43.353153 
L 394.666818 42.845508 
L 424.069091 40.744762 
L 453.471364 41.45351 
L 482.873636 40.837097 
L 512.275909 41.07456 
L 541.678182 41.254382 
" clip-path="url(#pdcb9661710)" style="fill: none; stroke-dasharray: 1.2,1.98; stroke-dashoffset: 0; stroke: #3193e8; stroke-opacity: 0.85; stroke-width: 1.2"/>
   </g>
   <g id="line2d_49">
    <path d="M 71.241818 217.261831 
L 100.644091 212.736779 
L 130.046364 198.67982 
L 159.448636 191.091266 
L 188.850909 159.522521 
L 218.253182 134.99229 
L 247.655455 88.579451 
L 277.057727 58.412455 
L 306.46 50.994855 
L 335.862273 75.200562 
L 365.264545 43.990678 
L 394.666818 44.499068 
L 424.069091 44.383286 
L 453.471364 47.851148 
L 482.873636 40.744762 
L 512.275909 41.529319 
L 541.678182 41.042687 
" clip-path="url(#pdcb9661710)" style="fill: none; stroke-dasharray: 1.2,1.98; stroke-dashoffset: 0; stroke: #1e88e5; stroke-opacity: 0.85; stroke-width: 1.2"/>
   </g>
   <g id="line2d_50">
    <path d="M 71.241818 307.949723 
L 100.644091 256.472682 
L 130.046364 233.899605 
L 159.448636 229.600023 
L 188.850909 194.228218 
L 218.253182 151.1031 
L 247.655455 161.613354 
L 277.057727 122.628966 
L 306.46 125.851617 
L 335.862273 99.185927 
L 365.264545 78.544064 
L 394.666818 74.144435 
L 424.069091 65.158578 
L 453.471364 57.261437 
L 482.873636 53.772696 
L 512.275909 40.744762 
" clip-path="url(#pdcb9661710)" style="fill: none; stroke: #90caf9; stroke-opacity: 0.85; stroke-width: 1.2; stroke-linecap: square"/>
   </g>
   <g id="line2d_51">
    <path d="M 71.241818 302.701483 
L 100.644091 223.429938 
L 130.046364 299.15619 
L 159.448636 277.151816 
L 188.850909 262.15586 
L 218.253182 222.828016 
L 247.655455 178.136351 
L 277.057727 134.425179 
L 306.46 96.113776 
L 335.862273 69.77751 
L 365.264545 61.856233 
L 394.666818 62.029226 
L 424.069091 52.360977 
L 453.471364 53.000885 
L 482.873636 48.371317 
L 512.275909 40.744762 
L 541.678182 44.873891 
" clip-path="url(#pdcb9661710)" style="fill: none; stroke: #7dbff6; stroke-opacity: 0.85; stroke-width: 1.2; stroke-linecap: square"/>
   </g>
   <g id="line2d_52">
    <path d="M 71.241818 268.667686 
L 100.644091 216.556058 
L 130.046364 204.391969 
L 159.448636 219.47419 
L 188.850909 167.473065 
L 218.253182 130.477632 
L 247.655455 98.091112 
L 277.057727 74.236783 
L 306.46 58.004188 
L 335.862273 50.04838 
L 365.264545 45.123922 
L 394.666818 43.064981 
L 424.069091 41.107724 
L 453.471364 41.168077 
L 482.873636 40.914301 
L 512.275909 40.744762 
L 541.678182 40.805273 
" clip-path="url(#pdcb9661710)" style="fill: none; stroke: #6ab4f2; stroke-opacity: 0.85; stroke-width: 1.2; stroke-linecap: square"/>
   </g>
   <g id="line2d_53">
    <path d="M 71.241818 220.129958 
L 100.644091 216.421865 
L 130.046364 197.045713 
L 159.448636 198.512545 
L 188.850909 190.53428 
L 218.253182 131.943355 
L 247.655455 95.387928 
L 277.057727 72.508468 
L 306.46 56.999155 
L 335.862273 47.442681 
L 365.264545 42.55038 
L 394.666818 45.009435 
L 424.069091 48.442542 
L 453.471364 46.576603 
L 482.873636 45.257356 
L 512.275909 43.317439 
L 541.678182 40.744762 
" clip-path="url(#pdcb9661710)" style="fill: none; stroke: #57a9ef; stroke-opacity: 0.85; stroke-width: 1.2; stroke-linecap: square"/>
   </g>
   <g id="line2d_54">
    <path d="M 71.241818 211.731496 
L 100.644091 205.425505 
L 130.046364 188.024432 
L 159.448636 184.437934 
L 188.850909 147.571363 
L 218.253182 108.908455 
L 247.655455 75.555805 
L 277.057727 207.685145 
L 306.46 113.41658 
L 335.862273 86.465817 
L 365.264545 69.82947 
L 394.666818 57.097412 
L 424.069091 48.683242 
L 453.471364 44.443519 
L 482.873636 40.744762 
L 512.275909 43.526006 
L 541.678182 44.791864 
" clip-path="url(#pdcb9661710)" style="fill: none; stroke: #449eec; stroke-opacity: 0.85; stroke-width: 1.2; stroke-linecap: square"/>
   </g>
   <g id="line2d_55">
    <path d="M 71.241818 227.405189 
L 100.644091 217.978558 
L 130.046364 202.035097 
L 159.448636 201.622192 
L 188.850909 165.094327 
L 218.253182 125.349328 
L 247.655455 93.147349 
L 277.057727 71.640653 
L 306.46 57.838611 
L 335.862273 50.020599 
L 365.264545 45.846855 
L 394.666818 43.349844 
L 424.069091 41.912397 
L 453.471364 41.437816 
L 482.873636 41.03561 
L 512.275909 40.823225 
L 541.678182 40.744762 
" clip-path="url(#pdcb9661710)" style="fill: none; stroke: #3193e8; stroke-opacity: 0.85; stroke-width: 1.2; stroke-linecap: square"/>
   </g>
   <g id="line2d_56">
    <path d="M 71.241818 219.300038 
L 100.644091 215.665167 
L 130.046364 199.964337 
L 159.448636 196.533674 
L 188.850909 161.360082 
L 218.253182 120.806006 
L 247.655455 87.087014 
L 277.057727 66.943562 
L 306.46 52.320142 
L 335.862273 44.36356 
L 365.264545 40.744762 
L 394.666818 84.955351 
L 424.069091 53.684085 
L 453.471364 45.299233 
L 482.873636 46.497029 
L 512.275909 49.427605 
L 541.678182 45.373328 
" clip-path="url(#pdcb9661710)" style="fill: none; stroke: #1e88e5; stroke-opacity: 0.85; stroke-width: 1.2; stroke-linecap: square"/>
   </g>
   <g id="line2d_57">
    <path d="M 71.241818 240.440184 
L 100.644091 200.151341 
L 130.046364 179.265644 
L 159.448636 152.419833 
L 188.850909 53.830655 
L 218.253182 53.830655 
L 247.655455 62.036686 
L 277.057727 59.921124 
L 306.46 53.380773 
L 335.862273 52.498001 
L 365.264545 48.840639 
L 394.666818 52.032727 
L 424.069091 48.373588 
L 453.471364 40.744762 
L 482.873636 52.498001 
L 512.275909 46.985171 
" clip-path="url(#pdcb9661710)" style="fill: none; stroke-dasharray: 1.2,1.98; stroke-dashoffset: 0; stroke: #a5d6a7; stroke-opacity: 0.85; stroke-width: 1.2"/>
   </g>
   <g id="line2d_58">
    <path d="M 71.241818 234.866546 
L 100.644091 185.768805 
L 130.046364 160.861881 
L 159.448636 130.049546 
L 188.850909 95.516236 
L 218.253182 53.064252 
L 247.655455 58.819923 
L 277.057727 57.98138 
L 306.46 52.62947 
L 335.862273 49.309116 
L 365.264545 45.672755 
L 394.666818 42.407121 
L 424.069091 42.169243 
L 453.471364 40.750489 
L 482.873636 40.744762 
L 512.275909 41.697941 
L 541.678182 41.936632 
" clip-path="url(#pdcb9661710)" style="fill: none; stroke-dasharray: 1.2,1.98; stroke-dashoffset: 0; stroke: #95cd97; stroke-opacity: 0.85; stroke-width: 1.2"/>
   </g>
   <g id="line2d_59">
    <path d="M 71.241818 251.530052 
L 100.644091 205.000621 
L 130.046364 175.567973 
L 159.448636 158.482746 
L 188.850909 125.800025 
L 218.253182 106.357176 
L 247.655455 40.744762 
L 277.057727 52.30644 
L 306.46 49.193882 
L 335.862273 47.034989 
L 365.264545 45.48623 
L 394.666818 42.478077 
L 424.069091 44.054829 
L 453.471364 42.608314 
L 482.873636 41.277942 
L 512.275909 41.678081 
L 541.678182 41.946325 
" clip-path="url(#pdcb9661710)" style="fill: none; stroke-dasharray: 1.2,1.98; stroke-dashoffset: 0; stroke: #84c487; stroke-opacity: 0.85; stroke-width: 1.2"/>
   </g>
   <g id="line2d_60">
    <path d="M 71.241818 279.701908 
L 100.644091 259.743968 
L 130.046364 199.573443 
L 159.448636 179.251369 
L 188.850909 140.35962 
L 218.253182 117.192455 
L 247.655455 77.500516 
L 277.057727 50.735546 
L 306.46 48.755513 
L 335.862273 45.865219 
L 365.264545 47.016142 
L 394.666818 40.744762 
L 424.069091 46.002087 
L 453.471364 50.406514 
L 482.873636 44.911482 
L 512.275909 49.682638 
L 541.678182 48.021062 
" clip-path="url(#pdcb9661710)" style="fill: none; stroke-dasharray: 1.2,1.98; stroke-dashoffset: 0; stroke: #74bb77; stroke-opacity: 0.85; stroke-width: 1.2"/>
   </g>
   <g id="line2d_61">
    <path d="M 71.241818 288.510719 
L 100.644091 280.299795 
L 130.046364 272.638369 
L 159.448636 261.185534 
L 188.850909 247.967274 
L 218.253182 221.994907 
L 247.655455 172.090912 
L 277.057727 173.252011 
L 306.46 115.357023 
L 335.862273 102.77571 
L 365.264545 66.274885 
L 394.666818 56.97315 
L 424.069091 48.168414 
L 453.471364 48.13356 
L 482.873636 48.875448 
L 512.275909 42.084352 
L 541.678182 40.744762 
" clip-path="url(#pdcb9661710)" style="fill: none; stroke-dasharray: 1.2,1.98; stroke-dashoffset: 0; stroke: #64b267; stroke-opacity: 0.85; stroke-width: 1.2"/>
   </g>
   <g id="line2d_62">
    <path d="M 71.241818 290.012434 
L 100.644091 286.659492 
L 130.046364 285.571077 
L 159.448636 283.815502 
L 188.850909 280.916985 
L 218.253182 280.043097 
L 247.655455 275.538031 
L 277.057727 250.011572 
L 306.46 222.686474 
L 335.862273 162.127031 
L 365.264545 97.192685 
L 394.666818 64.170226 
L 424.069091 55.50886 
L 453.471364 50.477802 
L 482.873636 43.88819 
L 512.275909 45.762167 
L 541.678182 40.744762 
" clip-path="url(#pdcb9661710)" style="fill: none; stroke-dasharray: 1.2,1.98; stroke-dashoffset: 0; stroke: #53a957; stroke-opacity: 0.85; stroke-width: 1.2"/>
   </g>
   <g id="line2d_63">
    <path d="M 71.241818 289.4637 
L 100.644091 286.584402 
L 130.046364 285.363332 
L 159.448636 284.841269 
L 188.850909 283.751183 
L 218.253182 283.518591 
L 247.655455 273.233592 
L 277.057727 255.785543 
L 306.46 234.583789 
L 335.862273 194.091392 
L 365.264545 143.569017 
L 394.666818 76.22007 
L 424.069091 50.714629 
L 453.471364 45.647651 
L 482.873636 42.447683 
L 512.275909 40.744762 
L 541.678182 44.103345 
" clip-path="url(#pdcb9661710)" style="fill: none; stroke-dasharray: 1.2,1.98; stroke-dashoffset: 0; stroke: #43a047; stroke-opacity: 0.85; stroke-width: 1.2"/>
   </g>
   <g id="line2d_64">
    <path d="M 71.241818 296.245767 
L 100.644091 294.454641 
L 130.046364 294.250025 
L 159.448636 295.077781 
L 188.850909 290.709192 
L 218.253182 291.485535 
L 247.655455 277.897215 
L 277.057727 256.186066 
L 306.46 231.868275 
L 335.862273 201.845462 
L 365.264545 156.099581 
L 394.666818 111.000928 
L 424.069091 75.133197 
L 453.471364 53.812223 
L 482.873636 61.498322 
L 512.275909 40.744762 
" clip-path="url(#pdcb9661710)" style="fill: none; stroke: #a5d6a7; stroke-opacity: 0.85; stroke-width: 1.2; stroke-linecap: square"/>
   </g>
   <g id="line2d_65">
    <path d="M 71.241818 295.151611 
L 100.644091 293.208216 
L 130.046364 292.690397 
L 159.448636 293.494346 
L 188.850909 290.242995 
L 218.253182 290.818227 
L 247.655455 278.484672 
L 277.057727 258.106353 
L 306.46 233.999099 
L 335.862273 204.074808 
L 365.264545 162.752434 
L 394.666818 116.789084 
L 424.069091 85.263636 
L 453.471364 63.064868 
L 482.873636 52.076892 
L 512.275909 46.987652 
L 541.678182 40.744762 
" clip-path="url(#pdcb9661710)" style="fill: none; stroke: #95cd97; stroke-opacity: 0.85; stroke-width: 1.2; stroke-linecap: square"/>
   </g>
   <g id="line2d_66">
    <path d="M 71.241818 295.53732 
L 100.644091 292.00572 
L 130.046364 291.425474 
L 159.448636 291.728756 
L 188.850909 288.335984 
L 218.253182 290.313771 
L 247.655455 276.942923 
L 277.057727 257.41968 
L 306.46 233.748272 
L 335.862273 203.886666 
L 365.264545 163.322073 
L 394.666818 128.980817 
L 424.069091 101.312339 
L 453.471364 74.193396 
L 482.873636 68.064877 
L 512.275909 46.9184 
L 541.678182 40.744762 
" clip-path="url(#pdcb9661710)" style="fill: none; stroke: #84c487; stroke-opacity: 0.85; stroke-width: 1.2; stroke-linecap: square"/>
   </g>
   <g id="line2d_67">
    <path d="M 71.241818 292.291655 
L 100.644091 290.73905 
L 130.046364 289.482977 
L 159.448636 289.348021 
L 188.850909 286.631572 
L 218.253182 287.439143 
L 247.655455 274.409507 
L 277.057727 254.691489 
L 306.46 231.054209 
L 335.862273 202.255484 
L 365.264545 157.890086 
L 394.666818 115.737161 
L 424.069091 86.577649 
L 453.471364 59.140757 
L 482.873636 57.397154 
L 512.275909 40.744762 
L 541.678182 46.721965 
" clip-path="url(#pdcb9661710)" style="fill: none; stroke: #74bb77; stroke-opacity: 0.85; stroke-width: 1.2; stroke-linecap: square"/>
   </g>
   <g id="line2d_68">
    <path d="M 71.241818 290.256875 
L 100.644091 288.935155 
L 130.046364 288.197823 
L 159.448636 287.637607 
L 188.850909 285.42579 
L 218.253182 285.508834 
L 247.655455 273.09375 
L 277.057727 253.334518 
L 306.46 228.043841 
L 335.862273 198.090435 
L 365.264545 155.120214 
L 394.666818 111.170269 
L 424.069091 79.784233 
L 453.471364 61.090074 
L 482.873636 49.731793 
L 512.275909 40.744762 
L 541.678182 42.186121 
" clip-path="url(#pdcb9661710)" style="fill: none; stroke: #64b267; stroke-opacity: 0.85; stroke-width: 1.2; stroke-linecap: square"/>
   </g>
   <g id="line2d_69">
    <path d="M 71.241818 289.369431 
L 100.644091 288.368985 
L 130.046364 287.211894 
L 159.448636 287.465283 
L 188.850909 309.568914 
L 218.253182 287.542914 
L 247.655455 273.713667 
L 277.057727 251.738234 
L 306.46 225.513154 
L 335.862273 196.767253 
L 365.264545 152.79559 
L 394.666818 112.243823 
L 424.069091 81.666322 
L 453.471364 61.944229 
L 482.873636 48.058497 
L 512.275909 44.503947 
L 541.678182 40.744762 
" clip-path="url(#pdcb9661710)" style="fill: none; stroke: #53a957; stroke-opacity: 0.85; stroke-width: 1.2; stroke-linecap: square"/>
   </g>
   <g id="line2d_70">
    <path d="M 71.241818 290.231379 
L 100.644091 288.104526 
L 130.046364 286.86155 
L 159.448636 287.042601 
L 188.850909 284.734852 
L 218.253182 284.3864 
L 247.655455 273.217826 
L 277.057727 253.200172 
L 306.46 228.742956 
L 335.862273 196.090569 
L 365.264545 154.31174 
L 394.666818 108.60391 
L 424.069091 84.004549 
L 453.471364 64.167565 
L 482.873636 55.369208 
L 512.275909 48.964188 
L 541.678182 40.744762 
" clip-path="url(#pdcb9661710)" style="fill: none; stroke: #43a047; stroke-opacity: 0.85; stroke-width: 1.2; stroke-linecap: square"/>
   </g>
   <g id="patch_3">
    <path d="M 47.72 318.04 
L 47.72 26.88 
" style="fill: none; stroke: #444444; stroke-width: 0.8; stroke-linejoin: miter; stroke-linecap: square"/>
   </g>
   <g id="patch_4">
    <path d="M 565.2 318.04 
L 565.2 26.88 
" style="fill: none; stroke: #444444; stroke-width: 0.8; stroke-linejoin: miter; stroke-linecap: square"/>
   </g>
   <g id="patch_5">
    <path d="M 47.72 318.04 
L 565.2 318.04 
" style="fill: none; stroke: #444444; stroke-width: 0.8; stroke-linejoin: miter; stroke-linecap: square"/>
   </g>
   <g id="patch_6">
    <path d="M 47.72 26.88 
L 565.2 26.88 
" style="fill: none; stroke: #444444; stroke-width: 0.8; stroke-linejoin: miter; stroke-linecap: square"/>
   </g>
   <g id="text_17">
    <!-- Normalized throughput — all kernels &amp; working sets -->
    <g style="fill: #e0e0e0" transform="translate(150.170312 20.88) scale(0.12 -0.12)">
     <defs>
      <path id="DejaVuSans-2014" d="M 313 1978 
L 6088 1978 
L 6088 1528 
L 313 1528 
L 313 1978 
z
" transform="scale(0.015625)"/>
      <path id="DejaVuSans-6e" d="M 3513 2113 
L 3513 0 
L 2938 0 
L 2938 2094 
Q 2938 2591 2744 2837 
Q 2550 3084 2163 3084 
Q 1697 3084 1428 2787 
Q 1159 2491 1159 1978 
L 1159 0 
L 581 0 
L 581 3500 
L 1159 3500 
L 1159 2956 
Q 1366 3272 1645 3428 
Q 1925 3584 2291 3584 
Q 2894 3584 3203 3211 
Q 3513 2838 3513 2113 
z
" transform="scale(0.015625)"/>
      <path id="DejaVuSans-26" d="M 1556 2509 
Q 1272 2256 1139 2004 
Q 1006 1753 1006 1478 
Q 1006 1022 1337 719 
Q 1669 416 2169 416 
Q 2466 416 2725 514 
Q 2984 613 3213 813 
L 1556 2509 
z
M 1997 2859 
L 3584 1234 
Q 3769 1513 3872 1830 
Q 3975 2147 3994 2503 
L 4575 2503 
Q 4538 2091 4375 1687 
Q 4213 1284 3922 891 
L 4794 0 
L 4006 0 
L 3559 459 
Q 3234 181 2878 45 
Q 2522 -91 2113 -91 
Q 1359 -91 881 339 
Q 403 769 403 1441 
Q 403 1841 612 2192 
Q 822 2544 1241 2853 
Q 1091 3050 1012 3245 
Q 934 3441 934 3628 
Q 934 4134 1281 4442 
Q 1628 4750 2203 4750 
Q 2463 4750 2720 4694 
Q 2978 4638 3244 4525 
L 3244 3956 
Q 2972 4103 2725 4179 
Q 2478 4256 2266 4256 
Q 1938 4256 1733 4082 
Q 1528 3909 1528 3634 
Q 1528 3475 1620 3314 
Q 1713 3153 1997 2859 
z
" transform="scale(0.015625)"/>
      <path id="DejaVuSans-77" d="M 269 3500 
L 844 3500 
L 1563 769 
L 2278 3500 
L 2956 3500 
L 3675 769 
L 4391 3500 
L 4966 3500 
L 4050 0 
L 3372 0 
L 2619 2869 
L 1863 0 
L 1184 0 
L 269 3500 
z
" transform="scale(0.015625)"/>
     </defs>
     <use xlink:href="#DejaVuSans-4e"/>
     <use xlink:href="#DejaVuSans-6f" transform="translate(74.804688 0)"/>
     <use xlink:href="#DejaVuSans-72" transform="translate(135.986328 0)"/>
     <use xlink:href="#DejaVuSans-6d" transform="translate(175.349609 0)"/>
     <use xlink:href="#DejaVuSans-61" transform="translate(272.761719 0)"/>
     <use xlink:href="#DejaVuSans-6c" transform="translate(334.041016 0)"/>
     <use xlink:href="#DejaVuSans-69" transform="translate(361.824219 0)"/>
     <use xlink:href="#DejaVuSans-7a" transform="translate(389.607422 0)"/>
     <use xlink:href="#DejaVuSans-65" transform="translate(442.097656 0)"/>
     <use xlink:href="#DejaVuSans-64" transform="translate(503.621094 0)"/>
     <use xlink:href="#DejaVuSans-20" transform="translate(567.097656 0)"/>
     <use xlink:href="#DejaVuSans-74" transform="translate(598.884766 0)"/>
     <use xlink:href="#DejaVuSans-68" transform="translate(638.09375 0)"/>
     <use xlink:href="#DejaVuSans-72" transform="translate(701.472656 0)"/>
     <use xlink:href="#DejaVuSans-6f" transform="translate(740.335938 0)"/>
     <use xlink:href="#DejaVuSans-75" transform="translate(801.517578 0)"/>
     <use xlink:href="#DejaVuSans-67" transform="translate(864.896484 0)"/>
     <use xlink:href="#DejaVuSans-68" transform="translate(928.373047 0)"/>
     <use xlink:href="#DejaVuSans-70" transform="translate(991.751953 0)"/>
     <use xlink:href="#DejaVuSans-75" transform="translate(1055.228516 0)"/>
     <use xlink:href="#DejaVuSans-74" transform="translate(1118.607422 0)"/>
     <use xlink:href="#DejaVuSans-20" transform="translate(1157.816406 0)"/>
     <use xlink:href="#DejaVuSans-2014" transform="translate(1189.603516 0)"/>
     <use xlink:href="#DejaVuSans-20" transform="translate(1289.603516 0)"/>
     <use xlink:href="#DejaVuSans-61" transform="translate(1321.390625 0)"/>
     <use xlink:href="#DejaVuSans-6c" transform="translate(1382.669922 0)"/>
     <use xlink:href="#DejaVuSans-6c" transform="translate(1410.453125 0)"/>
     <use xlink:href="#DejaVuSans-20" transform="translate(1438.236328 0)"/>
     <use xlink:href="#DejaVuSans-6b" transform="translate(1470.023438 0)"/>
     <use xlink:href="#DejaVuSans-65" transform="translate(1524.308594 0)"/>
     <use xlink:href="#DejaVuSans-72" transform="translate(1585.832031 0)"/>
     <use xlink:href="#DejaVuSans-6e" transform="translate(1625.195312 0)"/>
     <use xlink:href="#DejaVuSans-65" transform="translate(1688.574219 0)"/>
     <use xlink:href="#DejaVuSans-6c" transform="translate(1750.097656 0)"/>
     <use xlink:href="#DejaVuSans-73" transform="translate(1777.880859 0)"/>
     <use xlink:href="#DejaVuSans-20" transform="translate(1829.980469 0)"/>
     <use xlink:href="#DejaVuSans-26" transform="translate(1861.767578 0)"/>
     <use xlink:href="#DejaVuSans-20" transform="translate(1939.746094 0)"/>
     <use xlink:href="#DejaVuSans-77" transform="translate(1971.533203 0)"/>
     <use xlink:href="#DejaVuSans-6f" transform="translate(2053.320312 0)"/>
     <use xlink:href="#DejaVuSans-72" transform="translate(2114.501953 0)"/>
     <use xlink:href="#DejaVuSans-6b" transform="translate(2155.615234 0)"/>
     <use xlink:href="#DejaVuSans-69" transform="translate(2213.525391 0)"/>
     <use xlink:href="#DejaVuSans-6e" transform="translate(2241.308594 0)"/>
     <use xlink:href="#DejaVuSans-67" transform="translate(2304.6875 0)"/>
     <use xlink:href="#DejaVuSans-20" transform="translate(2368.164062 0)"/>
     <use xlink:href="#DejaVuSans-73" transform="translate(2399.951172 0)"/>
     <use xlink:href="#DejaVuSans-65" transform="translate(2452.050781 0)"/>
     <use xlink:href="#DejaVuSans-74" transform="translate(2513.574219 0)"/>
     <use xlink:href="#DejaVuSans-73" transform="translate(2552.783203 0)"/>
    </g>
   </g>
   <g id="legend_1">
    <g id="patch_7">
     <path d="M 486.55 314.04 
L 559.6 314.04 
Q 561.2 314.04 561.2 312.44 
L 561.2 253.86 
Q 561.2 252.26 559.6 252.26 
L 486.55 252.26 
Q 484.95 252.26 484.95 253.86 
L 484.95 312.44 
Q 484.95 314.04 486.55 314.04 
z
" style="fill: #1e2436; opacity: 0.8; stroke: #444444; stroke-linejoin: miter"/>
    </g>
    <g id="patch_8">
     <path d="M 488.15 261.53875 
L 504.15 261.53875 
L 504.15 255.93875 
L 488.15 255.93875 
z
" style="fill: #ef6c00"/>
    </g>
    <g id="text_18">
     <!-- heavy_sin -->
     <g style="fill: #e0e0e0" transform="translate(510.55 261.53875) scale(0.08 -0.08)">
      <defs>
       <path id="DejaVuSans-76" d="M 191 3500 
L 800 3500 
L 1894 563 
L 2988 3500 
L 3597 3500 
L 2284 0 
L 1503 0 
L 191 3500 
z
" transform="scale(0.015625)"/>
       <path id="DejaVuSans-79" d="M 2059 -325 
Q 1816 -950 1584 -1140 
Q 1353 -1331 966 -1331 
L 506 -1331 
L 506 -850 
L 844 -850 
Q 1081 -850 1212 -737 
Q 1344 -625 1503 -206 
L 1606 56 
L 191 3500 
L 800 3500 
L 1894 763 
L 2988 3500 
L 3597 3500 
L 2059 -325 
z
" transform="scale(0.015625)"/>
       <path id="DejaVuSans-5f" d="M 3263 -1063 
L 3263 -1509 
L -63 -1509 
L -63 -1063 
L 3263 -1063 
z
" transform="scale(0.015625)"/>
      </defs>
      <use xlink:href="#DejaVuSans-68"/>
      <use xlink:href="#DejaVuSans-65" transform="translate(63.378906 0)"/>
      <use xlink:href="#DejaVuSans-61" transform="translate(124.902344 0)"/>
      <use xlink:href="#DejaVuSans-76" transform="translate(186.181641 0)"/>
      <use xlink:href="#DejaVuSans-79" transform="translate(245.361328 0)"/>
      <use xlink:href="#DejaVuSans-5f" transform="translate(304.541016 0)"/>
      <use xlink:href="#DejaVuSans-73" transform="translate(354.541016 0)"/>
      <use xlink:href="#DejaVuSans-69" transform="translate(406.640625 0)"/>
      <use xlink:href="#DejaVuSans-6e" transform="translate(434.423828 0)"/>
     </g>
    </g>
    <g id="patch_9">
     <path d="M 488.15 273.50375 
L 504.15 273.50375 
L 504.15 267.90375 
L 488.15 267.90375 
z
" style="fill: #1e88e5"/>
    </g>
    <g id="text_19">
     <!-- scalar_stats -->
     <g style="fill: #e0e0e0" transform="translate(510.55 273.50375) scale(0.08 -0.08)">
      <use xlink:href="#DejaVuSans-73"/>
      <use xlink:href="#DejaVuSans-63" transform="translate(52.099609 0)"/>
      <use xlink:href="#DejaVuSans-61" transform="translate(107.080078 0)"/>
      <use xlink:href="#DejaVuSans-6c" transform="translate(168.359375 0)"/>
      <use xlink:href="#DejaVuSans-61" transform="translate(196.142578 0)"/>
      <use xlink:href="#DejaVuSans-72" transform="translate(257.421875 0)"/>
      <use xlink:href="#DejaVuSans-5f" transform="translate(298.535156 0)"/>
      <use xlink:href="#DejaVuSans-73" transform="translate(348.535156 0)"/>
      <use xlink:href="#DejaVuSans-74" transform="translate(400.634766 0)"/>
      <use xlink:href="#DejaVuSans-61" transform="translate(439.84375 0)"/>
      <use xlink:href="#DejaVuSans-74" transform="translate(501.123047 0)"/>
      <use xlink:href="#DejaVuSans-73" transform="translate(540.332031 0)"/>
     </g>
    </g>
    <g id="patch_10">
     <path d="M 488.15 285.46875 
L 504.15 285.46875 
L 504.15 279.86875 
L 488.15 279.86875 
z
" style="fill: #43a047"/>
    </g>
    <g id="text_20">
     <!-- simd_sum -->
     <g style="fill: #e0e0e0" transform="translate(510.55 285.46875) scale(0.08 -0.08)">
      <use xlink:href="#DejaVuSans-73"/>
      <use xlink:href="#DejaVuSans-69" transform="translate(52.099609 0)"/>
      <use xlink:href="#DejaVuSans-6d" transform="translate(79.882812 0)"/>
      <use xlink:href="#DejaVuSans-64" transform="translate(177.294922 0)"/>
      <use xlink:href="#DejaVuSans-5f" transform="translate(240.771484 0)"/>
      <use xlink:href="#DejaVuSans-73" transform="translate(290.771484 0)"/>
      <use xlink:href="#DejaVuSans-75" transform="translate(342.871094 0)"/>
      <use xlink:href="#DejaVuSans-6d" transform="translate(406.25 0)"/>
     </g>
    </g>
    <g id="line2d_71">
     <path d="M 488.15 294.63375 
L 496.15 294.63375 
L 504.15 294.63375 
" style="fill: none; stroke: #e0e0e0; stroke-width: 1.5; stroke-linecap: square"/>
    </g>
    <g id="text_21">
     <!-- randomized -->
     <g style="fill: #e0e0e0" transform="translate(510.55 297.43375) scale(0.08 -0.08)">
      <use xlink:href="#DejaVuSans-72"/>
      <use xlink:href="#DejaVuSans-61" transform="translate(41.113281 0)"/>
      <use xlink:href="#DejaVuSans-6e" transform="translate(102.392578 0)"/>
      <use xlink:href="#DejaVuSans-64" transform="translate(165.771484 0)"/>
      <use xlink:href="#DejaVuSans-6f" transform="translate(229.248047 0)"/>
      <use xlink:href="#DejaVuSans-6d" transform="translate(290.429688 0)"/>
      <use xlink:href="#DejaVuSans-69" transform="translate(387.841797 0)"/>
      <use xlink:href="#DejaVuSans-7a" transform="translate(415.625 0)"/>
      <use xlink:href="#DejaVuSans-65" transform="translate(468.115234 0)"/>
      <use xlink:href="#DejaVuSans-64" transform="translate(529.638672 0)"/>
     </g>
    </g>
    <g id="line2d_72">
     <path d="M 488.15 306.37625 
L 496.15 306.37625 
L 504.15 306.37625 
" style="fill: none; stroke-dasharray: 1.5,2.475; stroke-dashoffset: 0; stroke: #e0e0e0; stroke-width: 1.5"/>
    </g>
    <g id="text_22">
     <!-- repeated -->
     <g style="fill: #e0e0e0" transform="translate(510.55 309.17625) scale(0.08 -0.08)">
      <use xlink:href="#DejaVuSans-72"/>
      <use xlink:href="#DejaVuSans-65" transform="translate(38.863281 0)"/>
      <use xlink:href="#DejaVuSans-70" transform="translate(100.386719 0)"/>
      <use xlink:href="#DejaVuSans-65" transform="translate(163.863281 0)"/>
      <use xlink:href="#DejaVuSans-61" transform="translate(225.386719 0)"/>
      <use xlink:href="#DejaVuSans-74" transform="translate(286.666016 0)"/>
      <use xlink:href="#DejaVuSans-65" transform="translate(325.875 0)"/>
      <use xlink:href="#DejaVuSans-64" transform="translate(387.398438 0)"/>
     </g>
    </g>
   </g>
  </g>
 </g>
 <defs>
  <clipPath id="pdcb9661710">
   <rect x="47.72" y="26.88" width="517.48" height="291.16"/>
  </clipPath>
 </defs>
</svg>
