<?xml version="1.0" encoding="utf-8" standalone="no"?>
<!DOCTYPE svg PUBLIC "-//W3C//DTD SVG 1.1//EN"
  "http://www.w3.org/Graphics/SVG/1.1/DTD/svg11.dtd">
<svg xmlns:xlink="http://www.w3.org/1999/xlink" width="576pt" height="360pt" viewBox="0 0 576 360" xmlns="http://www.w3.org/2000/svg" version="1.1">
 <metadata>
  <rdf:RDF xmlns:dc="http://purl.org/dc/elements/1.1/" xmlns:cc="http://creativecommons.org/ns#" xmlns:rdf="http://www.w3.org/1999/02/22-rdf-syntax-ns#">
   <cc:Work>
    <dc:type rdf:resource="http://purl.org/dc/dcmitype/StillImage"/>
    <dc:date>2026-04-01T14:22:18.602824</dc:date>
    <dc:format>image/svg+xml</dc:format>
    <dc:creator>
     <cc:Agent>
      <dc:title>Matplotlib v3.10.8, https://matplotlib.org/</dc:title>
     </cc:Agent>
    </dc:creator>
   </cc:Work>
  </rdf:RDF>
 </metadata>
 <defs>
  <style type="text/css">*{stroke-linejoin: round; stroke-linecap: butt}</style>
 </defs>
 <g id="figure_1">
  <g id="patch_1">
   <path d="M 0 360 
L 576 360 
L 576 0 
L 0 0 
z
" style="fill: #121622"/>
  </g>
  <g id="axes_1">
   <g id="patch_2">
    <path d="M 57.17 318.04 
L 565.2 318.04 
L 565.2 26.88 
L 57.17 26.88 
z
" style="fill: #121622"/>
   </g>
   <g id="matplotlib.axis_1">
    <g id="xtick_1">
     <g id="line2d_1">
      <path d="M 109.127614 318.04 
L 109.127614 26.88 
" clip-path="url(#p720de8fcfb)" style="fill: none; stroke: #30333e; stroke-width: 0.6; stroke-linecap: square"/>
     </g>
     <g id="line2d_2">
      <defs>
       <path id="m02da35d48c" d="M 0 0 
L 0 3.5 
" style="stroke: #e0e0e0; stroke-width: 0.8"/>
      </defs>
      <g>
       <use xlink:href="#m02da35d48c" x="109.127614" y="318.04" style="fill: #e0e0e0; stroke: #e0e0e0; stroke-width: 0.8"/>
      </g>
     </g>
     <g id="text_1">
      <!-- 64 B -->
      <g style="fill: #e0e0e0" transform="translate(97.745582 332.638438) scale(0.1 -0.1)">
       <defs>
        <path id="DejaVuSans-36" d="M 2113 2584 
Q 1688 2584 1439 2293 
Q 1191 2003 1191 1497 
Q 1191 994 1439 701 
Q 1688 409 2113 409 
Q 2538 409 2786 701 
Q 3034 994 3034 1497 
Q 3034 2003 2786 2293 
Q 2538 2584 2113 2584 
z
M 3366 4563 
L 3366 3988 
Q 3128 4100 2886 4159 
Q 2644 4219 2406 4219 
Q 1781 4219 1451 3797 
Q 1122 3375 1075 2522 
Q 1259 2794 1537 2939 
Q 1816 3084 2150 3084 
Q 2853 3084 3261 2657 
Q 3669 2231 3669 1497 
Q 3669 778 3244 343 
Q 2819 -91 2113 -91 
Q 1303 -91 875 529 
Q 447 1150 447 2328 
Q 447 3434 972 4092 
Q 1497 4750 2381 4750 
Q 2619 4750 2861 4703 
Q 3103 4656 3366 4563 
z
" transform="scale(0.015625)"/>
        <path id="DejaVuSans-34" d="M 2419 4116 
L 825 1625 
L 2419 1625 
L 2419 4116 
z
M 2253 4666 
L 3047 4666 
L 3047 1625 
L 3713 1625 
L 3713 1100 
L 3047 1100 
L 3047 0 
L 2419 0 
L 2419 1100 
L 313 1100 
L 313 1709 
L 2253 4666 
z
" transform="scale(0.015625)"/>
        <path id="DejaVuSans-20" transform="scale(0.015625)"/>
        <path id="DejaVuSans-42" d="M 1259 2228 
L 1259 519 
L 2272 519 
Q 2781 519 3026 730 
Q 3272 941 3272 1375 
Q 3272 1813 3026 2020 
Q 2781 2228 2272 2228 
L 1259 2228 
z
M 1259 4147 
L 1259 2741 
L 2194 2741 
Q 2656 2741 2882 2914 
Q 3109 3088 3109 3444 
Q 3109 3797 2882 3972 
Q 2656 4147 2194 4147 
L 1259 4147 
z
M 628 4666 
L 2241 4666 
Q 2963 4666 3353 4366 
Q 3744 4066 3744 3513 
Q 3744 3084 3544 2831 
Q 3344 2578 2956 2516 
Q 3422 2416 3680 2098 
Q 3938 1781 3938 1306 
Q 3938 681 3513 340 
Q 3088 0 2303 0 
L 628 0 
L 628 4666 
z
" transform="scale(0.015625)"/>
       </defs>
       <use xlink:href="#DejaVuSans-36"/>
       <use xlink:href="#DejaVuSans-34" transform="translate(63.623047 0)"/>
       <use xlink:href="#DejaVuSans-20" transform="translate(127.246094 0)"/>
       <use xlink:href="#DejaVuSans-42" transform="translate(159.033203 0)"/>
      </g>
     </g>
    </g>
    <g id="xtick_2">
     <g id="line2d_3">
      <path d="M 166.858295 318.04 
L 166.858295 26.88 
" clip-path="url(#p720de8fcfb)" style="fill: none; stroke: #30333e; stroke-width: 0.6; stroke-linecap: square"/>
     </g>
     <g id="line2d_4">
      <g>
       <use xlink:href="#m02da35d48c" x="166.858295" y="318.04" style="fill: #e0e0e0; stroke: #e0e0e0; stroke-width: 0.8"/>
      </g>
     </g>
     <g id="text_2">
      <!-- 256 B -->
      <g style="fill: #e0e0e0" transform="translate(152.295014 332.638438) scale(0.1 -0.1)">
       <defs>
        <path id="DejaVuSans-32" d="M 1228 531 
L 3431 531 
L 3431 0 
L 469 0 
L 469 531 
Q 828 903 1448 1529 
Q 2069 2156 2228 2338 
Q 2531 2678 2651 2914 
Q 2772 3150 2772 3378 
Q 2772 3750 2511 3984 
Q 2250 4219 1831 4219 
Q 1534 4219 1204 4116 
Q 875 4013 500 3803 
L 500 4441 
Q 881 4594 1212 4672 
Q 1544 4750 1819 4750 
Q 2544 4750 2975 4387 
Q 3406 4025 3406 3419 
Q 3406 3131 3298 2873 
Q 3191 2616 2906 2266 
Q 2828 2175 2409 1742 
Q 1991 1309 1228 531 
z
" transform="scale(0.015625)"/>
        <path id="DejaVuSans-35" d="M 691 4666 
L 3169 4666 
L 3169 4134 
L 1269 4134 
L 1269 2991 
Q 1406 3038 1543 3061 
Q 1681 3084 1819 3084 
Q 2600 3084 3056 2656 
Q 3513 2228 3513 1497 
Q 3513 744 3044 326 
Q 2575 -91 1722 -91 
Q 1428 -91 1123 -41 
Q 819 9 494 109 
L 494 744 
Q 775 591 1075 516 
Q 1375 441 1709 441 
Q 2250 441 2565 725 
Q 2881 1009 2881 1497 
Q 2881 1984 2565 2268 
Q 2250 2553 1709 2553 
Q 1456 2553 1204 2497 
Q 953 2441 691 2322 
L 691 4666 
z
" transform="scale(0.015625)"/>
       </defs>
       <use xlink:href="#DejaVuSans-32"/>
       <use xlink:href="#DejaVuSans-35" transform="translate(63.623047 0)"/>
       <use xlink:href="#DejaVuSans-36" transform="translate(127.246094 0)"/>
       <use xlink:href="#DejaVuSans-20" transform="translate(190.869141 0)"/>
       <use xlink:href="#DejaVuSans-42" transform="translate(222.65625 0)"/>
      </g>
     </g>
    </g>
    <g id="xtick_3">
     <g id="line2d_5">
      <path d="M 224.588977 318.04 
L 224.588977 26.88 
" clip-path="url(#p720de8fcfb)" style="fill: none; stroke: #30333e; stroke-width: 0.6; stroke-linecap: square"/>
     </g>
     <g id="line2d_6">
      <g>
       <use xlink:href="#m02da35d48c" x="224.588977" y="318.04" style="fill: #e0e0e0; stroke: #e0e0e0; stroke-width: 0.8"/>
      </g>
     </g>
     <g id="text_3">
      <!-- 1 KB -->
      <g style="fill: #e0e0e0" transform="translate(213.10929 332.638438) scale(0.1 -0.1)">
       <defs>
        <path id="DejaVuSans-31" d="M 794 531 
L 1825 531 
L 1825 4091 
L 703 3866 
L 703 4441 
L 1819 4666 
L 2450 4666 
L 2450 531 
L 3481 531 
L 3481 0 
L 794 0 
L 794 531 
z
" transform="scale(0.015625)"/>
        <path id="DejaVuSans-4b" d="M 628 4666 
L 1259 4666 
L 1259 2694 
L 3353 4666 
L 4166 4666 
L 1850 2491 
L 4331 0 
L 3500 0 
L 1259 2247 
L 1259 0 
L 628 0 
L 628 4666 
z
" transform="scale(0.015625)"/>
       </defs>
       <use xlink:href="#DejaVuSans-31"/>
       <use xlink:href="#DejaVuSans-20" transform="translate(63.623047 0)"/>
       <use xlink:href="#DejaVuSans-4b" transform="translate(95.410156 0)"/>
       <use xlink:href="#DejaVuSans-42" transform="translate(160.986328 0)"/>
      </g>
     </g>
    </g>
    <g id="xtick_4">
     <g id="line2d_7">
      <path d="M 282.319659 318.04 
L 282.319659 26.88 
" clip-path="url(#p720de8fcfb)" style="fill: none; stroke: #30333e; stroke-width: 0.6; stroke-linecap: square"/>
     </g>
     <g id="line2d_8">
      <g>
       <use xlink:href="#m02da35d48c" x="282.319659" y="318.04" style="fill: #e0e0e0; stroke: #e0e0e0; stroke-width: 0.8"/>
      </g>
     </g>
     <g id="text_4">
      <!-- 4 KB -->
      <g style="fill: #e0e0e0" transform="translate(270.839972 332.638438) scale(0.1 -0.1)">
       <use xlink:href="#DejaVuSans-34"/>
       <use xlink:href="#DejaVuSans-20" transform="translate(63.623047 0)"/>
       <use xlink:href="#DejaVuSans-4b" transform="translate(95.410156 0)"/>
       <use xlink:href="#DejaVuSans-42" transform="translate(160.986328 0)"/>
      </g>
     </g>
    </g>
    <g id="xtick_5">
     <g id="line2d_9">
      <path d="M 340.050341 318.04 
L 340.050341 26.88 
" clip-path="url(#p720de8fcfb)" style="fill: none; stroke: #30333e; stroke-width: 0.6; stroke-linecap: square"/>
     </g>
     <g id="line2d_10">
      <g>
       <use xlink:href="#m02da35d48c" x="340.050341" y="318.04" style="fill: #e0e0e0; stroke: #e0e0e0; stroke-width: 0.8"/>
      </g>
     </g>
     <g id="text_5">
      <!-- 16 KB -->
      <g style="fill: #e0e0e0" transform="translate(325.389403 332.638438) scale(0.1 -0.1)">
       <use xlink:href="#DejaVuSans-31"/>
       <use xlink:href="#DejaVuSans-36" transform="translate(63.623047 0)"/>
       <use xlink:href="#DejaVuSans-20" transform="translate(127.246094 0)"/>
       <use xlink:href="#DejaVuSans-4b" transform="translate(159.033203 0)"/>
       <use xlink:href="#DejaVuSans-42" transform="translate(224.609375 0)"/>
      </g>
     </g>
    </g>
    <g id="xtick_6">
     <g id="line2d_11">
      <path d="M 397.781023 318.04 
L 397.781023 26.88 
" clip-path="url(#p720de8fcfb)" style="fill: none; stroke: #30333e; stroke-width: 0.6; stroke-linecap: square"/>
     </g>
     <g id="line2d_12">
      <g>
       <use xlink:href="#m02da35d48c" x="397.781023" y="318.04" style="fill: #e0e0e0; stroke: #e0e0e0; stroke-width: 0.8"/>
      </g>
     </g>
     <g id="text_6">
      <!-- 64 KB -->
      <g style="fill: #e0e0e0" transform="translate(383.120085 332.638438) scale(0.1 -0.1)">
       <use xlink:href="#DejaVuSans-36"/>
       <use xlink:href="#DejaVuSans-34" transform="translate(63.623047 0)"/>
       <use xlink:href="#DejaVuSans-20" transform="translate(127.246094 0)"/>
       <use xlink:href="#DejaVuSans-4b" transform="translate(159.033203 0)"/>
       <use xlink:href="#DejaVuSans-42" transform="translate(224.609375 0)"/>
      </g>
     </g>
    </g>
    <g id="xtick_7">
     <g id="line2d_13">
      <path d="M 455.511705 318.04 
L 455.511705 26.88 
" clip-path="url(#p720de8fcfb)" style="fill: none; stroke: #30333e; stroke-width: 0.6; stroke-linecap: square"/>
     </g>
     <g id="line2d_14">
      <g>
       <use xlink:href="#m02da35d48c" x="455.511705" y="318.04" style="fill: #e0e0e0; stroke: #e0e0e0; stroke-width: 0.8"/>
      </g>
     </g>
     <g id="text_7">
      <!-- 256 KB -->
      <g style="fill: #e0e0e0" transform="translate(437.669517 332.638438) scale(0.1 -0.1)">
       <use xlink:href="#DejaVuSans-32"/>
       <use xlink:href="#DejaVuSans-35" transform="translate(63.623047 0)"/>
       <use xlink:href="#DejaVuSans-36" transform="translate(127.246094 0)"/>
       <use xlink:href="#DejaVuSans-20" transform="translate(190.869141 0)"/>
       <use xlink:href="#DejaVuSans-4b" transform="translate(222.65625 0)"/>
       <use xlink:href="#DejaVuSans-42" transform="translate(288.232422 0)"/>
      </g>
     </g>
    </g>
    <g id="xtick_8">
     <g id="line2d_15">
      <path d="M 513.242386 318.04 
L 513.242386 26.88 
" clip-path="url(#p720de8fcfb)" style="fill: none; stroke: #30333e; stroke-width: 0.6; stroke-linecap: square"/>
     </g>
     <g id="line2d_16">
      <g>
       <use xlink:href="#m02da35d48c" x="513.242386" y="318.04" style="fill: #e0e0e0; stroke: #e0e0e0; stroke-width: 0.8"/>
      </g>
     </g>
     <g id="text_8">
      <!-- 1 MB -->
      <g style="fill: #e0e0e0" transform="translate(500.727543 332.638438) scale(0.1 -0.1)">
       <defs>
        <path id="DejaVuSans-4d" d="M 628 4666 
L 1569 4666 
L 2759 1491 
L 3956 4666 
L 4897 4666 
L 4897 0 
L 4281 0 
L 4281 4097 
L 3078 897 
L 2444 897 
L 1241 4097 
L 1241 0 
L 628 0 
L 628 4666 
z
" transform="scale(0.015625)"/>
       </defs>
       <use xlink:href="#DejaVuSans-31"/>
       <use xlink:href="#DejaVuSans-20" transform="translate(63.623047 0)"/>
       <use xlink:href="#DejaVuSans-4d" transform="translate(95.410156 0)"/>
       <use xlink:href="#DejaVuSans-42" transform="translate(181.689453 0)"/>
      </g>
     </g>
    </g>
    <g id="text_9">
     <!-- Block size -->
     <g style="fill: #e0e0e0" transform="translate(286.377969 346.316563) scale(0.1 -0.1)">
      <defs>
       <path id="DejaVuSans-6c" d="M 603 4863 
L 1178 4863 
L 1178 0 
L 603 0 
L 603 4863 
z
" transform="scale(0.015625)"/>
       <path id="DejaVuSans-6f" d="M 1959 3097 
Q 1497 3097 1228 2736 
Q 959 2375 959 1747 
Q 959 1119 1226 758 
Q 1494 397 1959 397 
Q 2419 397 2687 759 
Q 2956 1122 2956 1747 
Q 2956 2369 2687 2733 
Q 2419 3097 1959 3097 
z
M 1959 3584 
Q 2709 3584 3137 3096 
Q 3566 2609 3566 1747 
Q 3566 888 3137 398 
Q 2709 -91 1959 -91 
Q 1206 -91 779 398 
Q 353 888 353 1747 
Q 353 2609 779 3096 
Q 1206 3584 1959 3584 
z
" transform="scale(0.015625)"/>
       <path id="DejaVuSans-63" d="M 3122 3366 
L 3122 2828 
Q 2878 2963 2633 3030 
Q 2388 3097 2138 3097 
Q 1578 3097 1268 2742 
Q 959 2388 959 1747 
Q 959 1106 1268 751 
Q 1578 397 2138 397 
Q 2388 397 2633 464 
Q 2878 531 3122 666 
L 3122 134 
Q 2881 22 2623 -34 
Q 2366 -91 2075 -91 
Q 1284 -91 818 406 
Q 353 903 353 1747 
Q 353 2603 823 3093 
Q 1294 3584 2113 3584 
Q 2378 3584 2631 3529 
Q 2884 3475 3122 3366 
z
" transform="scale(0.015625)"/>
       <path id="DejaVuSans-6b" d="M 581 4863 
L 1159 4863 
L 1159 1991 
L 2875 3500 
L 3609 3500 
L 1753 1863 
L 3688 0 
L 2938 0 
L 1159 1709 
L 1159 0 
L 581 0 
L 581 4863 
z
" transform="scale(0.015625)"/>
       <path id="DejaVuSans-73" d="M 2834 3397 
L 2834 2853 
Q 2591 2978 2328 3040 
Q 2066 3103 1784 3103 
Q 1356 3103 1142 2972 
Q 928 2841 928 2578 
Q 928 2378 1081 2264 
Q 1234 2150 1697 2047 
L 1894 2003 
Q 2506 1872 2764 1633 
Q 3022 1394 3022 966 
Q 3022 478 2636 193 
Q 2250 -91 1575 -91 
Q 1294 -91 989 -36 
Q 684 19 347 128 
L 347 722 
Q 666 556 975 473 
Q 1284 391 1588 391 
Q 1994 391 2212 530 
Q 2431 669 2431 922 
Q 2431 1156 2273 1281 
Q 2116 1406 1581 1522 
L 1381 1569 
Q 847 1681 609 1914 
Q 372 2147 372 2553 
Q 372 3047 722 3315 
Q 1072 3584 1716 3584 
Q 2034 3584 2315 3537 
Q 2597 3491 2834 3397 
z
" transform="scale(0.015625)"/>
       <path id="DejaVuSans-69" d="M 603 3500 
L 1178 3500 
L 1178 0 
L 603 0 
L 603 3500 
z
M 603 4863 
L 1178 4863 
L 1178 4134 
L 603 4134 
L 603 4863 
z
" transform="scale(0.015625)"/>
       <path id="DejaVuSans-7a" d="M 353 3500 
L 3084 3500 
L 3084 2975 
L 922 459 
L 3084 459 
L 3084 0 
L 275 0 
L 275 525 
L 2438 3041 
L 353 3041 
L 353 3500 
z
" transform="scale(0.015625)"/>
       <path id="DejaVuSans-65" d="M 3597 1894 
L 3597 1613 
L 953 1613 
Q 991 1019 1311 708 
Q 1631 397 2203 397 
Q 2534 397 2845 478 
Q 3156 559 3463 722 
L 3463 178 
Q 3153 47 2828 -22 
Q 2503 -91 2169 -91 
Q 1331 -91 842 396 
Q 353 884 353 1716 
Q 353 2575 817 3079 
Q 1281 3584 2069 3584 
Q 2775 3584 3186 3129 
Q 3597 2675 3597 1894 
z
M 3022 2063 
Q 3016 2534 2758 2815 
Q 2500 3097 2075 3097 
Q 1594 3097 1305 2825 
Q 1016 2553 972 2059 
L 3022 2063 
z
" transform="scale(0.015625)"/>
      </defs>
      <use xlink:href="#DejaVuSans-42"/>
      <use xlink:href="#DejaVuSans-6c" transform="translate(68.603516 0)"/>
      <use xlink:href="#DejaVuSans-6f" transform="translate(96.386719 0)"/>
      <use xlink:href="#DejaVuSans-63" transform="translate(157.568359 0)"/>
      <use xlink:href="#DejaVuSans-6b" transform="translate(212.548828 0)"/>
      <use xlink:href="#DejaVuSans-20" transform="translate(270.458984 0)"/>
      <use xlink:href="#DejaVuSans-73" transform="translate(302.246094 0)"/>
      <use xlink:href="#DejaVuSans-69" transform="translate(354.345703 0)"/>
      <use xlink:href="#DejaVuSans-7a" transform="translate(382.128906 0)"/>
      <use xlink:href="#DejaVuSans-65" transform="translate(434.619141 0)"/>
     </g>
    </g>
   </g>
   <g id="matplotlib.axis_2">
    <g id="ytick_1">
     <g id="line2d_17">
      <path d="M 57.17 318.04 
L 565.2 318.04 
" clip-path="url(#p720de8fcfb)" style="fill: none; stroke: #30333e; stroke-width: 0.6; stroke-linecap: square"/>
     </g>
     <g id="line2d_18">
      <defs>
       <path id="m18012718a5" d="M 0 0 
L -3.5 0 
" style="stroke: #e0e0e0; stroke-width: 0.8"/>
      </defs>
      <g>
       <use xlink:href="#m18012718a5" x="57.17" y="318.04" style="fill: #e0e0e0; stroke: #e0e0e0; stroke-width: 0.8"/>
      </g>
     </g>
     <g id="text_10">
      <!-- 0 -->
      <g style="fill: #e0e0e0" transform="translate(43.8075 321.839219) scale(0.1 -0.1)">
       <defs>
        <path id="DejaVuSans-30" d="M 2034 4250 
Q 1547 4250 1301 3770 
Q 1056 3291 1056 2328 
Q 1056 1369 1301 889 
Q 1547 409 2034 409 
Q 2525 409 2770 889 
Q 3016 1369 3016 2328 
Q 3016 3291 2770 3770 
Q 2525 4250 2034 4250 
z
M 2034 4750 
Q 2819 4750 3233 4129 
Q 3647 3509 3647 2328 
Q 3647 1150 3233 529 
Q 2819 -91 2034 -91 
Q 1250 -91 836 529 
Q 422 1150 422 2328 
Q 422 3509 836 4129 
Q 1250 4750 2034 4750 
z
" transform="scale(0.015625)"/>
       </defs>
       <use xlink:href="#DejaVuSans-30"/>
      </g>
     </g>
    </g>
    <g id="ytick_2">
     <g id="line2d_19">
      <path d="M 57.17 254.322412 
L 565.2 254.322412 
" clip-path="url(#p720de8fcfb)" style="fill: none; stroke: #30333e; stroke-width: 0.6; stroke-linecap: square"/>
     </g>
     <g id="line2d_20">
      <g>
       <use xlink:href="#m18012718a5" x="57.17" y="254.322412" style="fill: #e0e0e0; stroke: #e0e0e0; stroke-width: 0.8"/>
      </g>
     </g>
     <g id="text_11">
      <!-- 1000 -->
      <g style="fill: #e0e0e0" transform="translate(24.72 258.12163) scale(0.1 -0.1)">
       <use xlink:href="#DejaVuSans-31"/>
       <use xlink:href="#DejaVuSans-30" transform="translate(63.623047 0)"/>
       <use xlink:href="#DejaVuSans-30" transform="translate(127.246094 0)"/>
       <use xlink:href="#DejaVuSans-30" transform="translate(190.869141 0)"/>
      </g>
     </g>
    </g>
    <g id="ytick_3">
     <g id="line2d_21">
      <path d="M 57.17 190.604823 
L 565.2 190.604823 
" clip-path="url(#p720de8fcfb)" style="fill: none; stroke: #30333e; stroke-width: 0.6; stroke-linecap: square"/>
     </g>
     <g id="line2d_22">
      <g>
       <use xlink:href="#m18012718a5" x="57.17" y="190.604823" style="fill: #e0e0e0; stroke: #e0e0e0; stroke-width: 0.8"/>
      </g>
     </g>
     <g id="text_12">
      <!-- 2000 -->
      <g style="fill: #e0e0e0" transform="translate(24.72 194.404042) scale(0.1 -0.1)">
       <use xlink:href="#DejaVuSans-32"/>
       <use xlink:href="#DejaVuSans-30" transform="translate(63.623047 0)"/>
       <use xlink:href="#DejaVuSans-30" transform="translate(127.246094 0)"/>
       <use xlink:href="#DejaVuSans-30" transform="translate(190.869141 0)"/>
      </g>
     </g>
    </g>
    <g id="ytick_4">
     <g id="line2d_23">
      <path d="M 57.17 126.887235 
L 565.2 126.887235 
" clip-path="url(#p720de8fcfb)" style="fill: none; stroke: #30333e; stroke-width: 0.6; stroke-linecap: square"/>
     </g>
     <g id="line2d_24">
      <g>
       <use xlink:href="#m18012718a5" x="57.17" y="126.887235" style="fill: #e0e0e0; stroke: #e0e0e0; stroke-width: 0.8"/>
      </g>
     </g>
     <g id="text_13">
      <!-- 3000 -->
      <g style="fill: #e0e0e0" transform="translate(24.72 130.686454) scale(0.1 -0.1)">
       <defs>
        <path id="DejaVuSans-33" d="M 2597 2516 
Q 3050 2419 3304 2112 
Q 3559 1806 3559 1356 
Q 3559 666 3084 287 
Q 2609 -91 1734 -91 
Q 1441 -91 1130 -33 
Q 819 25 488 141 
L 488 750 
Q 750 597 1062 519 
Q 1375 441 1716 441 
Q 2309 441 2620 675 
Q 2931 909 2931 1356 
Q 2931 1769 2642 2001 
Q 2353 2234 1838 2234 
L 1294 2234 
L 1294 2753 
L 1863 2753 
Q 2328 2753 2575 2939 
Q 2822 3125 2822 3475 
Q 2822 3834 2567 4026 
Q 2313 4219 1838 4219 
Q 1578 4219 1281 4162 
Q 984 4106 628 3988 
L 628 4550 
Q 988 4650 1302 4700 
Q 1616 4750 1894 4750 
Q 2613 4750 3031 4423 
Q 3450 4097 3450 3541 
Q 3450 3153 3228 2886 
Q 3006 2619 2597 2516 
z
" transform="scale(0.015625)"/>
       </defs>
       <use xlink:href="#DejaVuSans-33"/>
       <use xlink:href="#DejaVuSans-30" transform="translate(63.623047 0)"/>
       <use xlink:href="#DejaVuSans-30" transform="translate(127.246094 0)"/>
       <use xlink:href="#DejaVuSans-30" transform="translate(190.869141 0)"/>
      </g>
     </g>
    </g>
    <g id="ytick_5">
     <g id="line2d_25">
      <path d="M 57.17 63.169647 
L 565.2 63.169647 
" clip-path="url(#p720de8fcfb)" style="fill: none; stroke: #30333e; stroke-width: 0.6; stroke-linecap: square"/>
     </g>
     <g id="line2d_26">
      <g>
       <use xlink:href="#m18012718a5" x="57.17" y="63.169647" style="fill: #e0e0e0; stroke: #e0e0e0; stroke-width: 0.8"/>
      </g>
     </g>
     <g id="text_14">
      <!-- 4000 -->
      <g style="fill: #e0e0e0" transform="translate(24.72 66.968865) scale(0.1 -0.1)">
       <use xlink:href="#DejaVuSans-34"/>
       <use xlink:href="#DejaVuSans-30" transform="translate(63.623047 0)"/>
       <use xlink:href="#DejaVuSans-30" transform="translate(127.246094 0)"/>
       <use xlink:href="#DejaVuSans-30" transform="translate(190.869141 0)"/>
      </g>
     </g>
    </g>
    <g id="text_15">
     <!-- Throughput (MB/s) -->
     <g style="fill: #e0e0e0" transform="translate(18.640313 219.024063) rotate(-90) scale(0.1 -0.1)">
      <defs>
       <path id="DejaVuSans-54" d="M -19 4666 
L 3928 4666 
L 3928 4134 
L 2272 4134 
L 2272 0 
L 1638 0 
L 1638 4134 
L -19 4134 
L -19 4666 
z
" transform="scale(0.015625)"/>
       <path id="DejaVuSans-68" d="M 3513 2113 
L 3513 0 
L 2938 0 
L 2938 2094 
Q 2938 2591 2744 2837 
Q 2550 3084 2163 3084 
Q 1697 3084 1428 2787 
Q 1159 2491 1159 1978 
L 1159 0 
L 581 0 
L 581 4863 
L 1159 4863 
L 1159 2956 
Q 1366 3272 1645 3428 
Q 1925 3584 2291 3584 
Q 2894 3584 3203 3211 
Q 3513 2838 3513 2113 
z
" transform="scale(0.015625)"/>
       <path id="DejaVuSans-72" d="M 2631 2963 
Q 2534 3019 2420 3045 
Q 2306 3072 2169 3072 
Q 1681 3072 1420 2755 
Q 1159 2438 1159 1844 
L 1159 0 
L 581 0 
L 581 3500 
L 1159 3500 
L 1159 2956 
Q 1341 3275 1631 3429 
Q 1922 3584 2338 3584 
Q 2397 3584 2469 3576 
Q 2541 3569 2628 3553 
L 2631 2963 
z
" transform="scale(0.015625)"/>
       <path id="DejaVuSans-75" d="M 544 1381 
L 544 3500 
L 1119 3500 
L 1119 1403 
Q 1119 906 1312 657 
Q 1506 409 1894 409 
Q 2359 409 2629 706 
Q 2900 1003 2900 1516 
L 2900 3500 
L 3475 3500 
L 3475 0 
L 2900 0 
L 2900 538 
Q 2691 219 2414 64 
Q 2138 -91 1772 -91 
Q 1169 -91 856 284 
Q 544 659 544 1381 
z
M 1991 3584 
L 1991 3584 
z
" transform="scale(0.015625)"/>
       <path id="DejaVuSans-67" d="M 2906 1791 
Q 2906 2416 2648 2759 
Q 2391 3103 1925 3103 
Q 1463 3103 1205 2759 
Q 947 2416 947 1791 
Q 947 1169 1205 825 
Q 1463 481 1925 481 
Q 2391 481 2648 825 
Q 2906 1169 2906 1791 
z
M 3481 434 
Q 3481 -459 3084 -895 
Q 2688 -1331 1869 -1331 
Q 1566 -1331 1297 -1286 
Q 1028 -1241 775 -1147 
L 775 -588 
Q 1028 -725 1275 -790 
Q 1522 -856 1778 -856 
Q 2344 -856 2625 -561 
Q 2906 -266 2906 331 
L 2906 616 
Q 2728 306 2450 153 
Q 2172 0 1784 0 
Q 1141 0 747 490 
Q 353 981 353 1791 
Q 353 2603 747 3093 
Q 1141 3584 1784 3584 
Q 2172 3584 2450 3431 
Q 2728 3278 2906 2969 
L 2906 3500 
L 3481 3500 
L 3481 434 
z
" transform="scale(0.015625)"/>
       <path id="DejaVuSans-70" d="M 1159 525 
L 1159 -1331 
L 581 -1331 
L 581 3500 
L 1159 3500 
L 1159 2969 
Q 1341 3281 1617 3432 
Q 1894 3584 2278 3584 
Q 2916 3584 3314 3078 
Q 3713 2572 3713 1747 
Q 3713 922 3314 415 
Q 2916 -91 2278 -91 
Q 1894 -91 1617 61 
Q 1341 213 1159 525 
z
M 3116 1747 
Q 3116 2381 2855 2742 
Q 2594 3103 2138 3103 
Q 1681 3103 1420 2742 
Q 1159 2381 1159 1747 
Q 1159 1113 1420 752 
Q 1681 391 2138 391 
Q 2594 391 2855 752 
Q 3116 1113 3116 1747 
z
" transform="scale(0.015625)"/>
       <path id="DejaVuSans-74" d="M 1172 4494 
L 1172 3500 
L 2356 3500 
L 2356 3053 
L 1172 3053 
L 1172 1153 
Q 1172 725 1289 603 
Q 1406 481 1766 481 
L 2356 481 
L 2356 0 
L 1766 0 
Q 1100 0 847 248 
Q 594 497 594 1153 
L 594 3053 
L 172 3053 
L 172 3500 
L 594 3500 
L 594 4494 
L 1172 4494 
z
" transform="scale(0.015625)"/>
       <path id="DejaVuSans-28" d="M 1984 4856 
Q 1566 4138 1362 3434 
Q 1159 2731 1159 2009 
Q 1159 1288 1364 580 
Q 1569 -128 1984 -844 
L 1484 -844 
Q 1016 -109 783 600 
Q 550 1309 550 2009 
Q 550 2706 781 3412 
Q 1013 4119 1484 4856 
L 1984 4856 
z
" transform="scale(0.015625)"/>
       <path id="DejaVuSans-2f" d="M 1625 4666 
L 2156 4666 
L 531 -594 
L 0 -594 
L 1625 4666 
z
" transform="scale(0.015625)"/>
       <path id="DejaVuSans-29" d="M 513 4856 
L 1013 4856 
Q 1481 4119 1714 3412 
Q 1947 2706 1947 2009 
Q 1947 1309 1714 600 
Q 1481 -109 1013 -844 
L 513 -844 
Q 928 -128 1133 580 
Q 1338 1288 1338 2009 
Q 1338 2731 1133 3434 
Q 928 4138 513 4856 
z
" transform="scale(0.015625)"/>
      </defs>
      <use xlink:href="#DejaVuSans-54"/>
      <use xlink:href="#DejaVuSans-68" transform="translate(61.083984 0)"/>
      <use xlink:href="#DejaVuSans-72" transform="translate(124.462891 0)"/>
      <use xlink:href="#DejaVuSans-6f" transform="translate(163.326172 0)"/>
      <use xlink:href="#DejaVuSans-75" transform="translate(224.507812 0)"/>
      <use xlink:href="#DejaVuSans-67" transform="translate(287.886719 0)"/>
      <use xlink:href="#DejaVuSans-68" transform="translate(351.363281 0)"/>
      <use xlink:href="#DejaVuSans-70" transform="translate(414.742188 0)"/>
      <use xlink:href="#DejaVuSans-75" transform="translate(478.21875 0)"/>
      <use xlink:href="#DejaVuSans-74" transform="translate(541.597656 0)"/>
      <use xlink:href="#DejaVuSans-20" transform="translate(580.806641 0)"/>
      <use xlink:href="#DejaVuSans-28" transform="translate(612.59375 0)"/>
      <use xlink:href="#DejaVuSans-4d" transform="translate(651.607422 0)"/>
      <use xlink:href="#DejaVuSans-42" transform="translate(737.886719 0)"/>
      <use xlink:href="#DejaVuSans-2f" transform="translate(806.490234 0)"/>
      <use xlink:href="#DejaVuSans-73" transform="translate(840.181641 0)"/>
      <use xlink:href="#DejaVuSans-29" transform="translate(892.28125 0)"/>
     </g>
    </g>
   </g>
   <g id="line2d_27">
    <path d="M 80.262273 70.049035 
L 109.127614 70.202659 
L 137.992955 69.704298 
L 166.858295 54.044655 
L 195.723636 53.652905 
L 224.588977 54.045698 
L 253.454318 57.645765 
L 282.319659 57.009933 
L 311.185 53.652905 
L 340.050341 53.652905 
L 368.915682 53.653952 
L 397.781023 54.868227 
L 426.646364 56.54202 
L 455.511705 56.372012 
L 484.377045 53.566041 
L 513.242386 53.610004 
" clip-path="url(#p720de8fcfb)" style="fill: none; stroke: #90caf9; stroke-width: 1.5; stroke-linecap: square"/>
    <defs>
     <path id="m1e8b34d96d" d="M 0 1.5 
C 0.397805 1.5 0.77937 1.341951 1.06066 1.06066 
C 1.341951 0.77937 1.5 0.397805 1.5 0 
C 1.5 -0.397805 1.341951 -0.77937 1.06066 -1.06066 
C 0.77937 -1.341951 0.397805 -1.5 0 -1.5 
C -0.397805 -1.5 -0.77937 -1.341951 -1.06066 -1.06066 
C -1.341951 -0.77937 -1.5 -0.397805 -1.5 0 
C -1.5 0.397805 -1.341951 0.77937 -1.06066 1.06066 
C -0.77937 1.341951 -0.397805 1.5 0 1.5 
z
" style="stroke: #90caf9"/>
    </defs>
    <g clip-path="url(#p720de8fcfb)">
     <use xlink:href="#m1e8b34d96d" x="80.262273" y="70.049035" style="fill: #90caf9; stroke: #90caf9"/>
     <use xlink:href="#m1e8b34d96d" x="109.127614" y="70.202659" style="fill: #90caf9; stroke: #90caf9"/>
     <use xlink:href="#m1e8b34d96d" x="137.992955" y="69.704298" style="fill: #90caf9; stroke: #90caf9"/>
     <use xlink:href="#m1e8b34d96d" x="166.858295" y="54.044655" style="fill: #90caf9; stroke: #90caf9"/>
     <use xlink:href="#m1e8b34d96d" x="195.723636" y="53.652905" style="fill: #90caf9; stroke: #90caf9"/>
     <use xlink:href="#m1e8b34d96d" x="224.588977" y="54.045698" style="fill: #90caf9; stroke: #90caf9"/>
     <use xlink:href="#m1e8b34d96d" x="253.454318" y="57.645765" style="fill: #90caf9; stroke: #90caf9"/>
     <use xlink:href="#m1e8b34d96d" x="282.319659" y="57.009933" style="fill: #90caf9; stroke: #90caf9"/>
     <use xlink:href="#m1e8b34d96d" x="311.185" y="53.652905" style="fill: #90caf9; stroke: #90caf9"/>
     <use xlink:href="#m1e8b34d96d" x="340.050341" y="53.652905" style="fill: #90caf9; stroke: #90caf9"/>
     <use xlink:href="#m1e8b34d96d" x="368.915682" y="53.653952" style="fill: #90caf9; stroke: #90caf9"/>
     <use xlink:href="#m1e8b34d96d" x="397.781023" y="54.868227" style="fill: #90caf9; stroke: #90caf9"/>
     <use xlink:href="#m1e8b34d96d" x="426.646364" y="56.54202" style="fill: #90caf9; stroke: #90caf9"/>
     <use xlink:href="#m1e8b34d96d" x="455.511705" y="56.372012" style="fill: #90caf9; stroke: #90caf9"/>
     <use xlink:href="#m1e8b34d96d" x="484.377045" y="53.566041" style="fill: #90caf9; stroke: #90caf9"/>
     <use xlink:href="#m1e8b34d96d" x="513.242386" y="53.610004" style="fill: #90caf9; stroke: #90caf9"/>
    </g>
   </g>
   <g id="line2d_28">
    <path d="M 80.262273 47.61153 
L 109.127614 45.867644 
L 137.992955 47.52065 
L 166.858295 45.427874 
L 195.723636 45.427318 
L 224.588977 45.682359 
L 253.454318 47.08566 
L 282.319659 46.85691 
L 311.185 47.017515 
L 340.050341 45.913094 
L 368.915682 46.397695 
L 397.781023 45.474028 
L 426.646364 46.3745 
L 455.511705 47.884897 
L 484.377045 45.821069 
L 513.242386 45.497377 
L 542.107727 45.404513 
" clip-path="url(#p720de8fcfb)" style="fill: none; stroke: #7dbff6; stroke-width: 1.5; stroke-linecap: square"/>
    <defs>
     <path id="mdd6317bbad" d="M 0 1.5 
C 0.397805 1.5 0.77937 1.341951 1.06066 1.06066 
C 1.341951 0.77937 1.5 0.397805 1.5 0 
C 1.5 -0.397805 1.341951 -0.77937 1.06066 -1.06066 
C 0.77937 -1.341951 0.397805 -1.5 0 -1.5 
C -0.397805 -1.5 -0.77937 -1.341951 -1.06066 -1.06066 
C -1.341951 -0.77937 -1.5 -0.397805 -1.5 0 
C -1.5 0.397805 -1.341951 0.77937 -1.06066 1.06066 
C -0.77937 1.341951 -0.397805 1.5 0 1.5 
z
" style="stroke: #7dbff6"/>
    </defs>
    <g clip-path="url(#p720de8fcfb)">
     <use xlink:href="#mdd6317bbad" x="80.262273" y="47.61153" style="fill: #7dbff6; stroke: #7dbff6"/>
     <use xlink:href="#mdd6317bbad" x="109.127614" y="45.867644" style="fill: #7dbff6; stroke: #7dbff6"/>
     <use xlink:href="#mdd6317bbad" x="137.992955" y="47.52065" style="fill: #7dbff6; stroke: #7dbff6"/>
     <use xlink:href="#mdd6317bbad" x="166.858295" y="45.427874" style="fill: #7dbff6; stroke: #7dbff6"/>
     <use xlink:href="#mdd6317bbad" x="195.723636" y="45.427318" style="fill: #7dbff6; stroke: #7dbff6"/>
     <use xlink:href="#mdd6317bbad" x="224.588977" y="45.682359" style="fill: #7dbff6; stroke: #7dbff6"/>
     <use xlink:href="#mdd6317bbad" x="253.454318" y="47.08566" style="fill: #7dbff6; stroke: #7dbff6"/>
     <use xlink:href="#mdd6317bbad" x="282.319659" y="46.85691" style="fill: #7dbff6; stroke: #7dbff6"/>
     <use xlink:href="#mdd6317bbad" x="311.185" y="47.017515" style="fill: #7dbff6; stroke: #7dbff6"/>
     <use xlink:href="#mdd6317bbad" x="340.050341" y="45.913094" style="fill: #7dbff6; stroke: #7dbff6"/>
     <use xlink:href="#mdd6317bbad" x="368.915682" y="46.397695" style="fill: #7dbff6; stroke: #7dbff6"/>
     <use xlink:href="#mdd6317bbad" x="397.781023" y="45.474028" style="fill: #7dbff6; stroke: #7dbff6"/>
     <use xlink:href="#mdd6317bbad" x="426.646364" y="46.3745" style="fill: #7dbff6; stroke: #7dbff6"/>
     <use xlink:href="#mdd6317bbad" x="455.511705" y="47.884897" style="fill: #7dbff6; stroke: #7dbff6"/>
     <use xlink:href="#mdd6317bbad" x="484.377045" y="45.821069" style="fill: #7dbff6; stroke: #7dbff6"/>
     <use xlink:href="#mdd6317bbad" x="513.242386" y="45.497377" style="fill: #7dbff6; stroke: #7dbff6"/>
     <use xlink:href="#mdd6317bbad" x="542.107727" y="45.404513" style="fill: #7dbff6; stroke: #7dbff6"/>
    </g>
   </g>
   <g id="line2d_29">
    <path d="M 80.262273 169.722168 
L 109.127614 43.537815 
L 137.992955 42.511925 
L 166.858295 44.789019 
L 195.723636 41.894986 
L 224.588977 41.847327 
L 253.454318 42.084888 
L 282.319659 43.784018 
L 311.185 43.608002 
L 340.050341 43.549374 
L 368.915682 42.570998 
L 397.781023 42.653599 
L 426.646364 42.144428 
L 455.511705 42.168066 
L 484.377045 41.191559 
L 513.242386 41.966301 
L 542.107727 41.335167 
" clip-path="url(#p720de8fcfb)" style="fill: none; stroke: #6ab4f2; stroke-width: 1.5; stroke-linecap: square"/>
    <defs>
     <path id="ma37b6fcbc0" d="M 0 1.5 
C 0.397805 1.5 0.77937 1.341951 1.06066 1.06066 
C 1.341951 0.77937 1.5 0.397805 1.5 0 
C 1.5 -0.397805 1.341951 -0.77937 1.06066 -1.06066 
C 0.77937 -1.341951 0.397805 -1.5 0 -1.5 
C -0.397805 -1.5 -0.77937 -1.341951 -1.06066 -1.06066 
C -1.341951 -0.77937 -1.5 -0.397805 -1.5 0 
C -1.5 0.397805 -1.341951 0.77937 -1.06066 1.06066 
C -0.77937 1.341951 -0.397805 1.5 0 1.5 
z
" style="stroke: #6ab4f2"/>
    </defs>
    <g clip-path="url(#p720de8fcfb)">
     <use xlink:href="#ma37b6fcbc0" x="80.262273" y="169.722168" style="fill: #6ab4f2; stroke: #6ab4f2"/>
     <use xlink:href="#ma37b6fcbc0" x="109.127614" y="43.537815" style="fill: #6ab4f2; stroke: #6ab4f2"/>
     <use xlink:href="#ma37b6fcbc0" x="137.992955" y="42.511925" style="fill: #6ab4f2; stroke: #6ab4f2"/>
     <use xlink:href="#ma37b6fcbc0" x="166.858295" y="44.789019" style="fill: #6ab4f2; stroke: #6ab4f2"/>
     <use xlink:href="#ma37b6fcbc0" x="195.723636" y="41.894986" style="fill: #6ab4f2; stroke: #6ab4f2"/>
     <use xlink:href="#ma37b6fcbc0" x="224.588977" y="41.847327" style="fill: #6ab4f2; stroke: #6ab4f2"/>
     <use xlink:href="#ma37b6fcbc0" x="253.454318" y="42.084888" style="fill: #6ab4f2; stroke: #6ab4f2"/>
     <use xlink:href="#ma37b6fcbc0" x="282.319659" y="43.784018" style="fill: #6ab4f2; stroke: #6ab4f2"/>
     <use xlink:href="#ma37b6fcbc0" x="311.185" y="43.608002" style="fill: #6ab4f2; stroke: #6ab4f2"/>
     <use xlink:href="#ma37b6fcbc0" x="340.050341" y="43.549374" style="fill: #6ab4f2; stroke: #6ab4f2"/>
     <use xlink:href="#ma37b6fcbc0" x="368.915682" y="42.570998" style="fill: #6ab4f2; stroke: #6ab4f2"/>
     <use xlink:href="#ma37b6fcbc0" x="397.781023" y="42.653599" style="fill: #6ab4f2; stroke: #6ab4f2"/>
     <use xlink:href="#ma37b6fcbc0" x="426.646364" y="42.144428" style="fill: #6ab4f2; stroke: #6ab4f2"/>
     <use xlink:href="#ma37b6fcbc0" x="455.511705" y="42.168066" style="fill: #6ab4f2; stroke: #6ab4f2"/>
     <use xlink:href="#ma37b6fcbc0" x="484.377045" y="41.191559" style="fill: #6ab4f2; stroke: #6ab4f2"/>
     <use xlink:href="#ma37b6fcbc0" x="513.242386" y="41.966301" style="fill: #6ab4f2; stroke: #6ab4f2"/>
     <use xlink:href="#ma37b6fcbc0" x="542.107727" y="41.335167" style="fill: #6ab4f2; stroke: #6ab4f2"/>
    </g>
   </g>
   <g id="line2d_30">
    <path d="M 80.262273 214.809471 
L 109.127614 187.167116 
L 137.992955 79.697612 
L 166.858295 67.03652 
L 195.723636 71.023427 
L 224.588977 93.761875 
L 253.454318 43.172485 
L 282.319659 41.15628 
L 311.185 41.995672 
L 340.050341 41.096025 
L 368.915682 41.781661 
L 397.781023 39.773901 
L 426.646364 40.16016 
L 455.511705 39.43014 
L 484.377045 39.57529 
L 513.242386 39.326992 
L 542.107727 39.345884 
" clip-path="url(#p720de8fcfb)" style="fill: none; stroke: #57a9ef; stroke-width: 1.5; stroke-linecap: square"/>
    <defs>
     <path id="m31c8c93ff5" d="M 0 1.5 
C 0.397805 1.5 0.77937 1.341951 1.06066 1.06066 
C 1.341951 0.77937 1.5 0.397805 1.5 0 
C 1.5 -0.397805 1.341951 -0.77937 1.06066 -1.06066 
C 0.77937 -1.341951 0.397805 -1.5 0 -1.5 
C -0.397805 -1.5 -0.77937 -1.341951 -1.06066 -1.06066 
C -1.341951 -0.77937 -1.5 -0.397805 -1.5 0 
C -1.5 0.397805 -1.341951 0.77937 -1.06066 1.06066 
C -0.77937 1.341951 -0.397805 1.5 0 1.5 
z
" style="stroke: #57a9ef"/>
    </defs>
    <g clip-path="url(#p720de8fcfb)">
     <use xlink:href="#m31c8c93ff5" x="80.262273" y="214.809471" style="fill: #57a9ef; stroke: #57a9ef"/>
     <use xlink:href="#m31c8c93ff5" x="109.127614" y="187.167116" style="fill: #57a9ef; stroke: #57a9ef"/>
     <use xlink:href="#m31c8c93ff5" x="137.992955" y="79.697612" style="fill: #57a9ef; stroke: #57a9ef"/>
     <use xlink:href="#m31c8c93ff5" x="166.858295" y="67.03652" style="fill: #57a9ef; stroke: #57a9ef"/>
     <use xlink:href="#m31c8c93ff5" x="195.723636" y="71.023427" style="fill: #57a9ef; stroke: #57a9ef"/>
     <use xlink:href="#m31c8c93ff5" x="224.588977" y="93.761875" style="fill: #57a9ef; stroke: #57a9ef"/>
     <use xlink:href="#m31c8c93ff5" x="253.454318" y="43.172485" style="fill: #57a9ef; stroke: #57a9ef"/>
     <use xlink:href="#m31c8c93ff5" x="282.319659" y="41.15628" style="fill: #57a9ef; stroke: #57a9ef"/>
     <use xlink:href="#m31c8c93ff5" x="311.185" y="41.995672" style="fill: #57a9ef; stroke: #57a9ef"/>
     <use xlink:href="#m31c8c93ff5" x="340.050341" y="41.096025" style="fill: #57a9ef; stroke: #57a9ef"/>
     <use xlink:href="#m31c8c93ff5" x="368.915682" y="41.781661" style="fill: #57a9ef; stroke: #57a9ef"/>
     <use xlink:href="#m31c8c93ff5" x="397.781023" y="39.773901" style="fill: #57a9ef; stroke: #57a9ef"/>
     <use xlink:href="#m31c8c93ff5" x="426.646364" y="40.16016" style="fill: #57a9ef; stroke: #57a9ef"/>
     <use xlink:href="#m31c8c93ff5" x="455.511705" y="39.43014" style="fill: #57a9ef; stroke: #57a9ef"/>
     <use xlink:href="#m31c8c93ff5" x="484.377045" y="39.57529" style="fill: #57a9ef; stroke: #57a9ef"/>
     <use xlink:href="#m31c8c93ff5" x="513.242386" y="39.326992" style="fill: #57a9ef; stroke: #57a9ef"/>
     <use xlink:href="#m31c8c93ff5" x="542.107727" y="39.345884" style="fill: #57a9ef; stroke: #57a9ef"/>
    </g>
   </g>
   <g id="line2d_31">
    <path d="M 80.262273 215.200748 
L 109.127614 210.843979 
L 137.992955 190.096043 
L 166.858295 170.446261 
L 195.723636 103.116059 
L 224.588977 53.443627 
L 253.454318 47.120132 
L 282.319659 42.801647 
L 311.185 39.747098 
L 340.050341 41.98997 
L 368.915682 41.588767 
L 397.781023 40.367314 
L 426.646364 39.496202 
L 455.511705 38.759766 
L 484.377045 38.409837 
L 513.242386 38.632023 
L 542.107727 38.067829 
" clip-path="url(#p720de8fcfb)" style="fill: none; stroke: #449eec; stroke-width: 1.5; stroke-linecap: square"/>
    <defs>
     <path id="mef621043e6" d="M 0 1.5 
C 0.397805 1.5 0.77937 1.341951 1.06066 1.06066 
C 1.341951 0.77937 1.5 0.397805 1.5 0 
C 1.5 -0.397805 1.341951 -0.77937 1.06066 -1.06066 
C 0.77937 -1.341951 0.397805 -1.5 0 -1.5 
C -0.397805 -1.5 -0.77937 -1.341951 -1.06066 -1.06066 
C -1.341951 -0.77937 -1.5 -0.397805 -1.5 0 
C -1.5 0.397805 -1.341951 0.77937 -1.06066 1.06066 
C -0.77937 1.341951 -0.397805 1.5 0 1.5 
z
" style="stroke: #449eec"/>
    </defs>
    <g clip-path="url(#p720de8fcfb)">
     <use xlink:href="#mef621043e6" x="80.262273" y="215.200748" style="fill: #449eec; stroke: #449eec"/>
     <use xlink:href="#mef621043e6" x="109.127614" y="210.843979" style="fill: #449eec; stroke: #449eec"/>
     <use xlink:href="#mef621043e6" x="137.992955" y="190.096043" style="fill: #449eec; stroke: #449eec"/>
     <use xlink:href="#mef621043e6" x="166.858295" y="170.446261" style="fill: #449eec; stroke: #449eec"/>
     <use xlink:href="#mef621043e6" x="195.723636" y="103.116059" style="fill: #449eec; stroke: #449eec"/>
     <use xlink:href="#mef621043e6" x="224.588977" y="53.443627" style="fill: #449eec; stroke: #449eec"/>
     <use xlink:href="#mef621043e6" x="253.454318" y="47.120132" style="fill: #449eec; stroke: #449eec"/>
     <use xlink:href="#mef621043e6" x="282.319659" y="42.801647" style="fill: #449eec; stroke: #449eec"/>
     <use xlink:href="#mef621043e6" x="311.185" y="39.747098" style="fill: #449eec; stroke: #449eec"/>
     <use xlink:href="#mef621043e6" x="340.050341" y="41.98997" style="fill: #449eec; stroke: #449eec"/>
     <use xlink:href="#mef621043e6" x="368.915682" y="41.588767" style="fill: #449eec; stroke: #449eec"/>
     <use xlink:href="#mef621043e6" x="397.781023" y="40.367314" style="fill: #449eec; stroke: #449eec"/>
     <use xlink:href="#mef621043e6" x="426.646364" y="39.496202" style="fill: #449eec; stroke: #449eec"/>
     <use xlink:href="#mef621043e6" x="455.511705" y="38.759766" style="fill: #449eec; stroke: #449eec"/>
     <use xlink:href="#mef621043e6" x="484.377045" y="38.409837" style="fill: #449eec; stroke: #449eec"/>
     <use xlink:href="#mef621043e6" x="513.242386" y="38.632023" style="fill: #449eec; stroke: #449eec"/>
     <use xlink:href="#mef621043e6" x="542.107727" y="38.067829" style="fill: #449eec; stroke: #449eec"/>
    </g>
   </g>
   <g id="line2d_32">
    <path d="M 80.262273 216.046045 
L 109.127614 211.253354 
L 137.992955 194.926856 
L 166.858295 188.568151 
L 195.723636 153.93261 
L 224.588977 90.818891 
L 253.454318 58.734509 
L 282.319659 44.593799 
L 311.185 40.573439 
L 340.050341 39.879976 
L 368.915682 40.298418 
L 397.781023 39.785128 
L 426.646364 37.66102 
L 455.511705 38.377649 
L 484.377045 37.754382 
L 513.242386 37.994485 
L 542.107727 38.176307 
" clip-path="url(#p720de8fcfb)" style="fill: none; stroke: #3193e8; stroke-width: 1.5; stroke-linecap: square"/>
    <defs>
     <path id="mdb07611c3b" d="M 0 1.5 
C 0.397805 1.5 0.77937 1.341951 1.06066 1.06066 
C 1.341951 0.77937 1.5 0.397805 1.5 0 
C 1.5 -0.397805 1.341951 -0.77937 1.06066 -1.06066 
C 0.77937 -1.341951 0.397805 -1.5 0 -1.5 
C -0.397805 -1.5 -0.77937 -1.341951 -1.06066 -1.06066 
C -1.341951 -0.77937 -1.5 -0.397805 -1.5 0 
C -1.5 0.397805 -1.341951 0.77937 -1.06066 1.06066 
C -0.77937 1.341951 -0.397805 1.5 0 1.5 
z
" style="stroke: #3193e8"/>
    </defs>
    <g clip-path="url(#p720de8fcfb)">
     <use xlink:href="#mdb07611c3b" x="80.262273" y="216.046045" style="fill: #3193e8; stroke: #3193e8"/>
     <use xlink:href="#mdb07611c3b" x="109.127614" y="211.253354" style="fill: #3193e8; stroke: #3193e8"/>
     <use xlink:href="#mdb07611c3b" x="137.992955" y="194.926856" style="fill: #3193e8; stroke: #3193e8"/>
     <use xlink:href="#mdb07611c3b" x="166.858295" y="188.568151" style="fill: #3193e8; stroke: #3193e8"/>
     <use xlink:href="#mdb07611c3b" x="195.723636" y="153.93261" style="fill: #3193e8; stroke: #3193e8"/>
     <use xlink:href="#mdb07611c3b" x="224.588977" y="90.818891" style="fill: #3193e8; stroke: #3193e8"/>
     <use xlink:href="#mdb07611c3b" x="253.454318" y="58.734509" style="fill: #3193e8; stroke: #3193e8"/>
     <use xlink:href="#mdb07611c3b" x="282.319659" y="44.593799" style="fill: #3193e8; stroke: #3193e8"/>
     <use xlink:href="#mdb07611c3b" x="311.185" y="40.573439" style="fill: #3193e8; stroke: #3193e8"/>
     <use xlink:href="#mdb07611c3b" x="340.050341" y="39.879976" style="fill: #3193e8; stroke: #3193e8"/>
     <use xlink:href="#mdb07611c3b" x="368.915682" y="40.298418" style="fill: #3193e8; stroke: #3193e8"/>
     <use xlink:href="#mdb07611c3b" x="397.781023" y="39.785128" style="fill: #3193e8; stroke: #3193e8"/>
     <use xlink:href="#mdb07611c3b" x="426.646364" y="37.66102" style="fill: #3193e8; stroke: #3193e8"/>
     <use xlink:href="#mdb07611c3b" x="455.511705" y="38.377649" style="fill: #3193e8; stroke: #3193e8"/>
     <use xlink:href="#mdb07611c3b" x="484.377045" y="37.754382" style="fill: #3193e8; stroke: #3193e8"/>
     <use xlink:href="#mdb07611c3b" x="513.242386" y="37.994485" style="fill: #3193e8; stroke: #3193e8"/>
     <use xlink:href="#mdb07611c3b" x="542.107727" y="38.176307" style="fill: #3193e8; stroke: #3193e8"/>
    </g>
   </g>
   <g id="line2d_33">
    <path d="M 80.262273 215.496691 
L 109.127614 210.892383 
L 137.992955 196.589214 
L 166.858295 188.867746 
L 195.723636 156.746071 
L 224.588977 131.78619 
L 253.454318 84.560426 
L 282.319659 53.865051 
L 311.185 46.317531 
L 340.050341 70.947204 
L 368.915682 39.190675 
L 397.781023 39.70797 
L 426.646364 39.59016 
L 455.511705 43.118762 
L 484.377045 35.887907 
L 513.242386 36.686205 
L 542.107727 36.19105 
" clip-path="url(#p720de8fcfb)" style="fill: none; stroke: #1e88e5; stroke-width: 1.5; stroke-linecap: square"/>
    <defs>
     <path id="me72ff29e0d" d="M 0 1.5 
C 0.397805 1.5 0.77937 1.341951 1.06066 1.06066 
C 1.341951 0.77937 1.5 0.397805 1.5 0 
C 1.5 -0.397805 1.341951 -0.77937 1.06066 -1.06066 
C 0.77937 -1.341951 0.397805 -1.5 0 -1.5 
C -0.397805 -1.5 -0.77937 -1.341951 -1.06066 -1.06066 
C -1.341951 -0.77937 -1.5 -0.397805 -1.5 0 
C -1.5 0.397805 -1.341951 0.77937 -1.06066 1.06066 
C -0.77937 1.341951 -0.397805 1.5 0 1.5 
z
" style="stroke: #1e88e5"/>
    </defs>
    <g clip-path="url(#p720de8fcfb)">
     <use xlink:href="#me72ff29e0d" x="80.262273" y="215.496691" style="fill: #1e88e5; stroke: #1e88e5"/>
     <use xlink:href="#me72ff29e0d" x="109.127614" y="210.892383" style="fill: #1e88e5; stroke: #1e88e5"/>
     <use xlink:href="#me72ff29e0d" x="137.992955" y="196.589214" style="fill: #1e88e5; stroke: #1e88e5"/>
     <use xlink:href="#me72ff29e0d" x="166.858295" y="188.867746" style="fill: #1e88e5; stroke: #1e88e5"/>
     <use xlink:href="#me72ff29e0d" x="195.723636" y="156.746071" style="fill: #1e88e5; stroke: #1e88e5"/>
     <use xlink:href="#me72ff29e0d" x="224.588977" y="131.78619" style="fill: #1e88e5; stroke: #1e88e5"/>
     <use xlink:href="#me72ff29e0d" x="253.454318" y="84.560426" style="fill: #1e88e5; stroke: #1e88e5"/>
     <use xlink:href="#me72ff29e0d" x="282.319659" y="53.865051" style="fill: #1e88e5; stroke: #1e88e5"/>
     <use xlink:href="#me72ff29e0d" x="311.185" y="46.317531" style="fill: #1e88e5; stroke: #1e88e5"/>
     <use xlink:href="#me72ff29e0d" x="340.050341" y="70.947204" style="fill: #1e88e5; stroke: #1e88e5"/>
     <use xlink:href="#me72ff29e0d" x="368.915682" y="39.190675" style="fill: #1e88e5; stroke: #1e88e5"/>
     <use xlink:href="#me72ff29e0d" x="397.781023" y="39.70797" style="fill: #1e88e5; stroke: #1e88e5"/>
     <use xlink:href="#me72ff29e0d" x="426.646364" y="39.59016" style="fill: #1e88e5; stroke: #1e88e5"/>
     <use xlink:href="#me72ff29e0d" x="455.511705" y="43.118762" style="fill: #1e88e5; stroke: #1e88e5"/>
     <use xlink:href="#me72ff29e0d" x="484.377045" y="35.887907" style="fill: #1e88e5; stroke: #1e88e5"/>
     <use xlink:href="#me72ff29e0d" x="513.242386" y="36.686205" style="fill: #1e88e5; stroke: #1e88e5"/>
     <use xlink:href="#me72ff29e0d" x="542.107727" y="36.19105" style="fill: #1e88e5; stroke: #1e88e5"/>
    </g>
   </g>
   <g id="patch_3">
    <path d="M 57.17 318.04 
L 57.17 26.88 
" style="fill: none; stroke: #444444; stroke-width: 0.8; stroke-linejoin: miter; stroke-linecap: square"/>
   </g>
   <g id="patch_4">
    <path d="M 565.2 318.04 
L 565.2 26.88 
" style="fill: none; stroke: #444444; stroke-width: 0.8; stroke-linejoin: miter; stroke-linecap: square"/>
   </g>
   <g id="patch_5">
    <path d="M 57.17 318.04 
L 565.2 318.04 
" style="fill: none; stroke: #444444; stroke-width: 0.8; stroke-linejoin: miter; stroke-linecap: square"/>
   </g>
   <g id="patch_6">
    <path d="M 57.17 26.88 
L 565.2 26.88 
" style="fill: none; stroke: #444444; stroke-width: 0.8; stroke-linejoin: miter; stroke-linecap: square"/>
   </g>
   <g id="text_16">
    <!-- scalar_stats — repeated -->
    <g style="fill: #e0e0e0" transform="translate(238.7725 20.88) scale(0.12 -0.12)">
     <defs>
      <path id="DejaVuSans-61" d="M 2194 1759 
Q 1497 1759 1228 1600 
Q 959 1441 959 1056 
Q 959 750 1161 570 
Q 1363 391 1709 391 
Q 2188 391 2477 730 
Q 2766 1069 2766 1631 
L 2766 1759 
L 2194 1759 
z
M 3341 1997 
L 3341 0 
L 2766 0 
L 2766 531 
Q 2569 213 2275 61 
Q 1981 -91 1556 -91 
Q 1019 -91 701 211 
Q 384 513 384 1019 
Q 384 1609 779 1909 
Q 1175 2209 1959 2209 
L 2766 2209 
L 2766 2266 
Q 2766 2663 2505 2880 
Q 2244 3097 1772 3097 
Q 1472 3097 1187 3025 
Q 903 2953 641 2809 
L 641 3341 
Q 956 3463 1253 3523 
Q 1550 3584 1831 3584 
Q 2591 3584 2966 3190 
Q 3341 2797 3341 1997 
z
" transform="scale(0.015625)"/>
      <path id="DejaVuSans-5f" d="M 3263 -1063 
L 3263 -1509 
L -63 -1509 
L -63 -1063 
L 3263 -1063 
z
" transform="scale(0.015625)"/>
      <path id="DejaVuSans-2014" d="M 313 1978 
L 6088 1978 
L 6088 1528 
L 313 1528 
L 313 1978 
z
" transform="scale(0.015625)"/>
      <path id="DejaVuSans-64" d="M 2906 2969 
L 2906 4863 
L 3481 4863 
L 3481 0 
L 2906 0 
L 2906 525 
Q 2725 213 2448 61 
Q 2172 -91 1784 -91 
Q 1150 -91 751 415 
Q 353 922 353 1747 
Q 353 2572 751 3078 
Q 1150 3584 1784 3584 
Q 2172 3584 2448 3432 
Q 2725 3281 2906 2969 
z
M 947 1747 
Q 947 1113 1208 752 
Q 1469 391 1925 391 
Q 2381 391 2643 752 
Q 2906 1113 2906 1747 
Q 2906 2381 2643 2742 
Q 2381 3103 1925 3103 
Q 1469 3103 1208 2742 
Q 947 2381 947 1747 
z
" transform="scale(0.015625)"/>
     </defs>
     <use xlink:href="#DejaVuSans-73"/>
     <use xlink:href="#DejaVuSans-63" transform="translate(52.099609 0)"/>
     <use xlink:href="#DejaVuSans-61" transform="translate(107.080078 0)"/>
     <use xlink:href="#DejaVuSans-6c" transform="translate(168.359375 0)"/>
     <use xlink:href="#DejaVuSans-61" transform="translate(196.142578 0)"/>
     <use xlink:href="#DejaVuSans-72" transform="translate(257.421875 0)"/>
     <use xlink:href="#DejaVuSans-5f" transform="translate(298.535156 0)"/>
     <use xlink:href="#DejaVuSans-73" transform="translate(348.535156 0)"/>
     <use xlink:href="#DejaVuSans-74" transform="translate(400.634766 0)"/>
     <use xlink:href="#DejaVuSans-61" transform="translate(439.84375 0)"/>
     <use xlink:href="#DejaVuSans-74" transform="translate(501.123047 0)"/>
     <use xlink:href="#DejaVuSans-73" transform="translate(540.332031 0)"/>
     <use xlink:href="#DejaVuSans-20" transform="translate(592.431641 0)"/>
     <use xlink:href="#DejaVuSans-2014" transform="translate(624.21875 0)"/>
     <use xlink:href="#DejaVuSans-20" transform="translate(724.21875 0)"/>
     <use xlink:href="#DejaVuSans-72" transform="translate(756.005859 0)"/>
     <use xlink:href="#DejaVuSans-65" transform="translate(794.869141 0)"/>
     <use xlink:href="#DejaVuSans-70" transform="translate(856.392578 0)"/>
     <use xlink:href="#DejaVuSans-65" transform="translate(919.869141 0)"/>
     <use xlink:href="#DejaVuSans-61" transform="translate(981.392578 0)"/>
     <use xlink:href="#DejaVuSans-74" transform="translate(1042.671875 0)"/>
     <use xlink:href="#DejaVuSans-65" transform="translate(1081.880859 0)"/>
     <use xlink:href="#DejaVuSans-64" transform="translate(1143.404297 0)"/>
    </g>
   </g>
   <g id="legend_1">
    <g id="patch_7">
     <path d="M 62.77 314.04 
L 113.48375 314.04 
Q 115.08375 314.04 115.08375 312.44 
L 115.08375 219.3 
Q 115.08375 217.7 113.48375 217.7 
L 62.77 217.7 
Q 61.17 217.7 61.17 219.3 
L 61.17 312.44 
Q 61.17 314.04 62.77 314.04 
z
" style="fill: #1e2436; opacity: 0.8; stroke: #444444; stroke-linejoin: miter"/>
    </g>
    <g id="text_17">
     <!-- Working set -->
     <g style="fill: #e0e0e0" transform="translate(64.42875 226.97875) scale(0.08 -0.08)">
      <defs>
       <path id="DejaVuSans-57" d="M 213 4666 
L 850 4666 
L 1831 722 
L 2809 4666 
L 3519 4666 
L 4500 722 
L 5478 4666 
L 6119 4666 
L 4947 0 
L 4153 0 
L 3169 4050 
L 2175 0 
L 1381 0 
L 213 4666 
z
" transform="scale(0.015625)"/>
       <path id="DejaVuSans-6e" d="M 3513 2113 
L 3513 0 
L 2938 0 
L 2938 2094 
Q 2938 2591 2744 2837 
Q 2550 3084 2163 3084 
Q 1697 3084 1428 2787 
Q 1159 2491 1159 1978 
L 1159 0 
L 581 0 
L 581 3500 
L 1159 3500 
L 1159 2956 
Q 1366 3272 1645 3428 
Q 1925 3584 2291 3584 
Q 2894 3584 3203 3211 
Q 3513 2838 3513 2113 
z
" transform="scale(0.015625)"/>
      </defs>
      <use xlink:href="#DejaVuSans-57"/>
      <use xlink:href="#DejaVuSans-6f" transform="translate(93.001953 0)"/>
      <use xlink:href="#DejaVuSans-72" transform="translate(154.183594 0)"/>
      <use xlink:href="#DejaVuSans-6b" transform="translate(195.296875 0)"/>
      <use xlink:href="#DejaVuSans-69" transform="translate(253.207031 0)"/>
      <use xlink:href="#DejaVuSans-6e" transform="translate(280.990234 0)"/>
      <use xlink:href="#DejaVuSans-67" transform="translate(344.369141 0)"/>
      <use xlink:href="#DejaVuSans-20" transform="translate(407.845703 0)"/>
      <use xlink:href="#DejaVuSans-73" transform="translate(439.632812 0)"/>
      <use xlink:href="#DejaVuSans-65" transform="translate(491.732422 0)"/>
      <use xlink:href="#DejaVuSans-74" transform="translate(553.255859 0)"/>
     </g>
    </g>
    <g id="line2d_34">
     <path d="M 64.37 235.92125 
L 72.37 235.92125 
L 80.37 235.92125 
" style="fill: none; stroke: #90caf9; stroke-width: 1.5; stroke-linecap: square"/>
     <g>
      <use xlink:href="#m1e8b34d96d" x="72.37" y="235.92125" style="fill: #90caf9; stroke: #90caf9"/>
     </g>
    </g>
    <g id="text_18">
     <!-- 1 MB -->
     <g style="fill: #e0e0e0" transform="translate(86.77 238.72125) scale(0.08 -0.08)">
      <use xlink:href="#DejaVuSans-31"/>
      <use xlink:href="#DejaVuSans-20" transform="translate(63.623047 0)"/>
      <use xlink:href="#DejaVuSans-4d" transform="translate(95.410156 0)"/>
      <use xlink:href="#DejaVuSans-42" transform="translate(181.689453 0)"/>
     </g>
    </g>
    <g id="line2d_35">
     <path d="M 64.37 247.66375 
L 72.37 247.66375 
L 80.37 247.66375 
" style="fill: none; stroke: #7dbff6; stroke-width: 1.5; stroke-linecap: square"/>
     <g>
      <use xlink:href="#mdd6317bbad" x="72.37" y="247.66375" style="fill: #7dbff6; stroke: #7dbff6"/>
     </g>
    </g>
    <g id="text_19">
     <!-- 2 MB -->
     <g style="fill: #e0e0e0" transform="translate(86.77 250.46375) scale(0.08 -0.08)">
      <use xlink:href="#DejaVuSans-32"/>
      <use xlink:href="#DejaVuSans-20" transform="translate(63.623047 0)"/>
      <use xlink:href="#DejaVuSans-4d" transform="translate(95.410156 0)"/>
      <use xlink:href="#DejaVuSans-42" transform="translate(181.689453 0)"/>
     </g>
    </g>
    <g id="line2d_36">
     <path d="M 64.37 259.40625 
L 72.37 259.40625 
L 80.37 259.40625 
" style="fill: none; stroke: #6ab4f2; stroke-width: 1.5; stroke-linecap: square"/>
     <g>
      <use xlink:href="#ma37b6fcbc0" x="72.37" y="259.40625" style="fill: #6ab4f2; stroke: #6ab4f2"/>
     </g>
    </g>
    <g id="text_20">
     <!-- 4 MB -->
     <g style="fill: #e0e0e0" transform="translate(86.77 262.20625) scale(0.08 -0.08)">
      <use xlink:href="#DejaVuSans-34"/>
      <use xlink:href="#DejaVuSans-20" transform="translate(63.623047 0)"/>
      <use xlink:href="#DejaVuSans-4d" transform="translate(95.410156 0)"/>
      <use xlink:href="#DejaVuSans-42" transform="translate(181.689453 0)"/>
     </g>
    </g>
    <g id="line2d_37">
     <path d="M 64.37 271.14875 
L 72.37 271.14875 
L 80.37 271.14875 
" style="fill: none; stroke: #57a9ef; stroke-width: 1.5; stroke-linecap: square"/>
     <g>
      <use xlink:href="#m31c8c93ff5" x="72.37" y="271.14875" style="fill: #57a9ef; stroke: #57a9ef"/>
     </g>
    </g>
    <g id="text_21">
     <!-- 8 MB -->
     <g style="fill: #e0e0e0" transform="translate(86.77 273.94875) scale(0.08 -0.08)">
      <defs>
       <path id="DejaVuSans-38" d="M 2034 2216 
Q 1584 2216 1326 1975 
Q 1069 1734 1069 1313 
Q 1069 891 1326 650 
Q 1584 409 2034 409 
Q 2484 409 2743 651 
Q 3003 894 3003 1313 
Q 3003 1734 2745 1975 
Q 2488 2216 2034 2216 
z
M 1403 2484 
Q 997 2584 770 2862 
Q 544 3141 544 3541 
Q 544 4100 942 4425 
Q 1341 4750 2034 4750 
Q 2731 4750 3128 4425 
Q 3525 4100 3525 3541 
Q 3525 3141 3298 2862 
Q 3072 2584 2669 2484 
Q 3125 2378 3379 2068 
Q 3634 1759 3634 1313 
Q 3634 634 3220 271 
Q 2806 -91 2034 -91 
Q 1263 -91 848 271 
Q 434 634 434 1313 
Q 434 1759 690 2068 
Q 947 2378 1403 2484 
z
M 1172 3481 
Q 1172 3119 1398 2916 
Q 1625 2713 2034 2713 
Q 2441 2713 2670 2916 
Q 2900 3119 2900 3481 
Q 2900 3844 2670 4047 
Q 2441 4250 2034 4250 
Q 1625 4250 1398 4047 
Q 1172 3844 1172 3481 
z
" transform="scale(0.015625)"/>
      </defs>
      <use xlink:href="#DejaVuSans-38"/>
      <use xlink:href="#DejaVuSans-20" transform="translate(63.623047 0)"/>
      <use xlink:href="#DejaVuSans-4d" transform="translate(95.410156 0)"/>
      <use xlink:href="#DejaVuSans-42" transform="translate(181.689453 0)"/>
     </g>
    </g>
    <g id="line2d_38">
     <path d="M 64.37 282.89125 
L 72.37 282.89125 
L 80.37 282.89125 
" style="fill: none; stroke: #449eec; stroke-width: 1.5; stroke-linecap: square"/>
     <g>
      <use xlink:href="#mef621043e6" x="72.37" y="282.89125" style="fill: #449eec; stroke: #449eec"/>
     </g>
    </g>
    <g id="text_22">
     <!-- 16 MB -->
     <g style="fill: #e0e0e0" transform="translate(86.77 285.69125) scale(0.08 -0.08)">
      <use xlink:href="#DejaVuSans-31"/>
      <use xlink:href="#DejaVuSans-36" transform="translate(63.623047 0)"/>
      <use xlink:href="#DejaVuSans-20" transform="translate(127.246094 0)"/>
      <use xlink:href="#DejaVuSans-4d" transform="translate(159.033203 0)"/>
      <use xlink:href="#DejaVuSans-42" transform="translate(245.3125 0)"/>
     </g>
    </g>
    <g id="line2d_39">
     <path d="M 64.37 294.63375 
L 72.37 294.63375 
L 80.37 294.63375 
" style="fill: none; stroke: #3193e8; stroke-width: 1.5; stroke-linecap: square"/>
     <g>
      <use xlink:href="#mdb07611c3b" x="72.37" y="294.63375" style="fill: #3193e8; stroke: #3193e8"/>
     </g>
    </g>
    <g id="text_23">
     <!-- 32 MB -->
     <g style="fill: #e0e0e0" transform="translate(86.77 297.43375) scale(0.08 -0.08)">
      <use xlink:href="#DejaVuSans-33"/>
      <use xlink:href="#DejaVuSans-32" transform="translate(63.623047 0)"/>
      <use xlink:href="#DejaVuSans-20" transform="translate(127.246094 0)"/>
      <use xlink:href="#DejaVuSans-4d" transform="translate(159.033203 0)"/>
      <use xlink:href="#DejaVuSans-42" transform="translate(245.3125 0)"/>
     </g>
    </g>
    <g id="line2d_40">
     <path d="M 64.37 306.37625 
L 72.37 306.37625 
L 80.37 306.37625 
" style="fill: none; stroke: #1e88e5; stroke-width: 1.5; stroke-linecap: square"/>
     <g>
      <use xlink:href="#me72ff29e0d" x="72.37" y="306.37625" style="fill: #1e88e5; stroke: #1e88e5"/>
     </g>
    </g>
    <g id="text_24">
     <!-- 64 MB -->
     <g style="fill: #e0e0e0" transform="translate(86.77 309.17625) scale(0.08 -0.08)">
      <use xlink:href="#DejaVuSans-36"/>
      <use xlink:href="#DejaVuSans-34" transform="translate(63.623047 0)"/>
      <use xlink:href="#DejaVuSans-20" transform="translate(127.246094 0)"/>
      <use xlink:href="#DejaVuSans-4d" transform="translate(159.033203 0)"/>
      <use xlink:href="#DejaVuSans-42" transform="translate(245.3125 0)"/>
     </g>
    </g>
   </g>
  </g>
 </g>
 <defs>
  <clipPath id="p720de8fcfb">
   <rect x="57.17" y="26.88" width="508.03" height="291.16"/>
  </clipPath>
 </defs>
</svg>
